G04 DipTrace 4.0.0.5*
G04 1 - Top.gbr*
%MOIN*%
G04 #@! TF.FileFunction,Copper,L1,Top*
G04 #@! TF.Part,Single*
G04 #@! TA.AperFunction,Conductor*
%ADD15C,0.011811*%
%ADD16C,0.007874*%
G04 #@! TA.AperFunction,CopperBalancing*
%ADD17C,0.015748*%
%ADD18C,0.012992*%
%ADD19R,0.03937X0.043307*%
%ADD20R,0.035433X0.027559*%
%ADD21R,0.027559X0.035433*%
G04 #@! TA.AperFunction,ComponentPad*
%ADD22R,0.03937X0.03937*%
%ADD23R,0.066535X0.066535*%
%ADD24C,0.066535*%
%ADD25C,0.188976*%
%ADD26C,0.187402*%
%ADD27R,0.066929X0.066929*%
%ADD28C,0.066929*%
%ADD29R,0.05315X0.015748*%
%ADD30R,0.062992X0.094488*%
%ADD31R,0.062992X0.106299*%
%ADD32R,0.090551X0.147638*%
%ADD33R,0.062992X0.011811*%
%ADD34R,0.011811X0.062992*%
%ADD35R,0.037402X0.084646*%
%ADD36R,0.127953X0.084646*%
%ADD38R,0.035433X0.03937*%
G04 #@! TA.AperFunction,ViaPad*
%ADD39C,0.017717*%
%FSLAX26Y26*%
G04*
G70*
G90*
G75*
G01*
G04 Top*
%LPD*%
G36*
X1734999Y1555407D2*
X1722471Y1538748D1*
X1721353Y1537944D1*
X1716720Y1560022D1*
X1717839Y1560827D1*
X1726647Y1563758D1*
X1734999Y1555407D1*
G37*
X1793337Y1575738D2*
D15*
X1746978D1*
X1714350Y1543110D1*
X1708692D1*
G36*
X1844518Y1843229D2*
X1827866Y1854921D1*
X1826821Y1855818D1*
X1849772Y1859639D1*
X1850818Y1858742D1*
X1855989Y1853355D1*
X1844518Y1843229D1*
G37*
X1850424Y1790304D2*
D15*
Y1851378D1*
X1833101Y1868701D1*
G36*
X2170515Y1734671D2*
X2155542Y1727943D1*
X2154972Y1727787D1*
X2126767Y1738968D1*
X2127337Y1739123D1*
X2162163Y1743023D1*
X2170515Y1734671D1*
G37*
G36*
X2187121Y1767861D2*
X2194912Y1771500D1*
X2196288Y1771577D1*
Y1750768D1*
X2194912Y1750691D1*
X2188648Y1752804D1*
X2187121Y1767861D1*
G37*
X2124046Y1733218D2*
D15*
X2160710D1*
X2190533Y1763041D1*
X2208692D1*
G36*
X2078236Y1407508D2*
X2090806Y1394980D1*
X2091304Y1393695D1*
X2070179D1*
X2069682Y1394980D1*
X2069885Y1399156D1*
X2078236Y1407508D1*
G37*
X2066959Y1459596D2*
D15*
Y1410433D1*
X2084282Y1393110D1*
Y1381201D1*
G36*
X2675295Y1991240D2*
X2669390Y2003051D1*
Y2007283D1*
X2693012D1*
Y2003051D1*
X2687106Y1991240D1*
X2675295D1*
G37*
G36*
X2687106Y1871161D2*
X2693012Y1859350D1*
Y1855118D1*
X2669390D1*
Y1859350D1*
X2675295Y1871161D1*
X2687106D1*
G37*
X2681201Y2045374D2*
D15*
Y1817028D1*
G36*
X2061055Y1604012D2*
X2060760Y1611859D1*
Y1612745D1*
X2073161D1*
Y1611859D1*
X2072866Y1604012D1*
X2061055D1*
G37*
X2066961Y1618185D2*
D15*
X2066959Y1459596D1*
G36*
X1569713Y1481547D2*
X1561865Y1481252D1*
X1560980D1*
Y1493654D1*
X1561865D1*
X1569713Y1493358D1*
Y1481547D1*
G37*
G36*
X1683101Y1549016D2*
X1694912Y1554921D1*
X1696290D1*
Y1531299D1*
X1694912D1*
X1683101Y1537205D1*
Y1549016D1*
G37*
X1555539Y1487453D2*
D15*
X1659283D1*
Y1525394D1*
X1677000Y1543110D1*
X1708692D1*
G36*
X1803573Y1874606D2*
X1815385Y1880512D1*
X1817156D1*
Y1856890D1*
X1815385D1*
X1803573Y1862795D1*
Y1874606D1*
G37*
G36*
X1561445Y1501626D2*
X1561740Y1493779D1*
Y1492893D1*
X1549339D1*
Y1493779D1*
X1549634Y1501626D1*
X1561445D1*
G37*
X1833101Y1868701D2*
D15*
X1573256D1*
X1555539Y1850984D1*
Y1487453D1*
G36*
X2072866Y1856646D2*
X2073161Y1848799D1*
Y1847913D1*
X2060760D1*
Y1848799D1*
X2061055Y1856646D1*
X2072866D1*
G37*
G36*
X1839007Y1894291D2*
X1844912Y1882480D1*
Y1881102D1*
X1821290D1*
Y1882480D1*
X1827196Y1894291D1*
X1839007D1*
G37*
X2066961Y1842472D2*
D15*
Y1882941D1*
X2014272Y1935630D1*
X1860630D1*
X1833101Y1908101D1*
Y1868701D1*
G36*
X2183101Y1768946D2*
X2194912Y1774852D1*
X2196290D1*
Y1751230D1*
X2194912D1*
X2183101Y1757135D1*
Y1768946D1*
G37*
G36*
X2081134Y1836567D2*
X2073287Y1836272D1*
X2072401D1*
Y1848673D1*
X2073287D1*
X2081134Y1848378D1*
Y1836567D1*
G37*
X2208692Y1763041D2*
D15*
X2168110D1*
X2088678Y1842472D1*
X2066961D1*
G36*
X2234282Y1757135D2*
X2222471Y1751230D1*
X2221093D1*
Y1774852D1*
X2222471D1*
X2234282Y1768946D1*
Y1757135D1*
G37*
G36*
X2675295Y1762894D2*
X2669390Y1774705D1*
Y1778937D1*
X2693012D1*
Y1774705D1*
X2687106Y1762894D1*
X2675295D1*
G37*
X2208692Y1763041D2*
D15*
X2331201D1*
X2392786D1*
X2412451Y1743375D1*
X2456652Y1699175D1*
X2681201D1*
Y1817028D1*
G36*
X2769832Y1687106D2*
X2781643Y1693012D1*
X2783415D1*
Y1669390D1*
X2781643D1*
X2769832Y1675295D1*
Y1687106D1*
G37*
X2681201Y1699175D2*
D15*
X2744476D1*
X2762450Y1681201D1*
X2799360D1*
G36*
X2325295Y1944832D2*
X2319390Y1956643D1*
Y1958415D1*
X2343012D1*
Y1956643D1*
X2337106Y1944832D1*
X2325295D1*
G37*
X2331201Y1974360D2*
D15*
Y1763041D1*
G36*
X1019832Y1193357D2*
X1031643Y1199262D1*
X1033415D1*
Y1175640D1*
X1031643D1*
X1019832Y1181546D1*
Y1193357D1*
G37*
G36*
X980921Y1473278D2*
X980626Y1481125D1*
Y1483291D1*
X993028D1*
Y1481125D1*
X992732Y1473278D1*
X980921D1*
G37*
X1049360Y1187451D2*
D15*
X1012450D1*
X986827Y1213075D1*
Y1487451D1*
G36*
X1385106Y1483021D2*
X1367905Y1469067D1*
X1364582Y1468667D1*
X1355560Y1514640D1*
X1358882Y1515041D1*
X1387100Y1501702D1*
X1385106Y1483021D1*
G37*
G36*
X1419045Y1632333D2*
X1413139Y1644144D1*
Y1645916D1*
X1436761D1*
Y1644144D1*
X1430856Y1632333D1*
X1419045D1*
G37*
X1339942Y1487451D2*
D15*
X1381201D1*
X1424950Y1531201D1*
Y1661861D1*
G36*
X2406546Y1795522D2*
X2400640Y1807333D1*
Y1809499D1*
X2424262D1*
Y1807333D1*
X2418357Y1795522D1*
X2406546D1*
G37*
X2412451Y1828987D2*
D15*
Y1743375D1*
G36*
X2903625Y1108068D2*
X2895077Y1074940D1*
X2892724Y1072587D1*
X2859791Y1105520D1*
X2862144Y1107873D1*
X2895273Y1116420D1*
X2903625Y1108068D1*
G37*
G36*
X2916070Y1578094D2*
X2915945Y1586072D1*
X2915965Y1586957D1*
X2928364Y1586690D1*
X2928344Y1585804D1*
X2927881Y1578094D1*
X2916070D1*
G37*
X2861811Y1074606D2*
D15*
X2921975Y1134770D1*
Y1592262D1*
X2922281D1*
G36*
X2936478Y1586415D2*
X2928633Y1586088D1*
X2927747Y1586084D1*
X2927696Y1598486D1*
X2928581Y1598488D1*
X2936430Y1598226D1*
X2936478Y1586415D1*
G37*
G36*
X3062058Y1598425D2*
X3073869Y1600394D1*
X3100444Y1592520D1*
X3076526Y1584646D1*
X3073869D1*
X3062058Y1586614D1*
Y1598425D1*
G37*
X2922281Y1592262D2*
D15*
X2985804Y1592520D1*
X3100444D1*
G36*
X2802264Y1811122D2*
X2790453Y1805217D1*
X2788583D1*
Y1828839D1*
X2790453D1*
X2802264Y1822933D1*
Y1811122D1*
G37*
G36*
X2810307Y1822933D2*
X2818155Y1823228D1*
X2820320D1*
Y1810827D1*
X2818155D1*
X2810307Y1811122D1*
Y1822933D1*
G37*
X2771752Y1817028D2*
D15*
X2824480D1*
G36*
X2991710Y1581391D2*
X2997615Y1569580D1*
Y1567415D1*
X2973993D1*
Y1569580D1*
X2979899Y1581391D1*
X2991710D1*
G37*
X2985804Y1547927D2*
D15*
Y1592520D1*
G36*
X1734282Y1589517D2*
X1722471Y1583111D1*
X1721095Y1583039D1*
Y1606143D1*
X1722471Y1606215D1*
X1734282Y1601328D1*
Y1589517D1*
G37*
X1793337Y1595423D2*
D15*
X1709823D1*
X1708692Y1594291D1*
G36*
X1864203Y1843112D2*
X1867037Y1854921D1*
X1867765Y1856091D1*
X1891008D1*
X1890279Y1854921D1*
X1876014Y1843112D1*
X1864203D1*
G37*
X1870109Y1790304D2*
D15*
Y1854528D1*
X1884282Y1868701D1*
G36*
X2183101Y1719438D2*
X2194912Y1723979D1*
X2196286Y1723873D1*
Y1700732D1*
X2194912Y1700839D1*
X2183101Y1707627D1*
Y1719438D1*
G37*
X2124046Y1713533D2*
D15*
X2207018D1*
X2208692Y1711860D1*
G36*
X2053180Y1406790D2*
X2050347Y1394980D1*
X2049618Y1393811D1*
X2026376D1*
X2027105Y1394980D1*
X2041369Y1406790D1*
X2053180D1*
G37*
X2047274Y1459596D2*
D15*
Y1395374D1*
X2033101Y1381201D1*
G36*
X1876014Y1724015D2*
X1871114Y1714302D1*
X1870563Y1713609D1*
X1860223Y1720456D1*
X1860774Y1721149D1*
X1864203Y1724015D1*
X1876014D1*
G37*
X1870109Y1790304D2*
D15*
Y1720109D1*
X1862451Y1712451D1*
G36*
X1910752Y1606605D2*
X1916092Y1612363D1*
X1916719Y1612989D1*
X1925488Y1604220D1*
X1924862Y1603594D1*
X1919104Y1598254D1*
X1910752Y1606605D1*
G37*
X1793337Y1595423D2*
D15*
X1907921D1*
X1924950Y1612451D1*
G36*
X2037047Y1560752D2*
X2031289Y1566092D1*
X2030663Y1566719D1*
X2039432Y1575488D1*
X2040059Y1574862D1*
X2045399Y1569104D1*
X2037047Y1560752D1*
G37*
X2047274Y1459596D2*
D15*
Y1558877D1*
X2031201Y1574950D1*
G36*
X1675295Y1598278D2*
X1675000Y1606125D1*
Y1607011D1*
X1687402D1*
Y1606125D1*
X1687106Y1598278D1*
X1675295D1*
G37*
G36*
X1683101Y1599606D2*
X1694912Y1605863D1*
X1696290Y1605901D1*
Y1582385D1*
X1694912Y1582347D1*
X1683101Y1587795D1*
Y1599606D1*
G37*
X1681201Y1612451D2*
D15*
Y1593701D1*
X1708101D1*
X1708692Y1594291D1*
G36*
X1935070Y1742736D2*
X1938796Y1739956D1*
X1939492Y1739408D1*
X1929421Y1732173D1*
X1928725Y1732721D1*
X1923980Y1736659D1*
X1935070Y1742736D1*
G37*
X1929164Y1790304D2*
D15*
Y1739488D1*
X1937451Y1731201D1*
G36*
X1733129Y1515061D2*
X1730285Y1507882D1*
X1729740Y1507184D1*
X1720079Y1514960D1*
X1720625Y1515659D1*
X1727561Y1520629D1*
X1733129Y1515061D1*
G37*
G36*
X1753967Y1522638D2*
X1824833Y1522589D1*
X1767780Y1517993D1*
X1764979Y1513143D1*
X1761841Y1513412D1*
X1753967Y1514764D1*
Y1522638D1*
G37*
X1721488Y1506843D2*
D16*
Y1508988D1*
X1731201Y1518701D1*
X1793337D1*
Y1516682D1*
G36*
X2156134Y1599362D2*
X2163982Y1601626D1*
X2164867D1*
Y1589224D1*
X2163982D1*
X2156134Y1591488D1*
Y1599362D1*
G37*
G36*
X2163416Y1591488D2*
X2155542Y1589516D1*
X2149636Y1595424D1*
X2155542Y1601329D1*
X2163416Y1599362D1*
Y1591488D1*
G37*
X2170307Y1595425D2*
D16*
X2144075D1*
X2144072Y1595423D1*
X2124046D1*
G36*
X1867551Y1629874D2*
X1859703Y1627610D1*
X1858818D1*
Y1640012D1*
X1859703D1*
X1867551Y1637748D1*
Y1629874D1*
G37*
G36*
X1874046Y1498966D2*
X1876014Y1491092D1*
Y1487942D1*
X1870109Y1459596D1*
X1864203Y1491092D1*
X1866172Y1498966D1*
X1874046D1*
G37*
X1853378Y1633811D2*
D16*
X1943654D1*
Y1563681D1*
X1929874Y1549902D1*
X1883890D1*
X1870109Y1536121D1*
Y1459596D1*
G36*
X1502512Y1647984D2*
X1504776Y1640136D1*
Y1639251D1*
X1492374D1*
Y1640136D1*
X1494638Y1647984D1*
X1502512D1*
G37*
G36*
X2373751Y2177941D2*
X2380907Y2212463D1*
X2383260Y2214815D1*
X2416193Y2181882D1*
X2413840Y2179529D1*
X2379319Y2172374D1*
X2373751Y2177941D1*
G37*
X1498575Y1633811D2*
D16*
Y1854824D1*
X1778081Y2134331D1*
X2335709D1*
X2414173Y2212795D1*
G36*
X2335138Y2051131D2*
X2339075Y2043257D1*
Y2041486D1*
X2323327D1*
Y2043257D1*
X2327264Y2051131D1*
X2335138D1*
G37*
G36*
X2437543Y2092165D2*
X2445390Y2094429D1*
X2448717D1*
Y2082028D1*
X2445390D1*
X2437543Y2084291D1*
Y2092165D1*
G37*
X2331201Y2025541D2*
D16*
Y2057424D1*
X2362005Y2088228D1*
X2451717D1*
G36*
X2307125Y2152047D2*
X2309963Y2157660D1*
X2310567Y2158308D1*
X2317672Y2148143D1*
X2317067Y2147495D1*
X2311857Y2144377D1*
X2307125Y2152047D1*
G37*
G36*
X1885857Y1420226D2*
X1883888Y1428100D1*
X1889794Y1459596D1*
X1895699Y1431249D1*
Y1428100D1*
X1893731Y1420226D1*
X1885857D1*
G37*
X2318701Y2156201D2*
D16*
X2310610Y2148110D1*
X1498110D1*
X1268701Y1918701D1*
Y1374951D1*
X1306201Y1337451D1*
X1414365D1*
X1439315Y1362402D1*
X1833383D1*
X1889794Y1418812D1*
Y1459596D1*
G36*
X2192713Y1606507D2*
X2199861Y1602559D1*
X2200488Y1601932D1*
X2191719Y1593163D1*
X2191092Y1593790D1*
X2187144Y1600938D1*
X2192713Y1606507D1*
G37*
G36*
X2163416Y1611171D2*
X2155542Y1609202D1*
X2152392D1*
X2124046Y1615108D1*
X2155542Y1621013D1*
X2163416Y1619045D1*
Y1611171D1*
G37*
X2199950Y1593701D2*
D16*
X2178543Y1615108D1*
X2124046D1*
G36*
X1901100Y1499811D2*
X1893934Y1503596D1*
X1893297Y1504211D1*
X1901921Y1513122D1*
X1902559Y1512508D1*
X1906668Y1505379D1*
X1901100Y1499811D1*
G37*
G36*
X1913416Y1497000D2*
X1915385Y1491092D1*
Y1487942D1*
X1909479Y1459596D1*
X1903573Y1491092D1*
X1905542Y1497000D1*
X1913416D1*
G37*
X1893701Y1512451D2*
D16*
X1894028D1*
X1909479Y1497000D1*
Y1459596D1*
G36*
X1126133Y1183513D2*
X1118257Y1179576D1*
X1116486D1*
Y1195325D1*
X1118257D1*
X1126133Y1191388D1*
Y1183513D1*
G37*
G36*
X1213374Y1115028D2*
X1247895Y1107873D1*
X1250248Y1105520D1*
X1217315Y1072587D1*
X1214962Y1074938D1*
X1207806Y1109461D1*
X1213374Y1115028D1*
G37*
X1100541Y1187451D2*
D16*
X1135383D1*
X1248228Y1074606D1*
G36*
X1557874Y1308514D2*
X1550026Y1306251D1*
X1549140D1*
Y1318652D1*
X1550026D1*
X1557874Y1316388D1*
Y1308514D1*
G37*
G36*
X1925227Y1420226D2*
X1923259Y1428100D1*
X1929164Y1459596D1*
X1935070Y1431249D1*
Y1428100D1*
X1933101Y1420226D1*
X1925227D1*
G37*
X1543701Y1312451D2*
D16*
X1906255D1*
X1929164Y1335361D1*
Y1459596D1*
G36*
X1832707Y1532430D2*
X1824833Y1530462D1*
X1821684D1*
X1793337Y1536367D1*
X1824833Y1542273D1*
X1832707Y1540304D1*
Y1532430D1*
G37*
G36*
X1772680Y1437997D2*
X1768732Y1430849D1*
X1768105Y1430222D1*
X1759336Y1438991D1*
X1759963Y1439618D1*
X1767112Y1443566D1*
X1772680Y1437997D1*
G37*
X1793337Y1536367D2*
D16*
X1838534D1*
X1843701Y1531201D1*
Y1514587D1*
X1759874Y1430760D1*
G36*
X1745701Y1434697D2*
X1753549Y1436961D1*
X1754434D1*
Y1424559D1*
X1753549D1*
X1745701Y1426823D1*
Y1434697D1*
G37*
G36*
X2791929Y2271378D2*
X2772579Y2300849D1*
Y2304176D1*
X2819154D1*
Y2300849D1*
X2799803Y2271378D1*
X2791929D1*
G37*
X1759874Y1430760D2*
D16*
X1536839D1*
X1523059Y1444539D1*
Y1854308D1*
X1789299Y2120549D1*
X2782085D1*
X2795866Y2134329D1*
Y2324606D1*
G36*
X1832707Y1552114D2*
X1824833Y1550146D1*
X1793337Y1556052D1*
X1821684Y1561957D1*
X1824833D1*
X1832707Y1559988D1*
Y1552114D1*
G37*
G36*
X1834283Y1559988D2*
X1842131Y1562252D1*
X1843017D1*
X1843016Y1549850D1*
X1842130D1*
X1834283Y1552114D1*
Y1559988D1*
G37*
X1793337Y1556052D2*
D16*
X1848457Y1556051D1*
G36*
X1795374Y1777264D2*
X1787526Y1775000D1*
X1786640D1*
Y1787402D1*
X1787526D1*
X1795374Y1785138D1*
Y1777264D1*
G37*
G36*
X1832707Y1611171D2*
X1824833Y1609202D1*
X1821684D1*
X1793337Y1615108D1*
X1824833Y1621013D1*
X1832707Y1619045D1*
Y1611171D1*
G37*
X1781201Y1781201D2*
D16*
X1806201D1*
X1834676Y1752726D1*
Y1615108D1*
X1793337D1*
G36*
X1379718Y1752707D2*
X1344986Y1754369D1*
X1342293Y1756356D1*
X1370425Y1793818D1*
X1373119Y1791832D1*
X1385285Y1758274D1*
X1379718Y1752707D1*
G37*
G36*
X1408387Y1735173D2*
X1415696Y1730759D1*
X1416671Y1729785D1*
X1412144Y1714803D1*
X1411171Y1715777D1*
X1402819Y1729605D1*
X1408387Y1735173D1*
G37*
X1339942Y1787451D2*
D16*
X1350541D1*
X1424950Y1713042D1*
G36*
X1963614Y1603350D2*
X1961350Y1611198D1*
Y1612084D1*
X1973752D1*
Y1611198D1*
X1971488Y1603350D1*
X1963614D1*
G37*
G36*
X1992156Y1498966D2*
X1994125Y1491092D1*
Y1487942D1*
X1988219Y1459596D1*
X1982314Y1491092D1*
X1984282Y1498966D1*
X1992156D1*
G37*
X1967551Y1617524D2*
D16*
Y1500937D1*
X1988219D1*
Y1459596D1*
G36*
X1889811Y1901782D2*
X1881963Y1899518D1*
X1881077D1*
Y1911920D1*
X1881963D1*
X1889811Y1909656D1*
Y1901782D1*
G37*
G36*
X2031526Y1829675D2*
X2033495Y1821801D1*
Y1818651D1*
X2027589Y1790304D1*
X2021684Y1821801D1*
X2023652Y1829675D1*
X2031526D1*
G37*
X1875638Y1905719D2*
D16*
X2005332D1*
X2027589Y1883462D1*
Y1790304D1*
G36*
X1974051Y1864033D2*
X1967919Y1861731D1*
X1967034Y1861678D1*
X1968644Y1873975D1*
X1969529Y1874028D1*
X1976533Y1872306D1*
X1974051Y1864033D1*
G37*
G36*
X2011841Y1829675D2*
X2013810Y1821801D1*
Y1818651D1*
X2007904Y1790304D1*
X2001999Y1821801D1*
X2003967Y1829675D1*
X2011841D1*
G37*
X1962451Y1868701D2*
D16*
X1974951D1*
X2007904Y1835748D1*
Y1790304D1*
G36*
X1970504Y1758217D2*
X1972768Y1750369D1*
Y1749483D1*
X1960366D1*
Y1750369D1*
X1962630Y1758217D1*
X1970504D1*
G37*
G36*
X1962630Y1750934D2*
X1962627Y1758808D1*
X1963350Y1761874D1*
X1967257Y1764745D1*
X1974441Y1758808D1*
X1970504Y1750934D1*
X1962630D1*
G37*
X1966567Y1744043D2*
D16*
Y1768312D1*
X1968534Y1770280D1*
Y1790304D1*
G36*
X1932189Y1855895D2*
X1925041Y1859843D1*
X1924413Y1860470D1*
X1933182Y1869239D1*
X1933810Y1868612D1*
X1937757Y1861463D1*
X1932189Y1855895D1*
G37*
G36*
X1952786Y1829675D2*
X1954755Y1821801D1*
Y1818651D1*
X1948849Y1790304D1*
X1942944Y1821801D1*
X1944912Y1829675D1*
X1952786D1*
G37*
X1924951Y1868701D2*
D16*
X1948849Y1844803D1*
Y1790304D1*
G36*
X1913417Y1744933D2*
X1915681Y1737085D1*
Y1736199D1*
X1903280D1*
Y1737085D1*
X1905543Y1744933D1*
X1913417D1*
G37*
G36*
X1905543Y1750934D2*
X1903572Y1758808D1*
X1909480Y1764714D1*
X1915386Y1758808D1*
X1913417Y1750934D1*
X1905543D1*
G37*
X1909480Y1730760D2*
D16*
Y1770278D1*
X1909479Y1770280D1*
Y1790304D1*
G36*
X1990189Y1534858D2*
X1992453Y1527010D1*
Y1526125D1*
X1980051D1*
Y1527010D1*
X1982315Y1534858D1*
X1990189D1*
G37*
G36*
X1885857Y1750934D2*
X1883888Y1758808D1*
X1889794Y1790304D1*
X1895699Y1761958D1*
Y1758808D1*
X1893731Y1750934D1*
X1885857D1*
G37*
X1986252Y1520685D2*
D16*
Y1633811D1*
X1972472Y1647591D1*
X1903573D1*
X1889794Y1661370D1*
Y1790304D1*
G36*
X2530709Y1021378D2*
X2511358Y1050849D1*
Y1054176D1*
X2557933D1*
Y1050849D1*
X2538583Y1021378D1*
X2530709D1*
G37*
G36*
X2003967Y1420226D2*
X2001999Y1428100D1*
X2007904Y1459596D1*
X2013810Y1431249D1*
Y1428100D1*
X2011841Y1420226D1*
X2003967D1*
G37*
X2534646Y1074606D2*
D16*
Y928937D1*
X2520866Y915157D1*
X2019319D1*
X2005539Y928937D1*
Y1403638D1*
X2007904Y1406003D1*
Y1459596D1*
G36*
X2023652Y1498681D2*
X2020051Y1505071D1*
X2019861Y1505937D1*
X2032041Y1508270D1*
X2032231Y1507406D1*
X2031526Y1498681D1*
X2023652D1*
G37*
G36*
X2031526Y1498966D2*
X2033495Y1491092D1*
Y1487942D1*
X2027589Y1459596D1*
X2021684Y1491092D1*
X2023652Y1498966D1*
X2031526D1*
G37*
X2024950Y1512451D2*
D16*
X2027589D1*
Y1459596D1*
G36*
X2306496Y1038783D2*
X2308760Y1030936D1*
Y1030050D1*
X2296358D1*
Y1030936D1*
X2298622Y1038783D1*
X2306496D1*
G37*
G36*
X2163416Y1512745D2*
X2155542Y1510777D1*
X2152392D1*
X2124046Y1516682D1*
X2155542Y1522588D1*
X2163416Y1520619D1*
Y1512745D1*
G37*
X2302559Y1024610D2*
D16*
Y1384843D1*
X2170719Y1516682D1*
X2124046D1*
G36*
X2484055Y1016024D2*
X2503406Y986554D1*
Y983227D1*
X2456831D1*
Y986554D1*
X2476181Y1016024D1*
X2484055D1*
G37*
G36*
X2163416Y1532430D2*
X2155542Y1530462D1*
X2152392D1*
X2124046Y1536367D1*
X2155542Y1542273D1*
X2163416Y1540304D1*
Y1532430D1*
G37*
X2480118Y962795D2*
D16*
Y1232283D1*
X2176034Y1536367D1*
X2124046D1*
G36*
X2811220Y1016024D2*
X2830571Y986554D1*
Y983227D1*
X2783996D1*
Y986554D1*
X2803346Y1016024D1*
X2811220D1*
G37*
G36*
X2163416Y1552115D2*
X2155542Y1550147D1*
X2152392D1*
X2124046Y1556052D1*
X2155542Y1561958D1*
X2163416Y1559990D1*
Y1552115D1*
G37*
X2807283Y962795D2*
D16*
Y1092618D1*
X2343849Y1556052D1*
X2124046D1*
G36*
X2585236Y920423D2*
X2566110Y938819D1*
Y942146D1*
X2612236D1*
Y938819D1*
X2593110Y920423D1*
X2585236D1*
G37*
G36*
X1069291Y2271378D2*
X1049941Y2300848D1*
Y2304175D1*
X1096516D1*
Y2300848D1*
X1077165Y2271378D1*
X1069291D1*
G37*
X2589173Y962795D2*
D16*
Y920423D1*
X2562451Y893701D1*
X2012450D1*
X1987450Y918701D1*
Y1264278D1*
X1948850Y1302878D1*
X1935071Y1289098D1*
X1285803D1*
X1073228Y1501673D1*
Y2324606D1*
G36*
X1944912Y1420226D2*
X1942944Y1428100D1*
X1948849Y1459596D1*
X1954755Y1431249D1*
Y1428100D1*
X1952786Y1420226D1*
X1944912D1*
G37*
X1948850Y1302878D2*
D16*
Y1377260D1*
X1948849Y1377261D1*
Y1459596D1*
G36*
X1921302Y1694690D2*
X1917354Y1687542D1*
X1916727Y1686915D1*
X1907958Y1695684D1*
X1908585Y1696311D1*
X1915734Y1700259D1*
X1921302Y1694690D1*
G37*
G36*
X2063022Y1750934D2*
X2061054Y1758808D1*
X2066959Y1790304D1*
X2072865Y1761958D1*
Y1758808D1*
X2070896Y1750934D1*
X2063022D1*
G37*
X1908496Y1687453D2*
D16*
X1928673Y1707630D1*
X2053178D1*
X2066959Y1721411D1*
Y1790304D1*
G36*
X1999058Y1684726D2*
X1995110Y1677577D1*
X1994483Y1676950D1*
X1985714Y1685719D1*
X1986341Y1686346D1*
X1993490Y1690294D1*
X1999058Y1684726D1*
G37*
G36*
X2084676Y1697785D2*
X2092550Y1699753D1*
X2124046Y1693848D1*
X2095699Y1687942D1*
X2092550D1*
X2084676Y1689911D1*
Y1697785D1*
G37*
X1986252Y1677488D2*
D16*
X2002612Y1693848D1*
X2124046D1*
G36*
X1375020Y1846807D2*
X1340277Y1853988D1*
X1337911Y1856354D1*
X1371039Y1889483D1*
X1373406Y1887117D1*
X1380587Y1852374D1*
X1375020Y1846807D1*
G37*
G36*
X1846487Y1420226D2*
X1844518Y1428100D1*
X1850424Y1459596D1*
X1856329Y1431249D1*
Y1428100D1*
X1854361Y1420226D1*
X1846487D1*
G37*
X1339942Y1887451D2*
D16*
X1474950Y1752444D1*
Y1418701D1*
X1512450Y1381201D1*
X1812451D1*
X1850424Y1419173D1*
Y1459596D1*
G36*
X3069843Y1623768D2*
X3073869Y1625986D1*
X3074656Y1625965D1*
Y1611005D1*
X3073869Y1611026D1*
X3067575Y1614957D1*
X3069843Y1623768D1*
G37*
G36*
X2358010Y1621604D2*
X2351999Y1619318D1*
X2350625Y1619419D1*
Y1633879D1*
X2351999Y1633780D1*
X2356618Y1631201D1*
X2358010Y1621604D1*
G37*
X3100444Y1618110D2*
D16*
X3069932D1*
X3064026Y1624016D1*
X3053003D1*
X2412867D1*
X2393823Y1643060D1*
X2374046D1*
X2355936Y1624950D1*
X2334282D1*
G36*
X3067575Y1646854D2*
X3073869Y1650785D1*
X3074656Y1650806D1*
Y1635846D1*
X3073869Y1635825D1*
X3069843Y1638043D1*
X3067575Y1646854D1*
G37*
G36*
X2356618Y1668699D2*
X2351999Y1666121D1*
X2350625Y1666021D1*
Y1680482D1*
X2351999Y1680583D1*
X2358010Y1678297D1*
X2356618Y1668699D1*
G37*
X3100444Y1643701D2*
D16*
X3069932D1*
X3064026Y1637795D1*
X3053003D1*
X2418576D1*
X2399531Y1656840D1*
X2374046D1*
X2355936Y1674950D1*
X2334282D1*
G36*
X2846604Y1659547D2*
X2842667Y1667421D1*
Y1668799D1*
X2858415D1*
Y1667421D1*
X2854478Y1659547D1*
X2846604D1*
G37*
X2850541Y1681201D2*
D16*
Y1637795D1*
X2418576D1*
G36*
X2260765Y1631201D2*
X2265385Y1633780D1*
X2266759Y1633879D1*
Y1619419D1*
X2265385Y1619318D1*
X2259373Y1621604D1*
X2260765Y1631201D1*
G37*
G36*
X2161325Y1651000D2*
X2155542Y1648571D1*
X2154963Y1648689D1*
X2124046Y1654478D1*
X2155543Y1660383D1*
X2157643Y1658210D1*
X2161325Y1651000D1*
G37*
X2283101Y1624950D2*
D16*
X2261448D1*
X2243337Y1643060D1*
X2232314D1*
X2206083Y1643062D1*
X2191713Y1657430D1*
X2173455D1*
X2162432D1*
X2159479Y1654478D1*
X2124046D1*
G36*
X2259373Y1678297D2*
X2265385Y1680583D1*
X2266759Y1680482D1*
Y1666021D1*
X2265385Y1666121D1*
X2260765Y1668699D1*
X2259373Y1678297D1*
G37*
G36*
X2157643Y1670430D2*
X2155543Y1668257D1*
X2124046Y1674163D1*
X2154963Y1679951D1*
X2155542Y1680070D1*
X2161325Y1677640D1*
X2157643Y1670430D1*
G37*
X2283101Y1674950D2*
D16*
X2261448D1*
X2243337Y1656840D1*
X2232314D1*
X2211789Y1656841D1*
X2197419Y1671210D1*
X2173455D1*
X2162432D1*
X2159479Y1674163D1*
X2124046D1*
G36*
X1589175Y1724867D2*
X1593094Y1719882D1*
X1593407Y1718138D1*
X1578302D1*
X1577988Y1719882D1*
X1580217Y1726802D1*
X1589175Y1724867D1*
G37*
G36*
X1753967Y1658415D2*
X1761841Y1660383D1*
X1793337Y1654478D1*
X1764991Y1648572D1*
X1761841D1*
X1753967Y1650541D1*
Y1658415D1*
G37*
X1585070Y1700197D2*
D16*
X1583692D1*
Y1724951D1*
X1596192Y1737451D1*
X1633692D1*
X1652440D1*
X1735413Y1654478D1*
X1793337D1*
G36*
X1629755Y1742520D2*
X1625818Y1750394D1*
Y1752165D1*
X1641566D1*
Y1750394D1*
X1637629Y1742520D1*
X1629755D1*
G37*
X1633692Y1768110D2*
D16*
Y1737451D1*
G36*
X1753967Y1638730D2*
X1761841Y1640698D1*
X1793337Y1634793D1*
X1764991Y1628887D1*
X1761841D1*
X1753967Y1630856D1*
Y1638730D1*
G37*
G36*
X1657904Y1630856D2*
X1650030Y1628265D1*
X1648269Y1628463D1*
Y1643659D1*
X1650030Y1643462D1*
X1657904Y1638730D1*
Y1630856D1*
G37*
X1793337Y1634793D2*
D16*
X1634726D1*
X1632314Y1637205D1*
G36*
X1629755Y1609646D2*
X1625388Y1617520D1*
X1625274Y1619484D1*
X1640752D1*
X1640866Y1617520D1*
X1637629Y1609646D1*
X1629755D1*
G37*
G36*
X1637629Y1594882D2*
X1641566Y1587008D1*
Y1585236D1*
X1625818D1*
Y1587008D1*
X1629755Y1594882D1*
X1637629D1*
G37*
X1632314Y1637205D2*
D16*
X1633692D1*
Y1569291D1*
D39*
X986827Y1487451D3*
X2824480Y1817028D3*
X2451717Y2088228D3*
X443701Y443701D3*
X3218701D3*
X443701Y2843701D3*
X3218701D3*
X974950Y2012451D3*
X1443701D3*
X1224950Y1756201D3*
X1737451D3*
X912451Y2124951D3*
X1662451Y2056201D3*
X1799950Y1918701D3*
X1962451Y1962451D3*
X2062451Y2349950D3*
X1331201D3*
X1581201Y2006201D3*
X1756201Y1837451D3*
X1456201Y1612451D3*
X2124951Y1462451D3*
X2512451Y1156201D3*
X2418701Y1231201D3*
X1081201Y1268701D3*
X1306201Y1262451D3*
X1087451Y1118701D3*
X974950D3*
X1299950D3*
X1518701D3*
X1399950Y1249950D3*
X1681201D3*
X1918701Y1531201D3*
X2324950Y1249950D3*
X2237451Y1168701D3*
X1737451D3*
X1908161Y1376104D3*
X2112451Y1343701D3*
X2043701Y2074951D3*
Y1981201D3*
X2031201Y1574950D3*
Y1662451D3*
X2281201Y1518701D3*
X2656201Y1149950D3*
X2412451Y1587451D3*
X2856201Y1149951D3*
X2206201Y2087451D3*
X2893701D3*
X3206201Y1399950D3*
Y1887451D3*
X2387451Y2049950D3*
X737451Y1643701D3*
X1018701Y1456201D3*
X1224950D3*
X1456201Y1712451D3*
X1731201D3*
X1862451D3*
X1037451Y2137451D3*
X1106201Y2068701D3*
X1137451Y2137451D3*
X1381201Y2081201D3*
X1331201Y2174950D3*
X1968701D3*
X1862451Y1662451D3*
X1924950Y1612451D3*
X2243701Y1712451D3*
X2431201Y1674950D3*
X2731201Y1662450D3*
X2899950Y1893701D3*
X2887451Y1456201D3*
X1681201Y1612451D3*
X1599950Y1543701D3*
X1604199Y1841563D3*
X1578676Y1766450D3*
X1637451Y1462451D3*
X1549950Y1456201D3*
X1781201Y1493701D3*
X1737451Y1462451D3*
X1687451Y1512451D3*
X1456201Y1456201D3*
X1381201Y1537451D3*
X1499950Y1512451D3*
X1426625Y1763816D3*
X1456201Y1337451D3*
X1731201Y1999950D3*
X1649951Y1918701D3*
X1856201Y2093701D3*
X1937451Y1731201D3*
X1974950Y1406201D3*
Y1312451D3*
X1681201Y1656201D3*
X962451Y1268701D3*
X849950Y1156201D3*
X2118701Y1768701D3*
X1481201Y2081201D3*
X2637451Y1362451D3*
X2887451D3*
X2662451Y1587451D3*
X3040567Y1523307D3*
X2749951Y1587451D3*
X2418701Y999950D3*
Y937451D3*
X1299950Y1637451D3*
X1499950Y1606201D3*
Y1456201D3*
X1562451Y1406201D3*
X1687451D3*
X1785803Y1338630D3*
X837451Y1556201D3*
X856201Y1456201D3*
X2887451Y1587451D3*
X2516541Y2147324D3*
X2468701Y1737451D3*
X2631201D3*
X2749951Y1931201D3*
X2612451D3*
X593701Y2793701D3*
X793701D3*
X993701D3*
X1193701D3*
X1393701D3*
X1593701D3*
X1793701D3*
X1993701D3*
X2193701D3*
X2393701D3*
X2593701D3*
X2793701D3*
X2993701D3*
X3193701D3*
Y2593701D3*
Y2393701D3*
Y1993701D3*
Y1193701D3*
Y793701D3*
Y593701D3*
X2793701D3*
X2993701D3*
X2593701D3*
X2393701D3*
X2193701D3*
X1993701D3*
X1793701D3*
X1593701D3*
X1393701D3*
X1193701D3*
X993701D3*
X793701D3*
X593701D3*
Y793701D3*
Y1193701D3*
Y1393701D3*
Y1593701D3*
Y1793701D3*
Y1993701D3*
Y2393701D3*
Y2593701D3*
X1555539Y1487453D3*
X2066961Y1618185D3*
Y1842472D3*
X2922281Y1592262D3*
X2170307Y1595425D3*
X2199950Y1593701D3*
X1759874Y1430760D3*
X1848457Y1556051D3*
X1721488Y1506843D3*
X1781201Y1781201D3*
X1967551Y1617524D3*
X1875638Y1905719D3*
X1962451Y1868701D3*
X1966567Y1744043D3*
X1924951Y1868701D3*
X1909480Y1730760D3*
X1986252Y1520685D3*
X2024950Y1512451D3*
X2302559Y1024610D3*
X1908496Y1687453D3*
X1986252Y1677488D3*
X1853378Y1633811D3*
X1498575D3*
X2318701Y2156201D3*
X1893701Y1512451D3*
X1543701Y1312451D3*
X429142Y2844226D2*
D17*
X3233263D1*
X429142Y2828609D2*
X3233263D1*
X429142Y2812992D2*
X3233263D1*
X429142Y2797375D2*
X3233263D1*
X429142Y2781759D2*
X3233263D1*
X429142Y2766142D2*
X3233263D1*
X429142Y2750525D2*
X3233263D1*
X429142Y2734908D2*
X3233263D1*
X429142Y2719291D2*
X3233263D1*
X429142Y2703675D2*
X3233263D1*
X429142Y2688058D2*
X3233263D1*
X429142Y2672441D2*
X3233263D1*
X429142Y2656824D2*
X3233263D1*
X429142Y2641207D2*
X3233263D1*
X429142Y2625591D2*
X3233263D1*
X429142Y2609974D2*
X3233263D1*
X429142Y2594357D2*
X3233263D1*
X429142Y2578740D2*
X3233263D1*
X429142Y2563123D2*
X3233263D1*
X429142Y2547507D2*
X3233263D1*
X429142Y2531890D2*
X3233263D1*
X429142Y2516273D2*
X3233263D1*
X429142Y2500656D2*
X3233263D1*
X429142Y2485039D2*
X3233263D1*
X429142Y2469423D2*
X3233263D1*
X429142Y2453806D2*
X3233263D1*
X429142Y2438189D2*
X3233263D1*
X429142Y2422572D2*
X3233263D1*
X429142Y2406955D2*
X3233263D1*
X429142Y2391339D2*
X3233263D1*
X429142Y2375722D2*
X501057D1*
X552496D2*
X1484909D1*
X1536348D2*
X1783721D1*
X1841881D2*
X3095529D1*
X3153689D2*
X3233263D1*
X429142Y2360105D2*
X464516D1*
X589021D2*
X819370D1*
X890879D2*
X928422D1*
X999931D2*
X1037474D1*
X1108983D2*
X1146526D1*
X1218035D2*
X1448384D1*
X1572888D2*
X1749134D1*
X1876453D2*
X2105787D1*
X2177296D2*
X2214839D1*
X2286348D2*
X2323891D1*
X2395400D2*
X2432943D1*
X2504452D2*
X2541995D1*
X2613504D2*
X2651063D1*
X2722572D2*
X2760115D1*
X2831624D2*
X3060942D1*
X3188277D2*
X3233263D1*
X429142Y2344488D2*
X445877D1*
X607676D2*
X808451D1*
X901782D2*
X917503D1*
X1010834D2*
X1026570D1*
X1119887D2*
X1135622D1*
X1228954D2*
X1429729D1*
X1591528D2*
X1730802D1*
X1894785D2*
X2094868D1*
X2188200D2*
X2203920D1*
X2297252D2*
X2312988D1*
X2406304D2*
X2422040D1*
X2515371D2*
X2531092D1*
X2624423D2*
X2640144D1*
X2733475D2*
X2749196D1*
X2842527D2*
X3042626D1*
X3206593D2*
X3233263D1*
X620086Y2328871D2*
X804452D1*
X1232952D2*
X1417318D1*
X1603939D2*
X1718545D1*
X1907042D2*
X2090870D1*
X2846541D2*
X3030353D1*
X3218865D2*
X3233263D1*
X628606Y2313255D2*
X805590D1*
X904643D2*
X914642D1*
X1013695D2*
X1023694D1*
X1122762D2*
X1132762D1*
X1231814D2*
X1408798D1*
X1612458D2*
X1710102D1*
X1915485D2*
X2092008D1*
X2191060D2*
X2201060D1*
X2300112D2*
X2310112D1*
X2409180D2*
X2419179D1*
X2518232D2*
X2528231D1*
X2627284D2*
X2637283D1*
X2736336D2*
X2746335D1*
X2845388D2*
X3021910D1*
X634174Y2297638D2*
X812295D1*
X897938D2*
X921348D1*
X1006990D2*
X1030415D1*
X1116042D2*
X1139467D1*
X1225109D2*
X1403231D1*
X1618026D2*
X1704581D1*
X1921006D2*
X2098713D1*
X2184355D2*
X2207765D1*
X2293407D2*
X2316832D1*
X2402459D2*
X2425884D1*
X2511527D2*
X2534936D1*
X2620579D2*
X2643988D1*
X2729631D2*
X2753040D1*
X2838683D2*
X3016389D1*
X637249Y2282021D2*
X828751D1*
X881482D2*
X937803D1*
X990550D2*
X1041580D1*
X1104877D2*
X1155907D1*
X1208654D2*
X1400155D1*
X1621101D2*
X1701521D1*
X1924066D2*
X2115168D1*
X2167900D2*
X2224220D1*
X2276967D2*
X2333272D1*
X2386019D2*
X2442324D1*
X2495071D2*
X2551392D1*
X2604123D2*
X2660444D1*
X2713175D2*
X2764206D1*
X2827518D2*
X3013344D1*
X638034Y2266404D2*
X1051699D1*
X1094757D2*
X1399371D1*
X1621886D2*
X1700752D1*
X1924851D2*
X2774340D1*
X2817383D2*
X3012560D1*
X636588Y2250787D2*
X767635D1*
X833546D2*
X876687D1*
X942598D2*
X985739D1*
X1160718D2*
X1185957D1*
X1287671D2*
X1400817D1*
X1620440D2*
X1702182D1*
X1923405D2*
X2054052D1*
X2119963D2*
X2163104D1*
X2229015D2*
X2272156D1*
X2338083D2*
X2381208D1*
X2447135D2*
X2490276D1*
X2556187D2*
X2599328D1*
X2665239D2*
X2708380D1*
X2901244D2*
X3013990D1*
X632805Y2235171D2*
X755117D1*
X846065D2*
X864169D1*
X955132D2*
X973221D1*
X1173236D2*
X1185957D1*
X1287671D2*
X1404600D1*
X1616672D2*
X1705935D1*
X1919653D2*
X2041534D1*
X2132482D2*
X2150586D1*
X2241549D2*
X2259638D1*
X2350601D2*
X2368690D1*
X2459653D2*
X2477742D1*
X2568705D2*
X2586809D1*
X2677757D2*
X2695862D1*
X2901244D2*
X3017743D1*
X626438Y2219554D2*
X750211D1*
X850970D2*
X859263D1*
X960038D2*
X968315D1*
X1287671D2*
X1410967D1*
X1610290D2*
X1712255D1*
X1913332D2*
X2036628D1*
X2137388D2*
X2145680D1*
X2246455D2*
X2254732D1*
X2355507D2*
X2363784D1*
X2464559D2*
X2472836D1*
X2573611D2*
X2581904D1*
X2682663D2*
X2690956D1*
X2901244D2*
X3024063D1*
X3225155D2*
X3233263D1*
X616903Y2203937D2*
X750534D1*
X850647D2*
X859601D1*
X959699D2*
X968653D1*
X1177804D2*
X1185957D1*
X1287671D2*
X1420502D1*
X1600755D2*
X1721698D1*
X1903905D2*
X2036951D1*
X2137065D2*
X2146018D1*
X2246117D2*
X2255070D1*
X2464221D2*
X2473175D1*
X2573273D2*
X2582227D1*
X2682340D2*
X2691294D1*
X2901244D2*
X3033506D1*
X3215713D2*
X3233263D1*
X429142Y2188320D2*
X450521D1*
X603016D2*
X756239D1*
X844942D2*
X865307D1*
X953994D2*
X974359D1*
X1172098D2*
X1185957D1*
X1287671D2*
X1434389D1*
X1586868D2*
X1735401D1*
X1890187D2*
X2042657D1*
X2131359D2*
X2151724D1*
X2240411D2*
X2260776D1*
X2349463D2*
X2357971D1*
X2458515D2*
X2478880D1*
X2567567D2*
X2587932D1*
X2676635D2*
X2697000D1*
X2901244D2*
X3047209D1*
X3202010D2*
X3233263D1*
X429142Y2172703D2*
X472083D1*
X581455D2*
X770357D1*
X830824D2*
X879425D1*
X939876D2*
X988477D1*
X1157980D2*
X1185957D1*
X1287671D2*
X1455935D1*
X1565322D2*
X1756501D1*
X1869087D2*
X2056774D1*
X2117241D2*
X2165842D1*
X2226293D2*
X2274894D1*
X2444397D2*
X2492998D1*
X2553449D2*
X2602050D1*
X2662517D2*
X2711117D1*
X2901244D2*
X3068309D1*
X3180910D2*
X3233263D1*
X429142Y2157087D2*
X1051699D1*
X1094757D2*
X1477296D1*
X2388249D2*
X2774340D1*
X2817383D2*
X3233263D1*
X429142Y2141470D2*
X1051699D1*
X1094757D2*
X1461686D1*
X2372639D2*
X2773218D1*
X2817383D2*
X3233263D1*
X429142Y2125853D2*
X1051699D1*
X1094757D2*
X1446061D1*
X1505636D2*
X1739815D1*
X2815491D2*
X3233263D1*
X429142Y2110236D2*
X1051699D1*
X1094757D2*
X1430452D1*
X1490027D2*
X1724205D1*
X2801558D2*
X3233263D1*
X429142Y2094619D2*
X1051699D1*
X1094757D2*
X1414827D1*
X1474402D2*
X1708580D1*
X1793161D2*
X2338609D1*
X2477324D2*
X2599636D1*
X2762757D2*
X3233263D1*
X429142Y2079003D2*
X1051699D1*
X1094757D2*
X1399217D1*
X1458792D2*
X1692970D1*
X1777536D2*
X2322999D1*
X2476386D2*
X2599636D1*
X2762757D2*
X3233263D1*
X429142Y2063386D2*
X1051699D1*
X1094757D2*
X1383608D1*
X1443167D2*
X1677345D1*
X1761926D2*
X2310588D1*
X2366949D2*
X2448999D1*
X2454430D2*
X2599636D1*
X2762757D2*
X3233263D1*
X429142Y2047769D2*
X1051699D1*
X1094757D2*
X1367983D1*
X1427558D2*
X1661736D1*
X1746301D2*
X2299839D1*
X2362566D2*
X2599636D1*
X2762757D2*
X3233263D1*
X429142Y2032152D2*
X1051699D1*
X1094757D2*
X1352373D1*
X1411933D2*
X1646111D1*
X1730692D2*
X2299839D1*
X2362566D2*
X2599636D1*
X2762757D2*
X3233263D1*
X429142Y2016535D2*
X1051699D1*
X1094757D2*
X1336748D1*
X1396323D2*
X1630501D1*
X1715067D2*
X2299839D1*
X2362566D2*
X2599636D1*
X2762757D2*
X3233263D1*
X429142Y2000919D2*
X1051699D1*
X1094757D2*
X1321138D1*
X1380698D2*
X1614891D1*
X1699457D2*
X2299839D1*
X2362566D2*
X2599636D1*
X2762757D2*
X3233263D1*
X429142Y1985302D2*
X1051699D1*
X1094757D2*
X1305513D1*
X1365088D2*
X1599266D1*
X1683832D2*
X2299839D1*
X2362566D2*
X2657706D1*
X2704686D2*
X3233263D1*
X429142Y1969685D2*
X1051699D1*
X1094757D2*
X1289904D1*
X1349463D2*
X1583657D1*
X1668223D2*
X2299839D1*
X2362566D2*
X2657706D1*
X2704686D2*
X3233263D1*
X429142Y1954068D2*
X1051699D1*
X1094757D2*
X1274279D1*
X1333854D2*
X1568032D1*
X1652598D2*
X1847206D1*
X2027690D2*
X2299839D1*
X2362566D2*
X2657706D1*
X2704686D2*
X3233263D1*
X429142Y1938451D2*
X1051699D1*
X1094757D2*
X1258669D1*
X1318244D2*
X1552422D1*
X1636988D2*
X1830889D1*
X2044022D2*
X2307713D1*
X2354692D2*
X2657706D1*
X2704686D2*
X3233263D1*
X429142Y1922835D2*
X1051699D1*
X1094757D2*
X1247612D1*
X1376100D2*
X1536797D1*
X1621363D2*
X1815294D1*
X2059632D2*
X2307713D1*
X2354692D2*
X2375180D1*
X2449719D2*
X2657706D1*
X2704686D2*
X3233263D1*
X429142Y1907218D2*
X1051699D1*
X1094757D2*
X1247181D1*
X1386865D2*
X1521188D1*
X1605753D2*
X1809604D1*
X2075257D2*
X2307713D1*
X2354692D2*
X2375180D1*
X2449719D2*
X2657706D1*
X2704686D2*
X3233263D1*
X429142Y1891601D2*
X1051699D1*
X1094757D2*
X1247181D1*
X1390817D2*
X1505563D1*
X1590144D2*
X1797793D1*
X2088667D2*
X2307713D1*
X2354692D2*
X2375180D1*
X2449719D2*
X2657706D1*
X2704686D2*
X3233263D1*
X429142Y1875984D2*
X1051699D1*
X1094757D2*
X1247181D1*
X1393632D2*
X1489953D1*
X2090451D2*
X2307713D1*
X2354692D2*
X2375180D1*
X2449719D2*
X2657706D1*
X2704686D2*
X3233263D1*
X429142Y1860367D2*
X1051699D1*
X1094757D2*
X1247181D1*
X1396861D2*
X1477834D1*
X2102908D2*
X2307713D1*
X2354692D2*
X2375180D1*
X2449719D2*
X2554360D1*
X2626930D2*
X2644911D1*
X2717481D2*
X2735462D1*
X2808032D2*
X3233263D1*
X429142Y1844751D2*
X1051699D1*
X1094757D2*
X1247181D1*
X1290224D2*
X1313372D1*
X1412425D2*
X1477050D1*
X1581870D2*
X1602327D1*
X1665054D2*
X1797793D1*
X2118964D2*
X2307713D1*
X2354692D2*
X2375180D1*
X2449719D2*
X2554360D1*
X2626930D2*
X2644911D1*
X2717481D2*
X2735462D1*
X2808032D2*
X3170456D1*
X429142Y1829134D2*
X1051699D1*
X1094757D2*
X1247181D1*
X1290224D2*
X1311711D1*
X1428050D2*
X1477050D1*
X1579025D2*
X1602327D1*
X1665054D2*
X1826936D1*
X2134589D2*
X2307713D1*
X2354692D2*
X2375180D1*
X2449719D2*
X2554360D1*
X2626930D2*
X2644911D1*
X2717481D2*
X2735462D1*
X2847772D2*
X3170456D1*
X429142Y1813517D2*
X1051699D1*
X1094757D2*
X1247181D1*
X1443659D2*
X1477050D1*
X1579025D2*
X1602327D1*
X1665054D2*
X1826936D1*
X2150198D2*
X2307713D1*
X2354692D2*
X2375180D1*
X2449719D2*
X2554360D1*
X2626930D2*
X2644911D1*
X2717481D2*
X2735462D1*
X2850678D2*
X3062188D1*
X3160348D2*
X3170456D1*
X429142Y1797900D2*
X1051699D1*
X1094757D2*
X1247181D1*
X1389879D2*
X1399709D1*
X1459284D2*
X1477050D1*
X1579025D2*
X1602327D1*
X1665054D2*
X1761191D1*
X1818690D2*
X1826936D1*
X2090451D2*
X2100681D1*
X2165823D2*
X2307713D1*
X2354692D2*
X2375180D1*
X2449719D2*
X2554360D1*
X2626930D2*
X2644911D1*
X2717481D2*
X2735462D1*
X2841943D2*
X3062188D1*
X3160348D2*
X3170456D1*
X429142Y1782283D2*
X1051699D1*
X1094757D2*
X1247181D1*
X1395185D2*
X1415319D1*
X1579025D2*
X1602327D1*
X1665054D2*
X1754778D1*
X2090451D2*
X2116306D1*
X2435939D2*
X2554360D1*
X2626930D2*
X2644911D1*
X2717481D2*
X2735462D1*
X2808032D2*
X3062188D1*
X3160348D2*
X3170456D1*
X429142Y1766667D2*
X1051699D1*
X1094757D2*
X1247181D1*
X1401106D2*
X1430944D1*
X1579025D2*
X1602327D1*
X1665054D2*
X1759453D1*
X2090451D2*
X2131916D1*
X2435939D2*
X2554360D1*
X2626930D2*
X2644911D1*
X2717481D2*
X2735462D1*
X2808032D2*
X3062188D1*
X3160348D2*
X3170456D1*
X429142Y1751050D2*
X746427D1*
X820966D2*
X1051699D1*
X1094757D2*
X1247181D1*
X1290224D2*
X1304867D1*
X1416731D2*
X1446554D1*
X1668622D2*
X1744259D1*
X2437339D2*
X2657706D1*
X2704686D2*
X3062188D1*
X3160348D2*
X3170456D1*
X429142Y1735433D2*
X746427D1*
X820966D2*
X1051699D1*
X1094757D2*
X1247181D1*
X1290224D2*
X1326306D1*
X1353585D2*
X1372781D1*
X1684247D2*
X1744259D1*
X1856199D2*
X1868275D1*
X2240058D2*
X2387821D1*
X2452964D2*
X2657706D1*
X2704686D2*
X3062188D1*
X3160348D2*
X3170456D1*
X429142Y1719816D2*
X746427D1*
X820966D2*
X1051699D1*
X1094757D2*
X1247181D1*
X1290224D2*
X1300946D1*
X1378945D2*
X1388390D1*
X1699857D2*
X1744259D1*
X1856199D2*
X1868275D1*
X2240058D2*
X2403446D1*
X2753422D2*
X3062188D1*
X429142Y1704199D2*
X746427D1*
X820966D2*
X1051699D1*
X1094757D2*
X1247181D1*
X1715482D2*
X1744259D1*
X1856199D2*
X1868275D1*
X2369579D2*
X2419056D1*
X2885850D2*
X3056282D1*
X429142Y1688583D2*
X746427D1*
X820966D2*
X1051699D1*
X1094757D2*
X1247181D1*
X1731092D2*
X1744259D1*
X1856199D2*
X1868275D1*
X2372086D2*
X2434681D1*
X2885850D2*
X3056282D1*
X429142Y1672966D2*
X746427D1*
X820966D2*
X1051699D1*
X1094757D2*
X1247181D1*
X1667623D2*
X1687142D1*
X1856199D2*
X1868275D1*
X2012434D2*
X2074968D1*
X2412855D2*
X2738123D1*
X2885850D2*
X3056282D1*
X429142Y1657349D2*
X746427D1*
X820966D2*
X1051699D1*
X1094757D2*
X1247181D1*
X1290224D2*
X1299100D1*
X1380775D2*
X1393589D1*
X1667623D2*
X1702751D1*
X2002422D2*
X2074968D1*
X429142Y1641732D2*
X746427D1*
X820966D2*
X1051699D1*
X1094757D2*
X1247181D1*
X1290224D2*
X1319462D1*
X1360428D2*
X1393589D1*
X2006129D2*
X2057390D1*
X429142Y1626115D2*
X746427D1*
X820966D2*
X1051699D1*
X1094757D2*
X1247181D1*
X1290224D2*
X1307497D1*
X1372393D2*
X1401463D1*
X2007774D2*
X2041811D1*
X429142Y1610499D2*
X746427D1*
X820966D2*
X1051699D1*
X1094757D2*
X1247181D1*
X1385296D2*
X1401463D1*
X1667623D2*
X1677330D1*
X1863612D2*
X1922132D1*
X2007774D2*
X2041734D1*
X2219865D2*
X2246120D1*
X2371255D2*
X2396603D1*
X429142Y1594882D2*
X746427D1*
X820966D2*
X1051699D1*
X1094757D2*
X1247181D1*
X1390433D2*
X1401463D1*
X1579025D2*
X1602327D1*
X1665054D2*
X1677330D1*
X1842420D2*
X1922132D1*
X2007774D2*
X2043472D1*
X2226370D2*
X2895972D1*
X429142Y1579265D2*
X746427D1*
X820966D2*
X1051699D1*
X1094757D2*
X1247181D1*
X1390310D2*
X1401463D1*
X1579025D2*
X1602327D1*
X1665054D2*
X1677330D1*
X1858952D2*
X1922132D1*
X2007774D2*
X2043472D1*
X2221772D2*
X2898464D1*
X429142Y1563648D2*
X746427D1*
X820966D2*
X1051699D1*
X1094757D2*
X1247181D1*
X1384896D2*
X1401463D1*
X1579025D2*
X1602327D1*
X2007774D2*
X2043472D1*
X2366042D2*
X2898479D1*
X3023076D2*
X3062188D1*
X429142Y1548031D2*
X746427D1*
X820966D2*
X1051699D1*
X1094757D2*
X1247181D1*
X1290224D2*
X1308466D1*
X1371409D2*
X1401463D1*
X1579025D2*
X1602327D1*
X2007774D2*
X2043472D1*
X2381651D2*
X2898479D1*
X3023076D2*
X3062188D1*
X3160348D2*
X3170456D1*
X429142Y1532415D2*
X1051699D1*
X1094757D2*
X1247181D1*
X1290224D2*
X1317724D1*
X1362166D2*
X1393589D1*
X1579025D2*
X1602327D1*
X2209776D2*
X2337701D1*
X2397276D2*
X2898479D1*
X3023076D2*
X3062188D1*
X3160348D2*
X3170456D1*
X429142Y1516798D2*
X1051699D1*
X1094757D2*
X1247181D1*
X1290224D2*
X1298531D1*
X1443044D2*
X1453428D1*
X1579025D2*
X1602327D1*
X1920145D2*
X1946031D1*
X2225386D2*
X2353311D1*
X2412886D2*
X2898479D1*
X3023076D2*
X3062188D1*
X3160348D2*
X3170456D1*
X429142Y1501181D2*
X964516D1*
X1009143D2*
X1051715D1*
X1103508D2*
X1247181D1*
X1427496D2*
X1453428D1*
X1682771D2*
X1695692D1*
X2241011D2*
X2368936D1*
X2428511D2*
X2898479D1*
X3023076D2*
X3062188D1*
X3160348D2*
X3170456D1*
X429142Y1485564D2*
X960456D1*
X1013203D2*
X1059558D1*
X1119118D2*
X1247181D1*
X1411886D2*
X1453428D1*
X1682694D2*
X1707042D1*
X1735936D2*
X1784890D1*
X2090451D2*
X2172055D1*
X2256621D2*
X2384546D1*
X2444121D2*
X2898479D1*
X3023076D2*
X3062188D1*
X3160348D2*
X3170456D1*
X429142Y1469948D2*
X963332D1*
X1010312D2*
X1075168D1*
X1134743D2*
X1247181D1*
X1395985D2*
X1453428D1*
X1674051D2*
X1769281D1*
X2090451D2*
X2187665D1*
X2272246D2*
X2400171D1*
X2459746D2*
X2898479D1*
X3023076D2*
X3062188D1*
X3160348D2*
X3170456D1*
X429142Y1454331D2*
X963332D1*
X1010312D2*
X1090793D1*
X1150352D2*
X1247181D1*
X1290224D2*
X1301607D1*
X1378268D2*
X1453428D1*
X1544576D2*
X1750364D1*
X1813230D2*
X1826936D1*
X2090451D2*
X2203290D1*
X2287855D2*
X2415780D1*
X2475355D2*
X2898479D1*
X3023076D2*
X3170456D1*
X429142Y1438714D2*
X963332D1*
X1010312D2*
X1106402D1*
X1165977D2*
X1247181D1*
X1290224D2*
X1329858D1*
X1350032D2*
X1453428D1*
X1797605D2*
X1826936D1*
X2090451D2*
X2218899D1*
X2303465D2*
X2431405D1*
X2490980D2*
X2898479D1*
X2945459D2*
X3170456D1*
X429142Y1423097D2*
X963332D1*
X1010312D2*
X1122012D1*
X1181587D2*
X1247181D1*
X1390986D2*
X1453428D1*
X1500346D2*
X1514713D1*
X1785102D2*
X1824568D1*
X2090451D2*
X2234524D1*
X2319090D2*
X2447015D1*
X2506590D2*
X2898479D1*
X2945459D2*
X3233263D1*
X429142Y1407480D2*
X963332D1*
X1010312D2*
X1137637D1*
X1197212D2*
X1247181D1*
X1390986D2*
X1456888D1*
X1515956D2*
X1749549D1*
X1770200D2*
X1808943D1*
X1970372D2*
X1984386D1*
X2119579D2*
X2250134D1*
X2334699D2*
X2462640D1*
X2522199D2*
X2898479D1*
X2945459D2*
X3233263D1*
X429142Y1391864D2*
X963332D1*
X1010312D2*
X1153246D1*
X1212821D2*
X1247181D1*
X1390986D2*
X1472006D1*
X1892632D2*
X1907645D1*
X1970372D2*
X1984017D1*
X2119579D2*
X2265759D1*
X2350324D2*
X2478250D1*
X2537824D2*
X2898479D1*
X2945459D2*
X3233263D1*
X429142Y1376247D2*
X963332D1*
X1010312D2*
X1168871D1*
X1228446D2*
X1247181D1*
X1390986D2*
X1423378D1*
X1877007D2*
X1907645D1*
X1970372D2*
X1984017D1*
X2119579D2*
X2281030D1*
X2365934D2*
X2493875D1*
X2553434D2*
X2898479D1*
X2945459D2*
X3233263D1*
X429142Y1360630D2*
X963332D1*
X1010312D2*
X1184481D1*
X1244056D2*
X1253240D1*
X1390986D2*
X1407753D1*
X1861397D2*
X1907645D1*
X1970372D2*
X1984017D1*
X2119579D2*
X2281030D1*
X2381559D2*
X2509484D1*
X2569059D2*
X2898479D1*
X2945459D2*
X3233263D1*
X429142Y1345013D2*
X963332D1*
X1010312D2*
X1200106D1*
X1259681D2*
X1268850D1*
X1844727D2*
X1907645D1*
X1970372D2*
X1984017D1*
X2027059D2*
X2281030D1*
X2324088D2*
X2337609D1*
X2397169D2*
X2525109D1*
X2584669D2*
X2898479D1*
X2945459D2*
X3233263D1*
X429142Y1329396D2*
X963332D1*
X1010312D2*
X1215716D1*
X1275291D2*
X1284475D1*
X1436093D2*
X1523925D1*
X1970372D2*
X1984017D1*
X2027059D2*
X2281030D1*
X2324088D2*
X2353219D1*
X2412794D2*
X2540719D1*
X2600294D2*
X2898479D1*
X2945459D2*
X3233263D1*
X429142Y1313780D2*
X963332D1*
X1010312D2*
X1231341D1*
X1290900D2*
X1517297D1*
X1970372D2*
X1984017D1*
X2027059D2*
X2281030D1*
X2324088D2*
X2368844D1*
X2428403D2*
X2556344D1*
X2615903D2*
X2898479D1*
X2945459D2*
X3233263D1*
X429142Y1298163D2*
X963332D1*
X1010312D2*
X1246950D1*
X2027059D2*
X2281030D1*
X2324088D2*
X2384453D1*
X2444028D2*
X2571953D1*
X2631528D2*
X2898479D1*
X2945459D2*
X3233263D1*
X429142Y1282546D2*
X963332D1*
X1010312D2*
X1262575D1*
X2027059D2*
X2281030D1*
X2324088D2*
X2400078D1*
X2459638D2*
X2587563D1*
X2647138D2*
X2898479D1*
X2945459D2*
X3233263D1*
X429142Y1266929D2*
X963332D1*
X1010312D2*
X1955012D1*
X2027059D2*
X2281030D1*
X2324088D2*
X2415688D1*
X2475263D2*
X2603188D1*
X2662763D2*
X2898479D1*
X2945459D2*
X3233263D1*
X429142Y1251312D2*
X963332D1*
X1010312D2*
X1965931D1*
X2027059D2*
X2281030D1*
X2324088D2*
X2431298D1*
X2490873D2*
X2618798D1*
X2678373D2*
X2898479D1*
X2945459D2*
X3233263D1*
X429142Y1235696D2*
X963332D1*
X1010312D2*
X1965931D1*
X2027059D2*
X2281030D1*
X2324088D2*
X2446923D1*
X2501346D2*
X2634423D1*
X2693998D2*
X2898479D1*
X2945459D2*
X3233263D1*
X429142Y1220079D2*
X963332D1*
X1012388D2*
X1965931D1*
X2027059D2*
X2281030D1*
X2324088D2*
X2458595D1*
X2501638D2*
X2650032D1*
X2709607D2*
X2898479D1*
X2945459D2*
X3233263D1*
X429142Y1204462D2*
X965101D1*
X1147384D2*
X1965931D1*
X2027059D2*
X2281030D1*
X2324088D2*
X2458595D1*
X2501638D2*
X2665657D1*
X2725232D2*
X2898479D1*
X2945459D2*
X3233263D1*
X429142Y1188845D2*
X978480D1*
X1163778D2*
X1965931D1*
X2027059D2*
X2281030D1*
X2324088D2*
X2458595D1*
X2501638D2*
X2681267D1*
X2740842D2*
X2898479D1*
X2945459D2*
X3233263D1*
X429142Y1173228D2*
X994105D1*
X1179388D2*
X1965931D1*
X2027059D2*
X2281030D1*
X2324088D2*
X2458595D1*
X2501638D2*
X2696892D1*
X2756451D2*
X2898479D1*
X2945459D2*
X3233263D1*
X429142Y1157612D2*
X1135438D1*
X1195013D2*
X1965931D1*
X2027059D2*
X2281030D1*
X2324088D2*
X2458595D1*
X2501638D2*
X2712502D1*
X2772076D2*
X2898479D1*
X2945459D2*
X3233263D1*
X429142Y1141995D2*
X1151063D1*
X1210622D2*
X1965931D1*
X2027059D2*
X2281030D1*
X2324088D2*
X2458595D1*
X2501638D2*
X2728127D1*
X2787686D2*
X2896634D1*
X2945459D2*
X3233263D1*
X429142Y1126378D2*
X511407D1*
X564184D2*
X1166672D1*
X1239073D2*
X1823215D1*
X1875992D2*
X1965931D1*
X2027059D2*
X2129163D1*
X2174374D2*
X2281030D1*
X2324088D2*
X2458595D1*
X2501638D2*
X2743736D1*
X2803311D2*
X2868213D1*
X2943798D2*
X3113031D1*
X3158242D2*
X3233263D1*
X429142Y1110761D2*
X475112D1*
X600478D2*
X761160D1*
X862858D2*
X886007D1*
X956116D2*
X995059D1*
X1065184D2*
X1104111D1*
X1174236D2*
X1182282D1*
X1283288D2*
X1322230D1*
X1392340D2*
X1431282D1*
X1501392D2*
X1540334D1*
X1610459D2*
X1786920D1*
X1912302D2*
X1965931D1*
X2027059D2*
X2090516D1*
X2213021D2*
X2281030D1*
X2324088D2*
X2374734D1*
X2569705D2*
X2608648D1*
X2678757D2*
X2717700D1*
X2930541D2*
X3074383D1*
X3196889D2*
X3233263D1*
X429142Y1095144D2*
X456427D1*
X619164D2*
X761160D1*
X862858D2*
X874688D1*
X967435D2*
X983755D1*
X1076487D2*
X1092807D1*
X1294591D2*
X1310911D1*
X1403659D2*
X1419963D1*
X1512711D2*
X1529031D1*
X1621763D2*
X1768235D1*
X1930972D2*
X1965931D1*
X2027059D2*
X2071507D1*
X2232045D2*
X2281030D1*
X2324088D2*
X2374734D1*
X2581009D2*
X2597329D1*
X2690076D2*
X2706381D1*
X2918407D2*
X3055360D1*
X3215897D2*
X3233263D1*
X429142Y1079528D2*
X443970D1*
X631621D2*
X761160D1*
X1626007D2*
X1755778D1*
X1943429D2*
X1965931D1*
X2027059D2*
X2058897D1*
X2244656D2*
X2281030D1*
X2324088D2*
X2374734D1*
X2914378D2*
X3042749D1*
X640202Y1063911D2*
X761160D1*
X862858D2*
X871381D1*
X970742D2*
X980433D1*
X1079794D2*
X1089501D1*
X1188846D2*
X1198553D1*
X1297913D2*
X1307605D1*
X1406965D2*
X1416657D1*
X1516017D2*
X1525709D1*
X1625069D2*
X1747212D1*
X1952010D2*
X1965931D1*
X2027059D2*
X2050238D1*
X2253314D2*
X2281030D1*
X2324088D2*
X2374734D1*
X2584330D2*
X2594022D1*
X2693382D2*
X2703074D1*
X2911487D2*
X3034090D1*
X645831Y1048294D2*
X761160D1*
X862858D2*
X877825D1*
X964298D2*
X986877D1*
X1073365D2*
X1095929D1*
X1182417D2*
X1204981D1*
X1291469D2*
X1314049D1*
X1400521D2*
X1423101D1*
X1509573D2*
X1532153D1*
X1618641D2*
X1741568D1*
X1957639D2*
X1965931D1*
X2027059D2*
X2044548D1*
X2258989D2*
X2281030D1*
X2324088D2*
X2374734D1*
X2577887D2*
X2600466D1*
X2686939D2*
X2709518D1*
X2905058D2*
X3028416D1*
X648983Y1032677D2*
X761160D1*
X862858D2*
X893604D1*
X948534D2*
X1002656D1*
X1057586D2*
X1111708D1*
X1166638D2*
X1220760D1*
X1275691D2*
X1329812D1*
X1384743D2*
X1438879D1*
X1493810D2*
X1547932D1*
X1602862D2*
X1738415D1*
X2027059D2*
X2041380D1*
X2262157D2*
X2277462D1*
X2327656D2*
X2374734D1*
X2566737D2*
X2616229D1*
X2671160D2*
X2725297D1*
X2889279D2*
X3025232D1*
X649860Y1017060D2*
X1737538D1*
X2027059D2*
X2040504D1*
X2263049D2*
X2277293D1*
X2327825D2*
X2456135D1*
X2556479D2*
X2783306D1*
X2831270D2*
X3024356D1*
X648507Y1001444D2*
X834395D1*
X898676D2*
X943447D1*
X1007743D2*
X1052499D1*
X1116795D2*
X1161551D1*
X1225847D2*
X1270603D1*
X1334899D2*
X1379671D1*
X1443951D2*
X1488723D1*
X1553019D2*
X1738892D1*
X2027059D2*
X2041857D1*
X2261696D2*
X2291949D1*
X2313169D2*
X2445877D1*
X2621317D2*
X2666088D1*
X2730369D2*
X2773048D1*
X2841528D2*
X3025709D1*
X644862Y985827D2*
X821400D1*
X911671D2*
X930452D1*
X1020723D2*
X1039504D1*
X1129791D2*
X1148556D1*
X1238843D2*
X1257623D1*
X1347895D2*
X1366675D1*
X1456947D2*
X1475727D1*
X1565999D2*
X1742537D1*
X1956670D2*
X1965931D1*
X2027059D2*
X2045532D1*
X2258020D2*
X2434973D1*
X2634312D2*
X2653093D1*
X2743364D2*
X2762145D1*
X2852416D2*
X3029385D1*
X638664Y970210D2*
X816248D1*
X916823D2*
X925300D1*
X1025875D2*
X1034352D1*
X1134942D2*
X1143404D1*
X1243995D2*
X1252471D1*
X1353047D2*
X1361523D1*
X1462099D2*
X1470575D1*
X1571151D2*
X1748734D1*
X1950472D2*
X1965931D1*
X2027059D2*
X2051776D1*
X2251761D2*
X2429821D1*
X2639464D2*
X2647941D1*
X2748516D2*
X2756993D1*
X2857568D2*
X3035644D1*
X429142Y954593D2*
X446215D1*
X629375D2*
X816371D1*
X916700D2*
X925423D1*
X1025752D2*
X1034475D1*
X1134804D2*
X1143542D1*
X1243871D2*
X1252594D1*
X1352924D2*
X1361646D1*
X1461976D2*
X1470699D1*
X1571028D2*
X1758023D1*
X1941183D2*
X1965931D1*
X2027059D2*
X2061157D1*
X2242380D2*
X2429960D1*
X2639341D2*
X2648064D1*
X2748393D2*
X2757116D1*
X2857445D2*
X3045025D1*
X429142Y938976D2*
X459703D1*
X615888D2*
X821815D1*
X911256D2*
X930882D1*
X1020308D2*
X1039934D1*
X1129360D2*
X1148987D1*
X1238412D2*
X1258039D1*
X1347464D2*
X1367091D1*
X1456531D2*
X1476158D1*
X1565583D2*
X1771526D1*
X1927696D2*
X1965931D1*
X2027059D2*
X2074829D1*
X2228723D2*
X2435404D1*
X2633881D2*
X2653508D1*
X2742949D2*
X2762575D1*
X2852001D2*
X3058681D1*
X3212575D2*
X3233263D1*
X429142Y923360D2*
X480356D1*
X595234D2*
X835410D1*
X897661D2*
X944462D1*
X1006713D2*
X1053514D1*
X1115765D2*
X1162582D1*
X1224832D2*
X1271634D1*
X1333884D2*
X1380686D1*
X1442936D2*
X1489738D1*
X1551988D2*
X1792180D1*
X1907042D2*
X1965931D1*
X2620840D2*
X2667103D1*
X2729354D2*
X2776155D1*
X2838406D2*
X3079766D1*
X3191491D2*
X3233263D1*
X429142Y907743D2*
X1969207D1*
X2606153D2*
X3233263D1*
X429142Y892126D2*
X1984247D1*
X2590667D2*
X3233263D1*
X429142Y876509D2*
X2000764D1*
X2574150D2*
X3233263D1*
X429142Y860892D2*
X3233263D1*
X429142Y845276D2*
X3233263D1*
X429142Y829659D2*
X3233263D1*
X429142Y814042D2*
X3233263D1*
X429142Y798425D2*
X3233263D1*
X429142Y782808D2*
X3233263D1*
X429142Y767192D2*
X3233263D1*
X429142Y751575D2*
X3233263D1*
X429142Y735958D2*
X3233263D1*
X429142Y720341D2*
X3233263D1*
X429142Y704724D2*
X3233263D1*
X429142Y689108D2*
X3233263D1*
X429142Y673491D2*
X3233263D1*
X429142Y657874D2*
X3233263D1*
X429142Y642257D2*
X3233263D1*
X429142Y626640D2*
X3233263D1*
X429142Y611024D2*
X3233263D1*
X429142Y595407D2*
X3233263D1*
X429142Y579790D2*
X3233263D1*
X429142Y564173D2*
X3233263D1*
X429142Y548556D2*
X3233263D1*
X429142Y532940D2*
X3233263D1*
X429142Y517323D2*
X3233263D1*
X429142Y501706D2*
X3233263D1*
X429142Y486089D2*
X3233263D1*
X429142Y470472D2*
X3233263D1*
X429142Y454856D2*
X3233263D1*
X429142Y439239D2*
X3233263D1*
X2353125Y1940633D2*
X2360991D1*
X2360988Y2059001D1*
X2370260Y2068281D1*
X2435277Y2068282D1*
X2438356Y2067392D1*
X2439204Y2066737D1*
X2445192Y2064231D1*
X2451626Y2063360D1*
X2458065Y2064184D1*
X2464072Y2066646D1*
X2469237Y2070579D1*
X2473208Y2075715D1*
X2475714Y2081704D1*
X2476585Y2088228D1*
X2475761Y2094577D1*
X2473294Y2100601D1*
X2601214Y2100599D1*
Y1987040D1*
X2659285Y1987033D1*
X2659277Y1875361D1*
X2646490D1*
Y1758694D1*
X2659285Y1758698D1*
X2659288Y1721091D1*
X2465733Y1721088D1*
X2434367Y1752455D1*
X2434360Y1791323D1*
X2448147D1*
Y1933580D1*
X2376756D1*
Y1791323D1*
X2390535Y1791318D1*
Y1784957D1*
X2353117Y1784964D1*
Y1940630D1*
X1678902Y1565032D2*
Y1614844D1*
X1666043Y1614845D1*
X1666041Y1601509D1*
X1663480D1*
X1663482Y1560365D1*
X1664690Y1561242D1*
X1670238Y1563957D1*
X1676324Y1565016D1*
X1678896Y1565026D1*
X2104192Y1857953D2*
X2177184Y1784957D1*
X2178902Y1784962D1*
Y1796768D1*
X2238482D1*
Y1784964D1*
X2279341Y1784957D1*
X2309291D1*
X2309285Y1841454D1*
Y1940625D1*
X2301411Y1940633D1*
Y2059268D1*
X2311338D1*
X2312215Y2063543D1*
X2314831Y2068823D1*
X2317096Y2071529D1*
X2346171Y2100604D1*
X1797559Y2100601D1*
X1587582Y1890621D1*
X1799379Y1890617D1*
X1799374Y1898491D1*
X1811177D1*
X1811185Y1908101D1*
X1812056Y1914217D1*
X1814602Y1919851D1*
X1817618Y1923611D1*
X1845133Y1951127D1*
X1850073Y1954836D1*
X1855857Y1957019D1*
X1860652Y1957546D1*
X2014185D1*
X2018388Y1957156D1*
X2024231Y1955152D1*
X2029283Y1951598D1*
X2040605Y1940290D1*
X2082458Y1898438D1*
X2086166Y1893498D1*
X2088350Y1887714D1*
X2088877Y1882921D1*
Y1864393D1*
X2094794Y1863518D1*
X2100428Y1860972D1*
X2104192Y1857953D1*
X2236418Y1678132D2*
X2218707D1*
X2220052Y1676787D1*
X2235072D1*
X2236418Y1678132D1*
X2097423Y1410991D2*
X2118009D1*
Y1351411D1*
X2025487D1*
Y937195D1*
X2027584Y935103D1*
X2080728Y935105D1*
X2079206Y936417D1*
X2077261Y938174D1*
X2075358Y939976D1*
X2073500Y941824D1*
X2071686Y943716D1*
X2069917Y945650D1*
X2068195Y947627D1*
X2066521Y949643D1*
X2064896Y951700D1*
X2063320Y953794D1*
X2061795Y955926D1*
X2060321Y958093D1*
X2058899Y960295D1*
X2057531Y962530D1*
X2056216Y964797D1*
X2054955Y967095D1*
X2053750Y969423D1*
X2052601Y971778D1*
X2051508Y974161D1*
X2050473Y976569D1*
X2049495Y979000D1*
X2048576Y981455D1*
X2047716Y983931D1*
X2046915Y986426D1*
X2046174Y988940D1*
X2045493Y991471D1*
X2044873Y994018D1*
X2044314Y996579D1*
X2043816Y999152D1*
X2043380Y1001736D1*
X2043006Y1004330D1*
X2042693Y1006933D1*
X2042443Y1009542D1*
X2042256Y1012156D1*
X2042131Y1014774D1*
X2042068Y1017394D1*
Y1020015D1*
X2042131Y1022636D1*
X2042256Y1025254D1*
X2042444Y1027868D1*
X2042694Y1030477D1*
X2043007Y1033079D1*
X2043381Y1035673D1*
X2043817Y1038258D1*
X2044315Y1040831D1*
X2044875Y1043391D1*
X2045495Y1045938D1*
X2046176Y1048469D1*
X2046917Y1050983D1*
X2047718Y1053479D1*
X2048579Y1055954D1*
X2049498Y1058409D1*
X2050476Y1060840D1*
X2051511Y1063248D1*
X2052604Y1065631D1*
X2053753Y1067986D1*
X2054959Y1070314D1*
X2056219Y1072611D1*
X2057534Y1074879D1*
X2058903Y1077114D1*
X2060325Y1079316D1*
X2061799Y1081483D1*
X2063325Y1083614D1*
X2064901Y1085708D1*
X2066526Y1087764D1*
X2068200Y1089781D1*
X2069922Y1091757D1*
X2071690Y1093692D1*
X2073505Y1095583D1*
X2075364Y1097431D1*
X2077266Y1099234D1*
X2079211Y1100991D1*
X2081198Y1102700D1*
X2083224Y1104362D1*
X2085290Y1105975D1*
X2087394Y1107539D1*
X2089535Y1109051D1*
X2091711Y1110512D1*
X2093921Y1111921D1*
X2096164Y1113276D1*
X2098439Y1114577D1*
X2100745Y1115824D1*
X2103080Y1117015D1*
X2105442Y1118150D1*
X2107831Y1119229D1*
X2110245Y1120250D1*
X2112682Y1121213D1*
X2115142Y1122117D1*
X2117623Y1122963D1*
X2120124Y1123749D1*
X2122642Y1124475D1*
X2125177Y1125140D1*
X2127727Y1125745D1*
X2130291Y1126289D1*
X2132867Y1126771D1*
X2135454Y1127192D1*
X2138051Y1127551D1*
X2140655Y1127848D1*
X2143265Y1128082D1*
X2145881Y1128254D1*
X2148499Y1128364D1*
X2151120Y1128411D1*
X2153741Y1128395D1*
X2156361Y1128316D1*
X2158978Y1128176D1*
X2161591Y1127972D1*
X2164199Y1127706D1*
X2166799Y1127378D1*
X2169391Y1126988D1*
X2171972Y1126537D1*
X2174543Y1126023D1*
X2177100Y1125449D1*
X2179643Y1124813D1*
X2182170Y1124117D1*
X2184679Y1123361D1*
X2187170Y1122545D1*
X2189640Y1121670D1*
X2192089Y1120736D1*
X2194515Y1119743D1*
X2196917Y1118694D1*
X2199293Y1117587D1*
X2201641Y1116423D1*
X2203961Y1115204D1*
X2206252Y1113930D1*
X2208511Y1112601D1*
X2210738Y1111219D1*
X2212931Y1109784D1*
X2215089Y1108297D1*
X2217212Y1106759D1*
X2219297Y1105171D1*
X2221343Y1103533D1*
X2223350Y1101847D1*
X2225315Y1100113D1*
X2227239Y1098333D1*
X2229120Y1096508D1*
X2230956Y1094638D1*
X2232748Y1092724D1*
X2234493Y1090769D1*
X2236191Y1088772D1*
X2237841Y1086736D1*
X2239441Y1084660D1*
X2240992Y1082547D1*
X2242492Y1080398D1*
X2243940Y1078213D1*
X2245335Y1075994D1*
X2246677Y1073743D1*
X2247965Y1071460D1*
X2249197Y1069147D1*
X2250375Y1066805D1*
X2251496Y1064436D1*
X2252560Y1062041D1*
X2253566Y1059621D1*
X2254515Y1057177D1*
X2255405Y1054712D1*
X2256235Y1052226D1*
X2257006Y1049721D1*
X2257717Y1047199D1*
X2258368Y1044660D1*
X2258957Y1042106D1*
X2259486Y1039539D1*
X2259953Y1036960D1*
X2260358Y1034370D1*
X2260702Y1031772D1*
X2260983Y1029166D1*
X2261202Y1026554D1*
X2261358Y1023938D1*
X2261452Y1021318D1*
X2261483Y1018701D1*
X2261452Y1016077D1*
X2261358Y1013457D1*
X2261201Y1010841D1*
X2260982Y1008229D1*
X2260701Y1005623D1*
X2260357Y1003025D1*
X2259952Y1000436D1*
X2259485Y997857D1*
X2258956Y995290D1*
X2258366Y992736D1*
X2257715Y990197D1*
X2257004Y987674D1*
X2256233Y985169D1*
X2255402Y982683D1*
X2254512Y980218D1*
X2253564Y977775D1*
X2252557Y975355D1*
X2251493Y972960D1*
X2250372Y970591D1*
X2249194Y968249D1*
X2247961Y965936D1*
X2246673Y963653D1*
X2245331Y961402D1*
X2243936Y959183D1*
X2242488Y956999D1*
X2240988Y954849D1*
X2239437Y952736D1*
X2237836Y950661D1*
X2236186Y948624D1*
X2234488Y946628D1*
X2232743Y944673D1*
X2230951Y942759D1*
X2229115Y940890D1*
X2227234Y939064D1*
X2225310Y937284D1*
X2222813Y935105D1*
X2439350D1*
X2435617Y941629D1*
X2432798Y949042D1*
X2431205Y956811D1*
X2430878Y964734D1*
X2431827Y972608D1*
X2434026Y980227D1*
X2437419Y987395D1*
X2441918Y993926D1*
X2443821Y995911D1*
X2460174Y1020816D1*
X2460171Y1025328D1*
X2376312D1*
Y1123885D1*
X2460166D1*
X2460171Y1224020D1*
X2322503Y1361688D1*
X2322507Y1041051D1*
X2323282Y1038358D1*
X2324141Y1036966D1*
X2326604Y1030959D1*
X2327428Y1024610D1*
X2326557Y1018086D1*
X2324050Y1012097D1*
X2320080Y1006961D1*
X2314915Y1003028D1*
X2308908Y1000566D1*
X2302468Y999742D1*
X2296035Y1000613D1*
X2290046Y1003119D1*
X2284910Y1007090D1*
X2280977Y1012255D1*
X2278514Y1018261D1*
X2277690Y1024701D1*
X2278561Y1031134D1*
X2281068Y1037123D1*
X2281723Y1037971D1*
X2282612Y1041048D1*
X2282611Y1376584D1*
X2164423Y1494769D1*
X2088883Y1494766D1*
X2088875Y1444110D1*
Y1419512D1*
X2097419Y1410994D1*
X1603902Y1509371D2*
Y1601506D1*
X1577451Y1601509D1*
X1577456Y1509366D1*
X1603896Y1509369D1*
X1582075Y1751545D2*
X1577456Y1746925D1*
X1577457Y1841907D1*
X1582341Y1846785D1*
X1603902D1*
X1603895Y1757399D1*
X1596192D1*
X1595024Y1757365D1*
X1589258Y1756155D1*
X1584092Y1753310D1*
X1582075Y1751545D1*
X819387Y1583393D2*
Y1534186D1*
X747996D1*
Y1654790D1*
Y1753215D1*
X819387D1*
Y1632611D1*
X819380Y1583399D1*
X2680934Y2204955D2*
X2679046Y2197252D1*
X2675947Y2189952D1*
X2671718Y2183244D1*
X2666467Y2177301D1*
X2660330Y2172277D1*
X2653467Y2168303D1*
X2646056Y2165481D1*
X2638288Y2163884D1*
X2630364Y2163555D1*
X2622490Y2164500D1*
X2614870Y2166696D1*
X2607701Y2170087D1*
X2601168Y2174583D1*
X2595441Y2180069D1*
X2590669Y2186403D1*
X2586974Y2193420D1*
X2584453Y2200939D1*
X2583170Y2208765D1*
X2583160Y2216696D1*
X2584422Y2224525D1*
X2586923Y2232051D1*
X2590599Y2239078D1*
X2595355Y2245424D1*
X2601067Y2250925D1*
X2607588Y2255439D1*
X2614748Y2258848D1*
X2622363Y2261065D1*
X2630234Y2262031D1*
X2638159Y2261722D1*
X2645931Y2260146D1*
X2653350Y2257344D1*
X2660223Y2253388D1*
X2666373Y2248380D1*
X2671639Y2242451D1*
X2675887Y2235754D1*
X2679005Y2228462D1*
X2680913Y2220764D1*
X2681562Y2212795D1*
X2680934Y2204955D1*
X2571879D2*
X2569991Y2197252D1*
X2566892Y2189952D1*
X2562663Y2183244D1*
X2557411Y2177301D1*
X2551275Y2172277D1*
X2544412Y2168303D1*
X2537001Y2165481D1*
X2529233Y2163884D1*
X2521309Y2163555D1*
X2513435Y2164500D1*
X2505815Y2166696D1*
X2498646Y2170087D1*
X2492113Y2174583D1*
X2486386Y2180069D1*
X2481614Y2186403D1*
X2477919Y2193420D1*
X2475398Y2200939D1*
X2474115Y2208765D1*
X2474105Y2216696D1*
X2475367Y2224525D1*
X2477868Y2232051D1*
X2481544Y2239078D1*
X2486300Y2245424D1*
X2492012Y2250925D1*
X2498533Y2255439D1*
X2505693Y2258848D1*
X2513308Y2261065D1*
X2521179Y2262031D1*
X2529104Y2261722D1*
X2536876Y2260146D1*
X2544295Y2257344D1*
X2551168Y2253388D1*
X2557318Y2248380D1*
X2562584Y2242451D1*
X2566832Y2235754D1*
X2569950Y2228462D1*
X2571858Y2220764D1*
X2572507Y2212795D1*
X2571879Y2204955D1*
X2735461Y2316766D2*
X2733574Y2309063D1*
X2730475Y2301763D1*
X2726245Y2295055D1*
X2720994Y2289112D1*
X2714858Y2284088D1*
X2707995Y2280114D1*
X2700584Y2277292D1*
X2692815Y2275695D1*
X2684892Y2275366D1*
X2677018Y2276311D1*
X2669398Y2278507D1*
X2662228Y2281898D1*
X2655696Y2286394D1*
X2649969Y2291880D1*
X2645196Y2298214D1*
X2641502Y2305231D1*
X2638980Y2312750D1*
X2637698Y2320576D1*
X2637687Y2328507D1*
X2638949Y2336336D1*
X2641451Y2343862D1*
X2645127Y2350889D1*
X2649883Y2357235D1*
X2655595Y2362736D1*
X2662116Y2367250D1*
X2669276Y2370659D1*
X2676890Y2372876D1*
X2684762Y2373842D1*
X2692686Y2373533D1*
X2700459Y2371957D1*
X2707877Y2369155D1*
X2714751Y2365199D1*
X2720900Y2360191D1*
X2726167Y2354262D1*
X2730414Y2347565D1*
X2733533Y2340273D1*
X2735441Y2332575D1*
X2736089Y2324606D1*
X2735461Y2316766D1*
X2626406D2*
X2624519Y2309063D1*
X2621420Y2301763D1*
X2617190Y2295055D1*
X2611939Y2289112D1*
X2605803Y2284088D1*
X2598940Y2280114D1*
X2591528Y2277292D1*
X2583760Y2275695D1*
X2575837Y2275366D1*
X2567963Y2276311D1*
X2560342Y2278507D1*
X2553173Y2281898D1*
X2546641Y2286394D1*
X2540914Y2291880D1*
X2536141Y2298214D1*
X2532447Y2305231D1*
X2529925Y2312750D1*
X2528643Y2320576D1*
X2528632Y2328507D1*
X2529894Y2336336D1*
X2532395Y2343862D1*
X2536072Y2350889D1*
X2540828Y2357235D1*
X2546540Y2362736D1*
X2553060Y2367250D1*
X2560221Y2370659D1*
X2567835Y2372876D1*
X2575707Y2373842D1*
X2583631Y2373533D1*
X2591403Y2371957D1*
X2598822Y2369155D1*
X2605696Y2365199D1*
X2611845Y2360191D1*
X2617112Y2354262D1*
X2621359Y2347565D1*
X2624477Y2340273D1*
X2626386Y2332575D1*
X2627034Y2324606D1*
X2626406Y2316766D1*
X2517351D2*
X2515464Y2309063D1*
X2512365Y2301763D1*
X2508135Y2295055D1*
X2502884Y2289112D1*
X2496748Y2284088D1*
X2489885Y2280114D1*
X2482473Y2277292D1*
X2474705Y2275695D1*
X2466782Y2275366D1*
X2458908Y2276311D1*
X2451287Y2278507D1*
X2444118Y2281898D1*
X2437585Y2286394D1*
X2431859Y2291880D1*
X2427086Y2298214D1*
X2423391Y2305231D1*
X2420870Y2312750D1*
X2419588Y2320576D1*
X2419577Y2328507D1*
X2420839Y2336336D1*
X2423340Y2343862D1*
X2427017Y2350889D1*
X2431772Y2357235D1*
X2437485Y2362736D1*
X2444005Y2367250D1*
X2451166Y2370659D1*
X2458780Y2372876D1*
X2466652Y2373842D1*
X2474576Y2373533D1*
X2482348Y2371957D1*
X2489767Y2369155D1*
X2496640Y2365199D1*
X2502790Y2360191D1*
X2508057Y2354262D1*
X2512304Y2347565D1*
X2515422Y2340273D1*
X2517330Y2332575D1*
X2517979Y2324606D1*
X2517351Y2316766D1*
X2408296D2*
X2406408Y2309063D1*
X2403310Y2301763D1*
X2399080Y2295055D1*
X2393829Y2289112D1*
X2387692Y2284088D1*
X2380830Y2280114D1*
X2373418Y2277292D1*
X2365650Y2275695D1*
X2357726Y2275366D1*
X2349853Y2276311D1*
X2342232Y2278507D1*
X2335063Y2281898D1*
X2328530Y2286394D1*
X2322804Y2291880D1*
X2318031Y2298214D1*
X2314336Y2305231D1*
X2311815Y2312750D1*
X2310533Y2320576D1*
X2310522Y2328507D1*
X2311784Y2336336D1*
X2314285Y2343862D1*
X2317961Y2350889D1*
X2322717Y2357235D1*
X2328430Y2362736D1*
X2334950Y2367250D1*
X2342111Y2370659D1*
X2349725Y2372876D1*
X2357596Y2373842D1*
X2365521Y2373533D1*
X2373293Y2371957D1*
X2380712Y2369155D1*
X2387585Y2365199D1*
X2393735Y2360191D1*
X2399002Y2354262D1*
X2403249Y2347565D1*
X2406367Y2340273D1*
X2408275Y2332575D1*
X2408924Y2324606D1*
X2408296Y2316766D1*
X2299241D2*
X2297353Y2309063D1*
X2294254Y2301763D1*
X2290025Y2295055D1*
X2284774Y2289112D1*
X2278637Y2284088D1*
X2271775Y2280114D1*
X2264363Y2277292D1*
X2256595Y2275695D1*
X2248671Y2275366D1*
X2240797Y2276311D1*
X2233177Y2278507D1*
X2226008Y2281898D1*
X2219475Y2286394D1*
X2213748Y2291880D1*
X2208976Y2298214D1*
X2205281Y2305231D1*
X2202760Y2312750D1*
X2201477Y2320576D1*
X2201467Y2328507D1*
X2202729Y2336336D1*
X2205230Y2343862D1*
X2208906Y2350889D1*
X2213662Y2357235D1*
X2219374Y2362736D1*
X2225895Y2367250D1*
X2233055Y2370659D1*
X2240670Y2372876D1*
X2248541Y2373842D1*
X2256466Y2373533D1*
X2264238Y2371957D1*
X2271657Y2369155D1*
X2278530Y2365199D1*
X2284680Y2360191D1*
X2289947Y2354262D1*
X2294194Y2347565D1*
X2297312Y2340273D1*
X2299220Y2332575D1*
X2299869Y2324606D1*
X2299241Y2316766D1*
X2190186D2*
X2188298Y2309063D1*
X2185199Y2301763D1*
X2180970Y2295055D1*
X2175719Y2289112D1*
X2169582Y2284088D1*
X2162719Y2280114D1*
X2155308Y2277292D1*
X2147540Y2275695D1*
X2139616Y2275366D1*
X2131742Y2276311D1*
X2124122Y2278507D1*
X2116953Y2281898D1*
X2110420Y2286394D1*
X2104693Y2291880D1*
X2099921Y2298214D1*
X2096226Y2305231D1*
X2093705Y2312750D1*
X2092422Y2320576D1*
X2092412Y2328507D1*
X2093674Y2336336D1*
X2096175Y2343862D1*
X2099851Y2350889D1*
X2104607Y2357235D1*
X2110319Y2362736D1*
X2116840Y2367250D1*
X2124000Y2370659D1*
X2131615Y2372876D1*
X2139486Y2373842D1*
X2147411Y2373533D1*
X2155183Y2371957D1*
X2162602Y2369155D1*
X2169475Y2365199D1*
X2175625Y2360191D1*
X2180891Y2354262D1*
X2185139Y2347565D1*
X2188257Y2340273D1*
X2190165Y2332575D1*
X2190814Y2324606D1*
X2190186Y2316766D1*
X1195407Y2262073D2*
X1286089D1*
Y2163517D1*
X1187533D1*
Y2262073D1*
X1195407D1*
X958296Y2204954D2*
X956408Y2197252D1*
X953310Y2189952D1*
X949080Y2183243D1*
X943829Y2177300D1*
X937692Y2172277D1*
X930830Y2168302D1*
X923418Y2165480D1*
X915650Y2163884D1*
X907726Y2163554D1*
X899853Y2164500D1*
X892232Y2166696D1*
X885063Y2170086D1*
X878530Y2174583D1*
X872804Y2180069D1*
X868031Y2186402D1*
X864336Y2193420D1*
X861815Y2200939D1*
X860533Y2208765D1*
X860522Y2216695D1*
X861784Y2224525D1*
X864285Y2232050D1*
X867961Y2239077D1*
X872717Y2245424D1*
X878430Y2250925D1*
X884950Y2255439D1*
X892111Y2258848D1*
X899725Y2261064D1*
X907596Y2262030D1*
X915521Y2261722D1*
X923293Y2260146D1*
X930712Y2257343D1*
X937585Y2253387D1*
X943735Y2248380D1*
X949002Y2242450D1*
X953249Y2235753D1*
X956367Y2228461D1*
X958275Y2220764D1*
X958924Y2212795D1*
X958296Y2204954D1*
X849241D2*
X847353Y2197252D1*
X844254Y2189952D1*
X840025Y2183243D1*
X834774Y2177300D1*
X828637Y2172277D1*
X821775Y2168302D1*
X814363Y2165480D1*
X806595Y2163884D1*
X798671Y2163554D1*
X790797Y2164500D1*
X783177Y2166696D1*
X776008Y2170086D1*
X769475Y2174583D1*
X763748Y2180069D1*
X758976Y2186402D1*
X755281Y2193420D1*
X752760Y2200939D1*
X751477Y2208765D1*
X751467Y2216695D1*
X752729Y2224525D1*
X755230Y2232050D1*
X758906Y2239077D1*
X763662Y2245424D1*
X769374Y2250925D1*
X775895Y2255439D1*
X783055Y2258848D1*
X790670Y2261064D1*
X798541Y2262030D1*
X806466Y2261722D1*
X814238Y2260146D1*
X821657Y2257343D1*
X828530Y2253387D1*
X834680Y2248380D1*
X839947Y2242450D1*
X844194Y2235753D1*
X847312Y2228461D1*
X849220Y2220764D1*
X849869Y2212795D1*
X849241Y2204954D1*
X1230934Y2316765D2*
X1229046Y2309063D1*
X1225947Y2301763D1*
X1221718Y2295054D1*
X1216467Y2289111D1*
X1210330Y2284088D1*
X1203467Y2280113D1*
X1196056Y2277291D1*
X1188288Y2275695D1*
X1180364Y2275365D1*
X1172490Y2276311D1*
X1164870Y2278507D1*
X1157701Y2281897D1*
X1151168Y2286394D1*
X1145441Y2291880D1*
X1140669Y2298213D1*
X1136974Y2305231D1*
X1134453Y2312750D1*
X1133170Y2320576D1*
X1133160Y2328506D1*
X1134422Y2336336D1*
X1136923Y2343861D1*
X1140599Y2350888D1*
X1145355Y2357235D1*
X1151067Y2362736D1*
X1157588Y2367250D1*
X1164748Y2370659D1*
X1172363Y2372875D1*
X1180234Y2373842D1*
X1188159Y2373533D1*
X1195931Y2371957D1*
X1203350Y2369154D1*
X1210223Y2365198D1*
X1216373Y2360191D1*
X1221639Y2354261D1*
X1225887Y2347564D1*
X1229005Y2340272D1*
X1230913Y2332575D1*
X1231562Y2324606D1*
X1230934Y2316765D1*
X1013382Y2321983D2*
X1013172Y2319367D1*
X1012824Y2316767D1*
X1012338Y2314189D1*
X1011715Y2311640D1*
X1010958Y2309128D1*
X1010068Y2306660D1*
X1009047Y2304243D1*
X1007900Y2301883D1*
X1006629Y2299588D1*
X1005237Y2297364D1*
X1003729Y2295217D1*
X1002109Y2293154D1*
X1000381Y2291179D1*
X998551Y2289300D1*
X996623Y2287520D1*
X994603Y2285846D1*
X992497Y2284281D1*
X990311Y2282831D1*
X988050Y2281499D1*
X985722Y2280289D1*
X983333Y2279205D1*
X980890Y2278250D1*
X978399Y2277426D1*
X975868Y2276735D1*
X973303Y2276181D1*
X970713Y2275764D1*
X968104Y2275485D1*
X965484Y2275345D1*
X962861D1*
X960241Y2275485D1*
X957632Y2275764D1*
X955042Y2276181D1*
X952477Y2276736D1*
X949946Y2277426D1*
X947455Y2278250D1*
X945012Y2279206D1*
X942623Y2280290D1*
X940295Y2281500D1*
X938034Y2282831D1*
X935848Y2284282D1*
X933742Y2285847D1*
X931722Y2287521D1*
X929795Y2289301D1*
X927964Y2291180D1*
X926237Y2293155D1*
X924617Y2295219D1*
X923109Y2297366D1*
X921717Y2299590D1*
X920446Y2301885D1*
X919298Y2304244D1*
X918278Y2306661D1*
X917388Y2309129D1*
X916631Y2311641D1*
X916008Y2314190D1*
X915522Y2316768D1*
X915174Y2319369D1*
X914965Y2321984D1*
X914895Y2324607D1*
X914965Y2327229D1*
X915174Y2329845D1*
X915523Y2332445D1*
X916009Y2335023D1*
X916631Y2337572D1*
X917389Y2340084D1*
X918279Y2342552D1*
X919299Y2344969D1*
X920446Y2347328D1*
X921718Y2349623D1*
X923109Y2351848D1*
X924617Y2353994D1*
X926238Y2356058D1*
X927965Y2358032D1*
X929796Y2359912D1*
X931724Y2361692D1*
X933743Y2363366D1*
X935849Y2364931D1*
X938036Y2366381D1*
X940296Y2367713D1*
X942624Y2368923D1*
X945013Y2370007D1*
X947457Y2370962D1*
X949948Y2371786D1*
X952479Y2372476D1*
X955043Y2373031D1*
X957633Y2373448D1*
X960242Y2373727D1*
X962862Y2373867D1*
X965486D1*
X968106Y2373727D1*
X970714Y2373448D1*
X973305Y2373031D1*
X975869Y2372476D1*
X978400Y2371786D1*
X980891Y2370962D1*
X983334Y2370006D1*
X985724Y2368922D1*
X988052Y2367712D1*
X990312Y2366380D1*
X992498Y2364930D1*
X994604Y2363365D1*
X996624Y2361691D1*
X998552Y2359911D1*
X1000382Y2358031D1*
X1002110Y2356057D1*
X1003730Y2353993D1*
X1005238Y2351846D1*
X1006629Y2349622D1*
X1007901Y2347327D1*
X1009048Y2344968D1*
X1010068Y2342550D1*
X1010958Y2340082D1*
X1011715Y2337570D1*
X1012338Y2335022D1*
X1012824Y2332444D1*
X1013172Y2329843D1*
X1013382Y2327228D1*
X1013451Y2324606D1*
X1013382Y2321983D1*
X903769Y2316765D2*
X901881Y2309063D1*
X898782Y2301763D1*
X894552Y2295054D1*
X889301Y2289111D1*
X883165Y2284088D1*
X876302Y2280113D1*
X868891Y2277291D1*
X861123Y2275695D1*
X853199Y2275365D1*
X845325Y2276311D1*
X837705Y2278507D1*
X830535Y2281897D1*
X824003Y2286394D1*
X818276Y2291880D1*
X813503Y2298213D1*
X809809Y2305231D1*
X807287Y2312750D1*
X806005Y2320576D1*
X805994Y2328506D1*
X807256Y2336336D1*
X809758Y2343861D1*
X813434Y2350888D1*
X818190Y2357235D1*
X823902Y2362736D1*
X830423Y2367250D1*
X837583Y2370659D1*
X845197Y2372875D1*
X853069Y2373842D1*
X860993Y2373533D1*
X868766Y2371957D1*
X876185Y2369154D1*
X883058Y2365198D1*
X889207Y2360191D1*
X894474Y2354261D1*
X898722Y2347564D1*
X901840Y2340272D1*
X903748Y2332575D1*
X904396Y2324606D1*
X903769Y2316765D1*
X765354Y1123884D2*
X861286D1*
Y1025328D1*
X762730D1*
Y1123884D1*
X765354D1*
X969713Y1066766D2*
X967826Y1059063D1*
X964727Y1051763D1*
X960497Y1045055D1*
X955246Y1039112D1*
X949110Y1034088D1*
X942247Y1030114D1*
X934836Y1027292D1*
X927067Y1025695D1*
X919144Y1025365D1*
X911270Y1026311D1*
X903650Y1028507D1*
X896480Y1031897D1*
X889948Y1036394D1*
X884221Y1041880D1*
X879448Y1048214D1*
X875754Y1055231D1*
X873232Y1062750D1*
X871950Y1070576D1*
X871939Y1078507D1*
X873201Y1086336D1*
X875703Y1093862D1*
X879379Y1100889D1*
X884135Y1107235D1*
X889847Y1112736D1*
X896368Y1117250D1*
X903528Y1120659D1*
X911142Y1122875D1*
X919014Y1123842D1*
X926938Y1123533D1*
X934711Y1121957D1*
X942129Y1119154D1*
X949003Y1115198D1*
X955152Y1110191D1*
X960419Y1104262D1*
X964666Y1097564D1*
X967785Y1090273D1*
X969693Y1082575D1*
X970341Y1074606D1*
X969713Y1066766D1*
X1078769D2*
X1076881Y1059063D1*
X1073782Y1051763D1*
X1069552Y1045055D1*
X1064301Y1039112D1*
X1058165Y1034088D1*
X1051302Y1030114D1*
X1043891Y1027292D1*
X1036123Y1025695D1*
X1028199Y1025365D1*
X1020325Y1026311D1*
X1012705Y1028507D1*
X1005535Y1031897D1*
X999003Y1036394D1*
X993276Y1041880D1*
X988503Y1048214D1*
X984809Y1055231D1*
X982287Y1062750D1*
X981005Y1070576D1*
X980994Y1078507D1*
X982256Y1086336D1*
X984758Y1093862D1*
X988434Y1100889D1*
X993190Y1107235D1*
X998902Y1112736D1*
X1005423Y1117250D1*
X1012583Y1120659D1*
X1020197Y1122875D1*
X1028069Y1123842D1*
X1035993Y1123533D1*
X1043766Y1121957D1*
X1051185Y1119154D1*
X1058058Y1115198D1*
X1064207Y1110191D1*
X1069474Y1104262D1*
X1073722Y1097564D1*
X1076840Y1090273D1*
X1078748Y1082575D1*
X1079396Y1074606D1*
X1078769Y1066766D1*
X1187824D2*
X1185936Y1059063D1*
X1182837Y1051763D1*
X1178607Y1045055D1*
X1173356Y1039112D1*
X1167220Y1034088D1*
X1160357Y1030114D1*
X1152946Y1027292D1*
X1145178Y1025695D1*
X1137254Y1025365D1*
X1129380Y1026311D1*
X1121760Y1028507D1*
X1114590Y1031897D1*
X1108058Y1036394D1*
X1102331Y1041880D1*
X1097559Y1048214D1*
X1093864Y1055231D1*
X1091343Y1062750D1*
X1090060Y1070576D1*
X1090050Y1078507D1*
X1091311Y1086336D1*
X1093813Y1093862D1*
X1097489Y1100889D1*
X1102245Y1107235D1*
X1107957Y1112736D1*
X1114478Y1117250D1*
X1121638Y1120659D1*
X1129253Y1122875D1*
X1137124Y1123842D1*
X1145048Y1123533D1*
X1152821Y1121957D1*
X1160240Y1119154D1*
X1167113Y1115198D1*
X1173262Y1110191D1*
X1178529Y1104262D1*
X1182777Y1097564D1*
X1185895Y1090273D1*
X1187803Y1082575D1*
X1188451Y1074606D1*
X1187824Y1066766D1*
X1405934D2*
X1404046Y1059063D1*
X1400947Y1051763D1*
X1396718Y1045055D1*
X1391467Y1039112D1*
X1385330Y1034088D1*
X1378467Y1030114D1*
X1371056Y1027292D1*
X1363288Y1025695D1*
X1355364Y1025365D1*
X1347490Y1026311D1*
X1339870Y1028507D1*
X1332701Y1031897D1*
X1326168Y1036394D1*
X1320441Y1041880D1*
X1315669Y1048214D1*
X1311974Y1055231D1*
X1309453Y1062750D1*
X1308170Y1070576D1*
X1308160Y1078507D1*
X1309422Y1086336D1*
X1311923Y1093862D1*
X1315599Y1100889D1*
X1320355Y1107235D1*
X1326067Y1112736D1*
X1332588Y1117250D1*
X1339748Y1120659D1*
X1347363Y1122875D1*
X1355234Y1123842D1*
X1363159Y1123533D1*
X1370931Y1121957D1*
X1378350Y1119154D1*
X1385223Y1115198D1*
X1391373Y1110191D1*
X1396639Y1104262D1*
X1400887Y1097564D1*
X1404005Y1090273D1*
X1405913Y1082575D1*
X1406562Y1074606D1*
X1405934Y1066766D1*
X1514989D2*
X1513101Y1059063D1*
X1510002Y1051763D1*
X1505773Y1045055D1*
X1500522Y1039112D1*
X1494385Y1034088D1*
X1487523Y1030114D1*
X1480111Y1027292D1*
X1472343Y1025695D1*
X1464419Y1025365D1*
X1456545Y1026311D1*
X1448925Y1028507D1*
X1441756Y1031897D1*
X1435223Y1036394D1*
X1429496Y1041880D1*
X1424724Y1048214D1*
X1421029Y1055231D1*
X1418508Y1062750D1*
X1417225Y1070576D1*
X1417215Y1078507D1*
X1418477Y1086336D1*
X1420978Y1093862D1*
X1424654Y1100889D1*
X1429410Y1107235D1*
X1435122Y1112736D1*
X1441643Y1117250D1*
X1448803Y1120659D1*
X1456418Y1122875D1*
X1464289Y1123842D1*
X1472214Y1123533D1*
X1479986Y1121957D1*
X1487405Y1119154D1*
X1494278Y1115198D1*
X1500428Y1110191D1*
X1505695Y1104262D1*
X1509942Y1097564D1*
X1513060Y1090273D1*
X1514968Y1082575D1*
X1515617Y1074606D1*
X1514989Y1066766D1*
X1624044D2*
X1622156Y1059063D1*
X1619058Y1051763D1*
X1614828Y1045055D1*
X1609577Y1039112D1*
X1603440Y1034088D1*
X1596578Y1030114D1*
X1589166Y1027292D1*
X1581398Y1025695D1*
X1573474Y1025365D1*
X1565601Y1026311D1*
X1557980Y1028507D1*
X1550811Y1031897D1*
X1544278Y1036394D1*
X1538552Y1041880D1*
X1533779Y1048214D1*
X1530084Y1055231D1*
X1527563Y1062750D1*
X1526281Y1070576D1*
X1526270Y1078507D1*
X1527532Y1086336D1*
X1530033Y1093862D1*
X1533710Y1100889D1*
X1538465Y1107235D1*
X1544178Y1112736D1*
X1550698Y1117250D1*
X1557859Y1120659D1*
X1565473Y1122875D1*
X1573344Y1123842D1*
X1581269Y1123533D1*
X1589041Y1121957D1*
X1596460Y1119154D1*
X1603333Y1115198D1*
X1609483Y1110191D1*
X1614750Y1104262D1*
X1618997Y1097564D1*
X1622115Y1090273D1*
X1624023Y1082575D1*
X1624672Y1074606D1*
X1624044Y1066766D1*
X915186Y954955D2*
X913298Y947252D1*
X910199Y939952D1*
X905970Y933244D1*
X900719Y927301D1*
X894582Y922277D1*
X887719Y918303D1*
X880308Y915481D1*
X872540Y913884D1*
X864616Y913554D1*
X856742Y914500D1*
X849122Y916696D1*
X841953Y920086D1*
X835420Y924583D1*
X829693Y930069D1*
X824921Y936403D1*
X821226Y943420D1*
X818705Y950939D1*
X817422Y958765D1*
X817412Y966696D1*
X818674Y974525D1*
X821175Y982051D1*
X824851Y989078D1*
X829607Y995424D1*
X835319Y1000925D1*
X841840Y1005439D1*
X849000Y1008848D1*
X856615Y1011064D1*
X864486Y1012031D1*
X872411Y1011722D1*
X880183Y1010146D1*
X887602Y1007343D1*
X894475Y1003387D1*
X900625Y998380D1*
X905891Y992451D1*
X910139Y985753D1*
X913257Y978462D1*
X915165Y970764D1*
X915814Y962795D1*
X915186Y954955D1*
X1024241D2*
X1022353Y947252D1*
X1019254Y939952D1*
X1015025Y933244D1*
X1009774Y927301D1*
X1003637Y922277D1*
X996775Y918303D1*
X989363Y915481D1*
X981595Y913884D1*
X973671Y913554D1*
X965797Y914500D1*
X958177Y916696D1*
X951008Y920086D1*
X944475Y924583D1*
X938748Y930069D1*
X933976Y936403D1*
X930281Y943420D1*
X927760Y950939D1*
X926477Y958765D1*
X926467Y966696D1*
X927729Y974525D1*
X930230Y982051D1*
X933906Y989078D1*
X938662Y995424D1*
X944374Y1000925D1*
X950895Y1005439D1*
X958055Y1008848D1*
X965670Y1011064D1*
X973541Y1012031D1*
X981466Y1011722D1*
X989238Y1010146D1*
X996657Y1007343D1*
X1003530Y1003387D1*
X1009680Y998380D1*
X1014947Y992451D1*
X1019194Y985753D1*
X1022312Y978462D1*
X1024220Y970764D1*
X1024869Y962795D1*
X1024241Y954955D1*
X1133296D2*
X1131408Y947252D1*
X1128310Y939952D1*
X1124080Y933244D1*
X1118829Y927301D1*
X1112692Y922277D1*
X1105830Y918303D1*
X1098418Y915481D1*
X1090650Y913884D1*
X1082726Y913554D1*
X1074853Y914500D1*
X1067232Y916696D1*
X1060063Y920086D1*
X1053530Y924583D1*
X1047804Y930069D1*
X1043031Y936403D1*
X1039336Y943420D1*
X1036815Y950939D1*
X1035533Y958765D1*
X1035522Y966696D1*
X1036784Y974525D1*
X1039285Y982051D1*
X1042961Y989078D1*
X1047717Y995424D1*
X1053430Y1000925D1*
X1059950Y1005439D1*
X1067111Y1008848D1*
X1074725Y1011064D1*
X1082596Y1012031D1*
X1090521Y1011722D1*
X1098293Y1010146D1*
X1105712Y1007343D1*
X1112585Y1003387D1*
X1118735Y998380D1*
X1124002Y992451D1*
X1128249Y985753D1*
X1131367Y978462D1*
X1133275Y970764D1*
X1133924Y962795D1*
X1133296Y954955D1*
X1242351D2*
X1240464Y947252D1*
X1237365Y939952D1*
X1233135Y933244D1*
X1227884Y927301D1*
X1221748Y922277D1*
X1214885Y918303D1*
X1207473Y915481D1*
X1199705Y913884D1*
X1191782Y913554D1*
X1183908Y914500D1*
X1176287Y916696D1*
X1169118Y920086D1*
X1162585Y924583D1*
X1156859Y930069D1*
X1152086Y936403D1*
X1148391Y943420D1*
X1145870Y950939D1*
X1144588Y958765D1*
X1144577Y966696D1*
X1145839Y974525D1*
X1148340Y982051D1*
X1152017Y989078D1*
X1156772Y995424D1*
X1162485Y1000925D1*
X1169005Y1005439D1*
X1176166Y1008848D1*
X1183780Y1011064D1*
X1191652Y1012031D1*
X1199576Y1011722D1*
X1207348Y1010146D1*
X1214767Y1007343D1*
X1221640Y1003387D1*
X1227790Y998380D1*
X1233057Y992451D1*
X1237304Y985753D1*
X1240422Y978462D1*
X1242330Y970764D1*
X1242979Y962795D1*
X1242351Y954955D1*
X1351406D2*
X1349519Y947252D1*
X1346420Y939952D1*
X1342190Y933244D1*
X1336939Y927301D1*
X1330803Y922277D1*
X1323940Y918303D1*
X1316528Y915481D1*
X1308760Y913884D1*
X1300837Y913554D1*
X1292963Y914500D1*
X1285342Y916696D1*
X1278173Y920086D1*
X1271641Y924583D1*
X1265914Y930069D1*
X1261141Y936403D1*
X1257447Y943420D1*
X1254925Y950939D1*
X1253643Y958765D1*
X1253632Y966696D1*
X1254894Y974525D1*
X1257395Y982051D1*
X1261072Y989078D1*
X1265828Y995424D1*
X1271540Y1000925D1*
X1278060Y1005439D1*
X1285221Y1008848D1*
X1292835Y1011064D1*
X1300707Y1012031D1*
X1308631Y1011722D1*
X1316403Y1010146D1*
X1323822Y1007343D1*
X1330696Y1003387D1*
X1336845Y998380D1*
X1342112Y992451D1*
X1346359Y985753D1*
X1349477Y978462D1*
X1351386Y970764D1*
X1352034Y962795D1*
X1351406Y954955D1*
X1460461D2*
X1458574Y947252D1*
X1455475Y939952D1*
X1451245Y933244D1*
X1445994Y927301D1*
X1439858Y922277D1*
X1432995Y918303D1*
X1425584Y915481D1*
X1417815Y913884D1*
X1409892Y913554D1*
X1402018Y914500D1*
X1394398Y916696D1*
X1387228Y920086D1*
X1380696Y924583D1*
X1374969Y930069D1*
X1370196Y936403D1*
X1366502Y943420D1*
X1363980Y950939D1*
X1362698Y958765D1*
X1362687Y966696D1*
X1363949Y974525D1*
X1366451Y982051D1*
X1370127Y989078D1*
X1374883Y995424D1*
X1380595Y1000925D1*
X1387116Y1005439D1*
X1394276Y1008848D1*
X1401890Y1011064D1*
X1409762Y1012031D1*
X1417686Y1011722D1*
X1425459Y1010146D1*
X1432877Y1007343D1*
X1439751Y1003387D1*
X1445900Y998380D1*
X1451167Y992451D1*
X1455414Y985753D1*
X1458533Y978462D1*
X1460441Y970764D1*
X1461089Y962795D1*
X1460461Y954955D1*
X1569517D2*
X1567629Y947252D1*
X1564530Y939952D1*
X1560300Y933244D1*
X1555049Y927301D1*
X1548913Y922277D1*
X1542050Y918303D1*
X1534639Y915481D1*
X1526871Y913884D1*
X1518947Y913554D1*
X1511073Y914500D1*
X1503453Y916696D1*
X1496283Y920086D1*
X1489751Y924583D1*
X1484024Y930069D1*
X1479251Y936403D1*
X1475557Y943420D1*
X1473035Y950939D1*
X1471753Y958765D1*
X1471743Y966696D1*
X1473004Y974525D1*
X1475506Y982051D1*
X1479182Y989078D1*
X1483938Y995424D1*
X1489650Y1000925D1*
X1496171Y1005439D1*
X1503331Y1008848D1*
X1510945Y1011064D1*
X1518817Y1012031D1*
X1526741Y1011722D1*
X1534514Y1010146D1*
X1541933Y1007343D1*
X1548806Y1003387D1*
X1554955Y998380D1*
X1560222Y992451D1*
X1564470Y985753D1*
X1567588Y978462D1*
X1569496Y970764D1*
X1570144Y962795D1*
X1569517Y954955D1*
X1960074Y1016076D2*
X1959981Y1013458D1*
X1959825Y1010843D1*
X1959608Y1008232D1*
X1959329Y1005627D1*
X1958988Y1003029D1*
X1958586Y1000440D1*
X1958122Y997862D1*
X1957598Y995295D1*
X1957012Y992741D1*
X1956367Y990202D1*
X1955661Y987679D1*
X1954896Y985174D1*
X1954071Y982687D1*
X1953188Y980220D1*
X1952247Y977775D1*
X1951248Y975354D1*
X1950192Y972956D1*
X1949079Y970584D1*
X1947910Y968240D1*
X1946686Y965923D1*
X1945408Y963636D1*
X1944075Y961381D1*
X1942690Y959157D1*
X1941252Y956967D1*
X1939763Y954812D1*
X1938223Y952692D1*
X1936633Y950610D1*
X1934994Y948566D1*
X1933307Y946561D1*
X1931573Y944597D1*
X1929794Y942675D1*
X1927969Y940795D1*
X1926100Y938959D1*
X1924188Y937168D1*
X1922234Y935423D1*
X1920239Y933724D1*
X1918204Y932073D1*
X1916131Y930472D1*
X1914021Y928919D1*
X1911874Y927417D1*
X1909693Y925967D1*
X1907477Y924568D1*
X1905229Y923223D1*
X1902950Y921931D1*
X1900641Y920693D1*
X1898303Y919511D1*
X1895938Y918384D1*
X1893546Y917314D1*
X1891130Y916301D1*
X1888691Y915345D1*
X1886230Y914448D1*
X1883748Y913609D1*
X1881247Y912829D1*
X1878728Y912108D1*
X1876193Y911448D1*
X1873642Y910848D1*
X1871079Y910308D1*
X1868503Y909830D1*
X1865916Y909412D1*
X1863321Y909056D1*
X1860717Y908762D1*
X1858108Y908530D1*
X1855494Y908359D1*
X1852876Y908250D1*
X1850257Y908204D1*
X1847637Y908220D1*
X1845018Y908297D1*
X1842402Y908437D1*
X1839790Y908639D1*
X1837183Y908903D1*
X1834584Y909228D1*
X1831992Y909615D1*
X1829411Y910063D1*
X1826841Y910572D1*
X1824284Y911143D1*
X1821741Y911773D1*
X1819214Y912464D1*
X1816704Y913214D1*
X1814212Y914024D1*
X1811741Y914892D1*
X1809290Y915819D1*
X1806862Y916804D1*
X1804459Y917846D1*
X1802080Y918945D1*
X1799729Y920099D1*
X1797405Y921310D1*
X1795111Y922575D1*
X1792847Y923894D1*
X1790616Y925266D1*
X1788417Y926691D1*
X1786253Y928167D1*
X1784124Y929695D1*
X1782032Y931272D1*
X1779979Y932899D1*
X1777964Y934574D1*
X1775990Y936296D1*
X1774057Y938064D1*
X1772166Y939878D1*
X1770319Y941736D1*
X1768517Y943637D1*
X1766760Y945581D1*
X1765050Y947566D1*
X1763387Y949590D1*
X1761773Y951654D1*
X1760208Y953755D1*
X1758694Y955893D1*
X1757230Y958066D1*
X1755819Y960273D1*
X1754460Y962513D1*
X1753154Y964784D1*
X1751903Y967086D1*
X1750707Y969417D1*
X1749566Y971775D1*
X1748482Y974160D1*
X1747454Y976570D1*
X1746484Y979004D1*
X1745572Y981460D1*
X1744719Y983937D1*
X1743924Y986433D1*
X1743189Y988948D1*
X1742513Y991479D1*
X1741898Y994026D1*
X1741343Y996586D1*
X1740849Y999159D1*
X1740417Y1001743D1*
X1740045Y1004336D1*
X1739735Y1006938D1*
X1739487Y1009546D1*
X1739301Y1012159D1*
X1739177Y1014776D1*
X1739115Y1017395D1*
Y1020015D1*
X1739178Y1022634D1*
X1739302Y1025251D1*
X1739488Y1027865D1*
X1739736Y1030473D1*
X1740046Y1033074D1*
X1740418Y1035668D1*
X1740851Y1038251D1*
X1741345Y1040824D1*
X1741900Y1043385D1*
X1742515Y1045931D1*
X1743191Y1048463D1*
X1743927Y1050977D1*
X1744722Y1053473D1*
X1745575Y1055950D1*
X1746488Y1058406D1*
X1747458Y1060840D1*
X1748486Y1063250D1*
X1749570Y1065634D1*
X1750711Y1067993D1*
X1751908Y1070324D1*
X1753159Y1072625D1*
X1754465Y1074897D1*
X1755824Y1077137D1*
X1757235Y1079344D1*
X1758699Y1081516D1*
X1760214Y1083654D1*
X1761779Y1085755D1*
X1763393Y1087818D1*
X1765056Y1089843D1*
X1766766Y1091827D1*
X1768523Y1093771D1*
X1770326Y1095672D1*
X1772173Y1097530D1*
X1774064Y1099344D1*
X1775997Y1101112D1*
X1777971Y1102834D1*
X1779986Y1104508D1*
X1782040Y1106135D1*
X1784132Y1107712D1*
X1786261Y1109239D1*
X1788425Y1110716D1*
X1790624Y1112140D1*
X1792855Y1113513D1*
X1795119Y1114831D1*
X1797413Y1116096D1*
X1799737Y1117306D1*
X1802089Y1118461D1*
X1804467Y1119559D1*
X1806871Y1120601D1*
X1809299Y1121585D1*
X1811750Y1122512D1*
X1814221Y1123380D1*
X1816713Y1124190D1*
X1819223Y1124940D1*
X1821751Y1125631D1*
X1824293Y1126261D1*
X1826851Y1126831D1*
X1829421Y1127340D1*
X1832002Y1127788D1*
X1834593Y1128175D1*
X1837193Y1128500D1*
X1839799Y1128763D1*
X1842411Y1128965D1*
X1845027Y1129104D1*
X1847646Y1129182D1*
X1850266Y1129197D1*
X1852885Y1129151D1*
X1855503Y1129042D1*
X1858117Y1128871D1*
X1860727Y1128638D1*
X1863330Y1128344D1*
X1865926Y1127988D1*
X1868512Y1127570D1*
X1871088Y1127091D1*
X1873652Y1126551D1*
X1876202Y1125951D1*
X1878737Y1125290D1*
X1881256Y1124570D1*
X1883757Y1123790D1*
X1886239Y1122951D1*
X1888700Y1122053D1*
X1891139Y1121097D1*
X1893555Y1120083D1*
X1895946Y1119013D1*
X1898311Y1117886D1*
X1900649Y1116704D1*
X1902958Y1115466D1*
X1905237Y1114174D1*
X1907485Y1112828D1*
X1909701Y1111429D1*
X1911882Y1109979D1*
X1914029Y1108477D1*
X1916139Y1106924D1*
X1918212Y1105322D1*
X1920246Y1103671D1*
X1922241Y1101972D1*
X1924195Y1100227D1*
X1926106Y1098436D1*
X1927975Y1096600D1*
X1929800Y1094720D1*
X1931580Y1092797D1*
X1933313Y1090833D1*
X1935000Y1088828D1*
X1936639Y1086784D1*
X1938228Y1084702D1*
X1939768Y1082582D1*
X1941257Y1080426D1*
X1942695Y1078236D1*
X1944080Y1076013D1*
X1945412Y1073757D1*
X1946691Y1071470D1*
X1947914Y1069153D1*
X1949083Y1066809D1*
X1950195Y1064437D1*
X1951252Y1062039D1*
X1952250Y1059617D1*
X1953192Y1057172D1*
X1954075Y1054705D1*
X1954899Y1052219D1*
X1955664Y1049713D1*
X1956369Y1047190D1*
X1957015Y1044651D1*
X1957600Y1042097D1*
X1958124Y1039530D1*
X1958587Y1036951D1*
X1958989Y1034363D1*
X1959330Y1031765D1*
X1959609Y1029160D1*
X1959826Y1026549D1*
X1959981Y1023934D1*
X1960074Y1021316D1*
X1960105Y1018701D1*
X1960074Y1016076D1*
X2692351Y1066766D2*
X2690464Y1059064D1*
X2687365Y1051764D1*
X2683135Y1045055D1*
X2677884Y1039112D1*
X2671748Y1034088D1*
X2664885Y1030114D1*
X2657473Y1027292D1*
X2649705Y1025696D1*
X2641782Y1025366D1*
X2633908Y1026311D1*
X2626287Y1028508D1*
X2619118Y1031898D1*
X2612585Y1036394D1*
X2606859Y1041880D1*
X2602086Y1048214D1*
X2598391Y1055231D1*
X2595870Y1062750D1*
X2594588Y1070577D1*
X2594577Y1078507D1*
X2595839Y1086337D1*
X2598340Y1093862D1*
X2602017Y1100889D1*
X2606772Y1107235D1*
X2612485Y1112737D1*
X2619005Y1117250D1*
X2626166Y1120659D1*
X2633780Y1122876D1*
X2641652Y1123842D1*
X2649576Y1123533D1*
X2657348Y1121957D1*
X2664767Y1119155D1*
X2671640Y1115199D1*
X2677790Y1110191D1*
X2683057Y1104262D1*
X2687304Y1097565D1*
X2690422Y1090273D1*
X2692330Y1082576D1*
X2692979Y1074607D1*
X2692351Y1066766D1*
X2747437Y960172D2*
X2747227Y957557D1*
X2746879Y954957D1*
X2746393Y952378D1*
X2745770Y949830D1*
X2745013Y947318D1*
X2744123Y944850D1*
X2743102Y942433D1*
X2741955Y940073D1*
X2740684Y937778D1*
X2739292Y935554D1*
X2737784Y933407D1*
X2736164Y931344D1*
X2734436Y929369D1*
X2732606Y927489D1*
X2730678Y925710D1*
X2728658Y924035D1*
X2726552Y922471D1*
X2724366Y921020D1*
X2722106Y919689D1*
X2719777Y918479D1*
X2717388Y917395D1*
X2714945Y916439D1*
X2712454Y915615D1*
X2709923Y914925D1*
X2707358Y914371D1*
X2704768Y913953D1*
X2702159Y913674D1*
X2699539Y913535D1*
X2696916D1*
X2694296Y913675D1*
X2691687Y913953D1*
X2689097Y914371D1*
X2686533Y914925D1*
X2684001Y915616D1*
X2681511Y916440D1*
X2679067Y917395D1*
X2676678Y918479D1*
X2674350Y919689D1*
X2672090Y921021D1*
X2669903Y922472D1*
X2667797Y924036D1*
X2665778Y925711D1*
X2663850Y927490D1*
X2662019Y929370D1*
X2660292Y931345D1*
X2658672Y933408D1*
X2657164Y935555D1*
X2655772Y937779D1*
X2654501Y940074D1*
X2653354Y942434D1*
X2652333Y944851D1*
X2651443Y947319D1*
X2650686Y949831D1*
X2650063Y952380D1*
X2649577Y954958D1*
X2649229Y957558D1*
X2649020Y960174D1*
X2648950Y962796D1*
X2649020Y965419D1*
X2649229Y968034D1*
X2649578Y970635D1*
X2650064Y973213D1*
X2650687Y975762D1*
X2651444Y978273D1*
X2652334Y980742D1*
X2653354Y983159D1*
X2654502Y985518D1*
X2655773Y987813D1*
X2657165Y990037D1*
X2658673Y992184D1*
X2660293Y994248D1*
X2662020Y996222D1*
X2663851Y998102D1*
X2665779Y999881D1*
X2667798Y1001556D1*
X2669904Y1003121D1*
X2672091Y1004571D1*
X2674351Y1005903D1*
X2676679Y1007112D1*
X2679068Y1008197D1*
X2681512Y1009152D1*
X2684003Y1009976D1*
X2686534Y1010666D1*
X2689098Y1011221D1*
X2691689Y1011638D1*
X2694297Y1011917D1*
X2696917Y1012056D1*
X2699541D1*
X2702161Y1011917D1*
X2704770Y1011638D1*
X2707360Y1011220D1*
X2709924Y1010666D1*
X2712455Y1009975D1*
X2714946Y1009151D1*
X2717390Y1008196D1*
X2719779Y1007112D1*
X2722107Y1005902D1*
X2724367Y1004570D1*
X2726553Y1003120D1*
X2728659Y1001555D1*
X2730679Y999881D1*
X2732607Y998101D1*
X2734437Y996221D1*
X2736165Y994247D1*
X2737785Y992183D1*
X2739293Y990036D1*
X2740685Y987812D1*
X2741956Y985517D1*
X2743103Y983157D1*
X2744123Y980740D1*
X2745013Y978272D1*
X2745771Y975760D1*
X2746393Y973211D1*
X2746879Y970633D1*
X2747227Y968033D1*
X2747437Y965418D1*
X2747507Y962796D1*
X2747437Y960172D1*
X1388792Y1579611D2*
X1386902Y1571876D1*
X1383795Y1564545D1*
X1379553Y1557807D1*
X1374285Y1551837D1*
X1368127Y1546789D1*
X1361239Y1542795D1*
X1353800Y1539957D1*
X1346002Y1538349D1*
X1338047Y1538013D1*
X1330141Y1538957D1*
X1322489Y1541157D1*
X1315289Y1544556D1*
X1308727Y1549067D1*
X1302974Y1554571D1*
X1298178Y1560927D1*
X1294464Y1567970D1*
X1291928Y1575517D1*
X1290636Y1583374D1*
X1290620Y1591336D1*
X1291882Y1599198D1*
X1294388Y1606755D1*
X1298075Y1613812D1*
X1302846Y1620187D1*
X1308577Y1625714D1*
X1315121Y1630250D1*
X1322308Y1633677D1*
X1329951Y1635907D1*
X1337853Y1636882D1*
X1345810Y1636577D1*
X1353614Y1635000D1*
X1361064Y1632191D1*
X1367968Y1628224D1*
X1374145Y1623200D1*
X1379437Y1617251D1*
X1383705Y1610529D1*
X1386840Y1603210D1*
X1388761Y1595483D1*
X1389417Y1587451D1*
X1388792Y1579611D1*
Y1679611D2*
X1386902Y1671876D1*
X1383795Y1664545D1*
X1379553Y1657807D1*
X1374285Y1651837D1*
X1368127Y1646789D1*
X1361239Y1642795D1*
X1353800Y1639957D1*
X1346002Y1638349D1*
X1338047Y1638013D1*
X1330141Y1638957D1*
X1322489Y1641157D1*
X1315289Y1644556D1*
X1308727Y1649067D1*
X1302974Y1654571D1*
X1298178Y1660927D1*
X1294464Y1667970D1*
X1291928Y1675517D1*
X1290636Y1683374D1*
X1290620Y1691336D1*
X1291882Y1699198D1*
X1294388Y1706755D1*
X1298075Y1713812D1*
X1302846Y1720187D1*
X1308577Y1725714D1*
X1315121Y1730250D1*
X1322308Y1733677D1*
X1329951Y1735907D1*
X1337853Y1736882D1*
X1345810Y1736577D1*
X1353614Y1735000D1*
X1361064Y1732191D1*
X1367968Y1728224D1*
X1374145Y1723200D1*
X1379437Y1717251D1*
X1383705Y1710529D1*
X1386840Y1703210D1*
X1388761Y1695483D1*
X1389417Y1687451D1*
X1388792Y1679611D1*
X1354851Y1834627D2*
X1356338Y1834131D1*
X1357815Y1833585D1*
X1359274Y1832993D1*
X1360714Y1832355D1*
X1362132Y1831671D1*
X1363528Y1830943D1*
X1364900Y1830170D1*
X1366247Y1829354D1*
X1367567Y1828496D1*
X1368860Y1827596D1*
X1370123Y1826655D1*
X1371355Y1825675D1*
X1377080Y1820141D1*
X1381843Y1813760D1*
X1385520Y1806698D1*
X1388017Y1799138D1*
X1388422Y1796596D1*
X1399124Y1767076D1*
X1418325Y1747877D1*
X1420157Y1746768D1*
X1452418Y1746769D1*
X1367087Y1832097D1*
X1354851Y1834627D1*
X3143029Y1594220D2*
Y1590806D1*
X3144478Y1590813D1*
X3144473Y1696595D1*
X3143021Y1696588D1*
X3143029Y1676772D1*
X3143021Y1645407D1*
X3143029Y1619816D1*
X3143021Y1594226D1*
X1446866Y1531289D2*
Y1628134D1*
X1454740D1*
Y1744439D1*
X1455003Y1744184D1*
Y1418724D1*
X1455371Y1414884D1*
X1457340Y1409331D1*
X1460845Y1404596D1*
X1483098Y1382349D1*
X1439315D1*
X1435800Y1382037D1*
X1430217Y1380154D1*
X1425425Y1376717D1*
X1406100Y1357399D1*
X1389417D1*
Y1436926D1*
X1290467D1*
X1290465Y1381398D1*
X1288648Y1383212D1*
Y1910438D1*
X1506376Y2128163D1*
X1743703D1*
X1484470Y1868929D1*
X1482205Y1866223D1*
X1479589Y1860944D1*
X1478630Y1855125D1*
X1478624Y1776980D1*
X1395297Y1860303D1*
X1389251Y1889555D1*
X1388761Y1895483D1*
X1386840Y1903210D1*
X1383705Y1910529D1*
X1379437Y1917251D1*
X1374145Y1923200D1*
X1367968Y1928224D1*
X1361064Y1932191D1*
X1353614Y1935000D1*
X1345810Y1936577D1*
X1337853Y1936882D1*
X1329951Y1935907D1*
X1322308Y1933677D1*
X1315121Y1930250D1*
X1308577Y1925714D1*
X1302846Y1920187D1*
X1298075Y1913812D1*
X1294388Y1906755D1*
X1291882Y1899198D1*
X1290620Y1891336D1*
X1290636Y1883374D1*
X1291928Y1875517D1*
X1294464Y1867970D1*
X1298178Y1860927D1*
X1302974Y1854571D1*
X1308727Y1849067D1*
X1315289Y1844556D1*
X1322489Y1841157D1*
X1330141Y1838957D1*
X1338047Y1838013D1*
X1338553Y1837995D1*
X1345016Y1836660D1*
X1344050Y1836756D1*
X1342479Y1836861D1*
X1340906Y1836917D1*
X1339331Y1836923D1*
X1337757Y1836878D1*
X1336185Y1836784D1*
X1334617Y1836639D1*
X1333054Y1836445D1*
X1331498Y1836201D1*
X1329951Y1835907D1*
X1322308Y1833677D1*
X1315121Y1830250D1*
X1308577Y1825714D1*
X1302846Y1820187D1*
X1298075Y1813812D1*
X1294388Y1806755D1*
X1291882Y1799198D1*
X1290620Y1791336D1*
X1290636Y1783374D1*
X1291928Y1775517D1*
X1294464Y1767970D1*
X1298178Y1760927D1*
X1302974Y1754571D1*
X1308727Y1749067D1*
X1315289Y1744556D1*
X1322489Y1741157D1*
X1330141Y1738957D1*
X1338047Y1738013D1*
X1345661Y1738308D1*
X1372770Y1737011D1*
X1390121Y1719660D1*
X1395160Y1711311D1*
Y1628134D1*
X1403034Y1628127D1*
X1403029Y1540274D1*
X1383756Y1520992D1*
X1365696Y1529529D1*
X1361064Y1532191D1*
X1353614Y1535000D1*
X1345810Y1536577D1*
X1337853Y1536882D1*
X1329951Y1535907D1*
X1322308Y1533677D1*
X1315121Y1530250D1*
X1308577Y1525714D1*
X1302846Y1520187D1*
X1298075Y1513812D1*
X1294388Y1506755D1*
X1291882Y1499198D1*
X1290620Y1491336D1*
X1290636Y1483374D1*
X1291928Y1475517D1*
X1294464Y1467970D1*
X1298178Y1460927D1*
X1302974Y1454571D1*
X1308727Y1449067D1*
X1315289Y1444556D1*
X1322489Y1441157D1*
X1330141Y1438957D1*
X1338047Y1438013D1*
X1346002Y1438349D1*
X1353800Y1439957D1*
X1361239Y1442795D1*
X1368127Y1446789D1*
X1374285Y1451837D1*
X1379553Y1457807D1*
X1379673Y1457998D1*
X1394634Y1470135D1*
X1396698Y1471954D1*
X1440918Y1516189D1*
X1444472Y1521241D1*
X1446476Y1527090D1*
X1446866Y1531289D1*
X1926657Y1507138D2*
X1926679Y1507102D1*
X1947607D1*
X1947604Y1539420D1*
X1943761Y1535581D1*
X1938972Y1532149D1*
X1933389Y1530266D1*
X1929874Y1529954D1*
X1911361Y1529957D1*
X1915283Y1524807D1*
X1917746Y1518800D1*
X1917843Y1518050D1*
X1919486Y1515202D1*
X1923573Y1511116D1*
X1926657Y1507138D1*
X1985983Y1412089D2*
X1968800D1*
X1968798Y1311143D1*
X1985588Y1294351D1*
X1985592Y1403638D1*
X1986464Y1409470D1*
X1985988Y1412097D1*
X2187655Y1632853D2*
X2186586Y1633362D1*
X2185491Y1633806D1*
X2184370Y1634185D1*
X2178543Y1635055D1*
X2171553Y1635058D1*
X2171555Y1637483D1*
X2183454Y1637480D1*
X2188600Y1632334D1*
X2187655Y1632853D1*
X2088881Y1755134D2*
X2126439D1*
X2143149Y1757005D1*
X2088875Y1811282D1*
X2088881Y1755134D1*
X2088875Y1758752D2*
Y1755130D1*
Y1758752D1*
X1869841Y1742798D2*
X1854616D1*
X1854623Y1674214D1*
Y1658643D1*
X1858797Y1658082D1*
X1864894Y1655853D1*
X1866528Y1654705D1*
X1869816Y1653758D1*
X1871359Y1653759D1*
X1870159Y1657855D1*
X1869846Y1661370D1*
Y1742794D1*
X2558563Y1875361D2*
X2625361D1*
Y1758694D1*
X2555939D1*
Y1875361D1*
X2558563D1*
X2744915D2*
X2806463D1*
Y1838951D1*
X2810001Y1838944D1*
X2812934Y1839054D1*
X2818132Y1841072D1*
X2824571Y1841896D1*
X2831004Y1841025D1*
X2836993Y1838519D1*
X2842129Y1834548D1*
X2846063Y1829383D1*
X2848525Y1823376D1*
X2849349Y1817028D1*
X2848478Y1810503D1*
X2845972Y1804515D1*
X2842001Y1799379D1*
X2836836Y1795445D1*
X2830829Y1792983D1*
X2824390Y1792159D1*
X2817956Y1793030D1*
X2813272Y1794990D1*
X2810006Y1795111D1*
X2806462D1*
X2806463Y1758694D1*
X2737041D1*
Y1875361D1*
X2744915D1*
X1666041Y1695638D2*
Y1654745D1*
X1706948Y1654740D1*
X1666040Y1695641D1*
X1659262Y1465537D2*
X1570019D1*
X1566786Y1465416D1*
X1561888Y1463408D1*
X1555449Y1462584D1*
X1549015Y1463455D1*
X1543011Y1465973D1*
X1543007Y1452797D1*
X1545103Y1450705D1*
X1743431Y1450707D1*
X1746126Y1451483D1*
X1747518Y1452342D1*
X1753525Y1454805D1*
X1754588Y1454941D1*
X1757393Y1456488D1*
X1795668Y1494766D1*
X1745831D1*
Y1498757D1*
X1745000Y1498753D1*
X1742980Y1494330D1*
X1739009Y1489194D1*
X1733844Y1485260D1*
X1727837Y1482798D1*
X1721397Y1481974D1*
X1714964Y1482845D1*
X1708975Y1485351D1*
X1703839Y1489322D1*
X1699906Y1494487D1*
X1697443Y1500494D1*
X1696620Y1506933D1*
X1696950Y1509377D1*
X1681198Y1509383D1*
X1681200Y1487453D1*
X1680329Y1481337D1*
X1677787Y1475708D1*
X1673774Y1471011D1*
X1668611Y1467621D1*
X1662700Y1465805D1*
X1659262Y1465537D1*
X2444902Y1680675D2*
X2450537Y1678129D1*
X2456652Y1677258D1*
X2735397Y1677260D1*
X2746940Y1665717D1*
X2750705Y1662698D1*
X2756335Y1660155D1*
X2762450Y1659285D1*
X2765633Y1659284D1*
X2765634Y1657743D1*
X2426842Y1657740D1*
X2413651Y1670931D1*
X2410677Y1673383D1*
X2405359Y1675917D1*
X2399531Y1676787D1*
X2382306Y1676790D1*
X2374568Y1684528D1*
X2368009Y1690830D1*
Y1704740D1*
X2249374D1*
Y1692404D1*
X2247342Y1689055D1*
X2238482Y1680193D1*
X2238475Y1741125D1*
X2383703Y1741130D1*
X2441139Y1683694D1*
X2444902Y1680675D1*
X968699Y1200760D2*
X965980Y1206313D1*
X964921Y1212399D1*
X964911Y1228570D1*
Y1472980D1*
X964800Y1475904D1*
X962782Y1481103D1*
X961958Y1487542D1*
X962829Y1493976D1*
X965335Y1499964D1*
X969306Y1505100D1*
X974471Y1509034D1*
X980478Y1511496D1*
X986918Y1512320D1*
X993351Y1511449D1*
X999340Y1508943D1*
X1004476Y1504972D1*
X1008409Y1499807D1*
X1010871Y1493800D1*
X1011696Y1487451D1*
X1010824Y1480927D1*
X1008864Y1476243D1*
X1008743Y1472981D1*
X1008742Y1222154D1*
X1015633Y1215259D1*
Y1217241D1*
X1134268D1*
Y1207407D1*
X1135690Y1207397D1*
X1141503Y1206437D1*
X1146782Y1203821D1*
X1149488Y1201556D1*
X1221308Y1129737D1*
X1250567Y1123671D1*
X1254104Y1123533D1*
X1261876Y1121957D1*
X1269295Y1119154D1*
X1276168Y1115198D1*
X1282318Y1110191D1*
X1287584Y1104262D1*
X1291832Y1097564D1*
X1294950Y1090273D1*
X1296858Y1082575D1*
X1297507Y1074606D1*
X1296879Y1066766D1*
X1294991Y1059063D1*
X1291892Y1051763D1*
X1287663Y1045055D1*
X1282411Y1039112D1*
X1276275Y1034088D1*
X1269412Y1030114D1*
X1262001Y1027292D1*
X1254233Y1025695D1*
X1246309Y1025365D1*
X1238435Y1026311D1*
X1230815Y1028507D1*
X1223646Y1031897D1*
X1217113Y1036394D1*
X1211386Y1041880D1*
X1206614Y1048214D1*
X1202919Y1055231D1*
X1200398Y1062750D1*
X1199115Y1070576D1*
X1199113Y1072520D1*
X1193099Y1101529D1*
X1134269Y1160355D1*
X1134268Y1157661D1*
X1015633D1*
X1015629Y1165535D1*
X1012464D1*
X1008333Y1165925D1*
X1002490Y1167929D1*
X997438Y1171484D1*
X987115Y1181793D1*
X971343Y1197564D1*
X968699Y1200760D1*
X2576573Y879612D2*
X2603278Y906317D1*
X2605546Y909029D1*
X2607090Y911654D1*
X2623337Y927282D1*
X2628607Y933244D1*
X2632837Y939953D1*
X2635936Y947253D1*
X2637824Y954955D1*
X2638451Y962861D1*
X2637803Y970765D1*
X2635895Y978462D1*
X2632777Y985754D1*
X2628529Y992451D1*
X2623262Y998380D1*
X2617113Y1003388D1*
X2610240Y1007344D1*
X2602821Y1010146D1*
X2595048Y1011722D1*
X2587124Y1012031D1*
X2579253Y1011065D1*
X2571638Y1008848D1*
X2564478Y1005439D1*
X2557957Y1000926D1*
X2554593Y997910D1*
X2554590Y1016587D1*
X2570977Y1041544D1*
X2574080Y1045055D1*
X2578310Y1051764D1*
X2581408Y1059064D1*
X2583296Y1066766D1*
X2583924Y1074672D1*
X2583275Y1082576D1*
X2581367Y1090273D1*
X2578249Y1097565D1*
X2574002Y1104262D1*
X2568735Y1110191D1*
X2562585Y1115199D1*
X2555712Y1119155D1*
X2548293Y1121957D1*
X2540521Y1123533D1*
X2532596Y1123842D1*
X2524725Y1122876D1*
X2517111Y1120659D1*
X2509950Y1117250D1*
X2503430Y1112737D1*
X2500066Y1109497D1*
Y1232260D1*
X2499697Y1236100D1*
X2497728Y1241653D1*
X2494223Y1246388D1*
X2204501Y1536105D1*
X2335590Y1536101D1*
X2748162Y1123530D1*
X2742835Y1122876D1*
X2735221Y1120659D1*
X2728060Y1117250D1*
X2721540Y1112737D1*
X2715828Y1107235D1*
X2711072Y1100889D1*
X2707395Y1093862D1*
X2704894Y1086337D1*
X2703632Y1078507D1*
X2703643Y1070577D1*
X2704925Y1062750D1*
X2707447Y1055231D1*
X2711141Y1048214D1*
X2715914Y1041880D1*
X2721641Y1036394D1*
X2728173Y1031898D1*
X2735342Y1028508D1*
X2742963Y1026311D1*
X2750837Y1025366D1*
X2758760Y1025696D1*
X2766528Y1027292D1*
X2773940Y1030114D1*
X2780803Y1034088D1*
X2786939Y1039112D1*
X2787334Y1039559D1*
X2787340Y1020816D1*
X2771209Y996246D1*
X2770355Y995424D1*
X2765599Y989078D1*
X2761923Y982051D1*
X2759422Y974526D1*
X2758160Y966696D1*
X2758170Y958766D1*
X2759453Y950939D1*
X2761974Y943420D1*
X2765669Y936403D1*
X2770441Y930069D1*
X2776168Y924583D1*
X2782701Y920087D1*
X2789870Y916697D1*
X2797490Y914500D1*
X2805364Y913555D1*
X2813288Y913885D1*
X2821056Y915481D1*
X2828467Y918303D1*
X2835330Y922277D1*
X2841467Y927301D1*
X2846718Y933244D1*
X2850947Y939953D1*
X2854046Y947253D1*
X2855934Y954955D1*
X2856562Y962861D1*
X2855913Y970765D1*
X2854005Y978462D1*
X2850887Y985754D1*
X2846639Y992451D1*
X2843104Y996637D1*
X2827231Y1020812D1*
X2827234Y1039711D1*
X2830696Y1036394D1*
X2837228Y1031898D1*
X2844398Y1028508D1*
X2852018Y1026311D1*
X2859892Y1025366D1*
X2867815Y1025696D1*
X2875584Y1027292D1*
X2882995Y1030114D1*
X2889858Y1034088D1*
X2895994Y1039112D1*
X2901245Y1045055D1*
X2905475Y1051764D1*
X2908574Y1059064D1*
X2910461Y1066766D1*
X2910892Y1072149D1*
X2918033Y1099835D1*
X2937457Y1119259D1*
X2940478Y1123025D1*
X2943021Y1128655D1*
X2943891Y1134770D1*
X2943896Y1570434D1*
X2950109Y1570463D1*
Y1443333D1*
X3021500D1*
X3021497Y1570604D1*
X3057858Y1570611D1*
Y1568635D1*
X3063764Y1568643D1*
Y1464304D1*
X3158777D1*
X3158769Y1553871D1*
X3172032Y1553864D1*
Y1437729D1*
X3234843Y1437735D1*
Y1065517D1*
X3234233Y1066805D1*
X3233056Y1069147D1*
X3231823Y1071460D1*
X3230535Y1073743D1*
X3229193Y1075994D1*
X3227798Y1078213D1*
X3226350Y1080398D1*
X3224850Y1082547D1*
X3223300Y1084660D1*
X3221699Y1086736D1*
X3220049Y1088772D1*
X3218351Y1090769D1*
X3216606Y1092724D1*
X3214815Y1094638D1*
X3212978Y1096508D1*
X3211097Y1098333D1*
X3209174Y1100113D1*
X3207208Y1101847D1*
X3205201Y1103533D1*
X3203155Y1105171D1*
X3201070Y1106759D1*
X3198948Y1108297D1*
X3196789Y1109784D1*
X3194596Y1111219D1*
X3192369Y1112601D1*
X3190110Y1113930D1*
X3187820Y1115204D1*
X3185499Y1116423D1*
X3183151Y1117587D1*
X3180775Y1118694D1*
X3178374Y1119743D1*
X3175948Y1120736D1*
X3173499Y1121670D1*
X3171028Y1122545D1*
X3168537Y1123361D1*
X3166028Y1124117D1*
X3163501Y1124813D1*
X3160958Y1125449D1*
X3158401Y1126023D1*
X3155831Y1126537D1*
X3153249Y1126988D1*
X3150657Y1127378D1*
X3148057Y1127706D1*
X3145449Y1127972D1*
X3142836Y1128176D1*
X3140219Y1128316D1*
X3137599Y1128395D1*
X3134978Y1128411D1*
X3132358Y1128364D1*
X3129739Y1128254D1*
X3127124Y1128082D1*
X3124513Y1127848D1*
X3121909Y1127551D1*
X3119313Y1127192D1*
X3116726Y1126771D1*
X3114150Y1126289D1*
X3111586Y1125745D1*
X3109035Y1125140D1*
X3106500Y1124475D1*
X3103982Y1123749D1*
X3101482Y1122963D1*
X3099001Y1122117D1*
X3096541Y1121213D1*
X3094103Y1120250D1*
X3091689Y1119229D1*
X3089300Y1118150D1*
X3086938Y1117015D1*
X3084603Y1115824D1*
X3082298Y1114577D1*
X3080023Y1113276D1*
X3077779Y1111921D1*
X3075569Y1110512D1*
X3073393Y1109051D1*
X3071252Y1107539D1*
X3069148Y1105975D1*
X3067083Y1104362D1*
X3065056Y1102700D1*
X3063069Y1100991D1*
X3061124Y1099234D1*
X3059222Y1097431D1*
X3057363Y1095583D1*
X3055549Y1093692D1*
X3053780Y1091757D1*
X3052058Y1089781D1*
X3050384Y1087764D1*
X3048759Y1085708D1*
X3047183Y1083614D1*
X3045657Y1081483D1*
X3044183Y1079316D1*
X3042762Y1077114D1*
X3041393Y1074879D1*
X3040078Y1072611D1*
X3038817Y1070314D1*
X3037612Y1067986D1*
X3036462Y1065631D1*
X3035370Y1063248D1*
X3034334Y1060840D1*
X3033356Y1058409D1*
X3032437Y1055954D1*
X3031577Y1053479D1*
X3030775Y1050983D1*
X3030034Y1048469D1*
X3029353Y1045938D1*
X3028733Y1043391D1*
X3028174Y1040831D1*
X3027676Y1038258D1*
X3027239Y1035673D1*
X3026865Y1033079D1*
X3026552Y1030477D1*
X3026302Y1027868D1*
X3026114Y1025254D1*
X3025989Y1022636D1*
X3025927Y1020015D1*
X3025926Y1017394D1*
X3025989Y1014774D1*
X3026114Y1012156D1*
X3026302Y1009542D1*
X3026552Y1006933D1*
X3026864Y1004330D1*
X3027238Y1001736D1*
X3027674Y999152D1*
X3028172Y996579D1*
X3028731Y994018D1*
X3029351Y991471D1*
X3030032Y988940D1*
X3030773Y986426D1*
X3031574Y983931D1*
X3032435Y981455D1*
X3033354Y979000D1*
X3034331Y976569D1*
X3035367Y974161D1*
X3036459Y971778D1*
X3037609Y969423D1*
X3038814Y967095D1*
X3040074Y964797D1*
X3041389Y962530D1*
X3042758Y960295D1*
X3044179Y958093D1*
X3045653Y955926D1*
X3047179Y953794D1*
X3048754Y951700D1*
X3050380Y949643D1*
X3052054Y947627D1*
X3053775Y945650D1*
X3055544Y943716D1*
X3057358Y941824D1*
X3059217Y939976D1*
X3061119Y938174D1*
X3063064Y936417D1*
X3065050Y934707D1*
X3067077Y933045D1*
X3069143Y931431D1*
X3071246Y929868D1*
X3073387Y928355D1*
X3075563Y926894D1*
X3077773Y925486D1*
X3080016Y924130D1*
X3082291Y922829D1*
X3084597Y921582D1*
X3086931Y920390D1*
X3089294Y919255D1*
X3091682Y918177D1*
X3094096Y917155D1*
X3096534Y916192D1*
X3098994Y915288D1*
X3101475Y914442D1*
X3103975Y913656D1*
X3106493Y912930D1*
X3109028Y912264D1*
X3111579Y911659D1*
X3114142Y911115D1*
X3116719Y910632D1*
X3119306Y910211D1*
X3121902Y909852D1*
X3124506Y909555D1*
X3127116Y909321D1*
X3129732Y909149D1*
X3132350Y909039D1*
X3134971Y908992D1*
X3137592Y909007D1*
X3140212Y909086D1*
X3142829Y909226D1*
X3145442Y909430D1*
X3148050Y909695D1*
X3150650Y910023D1*
X3153242Y910413D1*
X3155824Y910864D1*
X3158394Y911377D1*
X3160951Y911952D1*
X3163494Y912587D1*
X3166021Y913283D1*
X3168530Y914039D1*
X3171021Y914855D1*
X3173492Y915730D1*
X3175941Y916664D1*
X3178367Y917656D1*
X3180768Y918706D1*
X3183144Y919813D1*
X3185493Y920976D1*
X3187813Y922195D1*
X3190104Y923469D1*
X3192363Y924797D1*
X3194590Y926179D1*
X3196783Y927614D1*
X3198942Y929101D1*
X3201064Y930639D1*
X3203149Y932227D1*
X3205196Y933865D1*
X3207202Y935551D1*
X3209168Y937284D1*
X3211092Y939064D1*
X3212973Y940890D1*
X3214810Y942759D1*
X3216601Y944673D1*
X3218346Y946628D1*
X3220045Y948624D1*
X3221694Y950661D1*
X3223295Y952736D1*
X3224846Y954849D1*
X3226346Y956999D1*
X3227794Y959183D1*
X3229189Y961402D1*
X3230531Y963653D1*
X3231819Y965936D1*
X3233052Y968249D1*
X3234843Y971861D1*
X3234836Y427559D1*
X427559Y427561D1*
X427570Y1010925D1*
X427786Y1008310D1*
X428064Y1005700D1*
X428404Y1003097D1*
X428805Y1000504D1*
X429268Y997920D1*
X429792Y995348D1*
X430377Y992790D1*
X431023Y990246D1*
X431729Y987718D1*
X432495Y985208D1*
X433320Y982716D1*
X434204Y980245D1*
X435147Y977795D1*
X436147Y975369D1*
X437205Y972967D1*
X438896Y969417D1*
X440092Y967086D1*
X441343Y964784D1*
X442649Y962513D1*
X444008Y960273D1*
X445419Y958066D1*
X446883Y955893D1*
X448397Y953755D1*
X449962Y951654D1*
X451576Y949590D1*
X453239Y947566D1*
X454949Y945581D1*
X456706Y943637D1*
X458508Y941736D1*
X460355Y939878D1*
X462246Y938064D1*
X464179Y936296D1*
X466153Y934574D1*
X468168Y932899D1*
X470221Y931272D1*
X472313Y929695D1*
X474442Y928167D1*
X476606Y926691D1*
X478804Y925266D1*
X481036Y923894D1*
X483300Y922575D1*
X485594Y921310D1*
X487918Y920099D1*
X490269Y918945D1*
X492648Y917846D1*
X495051Y916804D1*
X497479Y915819D1*
X499930Y914892D1*
X502401Y914024D1*
X504893Y913214D1*
X507403Y912464D1*
X509930Y911773D1*
X512473Y911143D1*
X515030Y910572D1*
X517600Y910063D1*
X520181Y909615D1*
X522773Y909228D1*
X525372Y908903D1*
X527979Y908639D1*
X530591Y908437D1*
X533207Y908297D1*
X535826Y908220D1*
X538446Y908204D1*
X541065Y908250D1*
X543683Y908359D1*
X546297Y908530D1*
X548906Y908762D1*
X551510Y909056D1*
X554105Y909412D1*
X556692Y909830D1*
X559268Y910308D1*
X561831Y910848D1*
X564381Y911448D1*
X566917Y912108D1*
X569436Y912829D1*
X571937Y913609D1*
X574419Y914448D1*
X576880Y915345D1*
X579319Y916301D1*
X581735Y917314D1*
X584127Y918384D1*
X586492Y919511D1*
X588830Y920693D1*
X591139Y921931D1*
X593418Y923223D1*
X595666Y924568D1*
X597882Y925967D1*
X600063Y927417D1*
X602210Y928919D1*
X604320Y930472D1*
X606393Y932073D1*
X608428Y933724D1*
X610423Y935423D1*
X612377Y937168D1*
X614289Y938959D1*
X616158Y940795D1*
X617982Y942675D1*
X619762Y944597D1*
X621496Y946561D1*
X623183Y948566D1*
X624822Y950610D1*
X626412Y952692D1*
X627952Y954812D1*
X629441Y956967D1*
X630879Y959157D1*
X632264Y961381D1*
X633597Y963636D1*
X634875Y965923D1*
X636099Y968240D1*
X637268Y970584D1*
X638381Y972956D1*
X639437Y975354D1*
X640436Y977775D1*
X641377Y980220D1*
X642260Y982687D1*
X643085Y985174D1*
X643850Y987679D1*
X644556Y990202D1*
X645201Y992741D1*
X645787Y995295D1*
X646311Y997862D1*
X646775Y1000440D1*
X647177Y1003029D1*
X647518Y1005627D1*
X647797Y1008232D1*
X648014Y1010843D1*
X648170Y1013458D1*
X648263Y1016076D1*
X648294Y1018701D1*
X648267Y1021136D1*
X648178Y1023754D1*
X648028Y1026370D1*
X647815Y1028981D1*
X647540Y1031586D1*
X647204Y1034185D1*
X646806Y1036774D1*
X646347Y1039353D1*
X645827Y1041921D1*
X645246Y1044476D1*
X644604Y1047016D1*
X643903Y1049540D1*
X643142Y1052047D1*
X642322Y1054535D1*
X641443Y1057003D1*
X640506Y1059450D1*
X639511Y1061873D1*
X638459Y1064273D1*
X637350Y1066647D1*
X636185Y1068993D1*
X634965Y1071312D1*
X633691Y1073601D1*
X632362Y1075859D1*
X630981Y1078085D1*
X629547Y1080277D1*
X628061Y1082435D1*
X626524Y1084557D1*
X624938Y1086642D1*
X623303Y1088689D1*
X621620Y1090697D1*
X619889Y1092664D1*
X618113Y1094589D1*
X616291Y1096472D1*
X614425Y1098311D1*
X612516Y1100106D1*
X610565Y1101854D1*
X608573Y1103556D1*
X606542Y1105210D1*
X604471Y1106816D1*
X602364Y1108372D1*
X600220Y1109877D1*
X598040Y1111332D1*
X595827Y1112734D1*
X593582Y1114083D1*
X591305Y1115379D1*
X588998Y1116620D1*
X586662Y1117807D1*
X584298Y1118937D1*
X581909Y1120012D1*
X579495Y1121029D1*
X577057Y1121989D1*
X574597Y1122891D1*
X572117Y1123734D1*
X569617Y1124518D1*
X567099Y1125243D1*
X564565Y1125908D1*
X562016Y1126512D1*
X559453Y1127056D1*
X556878Y1127539D1*
X554293Y1127961D1*
X551698Y1128321D1*
X549095Y1128620D1*
X546486Y1128857D1*
X543872Y1129032D1*
X541254Y1129145D1*
X538635Y1129196D1*
X536015Y1129185D1*
X533396Y1129112D1*
X530780Y1128976D1*
X528167Y1128779D1*
X525560Y1128520D1*
X522960Y1128199D1*
X520368Y1127816D1*
X517786Y1127373D1*
X515216Y1126868D1*
X512658Y1126302D1*
X510114Y1125676D1*
X507585Y1124989D1*
X505074Y1124243D1*
X502581Y1123438D1*
X500108Y1122574D1*
X497656Y1121651D1*
X495226Y1120670D1*
X492821Y1119632D1*
X490440Y1118538D1*
X488087Y1117387D1*
X485761Y1116181D1*
X483465Y1114920D1*
X481199Y1113605D1*
X478965Y1112236D1*
X476764Y1110815D1*
X474597Y1109342D1*
X472466Y1107819D1*
X470371Y1106245D1*
X468315Y1104622D1*
X466297Y1102950D1*
X464320Y1101232D1*
X462384Y1099466D1*
X460490Y1097656D1*
X458640Y1095801D1*
X456835Y1093903D1*
X455075Y1091962D1*
X453361Y1089980D1*
X451695Y1087959D1*
X450077Y1085898D1*
X448509Y1083799D1*
X446990Y1081664D1*
X445523Y1079494D1*
X444108Y1077289D1*
X442745Y1075052D1*
X441436Y1072782D1*
X440181Y1070483D1*
X438400Y1066977D1*
X437282Y1064602D1*
X436220Y1062202D1*
X435215Y1059777D1*
X434269Y1057330D1*
X433380Y1054860D1*
X432551Y1052370D1*
X431781Y1049861D1*
X431071Y1047334D1*
X430421Y1044791D1*
X429832Y1042233D1*
X429303Y1039663D1*
X428836Y1037080D1*
X428430Y1034487D1*
X428086Y1031885D1*
X427804Y1029275D1*
X427559Y1026309D1*
Y2221868D1*
X428750Y2219422D1*
X429955Y2217094D1*
X431216Y2214796D1*
X432531Y2212529D1*
X433899Y2210294D1*
X435321Y2208092D1*
X436795Y2205925D1*
X438320Y2203793D1*
X439896Y2201699D1*
X441521Y2199643D1*
X443195Y2197626D1*
X444917Y2195650D1*
X446686Y2193715D1*
X448500Y2191824D1*
X450358Y2189976D1*
X452261Y2188173D1*
X454206Y2186416D1*
X456192Y2184706D1*
X458219Y2183044D1*
X460284Y2181431D1*
X462388Y2179867D1*
X464529Y2178355D1*
X466705Y2176894D1*
X468915Y2175485D1*
X471158Y2174129D1*
X473433Y2172828D1*
X475738Y2171581D1*
X478073Y2170390D1*
X480435Y2169254D1*
X482824Y2168176D1*
X485238Y2167155D1*
X487676Y2166192D1*
X490136Y2165287D1*
X492616Y2164441D1*
X495117Y2163655D1*
X497635Y2162929D1*
X500170Y2162263D1*
X502720Y2161658D1*
X505284Y2161114D1*
X507860Y2160631D1*
X510447Y2160210D1*
X513044Y2159851D1*
X515648Y2159555D1*
X518258Y2159320D1*
X520874Y2159148D1*
X523492Y2159038D1*
X526113Y2158991D1*
X528734Y2159007D1*
X531354Y2159085D1*
X533971Y2159226D1*
X536584Y2159429D1*
X539191Y2159694D1*
X541792Y2160022D1*
X544384Y2160412D1*
X546965Y2160864D1*
X549536Y2161377D1*
X552093Y2161951D1*
X554636Y2162587D1*
X557163Y2163282D1*
X559672Y2164038D1*
X562163Y2164854D1*
X564634Y2165729D1*
X567083Y2166663D1*
X569509Y2167655D1*
X571910Y2168705D1*
X574286Y2169812D1*
X576635Y2170975D1*
X578955Y2172194D1*
X581245Y2173468D1*
X583505Y2174797D1*
X585732Y2176179D1*
X587925Y2177614D1*
X590084Y2179100D1*
X592206Y2180638D1*
X594291Y2182227D1*
X596337Y2183864D1*
X598344Y2185550D1*
X600310Y2187284D1*
X602234Y2189064D1*
X604115Y2190889D1*
X605951Y2192759D1*
X607743Y2194672D1*
X609488Y2196627D1*
X611186Y2198624D1*
X612836Y2200660D1*
X614437Y2202736D1*
X615988Y2204849D1*
X617488Y2206998D1*
X618936Y2209183D1*
X620331Y2211401D1*
X621673Y2213653D1*
X622961Y2215935D1*
X624194Y2218248D1*
X625372Y2220590D1*
X626493Y2222959D1*
X627557Y2225354D1*
X628564Y2227774D1*
X629512Y2230217D1*
X630402Y2232683D1*
X631233Y2235168D1*
X632004Y2237673D1*
X632715Y2240196D1*
X633366Y2242735D1*
X633956Y2245289D1*
X634485Y2247856D1*
X634952Y2250435D1*
X635357Y2253024D1*
X635701Y2255623D1*
X635982Y2258229D1*
X636201Y2260840D1*
X636358Y2263457D1*
X636452Y2266076D1*
X636483Y2268700D1*
X636452Y2271318D1*
X636358Y2273937D1*
X636202Y2276553D1*
X635983Y2279165D1*
X635702Y2281771D1*
X635358Y2284369D1*
X634953Y2286959D1*
X634486Y2289538D1*
X633957Y2292105D1*
X633368Y2294659D1*
X632717Y2297198D1*
X632006Y2299720D1*
X631235Y2302225D1*
X630405Y2304711D1*
X629515Y2307177D1*
X628566Y2309620D1*
X627560Y2312040D1*
X626496Y2314435D1*
X625375Y2316805D1*
X624197Y2319146D1*
X622965Y2321459D1*
X621677Y2323742D1*
X620335Y2325993D1*
X618940Y2328212D1*
X617492Y2330397D1*
X615992Y2332546D1*
X614441Y2334659D1*
X612841Y2336735D1*
X611191Y2338772D1*
X609493Y2340768D1*
X607748Y2342724D1*
X605956Y2344637D1*
X604120Y2346507D1*
X602239Y2348332D1*
X600315Y2350112D1*
X598350Y2351846D1*
X596343Y2353532D1*
X594297Y2355170D1*
X592212Y2356758D1*
X590089Y2358296D1*
X587931Y2359783D1*
X585738Y2361218D1*
X583511Y2362600D1*
X581252Y2363929D1*
X578961Y2365203D1*
X576641Y2366422D1*
X574293Y2367586D1*
X571917Y2368693D1*
X569515Y2369743D1*
X567089Y2370735D1*
X564640Y2371669D1*
X562170Y2372544D1*
X559679Y2373360D1*
X557170Y2374116D1*
X554643Y2374812D1*
X552100Y2375448D1*
X549543Y2376023D1*
X546972Y2376536D1*
X544391Y2376988D1*
X541799Y2377378D1*
X539199Y2377706D1*
X536591Y2377971D1*
X533978Y2378175D1*
X531361Y2378316D1*
X528741Y2378394D1*
X526120Y2378410D1*
X523499Y2378363D1*
X520881Y2378253D1*
X518265Y2378081D1*
X515655Y2377847D1*
X513051Y2377550D1*
X510454Y2377192D1*
X507867Y2376771D1*
X505291Y2376288D1*
X502727Y2375745D1*
X500177Y2375140D1*
X497642Y2374474D1*
X495124Y2373748D1*
X492623Y2372962D1*
X490142Y2372116D1*
X487682Y2371212D1*
X485245Y2370249D1*
X482831Y2369228D1*
X480442Y2368150D1*
X478080Y2367014D1*
X475745Y2365823D1*
X473439Y2364577D1*
X471164Y2363275D1*
X468921Y2361920D1*
X466711Y2360511D1*
X464535Y2359050D1*
X462394Y2357538D1*
X460290Y2355975D1*
X458224Y2354362D1*
X456198Y2352700D1*
X454211Y2350990D1*
X452266Y2349233D1*
X450364Y2347430D1*
X448505Y2345582D1*
X446690Y2343691D1*
X444922Y2341756D1*
X443200Y2339780D1*
X441526Y2337764D1*
X439901Y2335708D1*
X438325Y2333613D1*
X436799Y2331482D1*
X435325Y2329315D1*
X433903Y2327113D1*
X432534Y2324878D1*
X431219Y2322611D1*
X429959Y2320313D1*
X428753Y2317985D1*
X427559Y2315540D1*
X427565Y2859843D1*
X3234843Y2859841D1*
X3234837Y2276398D1*
X3234623Y2279014D1*
X3234347Y2281624D1*
X3234009Y2284227D1*
X3233609Y2286821D1*
X3233148Y2289405D1*
X3232626Y2291977D1*
X3232042Y2294536D1*
X3231398Y2297080D1*
X3230694Y2299609D1*
X3229930Y2302120D1*
X3229107Y2304612D1*
X3228225Y2307084D1*
X3227284Y2309534D1*
X3226285Y2311961D1*
X3225229Y2314364D1*
X3223540Y2317915D1*
X3222346Y2320246D1*
X3221096Y2322549D1*
X3219793Y2324822D1*
X3218435Y2327063D1*
X3217025Y2329271D1*
X3215563Y2331445D1*
X3214050Y2333583D1*
X3212487Y2335686D1*
X3210874Y2337750D1*
X3209213Y2339776D1*
X3207504Y2341762D1*
X3205749Y2343707D1*
X3203948Y2345609D1*
X3202102Y2347469D1*
X3200213Y2349284D1*
X3198281Y2351054D1*
X3196308Y2352777D1*
X3194294Y2354454D1*
X3192242Y2356082D1*
X3190151Y2357661D1*
X3188024Y2359190D1*
X3185861Y2360668D1*
X3183663Y2362094D1*
X3181432Y2363468D1*
X3179170Y2364788D1*
X3176876Y2366055D1*
X3174554Y2367267D1*
X3172203Y2368423D1*
X3169825Y2369524D1*
X3167422Y2370567D1*
X3164995Y2371554D1*
X3162545Y2372482D1*
X3160074Y2373353D1*
X3157583Y2374164D1*
X3155074Y2374916D1*
X3152547Y2375609D1*
X3150004Y2376241D1*
X3147448Y2376813D1*
X3144878Y2377324D1*
X3142297Y2377774D1*
X3139706Y2378163D1*
X3137107Y2378490D1*
X3134501Y2378756D1*
X3131889Y2378959D1*
X3129273Y2379101D1*
X3126654Y2379181D1*
X3124034Y2379198D1*
X3121415Y2379154D1*
X3118797Y2379047D1*
X3116183Y2378878D1*
X3113573Y2378647D1*
X3110969Y2378355D1*
X3108373Y2378001D1*
X3105787Y2377585D1*
X3103211Y2377108D1*
X3100647Y2376571D1*
X3098096Y2375972D1*
X3095560Y2375314D1*
X3093041Y2374595D1*
X3090539Y2373817D1*
X3088057Y2372980D1*
X3085595Y2372084D1*
X3083155Y2371130D1*
X3080738Y2370118D1*
X3078346Y2369050D1*
X3075980Y2367925D1*
X3073641Y2366744D1*
X3071331Y2365508D1*
X3069051Y2364218D1*
X3066802Y2362874D1*
X3064586Y2361477D1*
X3062403Y2360028D1*
X3060255Y2358528D1*
X3058144Y2356977D1*
X3056069Y2355377D1*
X3054034Y2353727D1*
X3052038Y2352030D1*
X3050083Y2350286D1*
X3048169Y2348497D1*
X3046299Y2346662D1*
X3044473Y2344784D1*
X3042692Y2342863D1*
X3040956Y2340900D1*
X3039268Y2338896D1*
X3037628Y2336853D1*
X3036037Y2334772D1*
X3034495Y2332654D1*
X3033004Y2330499D1*
X3031565Y2328310D1*
X3030178Y2326088D1*
X3028844Y2323833D1*
X3027564Y2321547D1*
X3026338Y2319232D1*
X3025168Y2316888D1*
X3024053Y2314517D1*
X3022995Y2312120D1*
X3021995Y2309699D1*
X3021052Y2307254D1*
X3020167Y2304788D1*
X3019340Y2302302D1*
X3018573Y2299797D1*
X3017866Y2297275D1*
X3017219Y2294736D1*
X3016631Y2292183D1*
X3016105Y2289616D1*
X3015640Y2287038D1*
X3015236Y2284450D1*
X3014893Y2281852D1*
X3014612Y2279247D1*
X3014393Y2276637D1*
X3014236Y2274022D1*
X3014141Y2271403D1*
X3014108Y2268784D1*
X3014137Y2266164D1*
X3014228Y2263546D1*
X3014381Y2260930D1*
X3014596Y2258319D1*
X3014873Y2255714D1*
X3015212Y2253116D1*
X3015612Y2250527D1*
X3016074Y2247948D1*
X3016596Y2245381D1*
X3017180Y2242827D1*
X3017823Y2240287D1*
X3018527Y2237764D1*
X3019290Y2235257D1*
X3020113Y2232770D1*
X3020994Y2230303D1*
X3021933Y2227857D1*
X3022930Y2225434D1*
X3023985Y2223036D1*
X3025096Y2220663D1*
X3026263Y2218318D1*
X3027485Y2216000D1*
X3028761Y2213713D1*
X3030092Y2211456D1*
X3031476Y2209231D1*
X3032912Y2207040D1*
X3034399Y2204883D1*
X3035938Y2202763D1*
X3037526Y2200679D1*
X3039163Y2198634D1*
X3040848Y2196628D1*
X3042580Y2194662D1*
X3044359Y2192738D1*
X3046182Y2190857D1*
X3048050Y2189020D1*
X3049960Y2187227D1*
X3051913Y2185480D1*
X3053906Y2183780D1*
X3055940Y2182128D1*
X3058011Y2180525D1*
X3060121Y2178971D1*
X3062266Y2177467D1*
X3064446Y2176015D1*
X3066661Y2174614D1*
X3068908Y2173267D1*
X3071186Y2171973D1*
X3073494Y2170734D1*
X3075831Y2169550D1*
X3078195Y2168421D1*
X3080586Y2167349D1*
X3083001Y2166334D1*
X3085440Y2165377D1*
X3087900Y2164477D1*
X3090382Y2163636D1*
X3092882Y2162854D1*
X3095400Y2162132D1*
X3097935Y2161469D1*
X3100485Y2160867D1*
X3103048Y2160326D1*
X3105624Y2159845D1*
X3108210Y2159426D1*
X3110805Y2159068D1*
X3113408Y2158771D1*
X3116017Y2158537D1*
X3118632Y2158364D1*
X3121249Y2158253D1*
X3123868Y2158205D1*
X3126488Y2158218D1*
X3129107Y2158294D1*
X3131723Y2158432D1*
X3134336Y2158631D1*
X3136942Y2158893D1*
X3139542Y2159216D1*
X3142134Y2159601D1*
X3144715Y2160047D1*
X3147286Y2160555D1*
X3149843Y2161123D1*
X3152387Y2161751D1*
X3154914Y2162440D1*
X3157425Y2163188D1*
X3159917Y2163996D1*
X3162390Y2164863D1*
X3164841Y2165788D1*
X3167269Y2166770D1*
X3169674Y2167811D1*
X3172053Y2168907D1*
X3174406Y2170060D1*
X3176730Y2171269D1*
X3179026Y2172532D1*
X3181290Y2173849D1*
X3183523Y2175219D1*
X3185723Y2176643D1*
X3187888Y2178117D1*
X3190018Y2179643D1*
X3192111Y2181219D1*
X3194166Y2182844D1*
X3196182Y2184517D1*
X3198157Y2186238D1*
X3200092Y2188005D1*
X3201984Y2189817D1*
X3203832Y2191674D1*
X3205636Y2193573D1*
X3207394Y2195516D1*
X3209106Y2197499D1*
X3210771Y2199522D1*
X3212386Y2201584D1*
X3213953Y2203684D1*
X3215469Y2205821D1*
X3216934Y2207993D1*
X3218348Y2210199D1*
X3219708Y2212438D1*
X3221015Y2214708D1*
X3222268Y2217009D1*
X3224046Y2220516D1*
X3225162Y2222892D1*
X3226222Y2225293D1*
X3227224Y2227719D1*
X3228168Y2230167D1*
X3229054Y2232638D1*
X3229882Y2235129D1*
X3230649Y2237639D1*
X3231357Y2240166D1*
X3232005Y2242710D1*
X3232592Y2245268D1*
X3233118Y2247839D1*
X3233583Y2250422D1*
X3233986Y2253016D1*
X3234328Y2255618D1*
X3234608Y2258227D1*
X3234842Y2261132D1*
X3234847Y1849672D1*
X3172032D1*
X3172024Y1733530D1*
X3158777Y1733522D1*
Y1823097D1*
X3063764D1*
X3063766Y1718766D1*
X3057858D1*
Y1669029D1*
Y1659578D1*
X3055759Y1657743D1*
X2884268Y1657741D1*
Y1710991D1*
X2765633Y1710990D1*
X2765636Y1709009D1*
X2759488Y1715142D1*
X2754436Y1718697D1*
X2748587Y1720701D1*
X2744459Y1721091D1*
X2703117Y1721087D1*
X2703109Y1758694D1*
X2715912D1*
Y1875361D1*
X2703117Y1875353D1*
X2703109Y1987040D1*
X2761188D1*
Y2100601D1*
X2782062D1*
X2785902Y2100969D1*
X2791455Y2102938D1*
X2796190Y2106443D1*
X2809964Y2120218D1*
X2812409Y2123183D1*
X2814944Y2128502D1*
X2815814Y2134329D1*
X2815813Y2163517D1*
X2899672D1*
Y2262074D1*
X2815814Y2262071D1*
X2815811Y2266587D1*
X2832198Y2291544D1*
X2835300Y2295055D1*
X2839530Y2301763D1*
X2842629Y2309063D1*
X2844517Y2316766D1*
X2845144Y2324672D1*
X2844496Y2332575D1*
X2842588Y2340273D1*
X2839470Y2347565D1*
X2835222Y2354262D1*
X2829955Y2360191D1*
X2823806Y2365199D1*
X2816933Y2369155D1*
X2809514Y2371957D1*
X2801741Y2373533D1*
X2793817Y2373842D1*
X2785945Y2372876D1*
X2778331Y2370659D1*
X2771171Y2367250D1*
X2764650Y2362736D1*
X2758938Y2357235D1*
X2754182Y2350889D1*
X2750506Y2343862D1*
X2748004Y2336336D1*
X2746743Y2328507D1*
X2746753Y2320576D1*
X2748035Y2312750D1*
X2750557Y2305231D1*
X2754251Y2298214D1*
X2759024Y2291880D1*
X2760049Y2290761D1*
X2775919Y2266589D1*
X2775916Y2247830D1*
X2775428Y2248380D1*
X2769278Y2253388D1*
X2762405Y2257344D1*
X2754986Y2260146D1*
X2747214Y2261722D1*
X2739289Y2262031D1*
X2731418Y2261065D1*
X2723803Y2258848D1*
X2716643Y2255439D1*
X2710122Y2250925D1*
X2704410Y2245424D1*
X2699654Y2239078D1*
X2695978Y2232051D1*
X2693477Y2224525D1*
X2692215Y2216696D1*
X2692225Y2208765D1*
X2693508Y2200939D1*
X2696029Y2193420D1*
X2699724Y2186403D1*
X2704496Y2180069D1*
X2710223Y2174583D1*
X2716756Y2170087D1*
X2723925Y2166696D1*
X2731545Y2164500D1*
X2739419Y2163555D1*
X2747343Y2163884D1*
X2755111Y2165481D1*
X2762523Y2168303D1*
X2769385Y2172277D1*
X2775522Y2177301D1*
X2775917Y2177748D1*
X2775920Y2142593D1*
X2773826Y2140496D1*
X2370079Y2140491D1*
X2387264Y2157670D1*
X2416518Y2163732D1*
X2420178Y2163884D1*
X2427946Y2165481D1*
X2435357Y2168303D1*
X2442220Y2172277D1*
X2448356Y2177301D1*
X2453607Y2183244D1*
X2457837Y2189952D1*
X2460936Y2197252D1*
X2462824Y2204955D1*
X2463451Y2212860D1*
X2462803Y2220764D1*
X2460895Y2228462D1*
X2457777Y2235754D1*
X2453529Y2242451D1*
X2448262Y2248380D1*
X2442113Y2253388D1*
X2435240Y2257344D1*
X2427821Y2260146D1*
X2420048Y2261722D1*
X2412124Y2262031D1*
X2404253Y2261065D1*
X2396638Y2258848D1*
X2389478Y2255439D1*
X2382957Y2250925D1*
X2377245Y2245424D1*
X2372489Y2239078D1*
X2368813Y2232051D1*
X2366311Y2224525D1*
X2365050Y2216696D1*
X2365052Y2214860D1*
X2359043Y2185876D1*
X2340704Y2167530D1*
X2340283Y2168556D1*
X2336350Y2173721D1*
X2335700Y2174352D1*
X2339301Y2177301D1*
X2344552Y2183244D1*
X2348782Y2189952D1*
X2351881Y2197252D1*
X2353769Y2204955D1*
X2354396Y2212860D1*
X2353748Y2220764D1*
X2351840Y2228462D1*
X2348722Y2235754D1*
X2344474Y2242451D1*
X2339207Y2248380D1*
X2333058Y2253388D1*
X2326185Y2257344D1*
X2318766Y2260146D1*
X2310993Y2261722D1*
X2303069Y2262031D1*
X2295197Y2261065D1*
X2287583Y2258848D1*
X2280423Y2255439D1*
X2273902Y2250925D1*
X2268190Y2245424D1*
X2263434Y2239078D1*
X2259758Y2232051D1*
X2257256Y2224525D1*
X2255994Y2216696D1*
X2256005Y2208765D1*
X2257287Y2200939D1*
X2259809Y2193420D1*
X2263503Y2186403D1*
X2268276Y2180069D1*
X2274003Y2174583D1*
X2280535Y2170087D1*
X2284827Y2168057D1*
X2216603Y2168058D1*
X2217247Y2168303D1*
X2224110Y2172277D1*
X2230246Y2177301D1*
X2235497Y2183244D1*
X2239727Y2189952D1*
X2242826Y2197252D1*
X2244713Y2204955D1*
X2245341Y2212860D1*
X2244693Y2220764D1*
X2242785Y2228462D1*
X2239666Y2235754D1*
X2235419Y2242451D1*
X2230152Y2248380D1*
X2224003Y2253388D1*
X2217129Y2257344D1*
X2209711Y2260146D1*
X2201938Y2261722D1*
X2194014Y2262031D1*
X2186142Y2261065D1*
X2178528Y2258848D1*
X2171368Y2255439D1*
X2164847Y2250925D1*
X2159135Y2245424D1*
X2154379Y2239078D1*
X2150703Y2232051D1*
X2148201Y2224525D1*
X2146939Y2216696D1*
X2146950Y2208765D1*
X2148232Y2200939D1*
X2150754Y2193420D1*
X2154448Y2186403D1*
X2159221Y2180069D1*
X2164948Y2174583D1*
X2171480Y2170087D1*
X2175772Y2168057D1*
X2107548Y2168058D1*
X2108192Y2168303D1*
X2115055Y2172277D1*
X2121191Y2177301D1*
X2126442Y2183244D1*
X2130672Y2189952D1*
X2133771Y2197252D1*
X2135658Y2204955D1*
X2136286Y2212860D1*
X2135637Y2220764D1*
X2133729Y2228462D1*
X2130611Y2235754D1*
X2126364Y2242451D1*
X2121097Y2248380D1*
X2114948Y2253388D1*
X2108074Y2257344D1*
X2100655Y2260146D1*
X2092883Y2261722D1*
X2084959Y2262031D1*
X2077087Y2261065D1*
X2069473Y2258848D1*
X2062312Y2255439D1*
X2055792Y2250925D1*
X2050079Y2245424D1*
X2045324Y2239078D1*
X2041647Y2232051D1*
X2039146Y2224525D1*
X2037884Y2216696D1*
X2037895Y2208765D1*
X2039177Y2200939D1*
X2041698Y2193420D1*
X2045393Y2186403D1*
X2050166Y2180069D1*
X2055893Y2174583D1*
X2062425Y2170087D1*
X2066717Y2168057D1*
X1858396D1*
X1861492Y2169511D1*
X1863830Y2170694D1*
X1866139Y2171931D1*
X1868418Y2173223D1*
X1870666Y2174568D1*
X1872882Y2175967D1*
X1875063Y2177418D1*
X1877210Y2178919D1*
X1879320Y2180472D1*
X1881393Y2182074D1*
X1883428Y2183724D1*
X1885423Y2185423D1*
X1887377Y2187168D1*
X1889289Y2188959D1*
X1891158Y2190795D1*
X1892982Y2192675D1*
X1894762Y2194597D1*
X1896496Y2196561D1*
X1898183Y2198566D1*
X1899822Y2200610D1*
X1901412Y2202692D1*
X1902952Y2204812D1*
X1904441Y2206967D1*
X1905879Y2209157D1*
X1907264Y2211381D1*
X1908597Y2213637D1*
X1909875Y2215923D1*
X1911099Y2218240D1*
X1912268Y2220585D1*
X1913381Y2222956D1*
X1914437Y2225354D1*
X1915436Y2227776D1*
X1916377Y2230221D1*
X1917260Y2232687D1*
X1918085Y2235174D1*
X1918850Y2237680D1*
X1919556Y2240203D1*
X1920201Y2242742D1*
X1920787Y2245295D1*
X1921311Y2247862D1*
X1921775Y2250441D1*
X1922177Y2253030D1*
X1922518Y2255627D1*
X1922797Y2258232D1*
X1923014Y2260843D1*
X1923170Y2263458D1*
X1923263Y2266077D1*
X1923294Y2268701D1*
X1923263Y2271316D1*
X1923170Y2273934D1*
X1923015Y2276549D1*
X1922798Y2279160D1*
X1922519Y2281765D1*
X1922178Y2284363D1*
X1921776Y2286952D1*
X1921313Y2289530D1*
X1920789Y2292097D1*
X1920204Y2294651D1*
X1919558Y2297190D1*
X1918853Y2299713D1*
X1918088Y2302219D1*
X1917264Y2304706D1*
X1916381Y2307172D1*
X1915439Y2309617D1*
X1914440Y2312039D1*
X1913384Y2314437D1*
X1912272Y2316809D1*
X1911103Y2319154D1*
X1909880Y2321470D1*
X1908601Y2323757D1*
X1907269Y2326013D1*
X1905884Y2328237D1*
X1904446Y2330427D1*
X1902957Y2332582D1*
X1901417Y2334702D1*
X1899828Y2336784D1*
X1898189Y2338829D1*
X1896502Y2340833D1*
X1894769Y2342798D1*
X1892989Y2344720D1*
X1891164Y2346600D1*
X1889295Y2348436D1*
X1887384Y2350227D1*
X1885430Y2351973D1*
X1883435Y2353671D1*
X1881401Y2355322D1*
X1879328Y2356924D1*
X1877218Y2358477D1*
X1875071Y2359979D1*
X1872890Y2361430D1*
X1870674Y2362828D1*
X1868426Y2364174D1*
X1866147Y2365466D1*
X1863838Y2366704D1*
X1861500Y2367886D1*
X1859135Y2369013D1*
X1856744Y2370084D1*
X1854328Y2371097D1*
X1851889Y2372053D1*
X1849428Y2372951D1*
X1846946Y2373790D1*
X1844445Y2374570D1*
X1841926Y2375291D1*
X1839391Y2375951D1*
X1836841Y2376552D1*
X1834277Y2377091D1*
X1831701Y2377570D1*
X1829115Y2377988D1*
X1826519Y2378344D1*
X1823916Y2378639D1*
X1821306Y2378871D1*
X1818692Y2379042D1*
X1816074Y2379151D1*
X1813455Y2379198D1*
X1810835Y2379182D1*
X1808216Y2379105D1*
X1805600Y2378965D1*
X1802988Y2378764D1*
X1800382Y2378500D1*
X1797782Y2378175D1*
X1795191Y2377788D1*
X1792609Y2377340D1*
X1790040Y2376831D1*
X1787482Y2376261D1*
X1784939Y2375631D1*
X1782412Y2374940D1*
X1779902Y2374190D1*
X1777410Y2373381D1*
X1774939Y2372512D1*
X1772488Y2371586D1*
X1770060Y2370601D1*
X1767656Y2369559D1*
X1765278Y2368461D1*
X1762926Y2367306D1*
X1760602Y2366096D1*
X1758308Y2364832D1*
X1756044Y2363513D1*
X1753812Y2362141D1*
X1751614Y2360716D1*
X1749450Y2359240D1*
X1747321Y2357712D1*
X1745229Y2356135D1*
X1743175Y2354509D1*
X1741160Y2352834D1*
X1739186Y2351112D1*
X1737253Y2349344D1*
X1735362Y2347530D1*
X1733515Y2345672D1*
X1731712Y2343771D1*
X1729955Y2341828D1*
X1728245Y2339843D1*
X1726582Y2337819D1*
X1724968Y2335755D1*
X1723403Y2333654D1*
X1721888Y2331517D1*
X1720424Y2329344D1*
X1719013Y2327137D1*
X1717653Y2324897D1*
X1716348Y2322626D1*
X1715097Y2320324D1*
X1713900Y2317993D1*
X1712759Y2315635D1*
X1711675Y2313250D1*
X1710647Y2310840D1*
X1709677Y2308406D1*
X1708764Y2305951D1*
X1707911Y2303474D1*
X1707116Y2300977D1*
X1706380Y2298463D1*
X1705704Y2295932D1*
X1705089Y2293385D1*
X1704534Y2290825D1*
X1704040Y2288252D1*
X1703607Y2285668D1*
X1703235Y2283074D1*
X1702925Y2280473D1*
X1702677Y2277865D1*
X1702491Y2275252D1*
X1702367Y2272635D1*
X1702304Y2270016D1*
Y2267396D1*
X1702366Y2264777D1*
X1702490Y2262160D1*
X1702676Y2259546D1*
X1702924Y2256938D1*
X1703234Y2254337D1*
X1703606Y2251743D1*
X1704038Y2249159D1*
X1704532Y2246587D1*
X1705087Y2244026D1*
X1705702Y2241479D1*
X1706378Y2238948D1*
X1707113Y2236434D1*
X1707908Y2233937D1*
X1708761Y2231460D1*
X1709673Y2229004D1*
X1710643Y2226571D1*
X1711671Y2224161D1*
X1712755Y2221776D1*
X1713896Y2219417D1*
X1715092Y2217086D1*
X1716343Y2214785D1*
X1717649Y2212513D1*
X1719008Y2210273D1*
X1720419Y2208066D1*
X1721883Y2205893D1*
X1723397Y2203755D1*
X1724962Y2201654D1*
X1726576Y2199591D1*
X1728239Y2197566D1*
X1729949Y2195581D1*
X1731706Y2193638D1*
X1733508Y2191736D1*
X1735355Y2189878D1*
X1737246Y2188064D1*
X1739179Y2186296D1*
X1741153Y2184574D1*
X1743168Y2182899D1*
X1745221Y2181272D1*
X1747313Y2179695D1*
X1749442Y2178168D1*
X1751606Y2176691D1*
X1753804Y2175266D1*
X1756036Y2173894D1*
X1758300Y2172575D1*
X1760594Y2171310D1*
X1762918Y2170100D1*
X1765269Y2168945D1*
X1767172Y2168058D1*
X1554289D1*
X1555768Y2168705D1*
X1558144Y2169812D1*
X1560493Y2170975D1*
X1562813Y2172194D1*
X1565104Y2173468D1*
X1567363Y2174797D1*
X1569590Y2176179D1*
X1571783Y2177614D1*
X1573942Y2179100D1*
X1576064Y2180638D1*
X1578149Y2182227D1*
X1580196Y2183864D1*
X1582202Y2185550D1*
X1584168Y2187284D1*
X1586092Y2189064D1*
X1587973Y2190889D1*
X1589810Y2192759D1*
X1591601Y2194672D1*
X1593346Y2196627D1*
X1595045Y2198624D1*
X1596694Y2200660D1*
X1598295Y2202736D1*
X1599846Y2204849D1*
X1601346Y2206998D1*
X1602794Y2209183D1*
X1604189Y2211401D1*
X1605531Y2213653D1*
X1606819Y2215935D1*
X1608052Y2218248D1*
X1609230Y2220590D1*
X1610351Y2222959D1*
X1611415Y2225354D1*
X1612422Y2227774D1*
X1613370Y2230217D1*
X1614260Y2232683D1*
X1615091Y2235168D1*
X1615862Y2237673D1*
X1616574Y2240196D1*
X1617224Y2242735D1*
X1617814Y2245289D1*
X1618343Y2247856D1*
X1618810Y2250435D1*
X1619215Y2253024D1*
X1619559Y2255623D1*
X1619840Y2258229D1*
X1620059Y2260840D1*
X1620216Y2263457D1*
X1620310Y2266076D1*
X1620341Y2268700D1*
X1620310Y2271318D1*
X1620216Y2273937D1*
X1620060Y2276553D1*
X1619841Y2279165D1*
X1619560Y2281771D1*
X1619217Y2284369D1*
X1618811Y2286959D1*
X1618344Y2289538D1*
X1617816Y2292105D1*
X1617226Y2294659D1*
X1616576Y2297198D1*
X1615865Y2299720D1*
X1615093Y2302225D1*
X1614263Y2304711D1*
X1613373Y2307177D1*
X1612425Y2309620D1*
X1611418Y2312040D1*
X1610354Y2314435D1*
X1609233Y2316805D1*
X1608056Y2319146D1*
X1606823Y2321459D1*
X1605535Y2323742D1*
X1604193Y2325993D1*
X1602798Y2328212D1*
X1601350Y2330397D1*
X1599850Y2332546D1*
X1598300Y2334659D1*
X1596699Y2336735D1*
X1595049Y2338772D1*
X1593351Y2340768D1*
X1591606Y2342724D1*
X1589815Y2344637D1*
X1587978Y2346507D1*
X1586097Y2348332D1*
X1584174Y2350112D1*
X1582208Y2351846D1*
X1580201Y2353532D1*
X1578155Y2355170D1*
X1576070Y2356758D1*
X1573948Y2358296D1*
X1571789Y2359783D1*
X1569596Y2361218D1*
X1567369Y2362600D1*
X1565110Y2363929D1*
X1562820Y2365203D1*
X1560499Y2366422D1*
X1558151Y2367586D1*
X1555775Y2368693D1*
X1553374Y2369743D1*
X1550948Y2370735D1*
X1548499Y2371669D1*
X1546028Y2372544D1*
X1543537Y2373360D1*
X1541028Y2374116D1*
X1538501Y2374812D1*
X1535958Y2375448D1*
X1533401Y2376023D1*
X1530831Y2376536D1*
X1528249Y2376988D1*
X1525657Y2377378D1*
X1523057Y2377706D1*
X1520449Y2377971D1*
X1517836Y2378175D1*
X1515219Y2378316D1*
X1512599Y2378394D1*
X1509978Y2378410D1*
X1507358Y2378363D1*
X1504739Y2378253D1*
X1502124Y2378081D1*
X1499513Y2377847D1*
X1496909Y2377550D1*
X1494313Y2377192D1*
X1491726Y2376771D1*
X1489150Y2376288D1*
X1486586Y2375745D1*
X1484035Y2375140D1*
X1481500Y2374474D1*
X1478982Y2373748D1*
X1476482Y2372962D1*
X1474001Y2372116D1*
X1471541Y2371212D1*
X1469103Y2370249D1*
X1466689Y2369228D1*
X1464300Y2368150D1*
X1461938Y2367014D1*
X1459603Y2365823D1*
X1457298Y2364577D1*
X1455023Y2363275D1*
X1452779Y2361920D1*
X1450569Y2360511D1*
X1448393Y2359050D1*
X1446252Y2357538D1*
X1444148Y2355975D1*
X1442083Y2354362D1*
X1440056Y2352700D1*
X1438069Y2350990D1*
X1436124Y2349233D1*
X1434222Y2347430D1*
X1432363Y2345582D1*
X1430549Y2343691D1*
X1428780Y2341756D1*
X1427058Y2339780D1*
X1425384Y2337764D1*
X1423759Y2335708D1*
X1422183Y2333613D1*
X1420657Y2331482D1*
X1419183Y2329315D1*
X1417762Y2327113D1*
X1416393Y2324878D1*
X1415078Y2322611D1*
X1413817Y2320313D1*
X1412612Y2317985D1*
X1411462Y2315630D1*
X1410370Y2313248D1*
X1409334Y2310840D1*
X1408356Y2308408D1*
X1407437Y2305953D1*
X1406577Y2303478D1*
X1405775Y2300982D1*
X1405034Y2298468D1*
X1404353Y2295937D1*
X1403733Y2293391D1*
X1403174Y2290830D1*
X1402676Y2288257D1*
X1402239Y2285672D1*
X1401865Y2283078D1*
X1401552Y2280476D1*
X1401302Y2277867D1*
X1401114Y2275253D1*
X1400989Y2272635D1*
X1400927Y2270015D1*
X1400926Y2267394D1*
X1400989Y2264773D1*
X1401114Y2262155D1*
X1401302Y2259541D1*
X1401552Y2256932D1*
X1401864Y2254330D1*
X1402238Y2251736D1*
X1402674Y2249151D1*
X1403172Y2246578D1*
X1403731Y2244017D1*
X1404351Y2241471D1*
X1405032Y2238940D1*
X1405773Y2236426D1*
X1406574Y2233930D1*
X1407435Y2231454D1*
X1408354Y2229000D1*
X1409331Y2226568D1*
X1410367Y2224160D1*
X1411459Y2221778D1*
X1412609Y2219422D1*
X1413814Y2217094D1*
X1415074Y2214796D1*
X1416389Y2212529D1*
X1417758Y2210294D1*
X1419179Y2208092D1*
X1420653Y2205925D1*
X1422179Y2203793D1*
X1423754Y2201699D1*
X1425380Y2199643D1*
X1427054Y2197626D1*
X1428775Y2195650D1*
X1430544Y2193715D1*
X1432358Y2191824D1*
X1434217Y2189976D1*
X1436119Y2188173D1*
X1438064Y2186416D1*
X1440050Y2184706D1*
X1442077Y2183044D1*
X1444143Y2181431D1*
X1446246Y2179867D1*
X1448387Y2178355D1*
X1450563Y2176894D1*
X1452773Y2175485D1*
X1455016Y2174129D1*
X1457291Y2172828D1*
X1459597Y2171581D1*
X1461931Y2170390D1*
X1464294Y2169254D1*
X1466682Y2168176D1*
X1469096Y2167155D1*
X1471534Y2166192D1*
X1473994Y2165287D1*
X1476475Y2164441D1*
X1478975Y2163655D1*
X1481493Y2162929D1*
X1484051Y2162258D1*
X1254612Y1932822D1*
X1252158Y1929847D1*
X1249623Y1924528D1*
X1248753Y1918701D1*
Y1374974D1*
X1249122Y1371135D1*
X1251091Y1365582D1*
X1254596Y1360846D1*
X1292082Y1323360D1*
X1295055Y1320908D1*
X1300374Y1318374D1*
X1306201Y1317504D1*
X1414342D1*
X1418181Y1317872D1*
X1423734Y1319841D1*
X1428470Y1323346D1*
X1447572Y1342454D1*
X1833360D1*
X1837200Y1342822D1*
X1842753Y1344791D1*
X1847488Y1348296D1*
X1903883Y1404691D1*
X1906968Y1408666D1*
X1907540Y1409702D1*
X1908048Y1410769D1*
X1908578Y1412089D1*
X1909216Y1412092D1*
X1909214Y1343621D1*
X1897985Y1332399D1*
X1560139D1*
X1557061Y1333288D1*
X1556214Y1333943D1*
X1550225Y1336449D1*
X1543792Y1337320D1*
X1537352Y1336496D1*
X1531345Y1334034D1*
X1526180Y1330100D1*
X1522209Y1324964D1*
X1519703Y1318976D1*
X1518832Y1312542D1*
X1519061Y1309046D1*
X1294069Y1309043D1*
X1093176Y1509933D1*
X1093179Y2177899D1*
X1096641Y2174583D1*
X1103173Y2170086D1*
X1110342Y2166696D1*
X1117963Y2164500D1*
X1125837Y2163554D1*
X1133760Y2163884D1*
X1141528Y2165480D1*
X1148940Y2168302D1*
X1155803Y2172277D1*
X1161939Y2177300D1*
X1167190Y2183243D1*
X1171420Y2189952D1*
X1174519Y2197252D1*
X1176406Y2204954D1*
X1177034Y2212860D1*
X1176386Y2220764D1*
X1174477Y2228461D1*
X1171359Y2235753D1*
X1167112Y2242450D1*
X1161845Y2248380D1*
X1155696Y2253387D1*
X1148822Y2257343D1*
X1141403Y2260146D1*
X1133631Y2261722D1*
X1125707Y2262030D1*
X1117835Y2261064D1*
X1110221Y2258848D1*
X1103060Y2255439D1*
X1096540Y2250925D1*
X1093176Y2247685D1*
X1093172Y2266586D1*
X1109560Y2291543D1*
X1112663Y2295054D1*
X1116892Y2301763D1*
X1119991Y2309063D1*
X1121879Y2316765D1*
X1122507Y2324671D1*
X1121858Y2332575D1*
X1119950Y2340272D1*
X1116832Y2347564D1*
X1112584Y2354261D1*
X1107318Y2360191D1*
X1101168Y2365198D1*
X1094295Y2369154D1*
X1086876Y2371957D1*
X1079104Y2373533D1*
X1071179Y2373842D1*
X1063308Y2372875D1*
X1055693Y2370659D1*
X1048533Y2367250D1*
X1042012Y2362736D1*
X1036300Y2357235D1*
X1031544Y2350888D1*
X1027868Y2343861D1*
X1025367Y2336336D1*
X1024105Y2328506D1*
X1024115Y2320576D1*
X1025398Y2312750D1*
X1027919Y2305231D1*
X1031614Y2298213D1*
X1036386Y2291880D1*
X1037408Y2290764D1*
X1053281Y2266596D1*
X1053279Y2247829D1*
X1052790Y2248380D1*
X1046640Y2253387D1*
X1039767Y2257343D1*
X1032348Y2260146D1*
X1024576Y2261722D1*
X1016652Y2262030D1*
X1008780Y2261064D1*
X1001166Y2258848D1*
X994005Y2255439D1*
X987485Y2250925D1*
X981772Y2245424D1*
X977017Y2239077D1*
X973340Y2232050D1*
X970839Y2224525D1*
X969577Y2216695D1*
X969588Y2208765D1*
X970870Y2200939D1*
X973391Y2193420D1*
X977086Y2186402D1*
X981859Y2180069D1*
X987585Y2174583D1*
X994118Y2170086D1*
X1001287Y2166696D1*
X1008908Y2164500D1*
X1016782Y2163554D1*
X1024705Y2163884D1*
X1032473Y2165480D1*
X1039885Y2168302D1*
X1046748Y2172277D1*
X1052884Y2177300D1*
X1053279Y2177747D1*
X1053281Y1501673D1*
X1053593Y1498158D1*
X1055476Y1492575D1*
X1058913Y1487783D1*
X1271698Y1274993D1*
X1274404Y1272728D1*
X1279684Y1270113D1*
X1285502Y1269154D1*
X1793295Y1269151D1*
X1935071D1*
X1938586Y1269463D1*
X1944169Y1271346D1*
X1948843Y1274676D1*
X1967503Y1256010D1*
Y918701D1*
X1967815Y915186D1*
X1969698Y909603D1*
X1973135Y904811D1*
X1998345Y879596D1*
X2001051Y877331D1*
X2006331Y874715D1*
X2012149Y873756D1*
X2562451Y873753D1*
X2567124Y874308D1*
X2572590Y876523D1*
X2576573Y879612D1*
X1883912Y1569849D2*
X1921616Y1569853D1*
X1923706Y1571947D1*
X1923712Y1613863D1*
X1869809D1*
X1866697Y1612962D1*
X1865734Y1612229D1*
X1859727Y1609766D1*
X1853658Y1608990D1*
X1852140Y1605469D1*
X1848563Y1600787D1*
X1843768Y1597354D1*
X1840844Y1596138D1*
Y1579729D1*
X1842108Y1580096D1*
X1848547Y1580920D1*
X1854981Y1580049D1*
X1860970Y1577543D1*
X1866106Y1573572D1*
X1870039Y1568407D1*
X1871287Y1565362D1*
X1874520Y1567512D1*
X1880079Y1569481D1*
X1883912Y1569849D1*
X2196030Y1625831D2*
X2202431Y1619430D1*
X2205300Y1617843D1*
X2206649Y1617650D1*
X2212620Y1615100D1*
X2217727Y1611092D1*
X2221622Y1605899D1*
X2224041Y1599874D1*
X2224819Y1593701D1*
X2223948Y1587177D1*
X2221442Y1581188D1*
X2217471Y1576052D1*
X2217405Y1576002D1*
X2343849Y1576000D1*
X2349676Y1575130D1*
X2354999Y1572592D1*
X2357970Y1570141D1*
X2821392Y1106719D1*
X2823067Y1104812D1*
X2824883Y1107235D1*
X2830595Y1112737D1*
X2837116Y1117250D1*
X2844276Y1120659D1*
X2851890Y1122876D1*
X2859762Y1123842D1*
X2859924Y1123836D1*
X2887044Y1130832D1*
X2900062Y1143851D1*
X2900059Y1577967D1*
X2900008Y1581200D1*
X2898236Y1585914D1*
X2897412Y1592353D1*
X2898283Y1598787D1*
X2900493Y1604068D1*
X2412561Y1604071D1*
X2406748Y1605030D1*
X2401469Y1607646D1*
X2398762Y1609911D1*
X2385557Y1623116D1*
X2382308Y1623113D1*
X2369818Y1610627D1*
X2368009Y1609072D1*
Y1595160D1*
X2249374D1*
Y1609070D1*
X2247342Y1610845D1*
X2235070Y1623113D1*
X2206101Y1623114D1*
X1536538Y1410815D2*
X1530719Y1411774D1*
X1525440Y1414390D1*
X1522734Y1416655D1*
X1508739Y1430653D1*
X1505307Y1435442D1*
X1503424Y1441024D1*
X1503111Y1444539D1*
X1503106Y1609534D1*
X1498484Y1608942D1*
X1494897Y1609428D1*
X1494898Y1426961D1*
X1520717Y1401144D1*
X1804186Y1401148D1*
X1828508Y1425461D1*
Y1471183D1*
X1785607Y1428282D1*
X1784249Y1425828D1*
X1783872Y1424236D1*
X1781365Y1418247D1*
X1777395Y1413111D1*
X1772230Y1409178D1*
X1766223Y1406715D1*
X1759783Y1405891D1*
X1753350Y1406762D1*
X1747361Y1409268D1*
X1746513Y1409924D1*
X1743436Y1410813D1*
X1536538Y1410815D1*
X1806502Y1801145D2*
X1812320Y1800186D1*
X1817600Y1797571D1*
X1820306Y1795306D1*
X1828508Y1787097D1*
Y1834902D1*
X1822806Y1838911D1*
X1799374D1*
X1799368Y1846785D1*
X1663482Y1846787D1*
Y1754062D1*
X1663838Y1753821D1*
X1666545Y1751557D1*
X1743671Y1674430D1*
X1745835Y1674425D1*
X1745831Y1755134D1*
X1804063D1*
X1797942Y1761250D1*
X1797641Y1761253D1*
X1794949Y1760478D1*
X1793556Y1759619D1*
X1787550Y1757156D1*
X1781110Y1756332D1*
X1774677Y1757203D1*
X1768688Y1759709D1*
X1763552Y1763680D1*
X1759619Y1768845D1*
X1757156Y1774852D1*
X1756332Y1781292D1*
X1757203Y1787725D1*
X1759709Y1793714D1*
X1763680Y1798850D1*
X1768845Y1802783D1*
X1774852Y1805246D1*
X1781292Y1806069D1*
X1787725Y1805199D1*
X1793714Y1802692D1*
X1794561Y1802037D1*
X1797639Y1801148D1*
X1806502Y1801145D1*
X2003430Y1643949D2*
X2005645Y1638484D1*
X2006200Y1633811D1*
Y1537125D1*
X2007164Y1533780D1*
X2008459Y1531878D1*
X2008675Y1531262D1*
X2012752Y1534123D1*
X2018777Y1536542D1*
X2025223Y1537319D1*
X2031649Y1536401D1*
X2037620Y1533851D1*
X2042727Y1529843D1*
X2045043Y1526754D1*
X2045044Y1603714D1*
X2044924Y1606938D1*
X2042916Y1611836D1*
X2042092Y1618276D1*
X2042963Y1624709D1*
X2045469Y1630698D1*
X2049440Y1635834D1*
X2054605Y1639767D1*
X2060612Y1642230D1*
X2067051Y1643054D1*
X2073485Y1642183D1*
X2076544Y1640903D1*
X2076547Y1656708D1*
X2076540Y1673897D1*
X2011364Y1673900D1*
X2010627Y1672557D1*
X2010250Y1670964D1*
X2007743Y1664975D1*
X2003773Y1659839D1*
X1998608Y1655906D1*
X1994179Y1654090D1*
X2000301Y1647972D1*
X2003430Y1643949D1*
X2985804Y1480997D2*
D18*
Y1443364D1*
X2950140Y1480997D2*
X3021469D1*
X2412451Y1895916D2*
Y1933549D1*
X2448116Y1895916D2*
X2376787D1*
X1708692Y1594291D2*
X1678932D1*
X2208692Y1711860D2*
X2238451D1*
X2033101Y1381201D2*
Y1351441D1*
X1633692Y1518110D2*
X1603932D1*
Y1819291D2*
X1663451D1*
X748027Y1668307D2*
X819357D1*
X2850394Y2212795D2*
X2899641D1*
X2850394Y2163548D2*
Y2262043D1*
X3124606Y2379169D2*
Y2158233D1*
X3014138Y2268701D2*
X3235074D1*
X1812795Y2379169D2*
Y2268701D1*
X1702327D2*
X1923263D1*
X914926Y2324606D2*
X1013421D1*
X964173Y2275358D2*
Y2373853D1*
X526772Y2378381D2*
Y2159020D1*
Y2268700D2*
X636452D1*
X1510630Y2378381D2*
Y2268700D1*
X1400949D2*
X1620310D1*
X861255Y1074606D2*
X762760D1*
X812008Y1123854D2*
Y1025359D1*
X537795Y908233D2*
Y1129169D1*
X648263Y1018701D2*
X427327D1*
X1849606Y908233D2*
Y1129169D1*
X1960074Y1018701D2*
X1739138D1*
X2747476Y962796D2*
X2648981D1*
X2698228Y1012043D2*
Y913548D1*
X3135630Y909021D2*
Y1128382D1*
Y1018701D2*
X3025949D1*
X2151772D2*
Y1128382D1*
X2261452Y1018701D2*
X2042091D1*
X1290498Y1387451D2*
X1389387D1*
X1339942D2*
Y1436896D1*
X3057889Y1694882D2*
X3142998D1*
X2590650Y1758725D2*
Y1875330D1*
X2625330Y1817028D2*
X2555969D1*
D19*
X2985804Y1547927D3*
Y1480997D3*
X2412451Y1828987D3*
Y1895916D3*
D20*
X1833101Y1868701D3*
X1884282D3*
D21*
X1708692Y1543110D3*
Y1594291D3*
X2208692Y1763041D3*
Y1711860D3*
D20*
X2084282Y1381201D3*
X2033101D3*
D21*
X1633692Y1518110D3*
Y1569291D3*
Y1819291D3*
Y1768110D3*
D22*
X783692Y1569882D3*
Y1619094D3*
Y1668307D3*
Y1717520D3*
D23*
X2850394Y2212795D3*
D24*
X2741339D3*
X2632283D3*
X2523228D3*
X2414173D3*
X2305118D3*
X2196063D3*
X2087008D3*
X2795866Y2324606D3*
X2686811D3*
X2577756D3*
X2468701D3*
X2359646D3*
X2250591D3*
X2141535D3*
D25*
X3124606Y2268701D3*
X1812795D3*
D23*
X1236811Y2212795D3*
D24*
X1127756D3*
X1018701D3*
X909646D3*
X800591D3*
X1182283Y2324606D3*
X1073228D3*
X964173D3*
X855118D3*
D26*
X526772Y2268700D3*
X1510630D3*
D23*
X812008Y1074606D3*
D24*
X921063D3*
X1030118D3*
X1139173D3*
X1248228D3*
X1357283D3*
X1466339D3*
X1575394D3*
X866535Y962795D3*
X975591D3*
X1084646D3*
X1193701D3*
X1302756D3*
X1411811D3*
X1520866D3*
D25*
X537795Y1018701D3*
X1849606D3*
D23*
X2425591Y1074607D3*
D24*
X2534646D3*
X2643701D3*
X2752756D3*
X2861811D3*
X2480118Y962796D3*
X2589173D3*
X2698228D3*
X2807283D3*
D26*
X3135630Y1018701D3*
X2151772D3*
D27*
X1339942Y1387451D3*
D28*
Y1487451D3*
Y1587451D3*
Y1687451D3*
Y1787451D3*
Y1887451D3*
D29*
X3100444Y1592520D3*
Y1618110D3*
Y1643701D3*
Y1669291D3*
Y1694882D3*
D30*
X3111270Y1527559D3*
Y1759843D3*
D31*
X3219538Y1506890D3*
Y1780512D3*
D32*
X3205759Y1643701D3*
D20*
X2334282Y1624950D3*
X2283101D3*
X2334282Y1674950D3*
X2283101D3*
X2850541Y1681201D3*
X2799360D3*
D21*
X2331201Y2025541D3*
Y1974360D3*
D20*
X1100541Y1187451D3*
X1049360D3*
D21*
X1424950Y1713042D3*
Y1661861D3*
D33*
X1793337Y1733218D3*
Y1713533D3*
Y1693848D3*
Y1674163D3*
Y1654478D3*
Y1634793D3*
Y1615108D3*
Y1595423D3*
Y1575738D3*
Y1556052D3*
Y1536367D3*
Y1516682D3*
D34*
X1850424Y1459596D3*
X1870109D3*
X1889794D3*
X1909479D3*
X1929164D3*
X1948849D3*
X1968534D3*
X1988219D3*
X2007904D3*
X2027589D3*
X2047274D3*
X2066959D3*
D33*
X2124046Y1516682D3*
Y1536367D3*
Y1556052D3*
Y1575738D3*
Y1595423D3*
Y1615108D3*
Y1634793D3*
Y1654478D3*
Y1674163D3*
Y1693848D3*
Y1713533D3*
Y1733218D3*
D34*
X2066959Y1790304D3*
X2047274D3*
X2027589D3*
X2007904D3*
X1988219D3*
X1968534D3*
X1948849D3*
X1929164D3*
X1909479D3*
X1889794D3*
X1870109D3*
X1850424D3*
D35*
X2590650Y1817028D3*
X2681201D3*
X2771752D3*
D36*
X2681201Y2045374D3*
D38*
X1632314Y1700197D3*
Y1637205D3*
X1585070Y1700197D3*
Y1637205D3*
M02*
