G04 DipTrace 2.4.0.2*
%INBottom.gbr*%
%MOIN*%
%ADD13C,0.0118*%
%ADD14C,0.0079*%
%ADD15C,0.025*%
%ADD18R,0.063X0.063*%
%ADD19C,0.063*%
%ADD24R,0.0665X0.0665*%
%ADD26C,0.0665*%
%ADD27C,0.1874*%
%ADD28C,0.189*%
%ADD34C,0.0276*%
%FSLAX44Y44*%
G04*
G70*
G90*
G75*
G01*
%LNBottom*%
%LPD*%
X24302Y11411D2*
D14*
X13051D1*
X12913Y11549D1*
Y15590D1*
X12776Y15727D1*
X6574D1*
X28526Y20805D2*
Y18044D1*
X26645Y16163D1*
Y11431D1*
X26221Y11008D1*
Y8273D1*
X25676Y7727D1*
Y7217D1*
X25538Y7079D1*
X22464D1*
X21973Y7569D1*
X25245D2*
Y11125D1*
X25582Y11462D1*
Y11746D1*
X25818Y11982D1*
Y16959D1*
X25254Y17523D1*
Y20805D1*
X25247Y11648D2*
X21437Y15458D1*
Y19687D1*
X13189Y12691D2*
Y19980D1*
X13051Y20118D1*
X11475D1*
X10788Y20805D1*
X13882Y13321D2*
Y20667D1*
X13744Y20805D1*
X11879D1*
X8075Y8687D2*
Y12061D1*
X9165Y8687D2*
Y11746D1*
X10256Y8687D2*
Y11431D1*
X8620Y7569D2*
Y9915D1*
X28516Y13293D2*
X27706D1*
X25470Y13321D2*
D13*
X24932D1*
Y13596D1*
X24617D1*
X8062Y19687D2*
X6023Y17648D1*
Y14686D1*
X6259Y14449D1*
X12201D1*
X12437Y14213D1*
Y8687D1*
X21982Y20805D2*
X21183Y21604D1*
X8298D1*
X8062Y21368D1*
Y19687D1*
X24617Y13596D2*
X21982Y16231D1*
Y20805D1*
X29011Y13435D2*
Y12954D1*
X28517Y12460D1*
Y7569D1*
X27984Y13687D2*
X28047Y13750D1*
X28696D1*
X29011Y13435D1*
D34*
X10872Y14938D3*
X8997D3*
Y18126D3*
Y16126D3*
X12562Y14937D3*
X12123Y16126D3*
X10497Y18876D3*
X12873Y16439D3*
X12935Y17501D3*
X11623Y18876D3*
X12748D3*
X13560Y18064D3*
X16623Y15001D3*
X15935Y14563D3*
X15248Y14126D3*
X13560Y16939D3*
X21749Y12376D3*
X17873D3*
X13623D3*
X11935D3*
X8560D3*
X8622Y11438D3*
Y10438D3*
X9685Y11313D3*
Y10438D3*
X10685Y10750D3*
X11998D3*
X12935Y10625D3*
X17998D3*
X22936D3*
X6434Y16876D3*
X8997Y13438D3*
X11998D3*
X13498D3*
Y14813D3*
X24936Y14626D3*
X26187Y14938D3*
Y14063D3*
X26937Y12438D3*
X28624Y12938D3*
X27749Y10625D3*
X25937Y10688D3*
X22374Y18001D3*
X24874D3*
X24374Y15563D3*
X13560Y15813D3*
X4309Y24064D3*
X33062D3*
Y4312D3*
X4309D3*
X7810Y9250D3*
X25624Y18001D3*
X27999D3*
X25749Y9625D3*
X7872Y7375D3*
X6997Y8500D3*
X23561Y11751D3*
X24061Y13501D3*
X25499Y12501D3*
X6574Y15727D3*
X24302Y11411D3*
X26645Y11431D3*
X25582Y11746D3*
X25247Y11648D3*
X13189Y12691D3*
X13882Y13321D3*
X8075Y12061D3*
X9165Y11746D3*
X10256Y11431D3*
X8620Y9915D3*
X27706Y13293D3*
X28516D3*
X27984Y13687D3*
X29011Y13435D3*
X25470Y13321D3*
X24617Y13596D3*
X4337Y23813D2*
D15*
X33039D1*
X4337Y23565D2*
X33039D1*
X4337Y23316D2*
X33039D1*
X4337Y23067D2*
X33039D1*
X4337Y22819D2*
X33039D1*
X4337Y22570D2*
X33039D1*
X4337Y22321D2*
X33039D1*
X4337Y22073D2*
X33039D1*
X4337Y21824D2*
X8035D1*
X21448D2*
X33039D1*
X4337Y21575D2*
X7789D1*
X21694D2*
X33039D1*
X4337Y21326D2*
X7715D1*
X22300D2*
X22758D1*
X23390D2*
X23848D1*
X24480D2*
X24937D1*
X25569D2*
X26027D1*
X26663D2*
X27117D1*
X27753D2*
X28207D1*
X28843D2*
X33039D1*
X4337Y21078D2*
X7715D1*
X9163D2*
X10230D1*
X13905D2*
X21226D1*
X29081D2*
X33039D1*
X4337Y20829D2*
X7715D1*
X9230D2*
X10168D1*
X14163D2*
X21359D1*
X29148D2*
X33039D1*
X4337Y20580D2*
X7715D1*
X9187D2*
X10211D1*
X14210D2*
X21402D1*
X29105D2*
X33039D1*
X4337Y20332D2*
X7715D1*
X8995D2*
X10398D1*
X13292D2*
X13551D1*
X14210D2*
X21594D1*
X28913D2*
X33039D1*
X4337Y20083D2*
X7590D1*
X8534D2*
X8680D1*
X9624D2*
X9770D1*
X10714D2*
X10862D1*
X14210D2*
X20965D1*
X28855D2*
X33039D1*
X4337Y19834D2*
X7457D1*
X14210D2*
X20832D1*
X28855D2*
X33039D1*
X4337Y19586D2*
X7449D1*
X14210D2*
X20824D1*
X28855D2*
X33039D1*
X4337Y19337D2*
X7230D1*
X14210D2*
X20930D1*
X28855D2*
X33039D1*
X4337Y19088D2*
X6980D1*
X7944D2*
X12859D1*
X14210D2*
X21109D1*
X22331D2*
X24926D1*
X25581D2*
X28195D1*
X28855D2*
X33039D1*
X4337Y18840D2*
X6730D1*
X7698D2*
X12859D1*
X14210D2*
X21109D1*
X22331D2*
X24926D1*
X25581D2*
X28195D1*
X28855D2*
X33039D1*
X4337Y18591D2*
X6484D1*
X7448D2*
X12859D1*
X14210D2*
X21109D1*
X22331D2*
X24926D1*
X25581D2*
X28195D1*
X28855D2*
X33039D1*
X4337Y18342D2*
X6234D1*
X7198D2*
X12859D1*
X14210D2*
X21109D1*
X22331D2*
X24926D1*
X25581D2*
X28195D1*
X28855D2*
X33039D1*
X4337Y18094D2*
X5984D1*
X6952D2*
X12859D1*
X14210D2*
X21109D1*
X22331D2*
X24926D1*
X25581D2*
X28121D1*
X28855D2*
X33039D1*
X4337Y17845D2*
X5742D1*
X6702D2*
X12859D1*
X14210D2*
X21109D1*
X22331D2*
X24926D1*
X25581D2*
X27871D1*
X28780D2*
X33039D1*
X4337Y17596D2*
X5676D1*
X6452D2*
X12859D1*
X14210D2*
X21109D1*
X22331D2*
X24926D1*
X25636D2*
X27621D1*
X28534D2*
X33039D1*
X4337Y17347D2*
X5676D1*
X6370D2*
X12859D1*
X14210D2*
X21109D1*
X22331D2*
X24980D1*
X25886D2*
X27375D1*
X28284D2*
X33039D1*
X4337Y17099D2*
X5676D1*
X6370D2*
X12859D1*
X14210D2*
X21109D1*
X22331D2*
X25223D1*
X26112D2*
X27125D1*
X28034D2*
X33039D1*
X4337Y16850D2*
X5676D1*
X6370D2*
X12859D1*
X14210D2*
X21109D1*
X22331D2*
X25473D1*
X26148D2*
X26875D1*
X27788D2*
X33039D1*
X4337Y16601D2*
X5676D1*
X6370D2*
X12859D1*
X14210D2*
X21109D1*
X22331D2*
X25488D1*
X26148D2*
X26629D1*
X27538D2*
X33039D1*
X4337Y16353D2*
X5676D1*
X6370D2*
X12859D1*
X14210D2*
X21109D1*
X22343D2*
X25488D1*
X26148D2*
X26383D1*
X27288D2*
X33039D1*
X4337Y16104D2*
X5676D1*
X6741D2*
X12859D1*
X14210D2*
X21109D1*
X22593D2*
X25488D1*
X26148D2*
X26316D1*
X27042D2*
X33039D1*
X4337Y15855D2*
X5676D1*
X14210D2*
X21109D1*
X22843D2*
X25488D1*
X26148D2*
X26316D1*
X26976D2*
X33039D1*
X4337Y15607D2*
X5676D1*
X14210D2*
X21109D1*
X21765D2*
X22125D1*
X23089D2*
X25488D1*
X26148D2*
X26316D1*
X26976D2*
X33039D1*
X4337Y15358D2*
X5676D1*
X6757D2*
X12586D1*
X14210D2*
X21125D1*
X21991D2*
X22371D1*
X23339D2*
X25488D1*
X26148D2*
X26316D1*
X26976D2*
X31453D1*
X31733D2*
X33039D1*
X4337Y15109D2*
X5676D1*
X6370D2*
X12586D1*
X14210D2*
X21332D1*
X22241D2*
X22621D1*
X23589D2*
X25488D1*
X26148D2*
X26316D1*
X26976D2*
X31164D1*
X32023D2*
X33039D1*
X4337Y14861D2*
X5676D1*
X6370D2*
X12586D1*
X14210D2*
X21578D1*
X22491D2*
X22871D1*
X23835D2*
X25488D1*
X26148D2*
X26316D1*
X26976D2*
X31133D1*
X32054D2*
X33039D1*
X4337Y14612D2*
X5683D1*
X14210D2*
X21828D1*
X22737D2*
X23117D1*
X24085D2*
X25488D1*
X26148D2*
X26316D1*
X26976D2*
X31262D1*
X31925D2*
X33039D1*
X4337Y14363D2*
X5863D1*
X14210D2*
X22078D1*
X22987D2*
X23367D1*
X24335D2*
X25488D1*
X26148D2*
X26316D1*
X26976D2*
X33039D1*
X4337Y14115D2*
X12051D1*
X14210D2*
X22324D1*
X23237D2*
X23617D1*
X24581D2*
X25488D1*
X26148D2*
X26316D1*
X26976D2*
X33039D1*
X4337Y13866D2*
X12090D1*
X14210D2*
X22574D1*
X23483D2*
X23863D1*
X25136D2*
X25488D1*
X26148D2*
X26316D1*
X26976D2*
X27598D1*
X29062D2*
X33039D1*
X4337Y13617D2*
X12090D1*
X14210D2*
X22824D1*
X23733D2*
X24113D1*
X26148D2*
X26316D1*
X26976D2*
X27441D1*
X29394D2*
X31426D1*
X31761D2*
X33039D1*
X4337Y13368D2*
X12090D1*
X14308D2*
X23070D1*
X23983D2*
X24262D1*
X26148D2*
X26316D1*
X26976D2*
X27285D1*
X29433D2*
X31160D1*
X32026D2*
X33039D1*
X4337Y13120D2*
X12090D1*
X14257D2*
X23320D1*
X24230D2*
X24652D1*
X26148D2*
X26316D1*
X26976D2*
X27316D1*
X29358D2*
X31133D1*
X32054D2*
X33039D1*
X4337Y12871D2*
X12090D1*
X13573D2*
X23570D1*
X24480D2*
X25488D1*
X26148D2*
X26316D1*
X26976D2*
X28445D1*
X29351D2*
X31273D1*
X31913D2*
X33039D1*
X4337Y12622D2*
X12090D1*
X13612D2*
X23816D1*
X24730D2*
X25488D1*
X26148D2*
X26316D1*
X26976D2*
X28211D1*
X29163D2*
X33039D1*
X4337Y12374D2*
X7797D1*
X8355D2*
X12090D1*
X13460D2*
X24066D1*
X24976D2*
X25488D1*
X26148D2*
X26316D1*
X26976D2*
X28168D1*
X28913D2*
X33039D1*
X4337Y12125D2*
X7652D1*
X8499D2*
X9004D1*
X9327D2*
X12090D1*
X13241D2*
X24316D1*
X25226D2*
X25422D1*
X26148D2*
X26316D1*
X26976D2*
X28168D1*
X28866D2*
X33039D1*
X4337Y11876D2*
X7691D1*
X8456D2*
X8758D1*
X9569D2*
X12090D1*
X13241D2*
X24562D1*
X26128D2*
X26316D1*
X26976D2*
X28168D1*
X28866D2*
X33039D1*
X4337Y11628D2*
X7746D1*
X8405D2*
X8754D1*
X9573D2*
X9879D1*
X10632D2*
X12090D1*
X24667D2*
X24812D1*
X25991D2*
X26269D1*
X27023D2*
X28168D1*
X28866D2*
X33039D1*
X4337Y11379D2*
X7746D1*
X8405D2*
X8836D1*
X9495D2*
X9832D1*
X10679D2*
X12090D1*
X24730D2*
X24922D1*
X25898D2*
X26137D1*
X27069D2*
X28168D1*
X28866D2*
X29207D1*
X30417D2*
X33039D1*
X4337Y11130D2*
X7746D1*
X8405D2*
X8836D1*
X9495D2*
X9926D1*
X10585D2*
X12090D1*
X24616D2*
X24918D1*
X25706D2*
X25918D1*
X26937D2*
X28168D1*
X28866D2*
X29207D1*
X30417D2*
X33039D1*
X4337Y10882D2*
X7746D1*
X8405D2*
X8836D1*
X9495D2*
X9926D1*
X10585D2*
X12090D1*
X12784D2*
X24918D1*
X25573D2*
X25891D1*
X26550D2*
X28168D1*
X28866D2*
X29207D1*
X30417D2*
X33039D1*
X4337Y10633D2*
X7746D1*
X8405D2*
X8836D1*
X9495D2*
X9926D1*
X10585D2*
X12090D1*
X12784D2*
X24918D1*
X25573D2*
X25891D1*
X26550D2*
X28168D1*
X28866D2*
X29207D1*
X30417D2*
X33039D1*
X4337Y10384D2*
X7746D1*
X8405D2*
X8836D1*
X9495D2*
X9926D1*
X10585D2*
X12090D1*
X12784D2*
X24918D1*
X25573D2*
X25891D1*
X26550D2*
X28168D1*
X28866D2*
X29207D1*
X30417D2*
X33039D1*
X4337Y10135D2*
X7746D1*
X9495D2*
X9926D1*
X10585D2*
X12090D1*
X12784D2*
X24918D1*
X25573D2*
X25891D1*
X26550D2*
X28168D1*
X28866D2*
X33039D1*
X4337Y9887D2*
X7746D1*
X9495D2*
X9926D1*
X10585D2*
X12090D1*
X12784D2*
X24918D1*
X25573D2*
X25891D1*
X26550D2*
X28168D1*
X28866D2*
X33039D1*
X4337Y9638D2*
X7746D1*
X9495D2*
X9926D1*
X10585D2*
X12090D1*
X12784D2*
X24918D1*
X25573D2*
X25891D1*
X26550D2*
X28168D1*
X28866D2*
X33039D1*
X4337Y9389D2*
X7746D1*
X9495D2*
X9926D1*
X10585D2*
X12090D1*
X12784D2*
X24918D1*
X25573D2*
X25891D1*
X26550D2*
X28168D1*
X28866D2*
X33039D1*
X4337Y9141D2*
X7453D1*
X9577D2*
X9844D1*
X10671D2*
X10933D1*
X11761D2*
X12023D1*
X12851D2*
X22105D1*
X22933D2*
X23195D1*
X24023D2*
X24285D1*
X27296D2*
X27558D1*
X29476D2*
X33039D1*
X4337Y8892D2*
X7453D1*
X13023D2*
X21933D1*
X29648D2*
X33039D1*
X4337Y8643D2*
X7453D1*
X13058D2*
X21898D1*
X29683D2*
X33039D1*
X4337Y8395D2*
X7453D1*
X12983D2*
X21973D1*
X29608D2*
X33039D1*
X4337Y8146D2*
X7453D1*
X10534D2*
X11066D1*
X12714D2*
X21793D1*
X29339D2*
X33039D1*
X4337Y7897D2*
X8098D1*
X10233D2*
X11367D1*
X12417D2*
X21449D1*
X29042D2*
X33039D1*
X4337Y7649D2*
X8004D1*
X10327D2*
X11273D1*
X12507D2*
X21355D1*
X29132D2*
X33039D1*
X4337Y7400D2*
X8023D1*
X10308D2*
X11293D1*
X12491D2*
X21375D1*
X29116D2*
X33039D1*
X4337Y7151D2*
X8168D1*
X9073D2*
X9258D1*
X10163D2*
X11441D1*
X12343D2*
X21519D1*
X26788D2*
X26973D1*
X27878D2*
X28066D1*
X28968D2*
X33039D1*
X4337Y6903D2*
X22183D1*
X25816D2*
X33039D1*
X4337Y6654D2*
X33039D1*
X4337Y6405D2*
X33039D1*
X4337Y6156D2*
X33039D1*
X4337Y5908D2*
X33039D1*
X4337Y5659D2*
X33039D1*
X4337Y5410D2*
X33039D1*
X4337Y5162D2*
X33039D1*
X4337Y4913D2*
X33039D1*
X4337Y4664D2*
X33039D1*
X4337Y4416D2*
X33039D1*
X29357Y11393D2*
X30392D1*
Y10233D1*
X29232D1*
Y11393D1*
X29357D1*
X32018Y13076D2*
X31967Y12962D1*
X31886Y12867D1*
X31782Y12799D1*
X31663Y12762D1*
X31538Y12760D1*
X31418Y12793D1*
X31312Y12858D1*
X31228Y12951D1*
X31173Y13062D1*
X31152Y13185D1*
X31165Y13309D1*
X31213Y13424D1*
X31291Y13521D1*
X31393Y13593D1*
X31511Y13633D1*
X31635Y13639D1*
X31756Y13610D1*
X31865Y13548D1*
X31951Y13459D1*
X32009Y13349D1*
X32036Y13199D1*
X32018Y13076D1*
Y14808D2*
X31967Y14694D1*
X31886Y14600D1*
X31782Y14531D1*
X31663Y14495D1*
X31538Y14493D1*
X31418Y14526D1*
X31312Y14591D1*
X31228Y14683D1*
X31173Y14795D1*
X31152Y14917D1*
X31165Y15041D1*
X31213Y15156D1*
X31291Y15254D1*
X31393Y15325D1*
X31511Y15366D1*
X31635Y15371D1*
X31756Y15342D1*
X31865Y15281D1*
X31951Y15191D1*
X32009Y15081D1*
X32036Y14931D1*
X32018Y14808D1*
X7602Y9285D2*
X7770D1*
X7771Y11800D1*
X7696Y11924D1*
X7672Y12046D1*
X7687Y12170D1*
X7739Y12283D1*
X7822Y12375D1*
X7930Y12437D1*
X8052Y12463D1*
X8176Y12451D1*
X8290Y12401D1*
X8384Y12319D1*
X8448Y12213D1*
X8478Y12061D1*
X8458Y11938D1*
X8402Y11827D1*
X8378Y11802D1*
X8379Y10237D1*
X8476Y10291D1*
X8597Y10318D1*
X8721Y10305D1*
X8835Y10256D1*
X8862Y10233D1*
X8861Y11480D1*
X8787Y11609D1*
X8763Y11731D1*
X8778Y11855D1*
X8829Y11968D1*
X8913Y12060D1*
X9021Y12122D1*
X9143Y12148D1*
X9266Y12136D1*
X9381Y12086D1*
X9474Y12004D1*
X9538Y11898D1*
X9568Y11746D1*
X9549Y11623D1*
X9493Y11512D1*
X9468Y11487D1*
X9470Y9203D1*
X9562Y9134D1*
X9646Y9042D1*
X9711Y8930D1*
X9771Y9036D1*
X9854Y9129D1*
X9951Y9201D1*
X9952Y11167D1*
X9877Y11294D1*
X9853Y11416D1*
X9868Y11540D1*
X9920Y11653D1*
X10004Y11745D1*
X10111Y11807D1*
X10233Y11833D1*
X10357Y11821D1*
X10471Y11771D1*
X10565Y11689D1*
X10629Y11583D1*
X10659Y11431D1*
X10639Y11308D1*
X10583Y11197D1*
X10559Y11172D1*
X10560Y9201D1*
X10653Y9134D1*
X10737Y9042D1*
X10801Y8930D1*
X10861Y9036D1*
X10944Y9129D1*
X11045Y9203D1*
X11159Y9254D1*
X11280Y9281D1*
X11405Y9282D1*
X11527Y9257D1*
X11642Y9207D1*
X11743Y9134D1*
X11827Y9042D1*
X11892Y8930D1*
X11952Y9036D1*
X12035Y9129D1*
X12113Y9187D1*
Y14082D1*
X11951Y14125D1*
X6259D1*
X6137Y14149D1*
X6030Y14220D1*
X5794Y14456D1*
X5724Y14560D1*
X5699Y14686D1*
Y17648D1*
X5722Y17770D1*
X5794Y17877D1*
X7476Y19559D1*
X7464Y19685D1*
X7477Y19809D1*
X7515Y19928D1*
X7577Y20036D1*
X7660Y20129D1*
X7738Y20187D1*
Y21368D1*
X7762Y21490D1*
X7833Y21597D1*
X8069Y21833D1*
X8172Y21903D1*
X8298Y21928D1*
X21183D1*
X21305Y21904D1*
X21412Y21833D1*
X21857Y21389D1*
X21916Y21399D1*
X22041Y21400D1*
X22163Y21375D1*
X22278Y21325D1*
X22379Y21252D1*
X22463Y21160D1*
X22528Y21049D1*
X22588Y21154D1*
X22671Y21247D1*
X22771Y21321D1*
X22885Y21372D1*
X23007Y21399D1*
X23132Y21400D1*
X23254Y21375D1*
X23368Y21325D1*
X23470Y21252D1*
X23554Y21160D1*
X23618Y21049D1*
X23678Y21154D1*
X23761Y21247D1*
X23862Y21321D1*
X23975Y21372D1*
X24097Y21399D1*
X24222Y21400D1*
X24344Y21375D1*
X24459Y21325D1*
X24560Y21252D1*
X24644Y21160D1*
X24709Y21049D1*
X24769Y21154D1*
X24852Y21247D1*
X24952Y21321D1*
X25066Y21372D1*
X25188Y21399D1*
X25313Y21400D1*
X25435Y21375D1*
X25549Y21325D1*
X25651Y21252D1*
X25735Y21160D1*
X25799Y21049D1*
X25859Y21154D1*
X25942Y21247D1*
X26043Y21321D1*
X26157Y21372D1*
X26278Y21399D1*
X26403Y21400D1*
X26525Y21375D1*
X26640Y21325D1*
X26741Y21252D1*
X26825Y21160D1*
X26890Y21049D1*
X26950Y21154D1*
X27033Y21247D1*
X27133Y21321D1*
X27247Y21372D1*
X27369Y21399D1*
X27494Y21400D1*
X27616Y21375D1*
X27730Y21325D1*
X27832Y21252D1*
X27916Y21160D1*
X27980Y21049D1*
X28040Y21154D1*
X28123Y21247D1*
X28224Y21321D1*
X28338Y21372D1*
X28460Y21399D1*
X28584Y21400D1*
X28707Y21375D1*
X28821Y21325D1*
X28922Y21252D1*
X29006Y21160D1*
X29070Y21052D1*
X29109Y20934D1*
X29123Y20805D1*
X29110Y20681D1*
X29072Y20562D1*
X29009Y20454D1*
X28926Y20361D1*
X28828Y20290D1*
X28830Y18044D1*
X28802Y17919D1*
X28741Y17829D1*
X26948Y16036D1*
X26949Y11698D1*
X27018Y11583D1*
X27047Y11431D1*
X27028Y11308D1*
X26972Y11197D1*
X26885Y11108D1*
X26775Y11050D1*
X26679Y11033D1*
X26526Y10882D1*
Y9168D1*
X26579Y9203D1*
X26693Y9254D1*
X26815Y9281D1*
X26940Y9282D1*
X27062Y9257D1*
X27176Y9207D1*
X27278Y9134D1*
X27362Y9042D1*
X27426Y8930D1*
X27486Y9036D1*
X27569Y9129D1*
X27670Y9203D1*
X27784Y9254D1*
X27905Y9281D1*
X28030Y9282D1*
X28152Y9257D1*
X28192Y9239D1*
X28193Y12460D1*
X28217Y12582D1*
X28288Y12689D1*
X28489Y12890D1*
X28400Y12908D1*
X28288Y12961D1*
X28256Y12991D1*
X27973Y12989D1*
X27836Y12912D1*
X27713Y12891D1*
X27590Y12908D1*
X27478Y12961D1*
X27387Y13047D1*
X27327Y13156D1*
X27303Y13278D1*
X27318Y13402D1*
X27370Y13515D1*
X27453Y13607D1*
X27580Y13673D1*
X27596Y13795D1*
X27648Y13909D1*
X27732Y14001D1*
X27840Y14063D1*
X27961Y14089D1*
X28172Y14074D1*
X28696D1*
X28818Y14050D1*
X28925Y13979D1*
X29072Y13833D1*
X29112Y13825D1*
X29226Y13775D1*
X29320Y13693D1*
X29384Y13587D1*
X29414Y13435D1*
X29395Y13312D1*
X29335Y13185D1*
Y12954D1*
X29311Y12832D1*
X29240Y12725D1*
X28840Y12325D1*
X28841Y9245D1*
X28996Y9281D1*
X29121Y9282D1*
X29243Y9257D1*
X29357Y9207D1*
X29459Y9134D1*
X29543Y9042D1*
X29606Y8934D1*
X29646Y8816D1*
X29660Y8687D1*
X29647Y8563D1*
X29608Y8444D1*
X29546Y8336D1*
X29462Y8243D1*
X29362Y8170D1*
X29248Y8119D1*
X29126Y8093D1*
X29001D1*
X28879Y8118D1*
X28839Y8136D1*
X28841Y8073D1*
X28913Y8016D1*
X28998Y7924D1*
X29061Y7816D1*
X29100Y7698D1*
X29114Y7569D1*
X29101Y7445D1*
X29063Y7326D1*
X29000Y7218D1*
X28917Y7125D1*
X28816Y7052D1*
X28702Y7001D1*
X28580Y6975D1*
X28456Y6974D1*
X28333Y7000D1*
X28219Y7051D1*
X28118Y7124D1*
X28034Y7216D1*
X27970Y7328D1*
X27910Y7218D1*
X27827Y7125D1*
X27726Y7052D1*
X27612Y7001D1*
X27490Y6975D1*
X27365Y6974D1*
X27243Y7000D1*
X27129Y7051D1*
X27028Y7124D1*
X26944Y7216D1*
X26880Y7328D1*
X26819Y7218D1*
X26736Y7125D1*
X26635Y7052D1*
X26521Y7001D1*
X26399Y6975D1*
X26274Y6974D1*
X26152Y7000D1*
X26038Y7051D1*
X25959Y7108D1*
X25940Y7066D1*
X25891Y7001D1*
X25754Y6864D1*
X25646Y6795D1*
X25538Y6774D1*
X22464D1*
X22339Y6802D1*
X22248Y6864D1*
X22124Y6988D1*
X22037Y6975D1*
X21912Y6974D1*
X21790Y7000D1*
X21676Y7051D1*
X21575Y7124D1*
X21491Y7216D1*
X21428Y7324D1*
X21389Y7442D1*
X21376Y7566D1*
X21388Y7691D1*
X21426Y7809D1*
X21488Y7918D1*
X21571Y8011D1*
X21672Y8085D1*
X21786Y8136D1*
X21907Y8163D1*
X22032Y8164D1*
X22154Y8138D1*
X22269Y8088D1*
X22370Y8016D1*
X22454Y7924D1*
X22519Y7812D1*
X22579Y7918D1*
X22662Y8011D1*
X22762Y8085D1*
X22876Y8136D1*
X22998Y8163D1*
X23123Y8164D1*
X23245Y8138D1*
X23359Y8088D1*
X23461Y8016D1*
X23545Y7924D1*
X23609Y7812D1*
X23669Y7918D1*
X23752Y8011D1*
X23853Y8085D1*
X23967Y8136D1*
X24089Y8163D1*
X24213Y8164D1*
X24336Y8138D1*
X24450Y8088D1*
X24551Y8016D1*
X24635Y7924D1*
X24700Y7812D1*
X24760Y7918D1*
X24843Y8011D1*
X24940Y8083D1*
X24885Y8119D1*
X24763Y8093D1*
X24639D1*
X24517Y8118D1*
X24402Y8169D1*
X24301Y8242D1*
X24217Y8334D1*
X24154Y8446D1*
X24093Y8336D1*
X24010Y8243D1*
X23909Y8170D1*
X23795Y8119D1*
X23673Y8093D1*
X23548D1*
X23426Y8118D1*
X23312Y8169D1*
X23211Y8242D1*
X23127Y8334D1*
X23063Y8446D1*
X23002Y8336D1*
X22919Y8243D1*
X22818Y8170D1*
X22704Y8119D1*
X22582Y8093D1*
X22458D1*
X22335Y8118D1*
X22221Y8169D1*
X22120Y8242D1*
X22036Y8334D1*
X21974Y8442D1*
X21935Y8561D1*
X21921Y8685D1*
X21934Y8809D1*
X21972Y8928D1*
X22034Y9036D1*
X22117Y9129D1*
X22217Y9203D1*
X22331Y9254D1*
X22453Y9281D1*
X22577Y9282D1*
X22700Y9257D1*
X22814Y9207D1*
X22915Y9134D1*
X23000Y9042D1*
X23064Y8930D1*
X23124Y9036D1*
X23207Y9129D1*
X23308Y9203D1*
X23421Y9254D1*
X23543Y9281D1*
X23668Y9282D1*
X23790Y9257D1*
X23905Y9207D1*
X24006Y9134D1*
X24090Y9042D1*
X24155Y8930D1*
X24215Y9036D1*
X24298Y9129D1*
X24398Y9203D1*
X24512Y9254D1*
X24634Y9281D1*
X24759Y9282D1*
X24881Y9257D1*
X24942Y9230D1*
X24941Y11125D1*
X24968Y11250D1*
X24982Y11278D1*
X24868Y11511D1*
X24848Y11614D1*
X21222Y15243D1*
X21153Y15351D1*
X21133Y15458D1*
Y19173D1*
X21038Y19242D1*
X20955Y19334D1*
X20892Y19442D1*
X20853Y19561D1*
X20839Y19685D1*
X20852Y19809D1*
X20890Y19928D1*
X20952Y20036D1*
X21035Y20129D1*
X21135Y20203D1*
X21249Y20254D1*
X21371Y20281D1*
X21496Y20282D1*
X21618Y20257D1*
X21657Y20239D1*
X21584Y20360D1*
X21500Y20452D1*
X21437Y20560D1*
X21398Y20679D1*
X21385Y20803D1*
X21398Y20931D1*
X21049Y21280D1*
X12242D1*
X12360Y21160D1*
X12389Y21109D1*
X13744D1*
X13869Y21082D1*
X13959Y21020D1*
X14097Y20882D1*
X14166Y20775D1*
X14186Y20667D1*
X14191Y13579D1*
X14255Y13472D1*
X14284Y13321D1*
X14265Y13198D1*
X14209Y13087D1*
X14122Y12998D1*
X14012Y12940D1*
X13889Y12918D1*
X13766Y12935D1*
X13654Y12989D1*
X13563Y13074D1*
X13503Y13184D1*
X13494Y13233D1*
X13498Y12949D1*
X13562Y12842D1*
X13592Y12691D1*
X13572Y12568D1*
X13517Y12457D1*
X13429Y12368D1*
X13319Y12310D1*
X13216Y12292D1*
X13218Y11718D1*
X14551Y11716D1*
X24039D1*
X24158Y11787D1*
X24279Y11813D1*
X24403Y11801D1*
X24518Y11752D1*
X24611Y11670D1*
X24675Y11563D1*
X24705Y11411D1*
X24686Y11288D1*
X24630Y11177D1*
X24543Y11088D1*
X24432Y11030D1*
X24310Y11009D1*
X24186Y11026D1*
X24074Y11079D1*
X24043Y11109D1*
X17802Y11107D1*
X13051D1*
X12926Y11135D1*
X12836Y11196D1*
X12761Y11271D1*
Y9186D1*
X12834Y9134D1*
X12918Y9042D1*
X12981Y8934D1*
X13021Y8816D1*
X13035Y8687D1*
X13022Y8563D1*
X12983Y8444D1*
X12921Y8336D1*
X12837Y8243D1*
X12736Y8170D1*
X12623Y8119D1*
X12501Y8093D1*
X12376D1*
X12254Y8118D1*
X12140Y8169D1*
X12038Y8242D1*
X11955Y8334D1*
X11891Y8446D1*
X11830Y8336D1*
X11747Y8243D1*
X11646Y8170D1*
X11532Y8119D1*
X11410Y8093D1*
X11285D1*
X11163Y8118D1*
X11049Y8169D1*
X10948Y8242D1*
X10864Y8334D1*
X10800Y8446D1*
X10740Y8336D1*
X10656Y8243D1*
X10555Y8170D1*
X10441Y8119D1*
X10319Y8093D1*
X10195D1*
X10073Y8118D1*
X9958Y8169D1*
X9857Y8242D1*
X9774Y8334D1*
X9710Y8446D1*
X9649Y8336D1*
X9566Y8243D1*
X9465Y8170D1*
X9351Y8119D1*
X9229Y8093D1*
X9104D1*
X8982Y8118D1*
X8921Y8145D1*
X9017Y8016D1*
X9101Y7924D1*
X9165Y7812D1*
X9225Y7918D1*
X9308Y8011D1*
X9409Y8085D1*
X9523Y8136D1*
X9645Y8163D1*
X9769Y8164D1*
X9892Y8138D1*
X10006Y8088D1*
X10107Y8016D1*
X10192Y7924D1*
X10255Y7816D1*
X10294Y7698D1*
X10308Y7569D1*
X10295Y7445D1*
X10257Y7326D1*
X10194Y7218D1*
X10111Y7125D1*
X10010Y7052D1*
X9896Y7001D1*
X9774Y6975D1*
X9649Y6974D1*
X9527Y7000D1*
X9413Y7051D1*
X9312Y7124D1*
X9228Y7216D1*
X9164Y7328D1*
X9104Y7218D1*
X9020Y7125D1*
X8920Y7052D1*
X8806Y7001D1*
X8684Y6975D1*
X8559Y6974D1*
X8437Y7000D1*
X8323Y7051D1*
X8222Y7124D1*
X8138Y7216D1*
X8075Y7324D1*
X8036Y7442D1*
X8022Y7566D1*
X8035Y7691D1*
X8073Y7809D1*
X8135Y7918D1*
X8218Y8011D1*
X8315Y8083D1*
X8172Y8089D1*
X7477D1*
Y9285D1*
X7602D1*
X12476Y7445D2*
X12438Y7326D1*
X12375Y7218D1*
X12292Y7125D1*
X12191Y7052D1*
X12077Y7001D1*
X11955Y6975D1*
X11831Y6974D1*
X11708Y7000D1*
X11594Y7051D1*
X11493Y7124D1*
X11409Y7216D1*
X11347Y7324D1*
X11308Y7442D1*
X11294Y7566D1*
X11307Y7691D1*
X11345Y7809D1*
X11407Y7918D1*
X11490Y8011D1*
X11590Y8085D1*
X11704Y8136D1*
X11826Y8163D1*
X11951Y8164D1*
X12073Y8138D1*
X12187Y8088D1*
X12288Y8016D1*
X12373Y7924D1*
X12436Y7816D1*
X12475Y7698D1*
X12489Y7569D1*
X12476Y7445D1*
X25549Y9230D2*
X25602Y9254D1*
X25724Y9281D1*
X25849Y9282D1*
X25917Y9273D1*
Y11008D1*
X25945Y11133D1*
X26006Y11223D1*
X26241Y11458D1*
X26257Y11540D1*
X26309Y11653D1*
X26343Y11690D1*
X26340Y14806D1*
Y16163D1*
X26368Y16288D1*
X26430Y16378D1*
X28222Y18171D1*
X28221Y19142D1*
X28166Y19119D1*
X28044Y19093D1*
X27919D1*
X27797Y19118D1*
X27683Y19169D1*
X27582Y19242D1*
X27498Y19334D1*
X27434Y19446D1*
X27374Y19336D1*
X27290Y19243D1*
X27189Y19170D1*
X27075Y19119D1*
X26953Y19093D1*
X26829D1*
X26706Y19118D1*
X26592Y19169D1*
X26491Y19242D1*
X26407Y19334D1*
X26343Y19446D1*
X26283Y19336D1*
X26200Y19243D1*
X26099Y19170D1*
X25985Y19119D1*
X25863Y19093D1*
X25738D1*
X25616Y19118D1*
X25555Y19145D1*
X25558Y17930D1*
Y17653D1*
X26033Y17175D1*
X26102Y17067D1*
X26122Y16959D1*
Y11982D1*
X26095Y11858D1*
X26033Y11767D1*
X25981Y11715D1*
X25965Y11623D1*
X25909Y11512D1*
X25885Y11487D1*
X25861Y11340D1*
X25797Y11246D1*
X25551Y11001D1*
X25549Y9231D1*
X24948Y19143D2*
X24894Y19119D1*
X24772Y19093D1*
X24647D1*
X24525Y19118D1*
X24411Y19169D1*
X24310Y19242D1*
X24226Y19334D1*
X24162Y19446D1*
X24102Y19336D1*
X24018Y19243D1*
X23918Y19170D1*
X23804Y19119D1*
X23682Y19093D1*
X23557D1*
X23435Y19118D1*
X23321Y19169D1*
X23220Y19242D1*
X23136Y19334D1*
X23072Y19446D1*
X23011Y19336D1*
X22928Y19243D1*
X22827Y19170D1*
X22713Y19119D1*
X22591Y19093D1*
X22466D1*
X22344Y19118D1*
X22305Y19136D1*
X22306Y16364D1*
X24678Y13994D1*
X24718Y13986D1*
X24832Y13937D1*
X24853Y13919D1*
X24932Y13920D1*
X25054Y13897D1*
X25158Y13829D1*
X25226Y13731D1*
X25326Y13697D1*
X25448Y13723D1*
X25514Y13716D1*
Y16830D1*
X25039Y17308D1*
X24970Y17416D1*
X24950Y17523D1*
Y19137D1*
X12885Y19089D2*
X11827D1*
Y19351D1*
X11734Y19243D1*
X11633Y19170D1*
X11519Y19119D1*
X11397Y19093D1*
X11272D1*
X11150Y19118D1*
X11036Y19169D1*
X10935Y19242D1*
X10851Y19334D1*
X10787Y19446D1*
X10727Y19336D1*
X10643Y19243D1*
X10543Y19170D1*
X10429Y19119D1*
X10307Y19093D1*
X10182D1*
X10060Y19118D1*
X9946Y19169D1*
X9845Y19242D1*
X9761Y19334D1*
X9697Y19446D1*
X9636Y19336D1*
X9553Y19243D1*
X9452Y19170D1*
X9338Y19119D1*
X9216Y19093D1*
X9091D1*
X8969Y19118D1*
X8855Y19169D1*
X8754Y19242D1*
X8670Y19334D1*
X8606Y19446D1*
X8546Y19336D1*
X8462Y19243D1*
X8362Y19170D1*
X8248Y19119D1*
X8126Y19093D1*
X8001D1*
X7936Y19106D1*
X6344Y17511D1*
X6347Y16058D1*
X6429Y16103D1*
X6551Y16129D1*
X6675Y16117D1*
X6789Y16068D1*
X6833Y16029D1*
X8949Y16032D1*
X12812Y16029D1*
X12885Y16066D1*
Y19093D1*
X10789Y19931D2*
X10849Y20036D1*
X10932Y20129D1*
X10991Y20173D1*
X10852Y20211D1*
X10727D1*
X10605Y20236D1*
X10491Y20287D1*
X10390Y20360D1*
X10306Y20452D1*
X10243Y20560D1*
X10204Y20679D1*
X10191Y20803D1*
X10203Y20927D1*
X10241Y21046D1*
X10303Y21154D1*
X10386Y21247D1*
X10433Y21282D1*
X8968Y21280D1*
X9088Y21160D1*
X9151Y21052D1*
X9191Y20934D1*
X9205Y20805D1*
X9192Y20681D1*
X9153Y20562D1*
X9091Y20454D1*
X9008Y20361D1*
X8907Y20288D1*
X8793Y20237D1*
X8671Y20211D1*
X8546D1*
X8424Y20236D1*
X8385Y20254D1*
X8386Y20192D1*
X8459Y20134D1*
X8543Y20042D1*
X8607Y19930D1*
X8667Y20036D1*
X8750Y20129D1*
X8851Y20203D1*
X8965Y20254D1*
X9087Y20281D1*
X9211Y20282D1*
X9334Y20257D1*
X9448Y20207D1*
X9549Y20134D1*
X9633Y20042D1*
X9698Y19930D1*
X9758Y20036D1*
X9841Y20129D1*
X9942Y20203D1*
X10055Y20254D1*
X10177Y20281D1*
X10302Y20282D1*
X10424Y20257D1*
X10538Y20207D1*
X10640Y20134D1*
X10724Y20042D1*
X10788Y19930D1*
X12388Y20498D2*
X12334Y20422D1*
X13051D1*
X13176Y20395D1*
X13266Y20333D1*
X13404Y20195D1*
X13473Y20088D1*
X13493Y19980D1*
X13494Y13429D1*
X13546Y13543D1*
X13580Y13580D1*
X13577Y16696D1*
Y20504D1*
X12869Y20501D1*
X12396D1*
X6833Y15424D2*
X6814Y15404D1*
X6704Y15346D1*
X6581Y15325D1*
X6458Y15342D1*
X6349Y15394D1*
X6347Y14823D1*
X6509Y14773D1*
X12201D1*
X12323Y14750D1*
X12430Y14678D1*
X12608Y14500D1*
X12609Y15420D1*
X11276Y15423D1*
X6834D1*
X25316Y12045D2*
X25437Y12122D1*
X25517Y12139D1*
X25514Y12924D1*
X25478Y12918D1*
X25355Y12935D1*
X25234Y12997D1*
X24932D1*
X24810Y13021D1*
X24706Y13089D1*
X24635Y13195D1*
X24501Y13211D1*
X24389Y13265D1*
X24299Y13350D1*
X24239Y13459D1*
X24224Y13532D1*
X21751Y16005D1*
X21741Y15937D1*
Y15582D1*
X25273Y12052D1*
X32937Y24062D2*
X4312D1*
Y4312D1*
X33062D1*
Y24062D1*
X32937D1*
D18*
X29812Y10813D3*
D19*
Y9813D3*
D24*
X8075Y8687D3*
D26*
X9165D3*
X10256D3*
X11346D3*
X12437D3*
X8620Y7569D3*
X9711D3*
X10801D3*
X11892D3*
D27*
X5337Y8128D3*
X15175D3*
D24*
X21428Y8687D3*
D26*
X22519D3*
X23609D3*
X24700D3*
X25790D3*
X26881D3*
X27971D3*
X29062D3*
X21973Y7569D3*
X23064D3*
X24155D3*
X25245D3*
X26336D3*
X27426D3*
X28517D3*
D28*
X18686Y8128D3*
X31804D3*
D24*
X29071Y19687D3*
D26*
X27980D3*
X26890D3*
X25799D3*
X24709D3*
X23618D3*
X22528D3*
X21437D3*
X28526Y20805D3*
X27435D3*
X26344D3*
X25254D3*
X24163D3*
X23073D3*
X21982D3*
D28*
X31813Y20246D3*
X18695D3*
D24*
X12424Y19687D3*
D26*
X11334D3*
X10243D3*
X9153D3*
X8062D3*
X11879Y20805D3*
X10788D3*
X9698D3*
X8607D3*
D27*
X15162Y20246D3*
X5324D3*
M02*
