G04 DipTrace 3.2.0.1*
G04 BottomMask.gbr*
%MOIN*%
G04 #@! TF.FileFunction,Soldermask,Bot*
G04 #@! TF.Part,Single*
%ADD35C,0.035433*%
%ADD46C,0.19685*%
%ADD48C,0.195276*%
%ADD50C,0.074409*%
%ADD54R,0.074409X0.074409*%
%ADD62C,0.070866*%
%ADD64R,0.070866X0.070866*%
%FSLAX26Y26*%
G04*
G70*
G90*
G75*
G01*
G04 BotMask*
%LPD*%
D64*
X2981193Y1081297D3*
D62*
Y981297D3*
D35*
X3159350Y1319900D3*
Y1493129D3*
D54*
X807479Y868701D3*
D50*
X916534D3*
X1025589D3*
X1134644D3*
X1243699D3*
X862007Y756890D3*
X971062D3*
X1080117D3*
X1189172D3*
D48*
X533660Y812795D3*
X1517518D3*
D54*
X2142815Y868701D3*
D50*
X2251870D3*
X2360925D3*
X2469980D3*
X2579035D3*
X2688091D3*
X2797146D3*
X2906201D3*
X2197343Y756890D3*
X2306398D3*
X2415453D3*
X2524508D3*
X2633563D3*
X2742618D3*
X2851673D3*
D46*
X1868602Y812795D3*
X3180413D3*
D54*
X2907085Y1968701D3*
D50*
X2798030D3*
X2688975D3*
X2579920D3*
X2470865D3*
X2361810D3*
X2252755D3*
X2143699D3*
X2852558Y2080512D3*
X2743503D3*
X2634448D3*
X2525392D3*
X2416337D3*
X2307282D3*
X2198227D3*
D46*
X3181298Y2024606D3*
X1869487D3*
D54*
X1242421Y1968701D3*
D50*
X1133366D3*
X1024311D3*
X915256D3*
X806201D3*
X1187894Y2080512D3*
X1078839D3*
X969783D3*
X860728D3*
D48*
X1516240Y2024606D3*
X532382D3*
M02*
