G04 DipTrace 3.2.0.1*
G04 Bottom.gbr*
%MOIN*%
G04 #@! TF.FileFunction,Copper,L2,Bot*
G04 #@! TF.Part,Single*
G04 #@! TA.AperFunction,Conductor*
%ADD13C,0.011811*%
%ADD14C,0.007874*%
G04 #@! TA.AperFunction,CopperBalancing*
%ADD15C,0.025*%
G04 #@! TA.AperFunction,ComponentPad*
%ADD18R,0.062992X0.062992*%
%ADD19C,0.062992*%
%ADD24R,0.066535X0.066535*%
%ADD26C,0.066535*%
%ADD27C,0.187402*%
%ADD28C,0.188976*%
G04 #@! TA.AperFunction,ViaPad*
%ADD34C,0.027559*%
%FSLAX26Y26*%
G04*
G70*
G90*
G75*
G01*
G04 Bottom*
%LPD*%
X2430217Y1141142D2*
D14*
X1305118D1*
X1291337Y1154923D1*
Y1558955D1*
X1277556Y1572736D1*
X657382D1*
X2852558Y2080512D2*
Y1804404D1*
X2664469Y1616315D1*
Y1143110D1*
X2622146Y1100787D1*
Y827264D1*
X2567618Y772736D1*
Y721657D1*
X2553839Y707878D1*
X2246354D1*
X2197343Y756890D1*
X2524508D2*
Y1112504D1*
X2558169Y1146165D1*
Y1174606D1*
X2581791Y1198228D1*
Y1695941D1*
X2525392Y1752340D1*
Y2080512D1*
X2524705Y1164807D2*
X2143699Y1545812D1*
Y1968701D1*
X1318898Y1269094D2*
Y1998031D1*
X1305118Y2011811D1*
X1147539D1*
X1078839Y2080512D1*
X1388177Y1332087D2*
Y2066732D1*
X1374398Y2080512D1*
X1187894D1*
X807479Y868701D2*
X807480Y1206102D1*
X916534Y868701D2*
X916535Y1174606D1*
X1025589Y868701D2*
X1025591Y1143110D1*
X862007Y756890D2*
X862008Y991543D1*
X2547043Y1332087D2*
D13*
X2493209D1*
Y1359646D1*
X2461713D1*
X806201Y1968701D2*
X602264Y1764764D1*
Y1468558D1*
X625887Y1444934D1*
X1220075D1*
X1243699Y1421310D1*
Y868701D1*
X2198227Y2080512D2*
X2118306Y2160433D1*
X829823D1*
X806201Y2136811D1*
Y1968701D1*
X2461713Y1359646D2*
X2198227Y1623131D1*
Y2080512D1*
X2899934Y1293819D2*
X2899520D1*
X2851673Y1245972D1*
Y756890D1*
X2768671Y1368827D2*
X2824927D1*
X2899934Y1293819D1*
X2818676Y1325072D2*
D14*
X2762420D1*
D34*
X1087244Y1493840D3*
X899724D3*
Y1812623D3*
Y1612602D3*
X1256201Y1493701D3*
X1212257Y1612602D3*
X1049740Y1887631D3*
X1287265Y1643856D3*
X1293516Y1750117D3*
X1162252Y1887631D3*
X1274764D3*
X1356022Y1806373D3*
X1662304Y1500091D3*
X1593547Y1456336D3*
X1524790Y1412581D3*
X1356022Y1693861D3*
X2174858Y1237563D3*
X1787318D3*
X1362273D3*
X1193505D3*
X855970D3*
X862220Y1143803D3*
Y1043793D3*
X968482Y1131302D3*
Y1043793D3*
X1068492Y1075046D3*
X1199756D3*
X1293516Y1062545D3*
X1799819D3*
X2293621D3*
X643448Y1687610D3*
X899724Y1343824D3*
X1199756D3*
X1349772D3*
Y1481339D3*
X2493642Y1462587D3*
X2618655Y1493840D3*
Y1406331D3*
X2693663Y1243814D3*
X2831177Y1275067D3*
X2774921Y1062545D3*
X2593652Y1068795D3*
X2237365Y1800122D3*
X2487391D3*
X2437386Y1556346D3*
X1356022Y1581349D3*
X430925Y2406436D3*
X3306227D3*
Y431228D3*
X430925D3*
X780962Y925030D3*
X2562399Y1800122D3*
X2799924D3*
X2574900Y962534D3*
X787213Y737510D3*
X699703Y850022D3*
X2356127Y1175056D3*
X2406133Y1350075D3*
X2549898Y1250064D3*
X657382Y1572736D3*
X2430217Y1141142D3*
X2664469Y1143110D3*
X2558169Y1174606D3*
X2524705Y1164807D3*
X1318898Y1269094D3*
X1388177Y1332087D3*
X807480Y1206102D3*
X916535Y1174606D3*
X1025591Y1143110D3*
X862008Y991543D3*
X2768671Y1368827D3*
X2899934Y1293819D3*
X2547043Y1332087D3*
X2461713Y1359646D3*
X2762420Y1325072D3*
X2818676D3*
X433701Y2381332D2*
D15*
X3303688D1*
X433701Y2356463D2*
X3303688D1*
X433701Y2331594D2*
X3303688D1*
X433701Y2306726D2*
X3303688D1*
X433701Y2281857D2*
X3303688D1*
X433701Y2256988D2*
X3303688D1*
X433701Y2232119D2*
X3303688D1*
X433701Y2207251D2*
X3303688D1*
X433701Y2182382D2*
X803457D1*
X2144677D2*
X3303688D1*
X433701Y2157513D2*
X778769D1*
X2169545D2*
X3303688D1*
X433701Y2132644D2*
X771304D1*
X2229937D2*
X2275570D1*
X2338990D2*
X2384622D1*
X2448042D2*
X2493675D1*
X2557093D2*
X2602726D1*
X2666146D2*
X2711778D1*
X2775234D2*
X2820831D1*
X2884286D2*
X3303688D1*
X433701Y2107776D2*
X771304D1*
X916396D2*
X1023176D1*
X1390427D2*
X2122631D1*
X2908220D2*
X3303688D1*
X433701Y2082907D2*
X771304D1*
X922928D2*
X1016609D1*
X1416444D2*
X2136017D1*
X2914787D2*
X3303688D1*
X433701Y2058038D2*
X771304D1*
X918585D2*
X1020951D1*
X1421108D2*
X2140358D1*
X2910445D2*
X3303688D1*
X433701Y2033169D2*
X771304D1*
X899711D2*
X1039862D1*
X1329281D2*
X1355248D1*
X1421108D2*
X2159269D1*
X2891534D2*
X3303688D1*
X433701Y2008301D2*
X758961D1*
X853457D2*
X868013D1*
X962508D2*
X977066D1*
X1071560D2*
X1086117D1*
X1421108D2*
X2096436D1*
X2885470D2*
X3303688D1*
X433701Y1983432D2*
X745791D1*
X1421108D2*
X2083266D1*
X2885470D2*
X3303688D1*
X433701Y1958563D2*
X744823D1*
X1421108D2*
X2082298D1*
X2885470D2*
X3303688D1*
X433701Y1933694D2*
X722861D1*
X1421108D2*
X2092776D1*
X2885470D2*
X3303688D1*
X433701Y1908825D2*
X697993D1*
X794642D2*
X1285957D1*
X1421108D2*
X2110755D1*
X2233131D2*
X2492454D1*
X2558314D2*
X2819646D1*
X2885470D2*
X3303688D1*
X433701Y1883957D2*
X673126D1*
X769774D2*
X1285957D1*
X1421108D2*
X2110755D1*
X2233131D2*
X2492454D1*
X2558314D2*
X2819646D1*
X2885470D2*
X3303688D1*
X433701Y1859088D2*
X648259D1*
X744907D2*
X1285957D1*
X1421108D2*
X2110755D1*
X2233131D2*
X2492454D1*
X2558314D2*
X2819646D1*
X2885470D2*
X3303688D1*
X433701Y1834219D2*
X623391D1*
X720038D2*
X1285957D1*
X1421108D2*
X2110755D1*
X2233131D2*
X2492454D1*
X2558314D2*
X2819646D1*
X2885470D2*
X3303688D1*
X433701Y1809350D2*
X598522D1*
X695171D2*
X1285957D1*
X1421108D2*
X2110755D1*
X2233131D2*
X2492454D1*
X2558314D2*
X2811967D1*
X2885470D2*
X3303688D1*
X433701Y1784482D2*
X574050D1*
X670303D2*
X1285957D1*
X1421108D2*
X2110755D1*
X2233131D2*
X2492454D1*
X2558314D2*
X2787100D1*
X2878042D2*
X3303688D1*
X433701Y1759613D2*
X567375D1*
X645436D2*
X1285957D1*
X1421108D2*
X2110755D1*
X2233131D2*
X2492454D1*
X2563660D2*
X2762231D1*
X2853318D2*
X3303688D1*
X433701Y1734744D2*
X567375D1*
X637146D2*
X1285957D1*
X1421108D2*
X2110755D1*
X2233131D2*
X2498052D1*
X2588529D2*
X2737364D1*
X2828413D2*
X3303688D1*
X433701Y1709875D2*
X567375D1*
X637146D2*
X1285957D1*
X1421108D2*
X2110755D1*
X2233131D2*
X2522310D1*
X2611350D2*
X2712496D1*
X2803546D2*
X3303688D1*
X433701Y1685007D2*
X567375D1*
X637146D2*
X1285957D1*
X1421108D2*
X2110755D1*
X2233131D2*
X2547177D1*
X2614723D2*
X2687629D1*
X2778678D2*
X3303688D1*
X433701Y1660138D2*
X567375D1*
X637146D2*
X1285957D1*
X1421108D2*
X2110755D1*
X2233131D2*
X2548864D1*
X2614723D2*
X2662761D1*
X2753811D2*
X3303688D1*
X433701Y1635269D2*
X567375D1*
X637146D2*
X1285957D1*
X1421108D2*
X2110755D1*
X2234423D2*
X2548864D1*
X2614723D2*
X2638180D1*
X2728944D2*
X3303688D1*
X433701Y1610400D2*
X567375D1*
X674143D2*
X1285957D1*
X1421108D2*
X2110755D1*
X2259291D2*
X2548864D1*
X2614723D2*
X2631541D1*
X2704075D2*
X3303688D1*
X433701Y1585531D2*
X567375D1*
X1421108D2*
X2110755D1*
X2284159D2*
X2548864D1*
X2614723D2*
X2631541D1*
X2697400D2*
X3303688D1*
X433701Y1560663D2*
X567375D1*
X1421108D2*
X2110755D1*
X2176614D2*
X2212378D1*
X2309026D2*
X2548864D1*
X2614723D2*
X2631541D1*
X2697400D2*
X3303688D1*
X433701Y1535794D2*
X567375D1*
X675902D2*
X1258398D1*
X1421108D2*
X2112476D1*
X2199257D2*
X2237245D1*
X2333894D2*
X2548864D1*
X2614723D2*
X2631541D1*
X2697400D2*
X3145260D1*
X3173441D2*
X3303688D1*
X433701Y1510925D2*
X567375D1*
X637146D2*
X1258398D1*
X1421108D2*
X2133038D1*
X2224125D2*
X2262114D1*
X2358761D2*
X2548864D1*
X2614723D2*
X2631541D1*
X2697400D2*
X3116373D1*
X3202327D2*
X3303688D1*
X433701Y1486056D2*
X567375D1*
X637146D2*
X1258398D1*
X1421108D2*
X2157906D1*
X2248992D2*
X2286982D1*
X2383630D2*
X2548864D1*
X2614723D2*
X2631541D1*
X2697400D2*
X3113215D1*
X3205486D2*
X3303688D1*
X433701Y1461188D2*
X568201D1*
X1421108D2*
X2182774D1*
X2273860D2*
X2311849D1*
X2408497D2*
X2548864D1*
X2614723D2*
X2631541D1*
X2697400D2*
X3126277D1*
X3192423D2*
X3303688D1*
X433701Y1436319D2*
X586178D1*
X1421108D2*
X2207677D1*
X2298727D2*
X2336717D1*
X2433365D2*
X2548864D1*
X2614723D2*
X2631541D1*
X2697400D2*
X3303688D1*
X433701Y1411450D2*
X1205252D1*
X1421108D2*
X2232545D1*
X2323596D2*
X2361584D1*
X2458232D2*
X2548864D1*
X2614723D2*
X2631541D1*
X2697400D2*
X3303688D1*
X433701Y1386581D2*
X1208804D1*
X1421108D2*
X2257413D1*
X2348463D2*
X2386453D1*
X2513710D2*
X2548864D1*
X2614723D2*
X2631541D1*
X2697400D2*
X2730008D1*
X2855507D2*
X3303688D1*
X433701Y1361713D2*
X1208804D1*
X1421108D2*
X2282281D1*
X2373331D2*
X2411320D1*
X2614723D2*
X2631541D1*
X2697400D2*
X2726526D1*
X2880374D2*
X3142496D1*
X3176203D2*
X3303688D1*
X433701Y1336844D2*
X1208804D1*
X1430654D2*
X2307148D1*
X2398198D2*
X2426033D1*
X2614723D2*
X2631541D1*
X2697400D2*
X2721395D1*
X2905241D2*
X3116013D1*
X3202686D2*
X3303688D1*
X433701Y1311975D2*
X1208804D1*
X1425558D2*
X2332016D1*
X2423066D2*
X2465325D1*
X2614723D2*
X2631541D1*
X2697400D2*
X2721825D1*
X2938364D2*
X3113358D1*
X3205341D2*
X3303688D1*
X433701Y1287106D2*
X1208804D1*
X1357413D2*
X2356883D1*
X2447934D2*
X2548864D1*
X2614723D2*
X2631541D1*
X2697400D2*
X2746478D1*
X2778356D2*
X2802744D1*
X2942131D2*
X3127210D1*
X3191491D2*
X3303688D1*
X433701Y1262238D2*
X1208804D1*
X1361073D2*
X2381752D1*
X2472802D2*
X2548864D1*
X2614723D2*
X2631541D1*
X2697400D2*
X2821154D1*
X2927419D2*
X3303688D1*
X433701Y1237369D2*
X779594D1*
X835370D2*
X1208804D1*
X1346218D2*
X2406619D1*
X2497669D2*
X2548864D1*
X2614723D2*
X2631541D1*
X2697400D2*
X2816776D1*
X2891391D2*
X3303688D1*
X433701Y1212500D2*
X765205D1*
X849724D2*
X900416D1*
X932652D2*
X1208804D1*
X1324257D2*
X2431487D1*
X2522537D2*
X2542046D1*
X2614723D2*
X2631541D1*
X2697400D2*
X2816776D1*
X2886583D2*
X3303688D1*
X433701Y1187631D2*
X769188D1*
X845777D2*
X875944D1*
X957126D2*
X1208804D1*
X1324257D2*
X2456354D1*
X2612822D2*
X2631541D1*
X2697400D2*
X2816776D1*
X2886583D2*
X3303688D1*
X433701Y1162762D2*
X774534D1*
X840394D2*
X875549D1*
X957520D2*
X987938D1*
X1063235D2*
X1208804D1*
X2466701D2*
X2481222D1*
X2599150D2*
X2626804D1*
X2702101D2*
X2816776D1*
X2886583D2*
X3303688D1*
X433701Y1137894D2*
X774534D1*
X840394D2*
X883622D1*
X949482D2*
X983165D1*
X1068008D2*
X1208804D1*
X2472874D2*
X2492239D1*
X2589963D2*
X2613707D1*
X2706911D2*
X2816776D1*
X2886583D2*
X2920696D1*
X3041673D2*
X3303688D1*
X433701Y1113025D2*
X774534D1*
X840394D2*
X883622D1*
X949482D2*
X992675D1*
X1058534D2*
X1208804D1*
X2461534D2*
X2491593D1*
X2570550D2*
X2591782D1*
X2693740D2*
X2816776D1*
X2886583D2*
X2920696D1*
X3041673D2*
X3303688D1*
X433701Y1088156D2*
X774534D1*
X840394D2*
X883622D1*
X949482D2*
X992675D1*
X1058534D2*
X1208804D1*
X1278612D2*
X2491593D1*
X2557453D2*
X2589234D1*
X2655058D2*
X2816776D1*
X2886583D2*
X2920696D1*
X3041673D2*
X3303688D1*
X433701Y1063287D2*
X774534D1*
X840394D2*
X883622D1*
X949482D2*
X992675D1*
X1058534D2*
X1208804D1*
X1278612D2*
X2491593D1*
X2557453D2*
X2589234D1*
X2655058D2*
X2816776D1*
X2886583D2*
X2920696D1*
X3041673D2*
X3303688D1*
X433701Y1038419D2*
X774534D1*
X840394D2*
X883622D1*
X949446D2*
X992675D1*
X1058534D2*
X1208804D1*
X1278612D2*
X2491593D1*
X2557453D2*
X2589234D1*
X2655058D2*
X2816776D1*
X2886583D2*
X2920696D1*
X3041673D2*
X3303688D1*
X433701Y1013550D2*
X774534D1*
X949446D2*
X992675D1*
X1058534D2*
X1208804D1*
X1278612D2*
X2491593D1*
X2557453D2*
X2589234D1*
X2655058D2*
X2816776D1*
X2886583D2*
X3303688D1*
X433701Y988681D2*
X774534D1*
X949446D2*
X992675D1*
X1058534D2*
X1208804D1*
X1278612D2*
X2491593D1*
X2557453D2*
X2589234D1*
X2655058D2*
X2816776D1*
X2886583D2*
X3303688D1*
X433701Y963812D2*
X774534D1*
X949446D2*
X992675D1*
X1058534D2*
X1208804D1*
X1278612D2*
X2491593D1*
X2557453D2*
X2589234D1*
X2655058D2*
X2816776D1*
X2886583D2*
X3303688D1*
X433701Y938944D2*
X774534D1*
X949446D2*
X992675D1*
X1058534D2*
X1208804D1*
X1278612D2*
X2491593D1*
X2557453D2*
X2589234D1*
X2655058D2*
X2816776D1*
X2886583D2*
X3303688D1*
X433701Y914075D2*
X745218D1*
X957915D2*
X984206D1*
X1066967D2*
X1093259D1*
X1176018D2*
X1202310D1*
X1285106D2*
X2210476D1*
X2293273D2*
X2319529D1*
X2402325D2*
X2428580D1*
X2729482D2*
X2755773D1*
X2947585D2*
X3303688D1*
X433701Y889206D2*
X745218D1*
X1302331D2*
X2193252D1*
X2964845D2*
X3303688D1*
X433701Y864337D2*
X745218D1*
X1305812D2*
X2189772D1*
X2968290D2*
X3303688D1*
X433701Y839469D2*
X745218D1*
X1298312D2*
X2197235D1*
X2960827D2*
X3303688D1*
X433701Y814600D2*
X745218D1*
X1053475D2*
X1106751D1*
X1271579D2*
X2179329D1*
X2934093D2*
X3303688D1*
X433701Y789731D2*
X809593D1*
X1023475D2*
X1136749D1*
X1241615D2*
X2144916D1*
X2904093D2*
X3303688D1*
X433701Y764862D2*
X800264D1*
X1032806D2*
X1127455D1*
X1250909D2*
X2135622D1*
X2913387D2*
X3303688D1*
X433701Y739993D2*
X802201D1*
X1030867D2*
X1129357D1*
X1249008D2*
X2137524D1*
X2911486D2*
X3303688D1*
X433701Y715125D2*
X816770D1*
X907247D2*
X925823D1*
X1016298D2*
X1143927D1*
X1234403D2*
X2152093D1*
X2678812D2*
X2697388D1*
X2787865D2*
X2806441D1*
X2896917D2*
X3303688D1*
X433701Y690256D2*
X2218442D1*
X2581747D2*
X3303688D1*
X433701Y665387D2*
X3303688D1*
X433701Y640518D2*
X3303688D1*
X433701Y615650D2*
X3303688D1*
X433701Y590781D2*
X3303688D1*
X433701Y565912D2*
X3303688D1*
X433701Y541043D2*
X3303688D1*
X433701Y516175D2*
X3303688D1*
X433701Y491306D2*
X3303688D1*
X433701Y466437D2*
X3303688D1*
X433701Y441568D2*
X3303688D1*
X2932391Y1139285D2*
X3039181D1*
Y1023308D1*
X2923205D1*
Y1139285D1*
X2932391D1*
X3203423Y1316432D2*
X3202337Y1309580D1*
X3200194Y1302983D1*
X3197045Y1296802D1*
X3192967Y1291189D1*
X3188062Y1286283D1*
X3182449Y1282206D1*
X3176268Y1279056D1*
X3169671Y1276913D1*
X3162819Y1275828D1*
X3155882D1*
X3149030Y1276913D1*
X3142433Y1279056D1*
X3136252Y1282206D1*
X3130639Y1286283D1*
X3125734Y1291189D1*
X3121656Y1296802D1*
X3118507Y1302983D1*
X3116364Y1309580D1*
X3115278Y1316432D1*
Y1323369D1*
X3116364Y1330220D1*
X3118507Y1336818D1*
X3121656Y1342999D1*
X3125734Y1348612D1*
X3130639Y1353517D1*
X3136252Y1357594D1*
X3142433Y1360744D1*
X3149030Y1362887D1*
X3155882Y1363972D1*
X3162819D1*
X3169671Y1362887D1*
X3176268Y1360744D1*
X3182449Y1357594D1*
X3188062Y1353517D1*
X3192967Y1348612D1*
X3197045Y1342999D1*
X3200194Y1336818D1*
X3202337Y1330220D1*
X3203423Y1323369D1*
Y1316432D1*
Y1489660D2*
X3202337Y1482808D1*
X3200194Y1476211D1*
X3197045Y1470030D1*
X3192967Y1464417D1*
X3188062Y1459512D1*
X3182449Y1455434D1*
X3176268Y1452285D1*
X3169671Y1450142D1*
X3162819Y1449056D1*
X3155882D1*
X3149030Y1450142D1*
X3142433Y1452285D1*
X3136252Y1455434D1*
X3130639Y1459512D1*
X3125734Y1464417D1*
X3121656Y1470030D1*
X3118507Y1476211D1*
X3116364Y1482808D1*
X3115278Y1489660D1*
Y1496597D1*
X3116364Y1503449D1*
X3118507Y1510046D1*
X3121656Y1516227D1*
X3125734Y1521840D1*
X3130639Y1526745D1*
X3136252Y1530823D1*
X3142433Y1533972D1*
X3149030Y1536115D1*
X3155882Y1537201D1*
X3162819D1*
X3169671Y1536115D1*
X3176268Y1533972D1*
X3182449Y1530823D1*
X3188062Y1526745D1*
X3192967Y1521840D1*
X3197045Y1516227D1*
X3200194Y1510046D1*
X3202337Y1503449D1*
X3203423Y1496597D1*
Y1489660D1*
X756906Y928461D2*
X777037D1*
X777051Y1179709D1*
X773143Y1185060D1*
X770274Y1190692D1*
X768322Y1196701D1*
X767333Y1202942D1*
Y1209262D1*
X768322Y1215504D1*
X770274Y1221513D1*
X773143Y1227144D1*
X776857Y1232257D1*
X781325Y1236726D1*
X786438Y1240440D1*
X792070Y1243308D1*
X798079Y1245261D1*
X804320Y1246249D1*
X810640D1*
X816882Y1245261D1*
X822891Y1243308D1*
X828522Y1240440D1*
X833635Y1236726D1*
X838104Y1232257D1*
X841818Y1227144D1*
X844686Y1221513D1*
X846639Y1215504D1*
X847627Y1209262D1*
Y1202942D1*
X846639Y1196701D1*
X844686Y1190692D1*
X841818Y1185060D1*
X837911Y1179739D1*
X837909Y1023774D1*
X843724Y1027425D1*
X849563Y1029844D1*
X855707Y1031319D1*
X862008Y1031815D1*
X868308Y1031319D1*
X874453Y1029844D1*
X880291Y1027425D1*
X886096Y1023795D1*
X885912Y1148451D1*
X882198Y1153564D1*
X879329Y1159196D1*
X877377Y1165205D1*
X876388Y1171446D1*
Y1177766D1*
X877377Y1184008D1*
X879329Y1190017D1*
X882198Y1195648D1*
X885912Y1200761D1*
X890381Y1205230D1*
X895493Y1208944D1*
X901125Y1211812D1*
X907134Y1213765D1*
X913375Y1214753D1*
X919696D1*
X925937Y1213765D1*
X931946Y1211812D1*
X937577Y1208944D1*
X942690Y1205230D1*
X947159Y1200761D1*
X950873Y1195648D1*
X953741Y1190017D1*
X955694Y1184008D1*
X956682Y1177766D1*
Y1171446D1*
X955694Y1165205D1*
X953741Y1159196D1*
X950873Y1153564D1*
X946966Y1148243D1*
X946963Y920151D1*
X951660Y917047D1*
X958791Y910958D1*
X964881Y903827D1*
X969781Y895831D1*
X971031Y893118D1*
X974635Y899925D1*
X980147Y907512D1*
X986778Y914143D1*
X994365Y919655D1*
X995148Y920093D1*
X995161Y1116697D1*
X991253Y1122068D1*
X988385Y1127699D1*
X986432Y1133709D1*
X985444Y1139950D1*
Y1146270D1*
X986432Y1152512D1*
X988385Y1158521D1*
X991253Y1164152D1*
X994967Y1169265D1*
X999436Y1173734D1*
X1004549Y1177448D1*
X1010180Y1180316D1*
X1016189Y1182269D1*
X1022430Y1183257D1*
X1028751D1*
X1034992Y1182269D1*
X1041001Y1180316D1*
X1046633Y1177448D1*
X1051745Y1173734D1*
X1056214Y1169265D1*
X1059928Y1164152D1*
X1062797Y1158521D1*
X1064749Y1152512D1*
X1065738Y1146270D1*
Y1139950D1*
X1064749Y1133709D1*
X1062797Y1127699D1*
X1059928Y1122068D1*
X1056021Y1116747D1*
X1056018Y920161D1*
X1064400Y914143D1*
X1071031Y907512D1*
X1076543Y899925D1*
X1080087Y893118D1*
X1083690Y899925D1*
X1089202Y907512D1*
X1095833Y914143D1*
X1103420Y919655D1*
X1111776Y923912D1*
X1120694Y926810D1*
X1129955Y928277D1*
X1139333D1*
X1148594Y926810D1*
X1157513Y923912D1*
X1165869Y919655D1*
X1173455Y914143D1*
X1180087Y907512D1*
X1185598Y899925D1*
X1189142Y893118D1*
X1192745Y899925D1*
X1198257Y907512D1*
X1204888Y914143D1*
X1211302Y918870D1*
Y1407861D1*
X1206657Y1412534D1*
X623345Y1412636D1*
X618324Y1413432D1*
X613490Y1415003D1*
X608959Y1417311D1*
X604846Y1420299D1*
X579356Y1445650D1*
X576054Y1449514D1*
X573398Y1453849D1*
X571451Y1458546D1*
X570265Y1463490D1*
X569866Y1468568D1*
X569966Y1767306D1*
X570761Y1772327D1*
X572332Y1777161D1*
X574640Y1781692D1*
X577629Y1785804D1*
X624825Y1833143D1*
X747762Y1956079D1*
X746625Y1964012D1*
Y1973390D1*
X748092Y1982651D1*
X750990Y1991570D1*
X755247Y1999925D1*
X760759Y2007512D1*
X767390Y2014143D1*
X773803Y2018870D1*
X773903Y2139353D1*
X774698Y2144374D1*
X776269Y2149209D1*
X778577Y2153739D1*
X781566Y2157852D1*
X806915Y2183341D1*
X810780Y2186643D1*
X815114Y2189299D1*
X819811Y2191245D1*
X824755Y2192432D1*
X829833Y2192831D1*
X2120848Y2192731D1*
X2125869Y2191936D1*
X2130703Y2190365D1*
X2135234Y2188056D1*
X2139346Y2185068D1*
X2185644Y2138912D1*
X2193538Y2140088D1*
X2202916D1*
X2212177Y2138621D1*
X2221096Y2135723D1*
X2229451Y2131466D1*
X2237038Y2125954D1*
X2243669Y2119323D1*
X2249181Y2111736D1*
X2252724Y2104929D1*
X2256328Y2111736D1*
X2261840Y2119323D1*
X2268471Y2125954D1*
X2276058Y2131466D1*
X2284413Y2135723D1*
X2293332Y2138621D1*
X2302593Y2140088D1*
X2311971D1*
X2321232Y2138621D1*
X2330151Y2135723D1*
X2338507Y2131466D1*
X2346093Y2125954D1*
X2352724Y2119323D1*
X2358236Y2111736D1*
X2361780Y2104929D1*
X2365383Y2111736D1*
X2370895Y2119323D1*
X2377526Y2125954D1*
X2385113Y2131466D1*
X2393469Y2135723D1*
X2402387Y2138621D1*
X2411648Y2140088D1*
X2421026D1*
X2430287Y2138621D1*
X2439206Y2135723D1*
X2447562Y2131466D1*
X2455148Y2125954D1*
X2461780Y2119323D1*
X2467291Y2111736D1*
X2470835Y2104929D1*
X2474438Y2111736D1*
X2479950Y2119323D1*
X2486581Y2125954D1*
X2494168Y2131466D1*
X2502524Y2135723D1*
X2511442Y2138621D1*
X2520703Y2140088D1*
X2530081D1*
X2539343Y2138621D1*
X2548261Y2135723D1*
X2556617Y2131466D1*
X2564203Y2125954D1*
X2570835Y2119323D1*
X2576346Y2111736D1*
X2579890Y2104929D1*
X2583493Y2111736D1*
X2589005Y2119323D1*
X2595636Y2125954D1*
X2603223Y2131466D1*
X2611579Y2135723D1*
X2620497Y2138621D1*
X2629759Y2140088D1*
X2639136D1*
X2648398Y2138621D1*
X2657316Y2135723D1*
X2665672Y2131466D1*
X2673259Y2125954D1*
X2679890Y2119323D1*
X2685402Y2111736D1*
X2688945Y2104929D1*
X2692549Y2111736D1*
X2698060Y2119323D1*
X2704692Y2125954D1*
X2712278Y2131466D1*
X2720634Y2135723D1*
X2729552Y2138621D1*
X2738814Y2140088D1*
X2748192D1*
X2757453Y2138621D1*
X2766371Y2135723D1*
X2774727Y2131466D1*
X2782314Y2125954D1*
X2788945Y2119323D1*
X2794457Y2111736D1*
X2798000Y2104929D1*
X2801604Y2111736D1*
X2807115Y2119323D1*
X2813747Y2125954D1*
X2821333Y2131466D1*
X2829689Y2135723D1*
X2838608Y2138621D1*
X2847869Y2140088D1*
X2857247D1*
X2866508Y2138621D1*
X2875427Y2135723D1*
X2883782Y2131466D1*
X2891369Y2125954D1*
X2898000Y2119323D1*
X2903512Y2111736D1*
X2907769Y2103381D1*
X2910667Y2094462D1*
X2912134Y2085201D1*
Y2075823D1*
X2910667Y2066562D1*
X2907769Y2057643D1*
X2903512Y2049287D1*
X2898000Y2041701D1*
X2891369Y2035070D1*
X2883782Y2029558D1*
X2882999Y2029119D1*
X2882894Y1802017D1*
X2882146Y1797301D1*
X2880671Y1792760D1*
X2878503Y1788505D1*
X2875697Y1784642D1*
X2822109Y1730921D1*
X2694909Y1603722D1*
X2694898Y1169521D1*
X2698806Y1164152D1*
X2701675Y1158521D1*
X2703627Y1152512D1*
X2704615Y1146270D1*
Y1139950D1*
X2703627Y1133709D1*
X2701675Y1127699D1*
X2698806Y1122068D1*
X2695092Y1116955D1*
X2690623Y1112487D1*
X2685510Y1108773D1*
X2679879Y1105904D1*
X2673870Y1103951D1*
X2667344Y1102951D1*
X2652568Y1088176D1*
X2652575Y916738D1*
X2656866Y919655D1*
X2665222Y923912D1*
X2674140Y926810D1*
X2683402Y928277D1*
X2692780D1*
X2702041Y926810D1*
X2710959Y923912D1*
X2719315Y919655D1*
X2726902Y914143D1*
X2733533Y907512D1*
X2739045Y899925D1*
X2742588Y893118D1*
X2746192Y899925D1*
X2751703Y907512D1*
X2758335Y914143D1*
X2765921Y919655D1*
X2774277Y923912D1*
X2783196Y926810D1*
X2792457Y928277D1*
X2801835D1*
X2811096Y926810D1*
X2819276Y924185D1*
X2819375Y1248514D1*
X2820171Y1253535D1*
X2821741Y1258370D1*
X2824050Y1262900D1*
X2827038Y1267013D1*
X2853911Y1294026D1*
X2849190Y1298745D1*
X2844831Y1294449D1*
X2839718Y1290735D1*
X2834087Y1287866D1*
X2828077Y1285913D1*
X2821836Y1284925D1*
X2815516D1*
X2809274Y1285913D1*
X2803265Y1287866D1*
X2797634Y1290735D1*
X2792312Y1294642D1*
X2788575Y1294449D1*
X2783462Y1290735D1*
X2777831Y1287866D1*
X2771822Y1285913D1*
X2765580Y1284925D1*
X2759260D1*
X2753018Y1285913D1*
X2747009Y1287866D1*
X2741378Y1290735D1*
X2736265Y1294449D1*
X2731797Y1298917D1*
X2728083Y1304030D1*
X2725214Y1309661D1*
X2723261Y1315671D1*
X2722273Y1321912D1*
Y1328232D1*
X2723261Y1334474D1*
X2725214Y1340483D1*
X2728083Y1346114D1*
X2732224Y1351689D1*
X2730370Y1356382D1*
X2728895Y1362526D1*
X2728399Y1368827D1*
X2728895Y1375127D1*
X2730370Y1381272D1*
X2732789Y1387110D1*
X2736091Y1392497D1*
X2740194Y1397303D1*
X2745000Y1401407D1*
X2750387Y1404709D1*
X2756226Y1407127D1*
X2762370Y1408602D1*
X2768671Y1409098D1*
X2774971Y1408602D1*
X2781115Y1407127D1*
X2786954Y1404709D1*
X2792564Y1401231D1*
X2827469Y1401125D1*
X2832490Y1400329D1*
X2837324Y1398759D1*
X2841854Y1396450D1*
X2845967Y1393462D1*
X2893306Y1346265D1*
X2906235Y1333594D1*
X2912379Y1332119D1*
X2918218Y1329701D1*
X2923605Y1326399D1*
X2928411Y1322295D1*
X2932514Y1317490D1*
X2935816Y1312102D1*
X2938235Y1306264D1*
X2939710Y1300119D1*
X2940206Y1293819D1*
X2939710Y1287518D1*
X2938235Y1281374D1*
X2935816Y1275535D1*
X2932514Y1270148D1*
X2928411Y1265343D1*
X2923605Y1261239D1*
X2918218Y1257937D1*
X2912379Y1255518D1*
X2905462Y1253951D1*
X2884088Y1232570D1*
X2884071Y924199D1*
X2892251Y926810D1*
X2901512Y928277D1*
X2910890D1*
X2920151Y926810D1*
X2929070Y923912D1*
X2937425Y919655D1*
X2945012Y914143D1*
X2951643Y907512D1*
X2957155Y899925D1*
X2961412Y891570D1*
X2964310Y882651D1*
X2965777Y873390D1*
Y864012D1*
X2964310Y854751D1*
X2961412Y845832D1*
X2957155Y837476D1*
X2951643Y829890D1*
X2945012Y823259D1*
X2937425Y817747D1*
X2929070Y813490D1*
X2920151Y810592D1*
X2910890Y809125D1*
X2901512D1*
X2892251Y810592D1*
X2884071Y813217D1*
X2886799Y805236D1*
X2893930Y799147D1*
X2900020Y792016D1*
X2904920Y784020D1*
X2908508Y775357D1*
X2910697Y766239D1*
X2911433Y756890D1*
X2910697Y747541D1*
X2908508Y738423D1*
X2904920Y729760D1*
X2900020Y721764D1*
X2893930Y714633D1*
X2886799Y708543D1*
X2878803Y703643D1*
X2870140Y700055D1*
X2861022Y697866D1*
X2851673Y697130D1*
X2842324Y697866D1*
X2833206Y700055D1*
X2824543Y703643D1*
X2816547Y708543D1*
X2809416Y714633D1*
X2803327Y721764D1*
X2798427Y729760D1*
X2797176Y732472D1*
X2793572Y725665D1*
X2788060Y718079D1*
X2781429Y711448D1*
X2773843Y705936D1*
X2765487Y701678D1*
X2756568Y698781D1*
X2747307Y697314D1*
X2737929D1*
X2728668Y698781D1*
X2719749Y701678D1*
X2711394Y705936D1*
X2703807Y711448D1*
X2697176Y718079D1*
X2691664Y725665D1*
X2688121Y732472D1*
X2684517Y725665D1*
X2679005Y718079D1*
X2672374Y711448D1*
X2664787Y705936D1*
X2656432Y701678D1*
X2647513Y698781D1*
X2638252Y697314D1*
X2628874D1*
X2619613Y698781D1*
X2610694Y701678D1*
X2602339Y705936D1*
X2595946Y710507D1*
X2593563Y705759D1*
X2590757Y701895D1*
X2573601Y684739D1*
X2569738Y681933D1*
X2565483Y679765D1*
X2560942Y678290D1*
X2556226Y677542D1*
X2480348Y677449D1*
X2243967Y677542D1*
X2239251Y678290D1*
X2234710Y679765D1*
X2230455Y681933D1*
X2226592Y684739D1*
X2212176Y699022D1*
X2206692Y697866D1*
X2197343Y697130D1*
X2187993Y697866D1*
X2178875Y700055D1*
X2170213Y703643D1*
X2162217Y708543D1*
X2155085Y714633D1*
X2148996Y721764D1*
X2144096Y729760D1*
X2140508Y738423D1*
X2138319Y747541D1*
X2137583Y756890D1*
X2138319Y766239D1*
X2140508Y775357D1*
X2144096Y784020D1*
X2148996Y792016D1*
X2155085Y799147D1*
X2162217Y805236D1*
X2170213Y810136D1*
X2178875Y813724D1*
X2187993Y815913D1*
X2197343Y816650D1*
X2206692Y815913D1*
X2215810Y813724D1*
X2224472Y810136D1*
X2232469Y805236D1*
X2239600Y799147D1*
X2245689Y792016D1*
X2250589Y784020D1*
X2251840Y781307D1*
X2255444Y788114D1*
X2260955Y795701D1*
X2267587Y802332D1*
X2275173Y807844D1*
X2283529Y812101D1*
X2292448Y814999D1*
X2301709Y816466D1*
X2311087D1*
X2320348Y814999D1*
X2329266Y812101D1*
X2337622Y807844D1*
X2345209Y802332D1*
X2351840Y795701D1*
X2357352Y788114D1*
X2360895Y781307D1*
X2364499Y788114D1*
X2370010Y795701D1*
X2376642Y802332D1*
X2384228Y807844D1*
X2392584Y812101D1*
X2401503Y814999D1*
X2410764Y816466D1*
X2420142D1*
X2429403Y814999D1*
X2438322Y812101D1*
X2446677Y807844D1*
X2454264Y802332D1*
X2460895Y795701D1*
X2466407Y788114D1*
X2469950Y781307D1*
X2473554Y788114D1*
X2479066Y795701D1*
X2485697Y802332D1*
X2493283Y807844D1*
X2494067Y808282D1*
X2494079Y813982D1*
X2488448Y811866D1*
X2479329Y809677D1*
X2469980Y808941D1*
X2460631Y809677D1*
X2451513Y811866D1*
X2442850Y815454D1*
X2434854Y820354D1*
X2427723Y826444D1*
X2421634Y833575D1*
X2416734Y841571D1*
X2415483Y844283D1*
X2411879Y837476D1*
X2406367Y829890D1*
X2399736Y823259D1*
X2392150Y817747D1*
X2383794Y813490D1*
X2374875Y810592D1*
X2365614Y809125D1*
X2356236D1*
X2346975Y810592D1*
X2338056Y813490D1*
X2329701Y817747D1*
X2322114Y823259D1*
X2315483Y829890D1*
X2309971Y837476D1*
X2306428Y844283D1*
X2302824Y837476D1*
X2297312Y829890D1*
X2290681Y823259D1*
X2283094Y817747D1*
X2274739Y813490D1*
X2265820Y810592D1*
X2256559Y809125D1*
X2247181D1*
X2237920Y810592D1*
X2229001Y813490D1*
X2220646Y817747D1*
X2213059Y823259D1*
X2206428Y829890D1*
X2200916Y837476D1*
X2196659Y845832D1*
X2193761Y854751D1*
X2192294Y864012D1*
Y873390D1*
X2193761Y882651D1*
X2196659Y891570D1*
X2200916Y899925D1*
X2206428Y907512D1*
X2213059Y914143D1*
X2220646Y919655D1*
X2229001Y923912D1*
X2237920Y926810D1*
X2247181Y928277D1*
X2256559D1*
X2265820Y926810D1*
X2274739Y923912D1*
X2283094Y919655D1*
X2290681Y914143D1*
X2297312Y907512D1*
X2302824Y899925D1*
X2306367Y893118D1*
X2309971Y899925D1*
X2315483Y907512D1*
X2322114Y914143D1*
X2329701Y919655D1*
X2338056Y923912D1*
X2346975Y926810D1*
X2356236Y928277D1*
X2365614D1*
X2374875Y926810D1*
X2383794Y923912D1*
X2392150Y919655D1*
X2399736Y914143D1*
X2406367Y907512D1*
X2411879Y899925D1*
X2415423Y893118D1*
X2419026Y899925D1*
X2424538Y907512D1*
X2431169Y914143D1*
X2438756Y919655D1*
X2447112Y923912D1*
X2456030Y926810D1*
X2465291Y928277D1*
X2474669D1*
X2483930Y926810D1*
X2492849Y923912D1*
X2494064Y923352D1*
X2494172Y1114891D1*
X2494920Y1119608D1*
X2496395Y1124148D1*
X2498563Y1128403D1*
X2501034Y1132227D1*
X2496228Y1136331D1*
X2492125Y1141136D1*
X2488823Y1146524D1*
X2486404Y1152362D1*
X2484929Y1158507D1*
X2484546Y1161932D1*
X2120560Y1526050D1*
X2117755Y1529913D1*
X2115587Y1534168D1*
X2114112Y1538709D1*
X2113364Y1543425D1*
X2113270Y1619303D1*
Y1917249D1*
X2108573Y1920354D1*
X2101442Y1926444D1*
X2095353Y1933575D1*
X2090453Y1941571D1*
X2086865Y1950234D1*
X2084676Y1959352D1*
X2083940Y1968701D1*
X2084676Y1978050D1*
X2086865Y1987168D1*
X2090453Y1995831D1*
X2095353Y2003827D1*
X2101442Y2010958D1*
X2108573Y2017047D1*
X2116570Y2021948D1*
X2125232Y2025535D1*
X2134350Y2027724D1*
X2143699Y2028461D1*
X2153049Y2027724D1*
X2162167Y2025535D1*
X2165829Y2024185D1*
Y2030310D1*
X2159416Y2035070D1*
X2152785Y2041701D1*
X2147273Y2049287D1*
X2143016Y2057643D1*
X2140118Y2066562D1*
X2138651Y2075823D1*
Y2085201D1*
X2139843Y2093079D1*
X2104906Y2128016D1*
X1224108Y2128035D1*
X1230151Y2122769D1*
X1236240Y2115638D1*
X1239286Y2110953D1*
X1376785Y2110848D1*
X1381501Y2110100D1*
X1386042Y2108625D1*
X1390297Y2106457D1*
X1394160Y2103651D1*
X1411316Y2086495D1*
X1414122Y2082631D1*
X1416290Y2078377D1*
X1417765Y2073836D1*
X1418513Y2069119D1*
X1418606Y1993241D1*
X1418801Y1358241D1*
X1422514Y1353129D1*
X1425383Y1347497D1*
X1427336Y1341488D1*
X1428324Y1335247D1*
Y1328927D1*
X1427336Y1322685D1*
X1425383Y1316676D1*
X1422514Y1311045D1*
X1418801Y1305932D1*
X1414332Y1301463D1*
X1409219Y1297749D1*
X1403588Y1294881D1*
X1397579Y1292928D1*
X1391337Y1291940D1*
X1385017D1*
X1378776Y1292928D1*
X1372766Y1294881D1*
X1367135Y1297749D1*
X1362022Y1301463D1*
X1357554Y1305932D1*
X1353840Y1311045D1*
X1350971Y1316676D1*
X1349329Y1321580D1*
X1349521Y1295249D1*
X1353235Y1290136D1*
X1356104Y1284505D1*
X1358056Y1278496D1*
X1359045Y1272255D1*
Y1265934D1*
X1358056Y1259693D1*
X1356104Y1253684D1*
X1353235Y1248052D1*
X1349521Y1242940D1*
X1345052Y1238471D1*
X1339940Y1234757D1*
X1334308Y1231888D1*
X1328299Y1229936D1*
X1321773Y1228936D1*
X1321766Y1171585D1*
X2403856Y1171571D1*
X2409175Y1175479D1*
X2414806Y1178348D1*
X2420815Y1180301D1*
X2427056Y1181289D1*
X2433377D1*
X2439618Y1180301D1*
X2445627Y1178348D1*
X2451259Y1175479D1*
X2456371Y1171765D1*
X2460840Y1167297D1*
X2464554Y1162184D1*
X2467423Y1156552D1*
X2469375Y1150543D1*
X2470364Y1144302D1*
Y1137982D1*
X2469375Y1131740D1*
X2467423Y1125731D1*
X2464554Y1120100D1*
X2460840Y1114987D1*
X2456371Y1110518D1*
X2451259Y1106804D1*
X2445627Y1103936D1*
X2439618Y1101983D1*
X2433377Y1100995D1*
X2427056D1*
X2420815Y1101983D1*
X2414806Y1103936D1*
X2409175Y1106804D1*
X2403853Y1110711D1*
X1302731Y1110806D1*
X1298014Y1111554D1*
X1293474Y1113029D1*
X1289219Y1115197D1*
X1285356Y1118003D1*
X1276115Y1127110D1*
X1276097Y918895D1*
X1282510Y914143D1*
X1289142Y907512D1*
X1294654Y899925D1*
X1298911Y891570D1*
X1301808Y882651D1*
X1303276Y873390D1*
Y864012D1*
X1301808Y854751D1*
X1298911Y845832D1*
X1294654Y837476D1*
X1289142Y829890D1*
X1282510Y823259D1*
X1274924Y817747D1*
X1266568Y813490D1*
X1257650Y810592D1*
X1248388Y809125D1*
X1239010D1*
X1229749Y810592D1*
X1220831Y813490D1*
X1212475Y817747D1*
X1204888Y823259D1*
X1198257Y829890D1*
X1192745Y837476D1*
X1189202Y844283D1*
X1185598Y837476D1*
X1180087Y829890D1*
X1173455Y823259D1*
X1165869Y817747D1*
X1157513Y813490D1*
X1148594Y810592D1*
X1139333Y809125D1*
X1129955D1*
X1120694Y810592D1*
X1111776Y813490D1*
X1103420Y817747D1*
X1095833Y823259D1*
X1089202Y829890D1*
X1083690Y837476D1*
X1080147Y844283D1*
X1076543Y837476D1*
X1071031Y829890D1*
X1064400Y823259D1*
X1056814Y817747D1*
X1048458Y813490D1*
X1039539Y810592D1*
X1030278Y809125D1*
X1020900D1*
X1011639Y810592D1*
X1002720Y813490D1*
X994365Y817747D1*
X986778Y823259D1*
X980147Y829890D1*
X974635Y837476D1*
X971092Y844283D1*
X967488Y837476D1*
X961976Y829890D1*
X955345Y823259D1*
X947759Y817747D1*
X939403Y813490D1*
X930484Y810592D1*
X921223Y809125D1*
X911845D1*
X902584Y810592D1*
X893665Y813490D1*
X892450Y814050D1*
X893231Y807844D1*
X900818Y802332D1*
X907449Y795701D1*
X912961Y788114D1*
X916504Y781307D1*
X920108Y788114D1*
X925619Y795701D1*
X932251Y802332D1*
X939837Y807844D1*
X948193Y812101D1*
X957112Y814999D1*
X966373Y816466D1*
X975751D1*
X985012Y814999D1*
X993930Y812101D1*
X1002286Y807844D1*
X1009873Y802332D1*
X1016504Y795701D1*
X1022016Y788114D1*
X1026273Y779759D1*
X1029171Y770840D1*
X1030638Y761579D1*
Y752201D1*
X1029171Y742940D1*
X1026273Y734021D1*
X1022016Y725665D1*
X1016504Y718079D1*
X1009873Y711448D1*
X1002286Y705936D1*
X993930Y701678D1*
X985012Y698781D1*
X975751Y697314D1*
X966373D1*
X957112Y698781D1*
X948193Y701678D1*
X939837Y705936D1*
X932251Y711448D1*
X925619Y718079D1*
X920108Y725665D1*
X916564Y732472D1*
X912961Y725665D1*
X907449Y718079D1*
X900818Y711448D1*
X893231Y705936D1*
X884875Y701678D1*
X875957Y698781D1*
X866696Y697314D1*
X857318D1*
X848056Y698781D1*
X839138Y701678D1*
X830782Y705936D1*
X823196Y711448D1*
X816564Y718079D1*
X811052Y725665D1*
X806795Y734021D1*
X803898Y742940D1*
X802430Y752201D1*
Y761579D1*
X803898Y770840D1*
X806795Y779759D1*
X811052Y788114D1*
X816564Y795701D1*
X823196Y802332D1*
X830782Y807844D1*
X831566Y808282D1*
X830493Y808941D1*
X747719D1*
Y928461D1*
X756906D1*
X1248748Y752201D2*
X1247281Y742940D1*
X1244383Y734021D1*
X1240126Y725665D1*
X1234614Y718079D1*
X1227983Y711448D1*
X1220396Y705936D1*
X1212041Y701678D1*
X1203122Y698781D1*
X1193861Y697314D1*
X1184483D1*
X1175222Y698781D1*
X1166303Y701678D1*
X1157948Y705936D1*
X1150361Y711448D1*
X1143730Y718079D1*
X1138218Y725665D1*
X1133961Y734021D1*
X1131063Y742940D1*
X1129596Y752201D1*
Y761579D1*
X1131063Y770840D1*
X1133961Y779759D1*
X1138218Y788114D1*
X1143730Y795701D1*
X1150361Y802332D1*
X1157948Y807844D1*
X1166303Y812101D1*
X1175222Y814999D1*
X1184483Y816466D1*
X1193861D1*
X1203122Y814999D1*
X1212041Y812101D1*
X1220396Y807844D1*
X1227983Y802332D1*
X1234614Y795701D1*
X1240126Y788114D1*
X1244383Y779759D1*
X1247281Y770840D1*
X1248748Y761579D1*
Y752201D1*
X2554951Y923352D2*
X2560568Y925535D1*
X2569686Y927724D1*
X2579035Y928461D1*
X2588385Y927724D1*
X2591710Y927063D1*
X2591810Y1103175D1*
X2592558Y1107891D1*
X2594033Y1112432D1*
X2596201Y1116686D1*
X2599007Y1120550D1*
X2624303Y1145978D1*
X2625310Y1152512D1*
X2627262Y1158521D1*
X2630131Y1164152D1*
X2634038Y1169474D1*
X2634133Y1618702D1*
X2634881Y1623419D1*
X2636356Y1627959D1*
X2638524Y1632214D1*
X2641329Y1636077D1*
X2694917Y1689798D1*
X2822117Y1816997D1*
X2822129Y1914030D1*
X2816497Y1911866D1*
X2807379Y1909677D1*
X2798030Y1908941D1*
X2788681Y1909677D1*
X2779563Y1911866D1*
X2770900Y1915454D1*
X2762904Y1920354D1*
X2755773Y1926444D1*
X2749684Y1933575D1*
X2744783Y1941571D1*
X2743533Y1944283D1*
X2739929Y1937476D1*
X2734417Y1929890D1*
X2727786Y1923259D1*
X2720199Y1917747D1*
X2711844Y1913490D1*
X2702925Y1910592D1*
X2693664Y1909125D1*
X2684286D1*
X2675025Y1910592D1*
X2666106Y1913490D1*
X2657751Y1917747D1*
X2650164Y1923259D1*
X2643533Y1929890D1*
X2638021Y1937476D1*
X2634478Y1944283D1*
X2630874Y1937476D1*
X2625362Y1929890D1*
X2618731Y1923259D1*
X2611144Y1917747D1*
X2602789Y1913490D1*
X2593870Y1910592D1*
X2584609Y1909125D1*
X2575231D1*
X2565970Y1910592D1*
X2557051Y1913490D1*
X2555836Y1914050D1*
X2555822Y1764911D1*
X2604930Y1715703D1*
X2607736Y1711840D1*
X2609904Y1707585D1*
X2611379Y1703045D1*
X2612127Y1698328D1*
X2612220Y1622450D1*
X2612127Y1195841D1*
X2611379Y1191125D1*
X2609904Y1186584D1*
X2607736Y1182329D1*
X2604930Y1178466D1*
X2598316Y1171446D1*
X2597328Y1165205D1*
X2595375Y1159196D1*
X2592507Y1153564D1*
X2588600Y1148243D1*
X2588224Y1141406D1*
X2587109Y1136762D1*
X2585282Y1132350D1*
X2582787Y1128280D1*
X2579686Y1124648D1*
X2554946Y1099909D1*
X2554937Y923358D1*
X2494949Y1914050D2*
X2489332Y1911866D1*
X2480214Y1909677D1*
X2470865Y1908941D1*
X2461516Y1909677D1*
X2452398Y1911866D1*
X2443735Y1915454D1*
X2435739Y1920354D1*
X2428608Y1926444D1*
X2422518Y1933575D1*
X2417618Y1941571D1*
X2416367Y1944283D1*
X2412764Y1937476D1*
X2407252Y1929890D1*
X2400621Y1923259D1*
X2393034Y1917747D1*
X2384678Y1913490D1*
X2375760Y1910592D1*
X2366499Y1909125D1*
X2357121D1*
X2347860Y1910592D1*
X2338941Y1913490D1*
X2330585Y1917747D1*
X2322999Y1923259D1*
X2316367Y1929890D1*
X2310856Y1937476D1*
X2307312Y1944283D1*
X2303709Y1937476D1*
X2298197Y1929890D1*
X2291566Y1923259D1*
X2283979Y1917747D1*
X2275623Y1913490D1*
X2266705Y1910592D1*
X2257444Y1909125D1*
X2248066D1*
X2238804Y1910592D1*
X2230625Y1913217D1*
Y1636517D1*
X2467694Y1399482D1*
X2474157Y1397946D1*
X2479996Y1395528D1*
X2485606Y1392050D1*
X2495751Y1391944D1*
X2500772Y1391148D1*
X2505606Y1389577D1*
X2510136Y1387269D1*
X2514249Y1384281D1*
X2517844Y1380686D1*
X2520832Y1376573D1*
X2523140Y1372043D1*
X2524713Y1367199D1*
X2526001Y1366424D1*
X2531633Y1369293D1*
X2537642Y1371245D1*
X2543883Y1372234D1*
X2550203D1*
X2551369Y1372096D1*
X2551362Y1683346D1*
X2502253Y1732577D1*
X2499448Y1736441D1*
X2497280Y1740696D1*
X2495804Y1745236D1*
X2495056Y1749953D1*
X2494963Y1825831D1*
Y1913999D1*
X1288437Y1908941D2*
X1182661D1*
Y1934885D1*
X1178808Y1929890D1*
X1172177Y1923259D1*
X1164591Y1917747D1*
X1156235Y1913490D1*
X1147316Y1910592D1*
X1138055Y1909125D1*
X1128677D1*
X1119416Y1910592D1*
X1110497Y1913490D1*
X1102142Y1917747D1*
X1094555Y1923259D1*
X1087924Y1929890D1*
X1082412Y1937476D1*
X1078869Y1944283D1*
X1075265Y1937476D1*
X1069753Y1929890D1*
X1063122Y1923259D1*
X1055535Y1917747D1*
X1047180Y1913490D1*
X1038261Y1910592D1*
X1029000Y1909125D1*
X1019622D1*
X1010361Y1910592D1*
X1001442Y1913490D1*
X993087Y1917747D1*
X985500Y1923259D1*
X978869Y1929890D1*
X973357Y1937476D1*
X969814Y1944283D1*
X966210Y1937476D1*
X960698Y1929890D1*
X954067Y1923259D1*
X946480Y1917747D1*
X938125Y1913490D1*
X929206Y1910592D1*
X919945Y1909125D1*
X910567D1*
X901306Y1910592D1*
X892387Y1913490D1*
X884031Y1917747D1*
X876445Y1923259D1*
X869814Y1929890D1*
X864302Y1937476D1*
X860759Y1944283D1*
X857155Y1937476D1*
X851643Y1929890D1*
X845012Y1923259D1*
X837425Y1917747D1*
X829070Y1913490D1*
X820151Y1910592D1*
X810890Y1909125D1*
X801512D1*
X793634Y1910316D1*
X634669Y1751352D1*
X634661Y1605976D1*
X639098Y1608618D1*
X644937Y1611037D1*
X651081Y1612512D1*
X657382Y1613008D1*
X663682Y1612512D1*
X669827Y1611037D1*
X675665Y1608618D1*
X681052Y1605316D1*
X683745Y1603167D1*
X1279944Y1603072D1*
X1284660Y1602324D1*
X1286969Y1601673D1*
X1288469Y1608990D1*
Y1908945D1*
X1078869Y1993118D2*
X1082412Y1999925D1*
X1087924Y2007512D1*
X1094555Y2014143D1*
X1098865Y2017465D1*
X1092789Y2022403D1*
X1083528Y2020936D1*
X1074150D1*
X1064888Y2022403D1*
X1055970Y2025301D1*
X1047614Y2029558D1*
X1040028Y2035070D1*
X1033396Y2041701D1*
X1027885Y2049287D1*
X1023627Y2057643D1*
X1020730Y2066562D1*
X1019262Y2075823D1*
Y2085201D1*
X1020730Y2094462D1*
X1023627Y2103381D1*
X1027885Y2111736D1*
X1033396Y2119323D1*
X1040028Y2125954D1*
X1042661Y2128030D1*
X896987Y2128035D1*
X902986Y2122769D1*
X909075Y2115638D1*
X913975Y2107642D1*
X917563Y2098979D1*
X919752Y2089861D1*
X920488Y2080512D1*
X919752Y2071163D1*
X917563Y2062045D1*
X913975Y2053382D1*
X909075Y2045386D1*
X902986Y2038255D1*
X895854Y2032165D1*
X887858Y2027265D1*
X879196Y2023677D1*
X870077Y2021488D1*
X860728Y2020752D1*
X851379Y2021488D1*
X842261Y2023677D1*
X838598Y2025028D1*
X841327Y2017047D1*
X848458Y2010958D1*
X854547Y2003827D1*
X859448Y1995831D1*
X860698Y1993118D1*
X864302Y1999925D1*
X869814Y2007512D1*
X876445Y2014143D1*
X884031Y2019655D1*
X892387Y2023912D1*
X901306Y2026810D1*
X910567Y2028277D1*
X919945D1*
X929206Y2026810D1*
X938125Y2023912D1*
X946480Y2019655D1*
X954067Y2014143D1*
X960698Y2007512D1*
X966210Y1999925D1*
X969753Y1993118D1*
X973357Y1999925D1*
X978869Y2007512D1*
X985500Y2014143D1*
X993087Y2019655D1*
X1001442Y2023912D1*
X1010361Y2026810D1*
X1019622Y2028277D1*
X1029000D1*
X1038261Y2026810D1*
X1047180Y2023912D1*
X1055535Y2019655D1*
X1063122Y2014143D1*
X1069753Y2007512D1*
X1075265Y1999925D1*
X1078808Y1993118D1*
X1239286Y2050071D2*
X1236240Y2045386D1*
X1233756Y2042234D1*
X1307505Y2042147D1*
X1312222Y2041399D1*
X1316762Y2039924D1*
X1321017Y2037756D1*
X1324881Y2034950D1*
X1342037Y2017794D1*
X1344843Y2013930D1*
X1347010Y2009676D1*
X1348486Y2005135D1*
X1349234Y2000419D1*
X1349327Y1924541D1*
Y1342678D1*
X1350971Y1347497D1*
X1353840Y1353129D1*
X1357747Y1358450D1*
X1357748Y2050093D1*
X1239294Y2050083D1*
X683745Y1542306D2*
X678424Y1538399D1*
X672793Y1535530D1*
X666783Y1533577D1*
X660542Y1532589D1*
X654222D1*
X647980Y1533577D1*
X641971Y1535530D1*
X636340Y1538399D1*
X634665Y1539517D1*
X634661Y1481961D1*
X639306Y1477333D1*
X1222617Y1477232D1*
X1227638Y1476437D1*
X1232472Y1474866D1*
X1237003Y1472558D1*
X1241115Y1469570D1*
X1260923Y1449904D1*
X1260908Y1542293D1*
X683781Y1542307D1*
X2531262Y1204533D2*
X2534499Y1207186D1*
X2539886Y1210488D1*
X2545724Y1212907D1*
X2551373Y1214283D1*
X2551362Y1292066D1*
X2547043Y1291815D1*
X2540743Y1292311D1*
X2534598Y1293786D1*
X2528760Y1296205D1*
X2523150Y1299682D1*
X2490667Y1299789D1*
X2485646Y1300584D1*
X2480811Y1302155D1*
X2476281Y1304463D1*
X2472168Y1307451D1*
X2468573Y1311046D1*
X2465585Y1315159D1*
X2464337Y1317387D1*
X2461713Y1319374D1*
X2455412Y1319870D1*
X2449268Y1321345D1*
X2443429Y1323764D1*
X2438042Y1327066D1*
X2433236Y1331169D1*
X2429133Y1335975D1*
X2425831Y1341362D1*
X2423412Y1347201D1*
X2421903Y1353627D1*
X2174129Y1601247D1*
Y1558437D1*
X2527581Y1204963D1*
X2531235Y1204537D1*
X3306177Y2406201D2*
X431207D1*
X431201Y431184D1*
X3306194Y431201D1*
X3306201Y2406218D1*
D18*
X2981193Y1081297D3*
D19*
Y981297D3*
D24*
X807479Y868701D3*
D26*
X916534D3*
X1025589D3*
X1134644D3*
X1243699D3*
X862007Y756890D3*
X971062D3*
X1080117D3*
X1189172D3*
D27*
X533660Y812795D3*
X1517518D3*
D24*
X2142815Y868701D3*
D26*
X2251870D3*
X2360925D3*
X2469980D3*
X2579035D3*
X2688091D3*
X2797146D3*
X2906201D3*
X2197343Y756890D3*
X2306398D3*
X2415453D3*
X2524508D3*
X2633563D3*
X2742618D3*
X2851673D3*
D28*
X1868602Y812795D3*
X3180413D3*
D24*
X2907085Y1968701D3*
D26*
X2798030D3*
X2688975D3*
X2579920D3*
X2470865D3*
X2361810D3*
X2252755D3*
X2143699D3*
X2852558Y2080512D3*
X2743503D3*
X2634448D3*
X2525392D3*
X2416337D3*
X2307282D3*
X2198227D3*
D28*
X3181298Y2024606D3*
X1869487D3*
D24*
X1242421Y1968701D3*
D26*
X1133366D3*
X1024311D3*
X915256D3*
X806201D3*
X1187894Y2080512D3*
X1078839D3*
X969783D3*
X860728D3*
D27*
X1516240Y2024606D3*
X532382D3*
M02*
