M48
INCH
T01C0.0079
T02C0.0256
T03C0.0429
T04C0.0433
T05C0.1252
T06C0.1283
%
T01
X+004437Y+004437
X+005937Y+005937
X+007937Y+005937
X+009937Y+005937
X+011937Y+005937
X+013937Y+005937
X+015937Y+005937
X+017937Y+005937
X+019937Y+005937
X+021937Y+005937
X+023937Y+005937
X+025937Y+005937
X+027937Y+005937
X+029937Y+005937
X+031937Y+005937
X+032187Y+004437
X+031937Y+007937
X+031937Y+011937
X+032062Y+014000
X+030406Y+015233
X+029223Y+015923
X+028875Y+015875
X+028875Y+014562
X+028875Y+013625
X+028562Y+011500
X+026562Y+011500
X+025125Y+011562
X+024187Y+012312
X+023250Y+012500
X+022375Y+011687
X+023026Y+010246
X+024187Y+010000
X+024187Y+009375
X+026375Y+013625
X+026625Y+015875
X+027500Y+015875
X+027312Y+016625
X+026312Y+017375
X+024687Y+017375
X+024312Y+016750
X+024125Y+015875
X+022812Y+015187
X+022000Y+015937
X+021703Y+015954
X+020670Y+016182
X+020312Y+015750
X+020250Y+015125
X+019863Y+015207
X+019187Y+015312
X+018937Y+015125
X+018485Y+015561
X+018534Y+016338
X+018625Y+016625
X+018625Y+017125
X+019095Y+017308
X+019375Y+017312
X+019666Y+017440
X+019863Y+016775
X+020312Y+016625
X+019676Y+016175
X+019250Y+016125
X+019085Y+016875
X+017812Y+017812
X+017375Y+017562
X+017312Y+017125
X+016812Y+016562
X+016812Y+016125
X+016875Y+015125
X+017215Y+015068
X+017375Y+014625
X+017599Y+014308
X+017812Y+014937
X+016875Y+014062
X+016375Y+014625
X+015555Y+014875
X+015500Y+014562
X+015000Y+014562
X+014562Y+014562
X+015000Y+015125
X+015000Y+016062
X+014986Y+016338
X+014562Y+016125
X+014562Y+017125
X+014266Y+017638
X+015787Y+017665
X+016042Y+018416
X+016500Y+019187
X+015812Y+020062
X+016625Y+020562
X+017312Y+020000
X+018000Y+019187
X+018756Y+019057
X+019250Y+018687
X+019625Y+018687
X+019625Y+019625
X+020437Y+019812
X+020437Y+020750
X+019687Y+021750
X+018562Y+020937
X+017562Y+018375
X+020670Y+018425
X+021187Y+017687
X+022437Y+017125
X+021250Y+014625
X+021125Y+013437
X+019750Y+013125
X+019082Y+013761
X+019750Y+014062
X+017858Y+013386
X+016812Y+012500
X+017375Y+011687
X+015187Y+011187
X+014000Y+012500
X+013062Y+012625
X+013000Y+011187
X+010875Y+011187
X+009750Y+011187
X+008500Y+011562
X+009625Y+012687
X+010812Y+012687
X+010187Y+014562
X+009868Y+014875
X+008562Y+014562
X+008375Y+015562
X+007375Y+016437
X+005937Y+015937
X+005937Y+013937
X+005937Y+011937
X+005937Y+007937
X+012250Y+014562
X+013812Y+015375
X+013000Y+016375
X+012250Y+017562
X+011062Y+020687
X+011375Y+021375
X+010375Y+021375
X+009125Y+021250
X+009750Y+020125
X+005937Y+019937
X+005937Y+017937
X+005937Y+023937
X+005937Y+025937
X+005937Y+027937
X+004437Y+028437
X+007937Y+027937
X+009937Y+027937
X+011937Y+027937
X+013937Y+027937
X+015937Y+027937
X+017937Y+027937
X+019937Y+027937
X+021937Y+027937
X+023937Y+027937
X+025937Y+027937
X+027937Y+027937
X+029937Y+027937
X+031937Y+027937
X+032187Y+028437
X+031937Y+025937
X+031937Y+023937
X+031937Y+019937
X+032062Y+018875
X+029000Y+018937
X+028245Y+018170
X+027500Y+019312
X+026125Y+019312
X+024517Y+020882
X+023875Y+020500
X+023187Y+021562
X+022062Y+020875
X+020625Y+023500
X+025165Y+021473
X+028937Y+020875
X+016000Y+015437
X+015625Y+014062
X+015437Y+013125
X+014562Y+013375
X+014437Y+020125
X+014812Y+020812
X+013812Y+020812
X+013312Y+021750
X+013312Y+023500
T02
X+007837Y+015699
X+007837Y+016191
X+007837Y+016683
X+007837Y+017175
T03
X+028504Y+022128
X+027413Y+022128
X+026323Y+022128
X+025232Y+022128
X+024142Y+022128
X+023051Y+022128
X+021961Y+022128
X+020870Y+022128
X+021415Y+023246
X+022506Y+023246
X+023596Y+023246
X+024687Y+023246
X+025778Y+023246
X+026868Y+023246
X+027959Y+023246
X+027528Y+010746
X+026437Y+010746
X+025346Y+010746
X+024256Y+010746
X+024801Y+009628
X+025892Y+009628
X+026982Y+009628
X+028073Y+009628
X+028618Y+010746
X+015754Y+010746
X+014663Y+010746
X+013573Y+010746
X+012482Y+010746
X+011392Y+010746
X+010301Y+010746
X+009211Y+010746
X+008120Y+010746
X+008665Y+009628
X+009756Y+009628
X+010846Y+009628
X+011937Y+009628
X+013028Y+009628
X+014118Y+009628
X+015209Y+009628
X+012368Y+022128
X+011278Y+022128
X+010187Y+022128
X+009096Y+022128
X+008006Y+022128
X+008551Y+023246
X+009642Y+023246
X+010732Y+023246
X+011823Y+023246
T04
X+013399Y+013875
X+013399Y+014875
X+013399Y+015875
X+013399Y+016875
X+013399Y+017875
X+013399Y+018875
T05
X+031246Y+022687
X+018128Y+022687
X+018496Y+010187
X+005378Y+010187
T06
X+005268Y+022687
X+015106Y+022687
X+021518Y+010187
X+031356Y+010187
T00
M30
