M48
INCH
T01C0.0118
T02C0.0354
T03C0.0429
T04C0.1252
T05C0.1283
%
T01
X+010872Y+014938
X+012562Y+014937
X+013498Y+014813
X+013560Y+015813
X+012873Y+016439
X+012123Y+016126
X+012935Y+017501
X+013560Y+018064
X+013560Y+016939
X+012748Y+018876
X+011623Y+018876
X+010497Y+018876
X+008997Y+018126
X+008997Y+016126
X+008997Y+014938
X+008997Y+013438
X+008560Y+012376
X+008075Y+012061
X+008622Y+011438
X+009165Y+011746
X+009685Y+011313
X+010256Y+011431
X+010685Y+010750
X+009685Y+010438
X+008622Y+010438
X+008620Y+009915
X+007810Y+009250
X+006997Y+008500
X+007872Y+007375
X+004309Y+004312
X+011998Y+010750
X+012935Y+010625
X+013623Y+012376
X+013189Y+012691
X+013498Y+013438
X+013882Y+013321
X+015248Y+014126
X+015935Y+014563
X+016623Y+015001
X+017873Y+012376
X+017998Y+010625
X+021749Y+012376
X+023561Y+011751
X+024302Y+011411
X+025247Y+011648
X+025582Y+011746
X+025499Y+012501
X+025470Y+013321
X+024617Y+013596
X+024061Y+013501
X+024936Y+014626
X+024374Y+015563
X+026187Y+014938
X+026187Y+014063
X+027687Y+013688
X+027624Y+013251
X+028187Y+013251
X+028312Y+012751
X+028999Y+012938
X+026937Y+012438
X+026645Y+011431
X+025937Y+010688
X+025749Y+009625
X+027749Y+010625
X+022936Y+010625
X+022374Y+018001
X+024874Y+018001
X+025624Y+018001
X+027999Y+018001
X+033062Y+024064
X+033062Y+004312
X+011935Y+012376
X+011998Y+013438
X+006574Y+015727
X+006434Y+016876
X+004309Y+024064
T02
X+029812Y+010813
X+029812Y+009813
X+031594Y+013199
X+031594Y+014931
T03
X+008075Y+008687
X+009165Y+008687
X+010256Y+008687
X+011346Y+008687
X+012437Y+008687
X+011892Y+007569
X+010801Y+007569
X+009711Y+007569
X+008620Y+007569
X+009153Y+019687
X+010243Y+019687
X+011334Y+019687
X+012424Y+019687
X+011879Y+020805
X+010788Y+020805
X+009698Y+020805
X+008607Y+020805
X+008062Y+019687
X+021437Y+019687
X+022528Y+019687
X+023618Y+019687
X+024709Y+019687
X+025799Y+019687
X+026890Y+019687
X+027980Y+019687
X+029071Y+019687
X+028526Y+020805
X+027435Y+020805
X+026344Y+020805
X+025254Y+020805
X+024163Y+020805
X+023073Y+020805
X+021982Y+020805
X+022519Y+008687
X+023609Y+008687
X+024700Y+008687
X+025790Y+008687
X+026881Y+008687
X+027971Y+008687
X+029062Y+008687
X+028517Y+007569
X+027426Y+007569
X+026336Y+007569
X+025245Y+007569
X+024155Y+007569
X+023064Y+007569
X+021973Y+007569
X+021428Y+008687
T04
X+018686Y+008128
X+018695Y+020246
X+031813Y+020246
X+031804Y+008128
T05
X+005337Y+008128
X+015175Y+008128
X+015162Y+020246
X+005324Y+020246
T00
M30
