G04 DipTrace 2.4.0.2*
%INTop.gbr*%
%MOIN*%
%ADD13C,0.0118*%
%ADD14C,0.0079*%
%ADD15C,0.025*%
%ADD16R,0.0276X0.0354*%
%ADD17R,0.0354X0.0276*%
%ADD18R,0.063X0.063*%
%ADD19C,0.063*%
%ADD21R,0.0906X0.0197*%
%ADD22R,0.0984X0.0787*%
%ADD23R,0.0571X0.0394*%
%ADD24R,0.0665X0.0665*%
%ADD25R,0.0591X0.0591*%
%ADD26C,0.0665*%
%ADD27C,0.1874*%
%ADD28C,0.189*%
%ADD30R,0.0197X0.0669*%
%ADD31R,0.0669X0.0197*%
%ADD33R,0.2165X0.0787*%
%ADD34C,0.0276*%
%FSLAX44Y44*%
G04*
G70*
G90*
G75*
G01*
%LNTop*%
%LPD*%
X22806Y12376D2*
D13*
X21749D1*
X24932Y14187D2*
Y14622D1*
X24936Y14626D1*
X26113Y12376D2*
X26874D1*
X26937Y12438D1*
X11935Y12376D2*
X13623D1*
X22806D2*
X23436D1*
X23561Y12251D1*
Y11751D1*
X24932Y14187D2*
Y13068D1*
X25499Y12501D1*
X26113Y12376D2*
X25624D1*
X25499Y12501D1*
X4499Y16062D2*
D14*
X5446D1*
X6062D1*
X4499Y11687D2*
X5446D1*
X6062D1*
X6574Y15727D2*
Y16062D1*
X24302Y11411D2*
Y10880D1*
X24617D2*
Y9315D1*
X24479Y9177D1*
X20430D1*
X20292Y9039D1*
Y7026D1*
X20154Y6888D1*
X6712D1*
X6574Y7026D1*
Y11687D1*
X26645Y11431D2*
X26113D1*
X25582Y11746D2*
X26113D1*
X25247Y11648D2*
Y10880D1*
X29062Y8687D2*
X28631Y9118D1*
X25070D1*
X24932Y9256D1*
Y10880D1*
X25562D2*
Y10375D1*
X25624Y10313D1*
X32812D1*
Y11188D1*
Y10313D2*
X28062D1*
Y11063D1*
X22806Y12691D2*
X13189D1*
X7644D1*
X7506Y12553D1*
Y8138D1*
X7644Y8000D1*
X9280D1*
X9711Y7569D1*
X12424Y19687D2*
X17353Y14758D1*
X23849D1*
X23987Y14620D1*
Y14187D1*
X11334Y19687D2*
X16401Y14620D1*
X23672D1*
Y14187D1*
X10243Y19687D2*
X15743Y14187D1*
X23357D1*
X9153Y19687D2*
X15204Y13636D1*
X22806D1*
X13882Y13321D2*
X22806D1*
X8607Y20805D2*
Y13144D1*
X8745Y13006D1*
X22806D1*
X8075Y12061D2*
X22806D1*
X9165Y11746D2*
X22806D1*
X10256Y11431D2*
X22806D1*
X11346Y8687D2*
X10915Y9118D1*
X8384D1*
X8246Y9256D1*
Y10014D1*
X8384Y10152D1*
X23220D1*
X23357Y10289D1*
Y10880D1*
X8620Y9915D2*
X23534D1*
X23672Y10053D1*
Y10880D1*
X11892Y7569D2*
Y9177D1*
X12030Y9315D1*
X23849D1*
X23987Y9453D1*
Y10880D1*
X26113Y12061D2*
X26546D1*
X26670Y11937D1*
X27312D1*
X30570Y14065D2*
X28417D1*
X28279Y13927D1*
Y12921D1*
X28142Y12783D1*
X26925D1*
X26833Y12691D1*
X26113D1*
X27706Y13293D2*
X27418Y13006D1*
X26113D1*
X28516Y13293D2*
Y13612D1*
X28653Y13750D1*
X30570D1*
X27984Y13687D2*
D13*
X27312D1*
X30570Y13435D2*
X29011D1*
X24617Y13596D2*
Y14187D1*
X25470Y13321D2*
X26113D1*
Y13636D2*
X25608D1*
X25470Y13498D1*
Y13321D1*
X27312Y13687D2*
X26676D1*
X26625Y13636D1*
X26113D1*
X29011Y13435D2*
Y11063D1*
X28574D1*
X30062D1*
X29812Y10813D1*
X22562Y16687D2*
D14*
X21381D1*
Y15575D1*
X21519Y15437D1*
X21812D1*
Y15033D1*
X21950Y14896D1*
X25109D1*
X25247Y14758D1*
Y14187D1*
X26302Y16687D2*
X27542D1*
Y15870D1*
X27405Y15732D1*
X26562D1*
Y15437D1*
X25700D1*
X25562Y15299D1*
Y14187D1*
D34*
X10872Y14938D3*
X8997D3*
Y18126D3*
Y16126D3*
X12562Y14937D3*
X12123Y16126D3*
X10497Y18876D3*
X12873Y16439D3*
X12935Y17501D3*
X11623Y18876D3*
X12748D3*
X13560Y18064D3*
X16623Y15001D3*
X15935Y14563D3*
X15248Y14126D3*
X13560Y16939D3*
X21749Y12376D3*
X17873D3*
X13623D3*
X11935D3*
X8560D3*
X8622Y11438D3*
Y10438D3*
X9685Y11313D3*
Y10438D3*
X10685Y10750D3*
X11998D3*
X12935Y10625D3*
X17998D3*
X22936D3*
X6434Y16876D3*
X8997Y13438D3*
X11998D3*
X13498D3*
Y14813D3*
X24936Y14626D3*
X26187Y14938D3*
Y14063D3*
X26937Y12438D3*
X28624Y12938D3*
X27749Y10625D3*
X25937Y10688D3*
X22374Y18001D3*
X24874D3*
X24374Y15563D3*
X13560Y15813D3*
X4309Y24064D3*
X33062D3*
Y4312D3*
X4309D3*
X7810Y9250D3*
X25624Y18001D3*
X27999D3*
X25749Y9625D3*
X7872Y7375D3*
X6997Y8500D3*
X23561Y11751D3*
X24061Y13501D3*
X25499Y12501D3*
X6574Y15727D3*
X24302Y11411D3*
X26645Y11431D3*
X25582Y11746D3*
X25247Y11648D3*
X13189Y12691D3*
X13882Y13321D3*
X8075Y12061D3*
X9165Y11746D3*
X10256Y11431D3*
X8620Y9915D3*
X27706Y13293D3*
X28516D3*
X27984Y13687D3*
X29011Y13435D3*
X25470Y13321D3*
X24617Y13596D3*
X4337Y23813D2*
D15*
X33039D1*
X4337Y23565D2*
X33039D1*
X4337Y23316D2*
X33039D1*
X4337Y23067D2*
X33039D1*
X4337Y22819D2*
X33039D1*
X4337Y22570D2*
X33039D1*
X4337Y22321D2*
X33039D1*
X4337Y22073D2*
X33039D1*
X4337Y21824D2*
X33039D1*
X4337Y21575D2*
X33039D1*
X4337Y21326D2*
X8289D1*
X8925D2*
X10473D1*
X11105D2*
X11562D1*
X12194D2*
X21664D1*
X22300D2*
X22758D1*
X23390D2*
X23848D1*
X24480D2*
X24937D1*
X25569D2*
X26027D1*
X26663D2*
X27117D1*
X27753D2*
X28207D1*
X28843D2*
X33039D1*
X4337Y21078D2*
X8051D1*
X9163D2*
X10230D1*
X12437D2*
X21426D1*
X29081D2*
X33039D1*
X4337Y20829D2*
X7984D1*
X9230D2*
X10168D1*
X12499D2*
X21359D1*
X29148D2*
X33039D1*
X4337Y20580D2*
X8027D1*
X9187D2*
X10211D1*
X12456D2*
X21402D1*
X29105D2*
X33039D1*
X4337Y20332D2*
X8219D1*
X8995D2*
X10398D1*
X11179D2*
X11488D1*
X12269D2*
X21594D1*
X22370D2*
X22683D1*
X23464D2*
X23773D1*
X24554D2*
X24863D1*
X25644D2*
X25957D1*
X26733D2*
X27047D1*
X27823D2*
X28137D1*
X28913D2*
X33039D1*
X4337Y20083D2*
X7590D1*
X9624D2*
X9770D1*
X10714D2*
X10862D1*
X13046D2*
X20965D1*
X21909D2*
X22055D1*
X22999D2*
X23145D1*
X24089D2*
X24237D1*
X25183D2*
X25328D1*
X26273D2*
X26418D1*
X27362D2*
X27505D1*
X28452D2*
X33039D1*
X4337Y19834D2*
X7457D1*
X13046D2*
X20832D1*
X28585D2*
X33039D1*
X4337Y19586D2*
X7449D1*
X13046D2*
X20824D1*
X28593D2*
X33039D1*
X4337Y19337D2*
X7555D1*
X13230D2*
X20930D1*
X28491D2*
X33039D1*
X4337Y19088D2*
X8277D1*
X8937D2*
X9297D1*
X10206D2*
X10387D1*
X11296D2*
X11476D1*
X12386D2*
X12566D1*
X13480D2*
X33039D1*
X4337Y18840D2*
X8277D1*
X8937D2*
X9547D1*
X10456D2*
X10637D1*
X11546D2*
X11726D1*
X12636D2*
X12816D1*
X13726D2*
X33039D1*
X4337Y18591D2*
X8277D1*
X8937D2*
X9793D1*
X10702D2*
X10883D1*
X11796D2*
X11976D1*
X12886D2*
X13066D1*
X13976D2*
X33039D1*
X4337Y18342D2*
X8277D1*
X8937D2*
X10043D1*
X10952D2*
X11133D1*
X12042D2*
X12223D1*
X13132D2*
X13312D1*
X14226D2*
X33039D1*
X4337Y18094D2*
X8277D1*
X8937D2*
X10293D1*
X11202D2*
X11383D1*
X12292D2*
X12473D1*
X13382D2*
X13562D1*
X14472D2*
X33039D1*
X4337Y17845D2*
X8277D1*
X8937D2*
X10539D1*
X11448D2*
X11629D1*
X12542D2*
X12723D1*
X13632D2*
X13812D1*
X14722D2*
X33039D1*
X4337Y17596D2*
X8277D1*
X8937D2*
X10789D1*
X11698D2*
X11879D1*
X12788D2*
X12969D1*
X13878D2*
X14058D1*
X14972D2*
X33039D1*
X4337Y17347D2*
X8277D1*
X8937D2*
X11035D1*
X11948D2*
X12129D1*
X13038D2*
X13219D1*
X14128D2*
X14308D1*
X15218D2*
X33039D1*
X4337Y17099D2*
X8277D1*
X8937D2*
X11285D1*
X12194D2*
X12375D1*
X13288D2*
X13469D1*
X14378D2*
X14558D1*
X15468D2*
X21191D1*
X23933D2*
X24930D1*
X27675D2*
X33039D1*
X4337Y16850D2*
X8277D1*
X8937D2*
X11535D1*
X12444D2*
X12625D1*
X13534D2*
X13715D1*
X14624D2*
X14805D1*
X15718D2*
X21098D1*
X23933D2*
X24930D1*
X27823D2*
X33039D1*
X4337Y16601D2*
X8277D1*
X8937D2*
X11781D1*
X12694D2*
X12875D1*
X13784D2*
X13965D1*
X14874D2*
X15055D1*
X15964D2*
X21051D1*
X23933D2*
X24930D1*
X27870D2*
X33039D1*
X7042Y16353D2*
X8277D1*
X8937D2*
X12031D1*
X12941D2*
X13121D1*
X14034D2*
X14215D1*
X15124D2*
X15305D1*
X16214D2*
X21051D1*
X23933D2*
X24930D1*
X27870D2*
X33039D1*
X7042Y16104D2*
X8277D1*
X8937D2*
X12281D1*
X13191D2*
X13371D1*
X14280D2*
X14461D1*
X15370D2*
X15551D1*
X16464D2*
X21051D1*
X23933D2*
X24930D1*
X27870D2*
X33039D1*
X7042Y15855D2*
X8277D1*
X8937D2*
X12527D1*
X13441D2*
X13621D1*
X14530D2*
X14711D1*
X15620D2*
X15801D1*
X16710D2*
X21051D1*
X21710D2*
X26258D1*
X27870D2*
X33039D1*
X5073Y15607D2*
X6164D1*
X6983D2*
X8277D1*
X8937D2*
X12777D1*
X13687D2*
X13867D1*
X14780D2*
X14961D1*
X15870D2*
X16051D1*
X16960D2*
X21051D1*
X22280D2*
X25414D1*
X27733D2*
X33039D1*
X4337Y15358D2*
X6391D1*
X6757D2*
X8277D1*
X8937D2*
X13027D1*
X13937D2*
X14117D1*
X15026D2*
X15207D1*
X16116D2*
X16297D1*
X17210D2*
X21144D1*
X22280D2*
X25238D1*
X27030D2*
X31453D1*
X31733D2*
X33039D1*
X4337Y15109D2*
X8277D1*
X8937D2*
X13273D1*
X14187D2*
X14367D1*
X15276D2*
X15457D1*
X16366D2*
X16547D1*
X17456D2*
X21344D1*
X25890D2*
X26094D1*
X27030D2*
X31164D1*
X32023D2*
X33039D1*
X4337Y14861D2*
X8277D1*
X8937D2*
X13523D1*
X14433D2*
X14613D1*
X15526D2*
X15703D1*
X25890D2*
X31133D1*
X32054D2*
X33039D1*
X4337Y14612D2*
X8277D1*
X8937D2*
X13773D1*
X14683D2*
X14863D1*
X15773D2*
X15953D1*
X25948D2*
X29828D1*
X31925D2*
X33039D1*
X4337Y14363D2*
X8277D1*
X8937D2*
X14019D1*
X14933D2*
X15113D1*
X25948D2*
X28332D1*
X31312D2*
X33039D1*
X4337Y14115D2*
X8277D1*
X8937D2*
X14269D1*
X15179D2*
X15359D1*
X25948D2*
X26883D1*
X27741D2*
X28016D1*
X31312D2*
X33039D1*
X4337Y13866D2*
X8277D1*
X8937D2*
X14519D1*
X31312D2*
X33039D1*
X4337Y13617D2*
X8277D1*
X8937D2*
X13586D1*
X31761D2*
X33039D1*
X4337Y13368D2*
X8277D1*
X8937D2*
X13457D1*
X23429D2*
X24262D1*
X32026D2*
X33039D1*
X4337Y13120D2*
X8277D1*
X23429D2*
X25098D1*
X32054D2*
X33039D1*
X4337Y12871D2*
X7367D1*
X23429D2*
X25488D1*
X29358D2*
X31273D1*
X31913D2*
X33039D1*
X4337Y12622D2*
X7183D1*
X23429D2*
X25488D1*
X28437D2*
X28664D1*
X29358D2*
X33039D1*
X4337Y12374D2*
X7176D1*
X8355D2*
X12918D1*
X13460D2*
X22183D1*
X23429D2*
X25488D1*
X26737D2*
X26887D1*
X27741D2*
X28664D1*
X29358D2*
X33039D1*
X5073Y12125D2*
X7176D1*
X23429D2*
X25422D1*
X27741D2*
X28664D1*
X29358D2*
X33039D1*
X7042Y11876D2*
X7176D1*
X23429D2*
X24891D1*
X27741D2*
X28664D1*
X29358D2*
X33039D1*
X7042Y11628D2*
X7176D1*
X7835D2*
X8754D1*
X23429D2*
X23937D1*
X24667D2*
X24820D1*
X27741D2*
X28664D1*
X29358D2*
X32226D1*
X5073Y11379D2*
X5594D1*
X7042D2*
X7176D1*
X7835D2*
X8976D1*
X9355D2*
X9832D1*
X27069D2*
X27594D1*
X30417D2*
X32226D1*
X4337Y11130D2*
X6246D1*
X6901D2*
X7176D1*
X7835D2*
X9965D1*
X26937D2*
X27594D1*
X30417D2*
X32226D1*
X4337Y10882D2*
X6246D1*
X6901D2*
X7176D1*
X7835D2*
X22969D1*
X25948D2*
X27594D1*
X30417D2*
X32226D1*
X4337Y10633D2*
X6246D1*
X6901D2*
X7176D1*
X7835D2*
X22969D1*
X25948D2*
X27734D1*
X30417D2*
X32226D1*
X4337Y10384D2*
X6246D1*
X6901D2*
X7176D1*
X7835D2*
X8164D1*
X4337Y10135D2*
X6246D1*
X6901D2*
X7176D1*
X4337Y9887D2*
X6246D1*
X6901D2*
X7176D1*
X25261D2*
X33039D1*
X4337Y9638D2*
X6246D1*
X6901D2*
X7176D1*
X25261D2*
X33039D1*
X4337Y9389D2*
X6246D1*
X6901D2*
X7176D1*
X28792D2*
X33039D1*
X4337Y9141D2*
X6246D1*
X6901D2*
X7176D1*
X29476D2*
X33039D1*
X4337Y8892D2*
X6246D1*
X6901D2*
X7176D1*
X13023D2*
X19961D1*
X29648D2*
X33039D1*
X4337Y8643D2*
X6246D1*
X6901D2*
X7176D1*
X13058D2*
X19961D1*
X20620D2*
X21898D1*
X29683D2*
X33039D1*
X4337Y8395D2*
X6246D1*
X6901D2*
X7176D1*
X12983D2*
X19961D1*
X20620D2*
X21973D1*
X29608D2*
X33039D1*
X4337Y8146D2*
X6246D1*
X6901D2*
X7176D1*
X10534D2*
X11066D1*
X12714D2*
X19961D1*
X20620D2*
X21793D1*
X29339D2*
X33039D1*
X4337Y7897D2*
X6246D1*
X6901D2*
X7293D1*
X10233D2*
X11367D1*
X12417D2*
X19961D1*
X20620D2*
X21449D1*
X29042D2*
X33039D1*
X4337Y7649D2*
X6246D1*
X6901D2*
X8004D1*
X10327D2*
X11273D1*
X12507D2*
X19961D1*
X20620D2*
X21355D1*
X29132D2*
X33039D1*
X4337Y7400D2*
X6246D1*
X6901D2*
X8023D1*
X10308D2*
X11293D1*
X12491D2*
X19961D1*
X20620D2*
X21375D1*
X29116D2*
X33039D1*
X4337Y7151D2*
X6246D1*
X20620D2*
X21519D1*
X22425D2*
X22613D1*
X23515D2*
X23703D1*
X24608D2*
X24793D1*
X25698D2*
X25883D1*
X26788D2*
X26973D1*
X27878D2*
X28066D1*
X28968D2*
X33039D1*
X4337Y6903D2*
X6269D1*
X20597D2*
X33039D1*
X4337Y6654D2*
X6492D1*
X20374D2*
X33039D1*
X4337Y6405D2*
X33039D1*
X4337Y6156D2*
X33039D1*
X4337Y5908D2*
X33039D1*
X4337Y5659D2*
X33039D1*
X4337Y5410D2*
X33039D1*
X4337Y5162D2*
X33039D1*
X4337Y4913D2*
X33039D1*
X4337Y4664D2*
X33039D1*
X4337Y4416D2*
X33039D1*
X27034Y12379D2*
X27715D1*
Y11495D1*
X27039D1*
X27047Y11431D1*
X27028Y11308D1*
X26972Y11197D1*
X26885Y11108D1*
X26775Y11050D1*
X26652Y11028D1*
X26529Y11045D1*
X26463Y11068D1*
X25928D1*
X25925Y10616D1*
X27761Y10617D1*
X27754Y10660D1*
X27620D1*
Y11466D1*
X28504Y11462D1*
X28690Y11466D1*
X28687Y12688D1*
Y12926D1*
X28581Y12901D1*
X28544Y12770D1*
X28495Y12706D1*
X28357Y12568D1*
X28249Y12500D1*
X28142Y12479D1*
X27048Y12476D1*
X26978Y12424D1*
X26913Y12397D1*
X26833Y12387D1*
X26712D1*
X26709Y12328D1*
X26795Y12243D1*
X26909Y12245D1*
Y12379D1*
X27034D1*
Y14129D2*
X27715D1*
Y14008D1*
X27840Y14063D1*
X27961Y14089D1*
X28019Y14083D1*
X28064Y14142D1*
X28202Y14280D1*
X28310Y14349D1*
X28417Y14369D1*
X29851D1*
X29852Y14743D1*
X31192D1*
X31173Y14795D1*
X31152Y14917D1*
X31165Y15041D1*
X31213Y15156D1*
X31291Y15254D1*
X31393Y15325D1*
X31511Y15366D1*
X31635Y15371D1*
X31756Y15342D1*
X31865Y15281D1*
X31951Y15191D1*
X32009Y15081D1*
X32036Y14931D1*
X32018Y14808D1*
X31967Y14694D1*
X31886Y14600D1*
X31782Y14531D1*
X31663Y14495D1*
X31538Y14493D1*
X31418Y14526D1*
X31309Y14594D1*
X31288Y14493D1*
X31284Y14017D1*
X31288Y13613D1*
X31291Y13521D1*
X31393Y13593D1*
X31511Y13633D1*
X31635Y13639D1*
X31756Y13610D1*
X31865Y13548D1*
X31951Y13459D1*
X32009Y13349D1*
X32036Y13199D1*
X32018Y13076D1*
X31967Y12962D1*
X31886Y12867D1*
X31782Y12799D1*
X31663Y12762D1*
X31538Y12760D1*
X31418Y12793D1*
X31312Y12858D1*
X31228Y12951D1*
X31172Y13066D1*
X31038Y13072D1*
X29852D1*
Y13115D1*
X29445Y13111D1*
X29332D1*
X29335Y12560D1*
Y11392D1*
X30392Y11393D1*
Y10615D1*
X32511Y10617D1*
X32497Y10628D1*
X32252D1*
Y11748D1*
X33061D1*
X33062Y24062D1*
X4312D1*
Y16527D1*
X4824Y16524D1*
X5050D1*
Y16364D1*
X5622Y16366D1*
X5620Y16465D1*
X6504Y16461D1*
X6757Y16465D1*
X7016D1*
Y15659D1*
X6973D1*
X6957Y15604D1*
X6901Y15493D1*
X6814Y15404D1*
X6704Y15346D1*
X6581Y15325D1*
X6458Y15342D1*
X6346Y15395D1*
X6255Y15481D1*
X6195Y15590D1*
X6181Y15663D1*
X6132D1*
X5879Y15659D1*
X5620D1*
Y15757D1*
X5051Y15758D1*
X5050Y15600D1*
X4312D1*
Y12152D1*
X4824Y12149D1*
X5050D1*
Y11989D1*
X5622Y11991D1*
X5620Y12090D1*
X6504Y12086D1*
X6757Y12090D1*
X7016D1*
Y11284D1*
X6879D1*
X6878Y7191D1*
X8153Y7192D1*
X8075Y7324D1*
X8036Y7442D1*
X8022Y7566D1*
X8036Y7694D1*
X7644Y7696D1*
X7519Y7723D1*
X7428Y7785D1*
X7291Y7923D1*
X7222Y8030D1*
X7202Y8138D1*
Y12553D1*
X7229Y12678D1*
X7291Y12768D1*
X7428Y12906D1*
X7536Y12975D1*
X7644Y12995D1*
X8343D1*
X8314Y13064D1*
X8303Y13144D1*
Y19140D1*
X8126Y19093D1*
X8001D1*
X7879Y19118D1*
X7765Y19169D1*
X7663Y19242D1*
X7580Y19334D1*
X7517Y19442D1*
X7478Y19561D1*
X7464Y19685D1*
X7477Y19809D1*
X7515Y19928D1*
X7577Y20036D1*
X7660Y20129D1*
X7760Y20203D1*
X7874Y20254D1*
X7996Y20281D1*
X8121Y20282D1*
X8243Y20257D1*
X8304Y20230D1*
X8303Y20288D1*
X8209Y20360D1*
X8125Y20452D1*
X8062Y20560D1*
X8023Y20679D1*
X8010Y20803D1*
X8022Y20927D1*
X8060Y21046D1*
X8122Y21154D1*
X8205Y21247D1*
X8306Y21321D1*
X8419Y21372D1*
X8541Y21399D1*
X8666Y21400D1*
X8788Y21375D1*
X8903Y21325D1*
X9004Y21252D1*
X9088Y21160D1*
X9151Y21052D1*
X9191Y20934D1*
X9205Y20805D1*
X9192Y20681D1*
X9153Y20562D1*
X9091Y20454D1*
X9008Y20361D1*
X8910Y20290D1*
X8965Y20254D1*
X9087Y20281D1*
X9211Y20282D1*
X9334Y20257D1*
X9448Y20207D1*
X9549Y20134D1*
X9633Y20042D1*
X9698Y19930D1*
X9758Y20036D1*
X9841Y20129D1*
X9942Y20203D1*
X10055Y20254D1*
X10177Y20281D1*
X10302Y20282D1*
X10424Y20257D1*
X10538Y20207D1*
X10640Y20134D1*
X10724Y20042D1*
X10788Y19930D1*
X10849Y20036D1*
X10932Y20129D1*
X11032Y20203D1*
X11146Y20254D1*
X11268Y20281D1*
X11392Y20282D1*
X11515Y20257D1*
X11629Y20207D1*
X11730Y20134D1*
X11828Y20018D1*
X11827Y20210D1*
X11696Y20236D1*
X11582Y20287D1*
X11480Y20360D1*
X11397Y20452D1*
X11333Y20564D1*
X11272Y20454D1*
X11189Y20361D1*
X11088Y20288D1*
X10974Y20237D1*
X10852Y20211D1*
X10727D1*
X10605Y20236D1*
X10491Y20287D1*
X10390Y20360D1*
X10306Y20452D1*
X10243Y20560D1*
X10204Y20679D1*
X10191Y20803D1*
X10203Y20927D1*
X10241Y21046D1*
X10303Y21154D1*
X10386Y21247D1*
X10487Y21321D1*
X10601Y21372D1*
X10722Y21399D1*
X10847Y21400D1*
X10969Y21375D1*
X11084Y21325D1*
X11185Y21252D1*
X11269Y21160D1*
X11334Y21049D1*
X11394Y21154D1*
X11477Y21247D1*
X11577Y21321D1*
X11691Y21372D1*
X11813Y21399D1*
X11938Y21400D1*
X12060Y21375D1*
X12174Y21325D1*
X12276Y21252D1*
X12360Y21160D1*
X12423Y21052D1*
X12462Y20934D1*
X12477Y20805D1*
X12464Y20681D1*
X12425Y20562D1*
X12363Y20454D1*
X12279Y20361D1*
X12168Y20283D1*
X13022Y20285D1*
Y19523D1*
X14761Y17781D1*
X17481Y15060D1*
X21373Y15062D1*
X21368Y15173D1*
X21304Y15222D1*
X21166Y15360D1*
X21097Y15467D1*
X21077Y15575D1*
Y16687D1*
X21102Y16809D1*
X21194Y16926D1*
X21214Y17028D1*
Y17346D1*
X23910D1*
Y16028D1*
X21687D1*
X21685Y15839D1*
X22254Y15840D1*
Y15203D1*
X23200Y15200D1*
X25109D1*
X25234Y15172D1*
X25258Y15187D1*
Y15299D1*
X25285Y15424D1*
X25347Y15514D1*
X25485Y15652D1*
X25592Y15721D1*
X25700Y15741D1*
X26118D1*
X26120Y15840D1*
X26280D1*
X26355Y15955D1*
X26485Y16026D1*
X24955Y16028D1*
Y17346D1*
X27650D1*
Y16975D1*
X27765Y16894D1*
X27836Y16767D1*
X27847Y16687D1*
Y15870D1*
X27819Y15745D1*
X27757Y15655D1*
X27620Y15517D1*
X27512Y15448D1*
X27405Y15428D1*
X27002D1*
X27004Y15034D1*
X26120D1*
Y15132D1*
X25863Y15133D1*
X25866Y14787D1*
X25925D1*
Y14001D1*
X26588Y13999D1*
X26676Y14011D1*
X26907D1*
X26909Y14129D1*
X27034D1*
X5050Y11379D2*
Y11225D1*
X4312D1*
Y4312D1*
X33062D1*
Y10136D1*
X33019Y10090D1*
X32909Y10025D1*
X32812Y10009D1*
X25624D1*
X25499Y10036D1*
X25424Y10083D1*
X25310Y10205D1*
X25281Y10258D1*
X25236Y10255D1*
Y9423D1*
X28631Y9422D1*
X28756Y9395D1*
X28846Y9333D1*
X28915Y9264D1*
X28996Y9281D1*
X29121Y9282D1*
X29243Y9257D1*
X29357Y9207D1*
X29459Y9134D1*
X29543Y9042D1*
X29606Y8934D1*
X29646Y8816D1*
X29660Y8687D1*
X29647Y8563D1*
X29608Y8444D1*
X29546Y8336D1*
X29462Y8243D1*
X29362Y8170D1*
X29248Y8119D1*
X29126Y8093D1*
X29001D1*
X28879Y8118D1*
X28765Y8169D1*
X28663Y8242D1*
X28580Y8334D1*
X28516Y8446D1*
X28455Y8336D1*
X28372Y8243D1*
X28271Y8170D1*
X28157Y8119D1*
X28035Y8093D1*
X27910D1*
X27788Y8118D1*
X27674Y8169D1*
X27573Y8242D1*
X27489Y8334D1*
X27425Y8446D1*
X27365Y8336D1*
X27281Y8243D1*
X27180Y8170D1*
X27066Y8119D1*
X26944Y8093D1*
X26820D1*
X26698Y8118D1*
X26584Y8169D1*
X26482Y8242D1*
X26399Y8334D1*
X26335Y8446D1*
X26274Y8336D1*
X26191Y8243D1*
X26090Y8170D1*
X25976Y8119D1*
X25854Y8093D1*
X25729D1*
X25607Y8118D1*
X25493Y8169D1*
X25392Y8242D1*
X25308Y8334D1*
X25244Y8446D1*
X25184Y8336D1*
X25100Y8243D1*
X24999Y8170D1*
X24885Y8119D1*
X24763Y8093D1*
X24639D1*
X24517Y8118D1*
X24402Y8169D1*
X24301Y8242D1*
X24217Y8334D1*
X24154Y8446D1*
X24093Y8336D1*
X24010Y8243D1*
X23909Y8170D1*
X23795Y8119D1*
X23673Y8093D1*
X23548D1*
X23426Y8118D1*
X23312Y8169D1*
X23211Y8242D1*
X23127Y8334D1*
X23063Y8446D1*
X23002Y8336D1*
X22919Y8243D1*
X22818Y8170D1*
X22704Y8119D1*
X22582Y8093D1*
X22458D1*
X22335Y8118D1*
X22221Y8169D1*
X22120Y8242D1*
X22036Y8334D1*
X21974Y8442D1*
X21935Y8561D1*
X21921Y8685D1*
X21934Y8809D1*
X21954Y8872D1*
X20593Y8873D1*
X20596Y8164D1*
Y7026D1*
X20569Y6901D1*
X20507Y6810D1*
X20369Y6673D1*
X20262Y6604D1*
X20154Y6584D1*
X6712D1*
X6587Y6611D1*
X6496Y6673D1*
X6359Y6810D1*
X6290Y6918D1*
X6270Y7026D1*
X6266Y11284D1*
X6132Y11288D1*
X5879Y11284D1*
X5620D1*
Y11382D1*
X5051Y11383D1*
X7809Y9285D2*
X7942D1*
Y10014D1*
X7969Y10139D1*
X8031Y10229D1*
X8169Y10367D1*
X8276Y10435D1*
X8384Y10456D1*
X22997D1*
X22994Y11066D1*
X22207Y11068D1*
Y11126D1*
X10521Y11127D1*
X10386Y11050D1*
X10263Y11028D1*
X10140Y11045D1*
X10028Y11099D1*
X9937Y11185D1*
X9877Y11294D1*
X9853Y11416D1*
X9857Y11443D1*
X9427Y11442D1*
X9296Y11365D1*
X9173Y11343D1*
X9050Y11360D1*
X8937Y11414D1*
X8847Y11500D1*
X8787Y11609D1*
X8763Y11731D1*
X8766Y11758D1*
X8341Y11757D1*
X8205Y11680D1*
X8082Y11658D1*
X7959Y11675D1*
X7847Y11729D1*
X7810Y11764D1*
Y9284D1*
X9709Y8441D2*
X9649Y8336D1*
X9566Y8243D1*
X9506Y8200D1*
X9645Y8163D1*
X9769Y8164D1*
X9892Y8138D1*
X10006Y8088D1*
X10107Y8016D1*
X10192Y7924D1*
X10255Y7816D1*
X10294Y7698D1*
X10308Y7569D1*
X10295Y7445D1*
X10257Y7326D1*
X10171Y7192D1*
X11426D1*
X11347Y7324D1*
X11308Y7442D1*
X11294Y7566D1*
X11307Y7691D1*
X11345Y7809D1*
X11407Y7918D1*
X11490Y8011D1*
X11587Y8083D1*
X11532Y8119D1*
X11410Y8093D1*
X11285D1*
X11163Y8118D1*
X11049Y8169D1*
X10948Y8242D1*
X10864Y8334D1*
X10800Y8446D1*
X10740Y8336D1*
X10656Y8243D1*
X10555Y8170D1*
X10441Y8119D1*
X10319Y8093D1*
X10195D1*
X10073Y8118D1*
X9958Y8169D1*
X9857Y8242D1*
X9774Y8334D1*
X9710Y8446D1*
X13022Y8563D2*
X12983Y8444D1*
X12921Y8336D1*
X12837Y8243D1*
X12736Y8170D1*
X12623Y8119D1*
X12501Y8093D1*
X12376D1*
X12254Y8118D1*
X12193Y8145D1*
X12288Y8016D1*
X12373Y7924D1*
X12436Y7816D1*
X12475Y7698D1*
X12489Y7569D1*
X12476Y7445D1*
X12438Y7326D1*
X12352Y7192D1*
X19989D1*
X19988Y9014D1*
X19599Y9011D1*
X12939D1*
X12981Y8934D1*
X13021Y8816D1*
X13035Y8687D1*
X13022Y8563D1*
X22518Y7323D2*
X22457Y7218D1*
X22374Y7125D1*
X22273Y7052D1*
X22159Y7001D1*
X22037Y6975D1*
X21912Y6974D1*
X21790Y7000D1*
X21676Y7051D1*
X21575Y7124D1*
X21491Y7216D1*
X21428Y7324D1*
X21389Y7442D1*
X21376Y7566D1*
X21388Y7691D1*
X21426Y7809D1*
X21488Y7918D1*
X21571Y8011D1*
X21672Y8085D1*
X21786Y8136D1*
X21907Y8163D1*
X22032Y8164D1*
X22154Y8138D1*
X22269Y8088D1*
X22370Y8016D1*
X22454Y7924D1*
X22519Y7812D1*
X22579Y7918D1*
X22662Y8011D1*
X22762Y8085D1*
X22876Y8136D1*
X22998Y8163D1*
X23123Y8164D1*
X23245Y8138D1*
X23359Y8088D1*
X23461Y8016D1*
X23545Y7924D1*
X23609Y7812D1*
X23669Y7918D1*
X23752Y8011D1*
X23853Y8085D1*
X23967Y8136D1*
X24089Y8163D1*
X24213Y8164D1*
X24336Y8138D1*
X24450Y8088D1*
X24551Y8016D1*
X24635Y7924D1*
X24700Y7812D1*
X24760Y7918D1*
X24843Y8011D1*
X24944Y8085D1*
X25057Y8136D1*
X25179Y8163D1*
X25304Y8164D1*
X25426Y8138D1*
X25540Y8088D1*
X25642Y8016D1*
X25726Y7924D1*
X25790Y7812D1*
X25850Y7918D1*
X25933Y8011D1*
X26034Y8085D1*
X26148Y8136D1*
X26270Y8163D1*
X26394Y8164D1*
X26517Y8138D1*
X26631Y8088D1*
X26732Y8016D1*
X26817Y7924D1*
X26881Y7812D1*
X26941Y7918D1*
X27024Y8011D1*
X27125Y8085D1*
X27238Y8136D1*
X27360Y8163D1*
X27485Y8164D1*
X27607Y8138D1*
X27721Y8088D1*
X27823Y8016D1*
X27907Y7924D1*
X27971Y7812D1*
X28032Y7918D1*
X28115Y8011D1*
X28215Y8085D1*
X28329Y8136D1*
X28451Y8163D1*
X28576Y8164D1*
X28698Y8138D1*
X28812Y8088D1*
X28913Y8016D1*
X28998Y7924D1*
X29061Y7816D1*
X29100Y7698D1*
X29114Y7569D1*
X29101Y7445D1*
X29063Y7326D1*
X29000Y7218D1*
X28917Y7125D1*
X28816Y7052D1*
X28702Y7001D1*
X28580Y6975D1*
X28456Y6974D1*
X28333Y7000D1*
X28219Y7051D1*
X28118Y7124D1*
X28034Y7216D1*
X27970Y7328D1*
X27910Y7218D1*
X27827Y7125D1*
X27726Y7052D1*
X27612Y7001D1*
X27490Y6975D1*
X27365Y6974D1*
X27243Y7000D1*
X27129Y7051D1*
X27028Y7124D1*
X26944Y7216D1*
X26880Y7328D1*
X26819Y7218D1*
X26736Y7125D1*
X26635Y7052D1*
X26521Y7001D1*
X26399Y6975D1*
X26274Y6974D1*
X26152Y7000D1*
X26038Y7051D1*
X25937Y7124D1*
X25853Y7216D1*
X25789Y7328D1*
X25729Y7218D1*
X25645Y7125D1*
X25545Y7052D1*
X25431Y7001D1*
X25309Y6975D1*
X25184Y6974D1*
X25062Y7000D1*
X24948Y7051D1*
X24847Y7124D1*
X24763Y7216D1*
X24699Y7328D1*
X24638Y7218D1*
X24555Y7125D1*
X24454Y7052D1*
X24340Y7001D1*
X24218Y6975D1*
X24093Y6974D1*
X23971Y7000D1*
X23857Y7051D1*
X23756Y7124D1*
X23672Y7216D1*
X23608Y7328D1*
X23548Y7218D1*
X23464Y7125D1*
X23363Y7052D1*
X23250Y7001D1*
X23128Y6975D1*
X23003Y6974D1*
X22881Y7000D1*
X22767Y7051D1*
X22665Y7124D1*
X22582Y7216D1*
X22518Y7328D1*
X28565Y19563D2*
X28526Y19444D1*
X28464Y19336D1*
X28381Y19243D1*
X28280Y19170D1*
X28166Y19119D1*
X28044Y19093D1*
X27919D1*
X27797Y19118D1*
X27683Y19169D1*
X27582Y19242D1*
X27498Y19334D1*
X27434Y19446D1*
X27374Y19336D1*
X27290Y19243D1*
X27189Y19170D1*
X27075Y19119D1*
X26953Y19093D1*
X26829D1*
X26706Y19118D1*
X26592Y19169D1*
X26491Y19242D1*
X26407Y19334D1*
X26343Y19446D1*
X26283Y19336D1*
X26200Y19243D1*
X26099Y19170D1*
X25985Y19119D1*
X25863Y19093D1*
X25738D1*
X25616Y19118D1*
X25502Y19169D1*
X25401Y19242D1*
X25317Y19334D1*
X25253Y19446D1*
X25192Y19336D1*
X25109Y19243D1*
X25008Y19170D1*
X24894Y19119D1*
X24772Y19093D1*
X24647D1*
X24525Y19118D1*
X24411Y19169D1*
X24310Y19242D1*
X24226Y19334D1*
X24162Y19446D1*
X24102Y19336D1*
X24018Y19243D1*
X23918Y19170D1*
X23804Y19119D1*
X23682Y19093D1*
X23557D1*
X23435Y19118D1*
X23321Y19169D1*
X23220Y19242D1*
X23136Y19334D1*
X23072Y19446D1*
X23011Y19336D1*
X22928Y19243D1*
X22827Y19170D1*
X22713Y19119D1*
X22591Y19093D1*
X22466D1*
X22344Y19118D1*
X22230Y19169D1*
X22129Y19242D1*
X22045Y19334D1*
X21981Y19446D1*
X21921Y19336D1*
X21837Y19243D1*
X21736Y19170D1*
X21623Y19119D1*
X21501Y19093D1*
X21376D1*
X21254Y19118D1*
X21140Y19169D1*
X21038Y19242D1*
X20955Y19334D1*
X20892Y19442D1*
X20853Y19561D1*
X20839Y19685D1*
X20852Y19809D1*
X20890Y19928D1*
X20952Y20036D1*
X21035Y20129D1*
X21135Y20203D1*
X21249Y20254D1*
X21371Y20281D1*
X21496Y20282D1*
X21618Y20257D1*
X21732Y20207D1*
X21834Y20134D1*
X21918Y20042D1*
X21982Y19930D1*
X22042Y20036D1*
X22125Y20129D1*
X22226Y20203D1*
X22340Y20254D1*
X22462Y20281D1*
X22586Y20282D1*
X22709Y20257D1*
X22823Y20207D1*
X22924Y20134D1*
X23008Y20042D1*
X23073Y19930D1*
X23133Y20036D1*
X23216Y20129D1*
X23317Y20203D1*
X23430Y20254D1*
X23552Y20281D1*
X23677Y20282D1*
X23799Y20257D1*
X23913Y20207D1*
X24015Y20134D1*
X24099Y20042D1*
X24163Y19930D1*
X24223Y20036D1*
X24307Y20129D1*
X24407Y20203D1*
X24521Y20254D1*
X24643Y20281D1*
X24767Y20282D1*
X24890Y20257D1*
X25004Y20207D1*
X25105Y20134D1*
X25190Y20042D1*
X25254Y19930D1*
X25314Y20036D1*
X25397Y20129D1*
X25498Y20203D1*
X25611Y20254D1*
X25733Y20281D1*
X25858Y20282D1*
X25980Y20257D1*
X26095Y20207D1*
X26196Y20134D1*
X26280Y20042D1*
X26345Y19930D1*
X26405Y20036D1*
X26488Y20129D1*
X26588Y20203D1*
X26702Y20254D1*
X26824Y20281D1*
X26949Y20282D1*
X27071Y20257D1*
X27185Y20207D1*
X27287Y20134D1*
X27371Y20042D1*
X27435Y19930D1*
X27495Y20036D1*
X27578Y20129D1*
X27679Y20203D1*
X27792Y20254D1*
X27914Y20281D1*
X28039Y20282D1*
X28161Y20257D1*
X28276Y20207D1*
X28377Y20134D1*
X28461Y20042D1*
X28524Y19934D1*
X28564Y19816D1*
X28578Y19687D1*
X28565Y19563D1*
X29110Y20681D2*
X29072Y20562D1*
X29009Y20454D1*
X28926Y20361D1*
X28825Y20288D1*
X28711Y20237D1*
X28589Y20211D1*
X28464D1*
X28342Y20236D1*
X28228Y20287D1*
X28127Y20360D1*
X28043Y20452D1*
X27979Y20564D1*
X27919Y20454D1*
X27835Y20361D1*
X27735Y20288D1*
X27621Y20237D1*
X27499Y20211D1*
X27374D1*
X27252Y20236D1*
X27138Y20287D1*
X27036Y20360D1*
X26953Y20452D1*
X26889Y20564D1*
X26828Y20454D1*
X26745Y20361D1*
X26644Y20288D1*
X26530Y20237D1*
X26408Y20211D1*
X26283D1*
X26161Y20236D1*
X26047Y20287D1*
X25946Y20360D1*
X25862Y20452D1*
X25798Y20564D1*
X25738Y20454D1*
X25654Y20361D1*
X25553Y20288D1*
X25440Y20237D1*
X25318Y20211D1*
X25193D1*
X25071Y20236D1*
X24957Y20287D1*
X24855Y20360D1*
X24772Y20452D1*
X24708Y20564D1*
X24647Y20454D1*
X24564Y20361D1*
X24463Y20288D1*
X24349Y20237D1*
X24227Y20211D1*
X24102D1*
X23980Y20236D1*
X23866Y20287D1*
X23765Y20360D1*
X23681Y20452D1*
X23617Y20564D1*
X23557Y20454D1*
X23473Y20361D1*
X23372Y20288D1*
X23258Y20237D1*
X23136Y20211D1*
X23012D1*
X22890Y20236D1*
X22775Y20287D1*
X22674Y20360D1*
X22590Y20452D1*
X22527Y20564D1*
X22466Y20454D1*
X22383Y20361D1*
X22282Y20288D1*
X22168Y20237D1*
X22046Y20211D1*
X21921D1*
X21799Y20236D1*
X21685Y20287D1*
X21584Y20360D1*
X21500Y20452D1*
X21437Y20560D1*
X21398Y20679D1*
X21385Y20803D1*
X21397Y20927D1*
X21435Y21046D1*
X21497Y21154D1*
X21580Y21247D1*
X21681Y21321D1*
X21794Y21372D1*
X21916Y21399D1*
X22041Y21400D1*
X22163Y21375D1*
X22278Y21325D1*
X22379Y21252D1*
X22463Y21160D1*
X22528Y21049D1*
X22588Y21154D1*
X22671Y21247D1*
X22771Y21321D1*
X22885Y21372D1*
X23007Y21399D1*
X23132Y21400D1*
X23254Y21375D1*
X23368Y21325D1*
X23470Y21252D1*
X23554Y21160D1*
X23618Y21049D1*
X23678Y21154D1*
X23761Y21247D1*
X23862Y21321D1*
X23975Y21372D1*
X24097Y21399D1*
X24222Y21400D1*
X24344Y21375D1*
X24459Y21325D1*
X24560Y21252D1*
X24644Y21160D1*
X24709Y21049D1*
X24769Y21154D1*
X24852Y21247D1*
X24952Y21321D1*
X25066Y21372D1*
X25188Y21399D1*
X25313Y21400D1*
X25435Y21375D1*
X25549Y21325D1*
X25651Y21252D1*
X25735Y21160D1*
X25799Y21049D1*
X25859Y21154D1*
X25942Y21247D1*
X26043Y21321D1*
X26157Y21372D1*
X26278Y21399D1*
X26403Y21400D1*
X26525Y21375D1*
X26640Y21325D1*
X26741Y21252D1*
X26825Y21160D1*
X26890Y21049D1*
X26950Y21154D1*
X27033Y21247D1*
X27133Y21321D1*
X27247Y21372D1*
X27369Y21399D1*
X27494Y21400D1*
X27616Y21375D1*
X27730Y21325D1*
X27832Y21252D1*
X27916Y21160D1*
X27980Y21049D1*
X28040Y21154D1*
X28123Y21247D1*
X28224Y21321D1*
X28338Y21372D1*
X28460Y21399D1*
X28584Y21400D1*
X28707Y21375D1*
X28821Y21325D1*
X28922Y21252D1*
X29006Y21160D1*
X29070Y21052D1*
X29109Y20934D1*
X29123Y20805D1*
X29110Y20681D1*
X12588Y19089D2*
X12362D1*
X16529Y14922D1*
X16756Y14924D1*
X12589Y19092D1*
X11477Y19110D2*
X11397Y19093D1*
X11269D1*
X15869Y14491D1*
X16097Y14493D1*
X11482Y19109D1*
X10387Y19110D2*
X10307Y19093D1*
X10178D1*
X15331Y13939D1*
X15567Y13940D1*
X15351Y14149D1*
X10393Y19107D1*
X9296Y19110D2*
X9216Y19093D1*
X9091D1*
X8969Y19118D1*
X8909Y19145D1*
X8912Y17930D1*
Y13309D1*
X13476Y13310D1*
X13494Y13429D1*
X13546Y13543D1*
X13629Y13635D1*
X13737Y13697D1*
X13859Y13723D1*
X13983Y13711D1*
X14097Y13661D1*
X14141Y13623D1*
X14784Y13625D1*
X9301Y19108D1*
X25161Y13587D2*
X25021D1*
X25001Y13473D1*
X24945Y13362D1*
X24858Y13273D1*
X24747Y13215D1*
X24625Y13194D1*
X24501Y13211D1*
X24389Y13265D1*
X24299Y13350D1*
X24239Y13459D1*
X24215Y13585D1*
X23939Y13587D1*
X23407D1*
X23406Y12958D1*
Y12328D1*
Y11698D1*
Y11481D1*
X23909Y11479D1*
X23914Y11520D1*
X23966Y11633D1*
X24050Y11725D1*
X24158Y11787D1*
X24279Y11813D1*
X24403Y11801D1*
X24518Y11752D1*
X24611Y11670D1*
X24675Y11563D1*
X24696Y11476D1*
X24882Y11479D1*
X24845Y11633D1*
X24859Y11757D1*
X24911Y11870D1*
X24995Y11962D1*
X25103Y12024D1*
X25224Y12050D1*
X25306Y12042D1*
X25437Y12122D1*
X25517Y12139D1*
X25514Y12424D1*
Y12920D1*
X25355Y12935D1*
X25242Y12989D1*
X25152Y13074D1*
X25092Y13184D1*
X25068Y13306D1*
X25083Y13429D1*
X25134Y13543D1*
X25153Y13563D1*
X24214Y13587D2*
X23624Y13591D1*
X23404Y13587D1*
X23402Y13272D1*
X23406Y12869D1*
X23402Y12643D1*
X23406Y12299D1*
X23404Y11479D1*
X23721Y11476D1*
X23874Y11479D1*
X13448Y12387D2*
X13426Y12366D1*
X22204Y12365D1*
X22181Y12387D1*
X13451D1*
X12927D2*
X8310D1*
X8450Y12365D1*
X12954D1*
D16*
X27312Y11937D3*
Y12449D3*
Y13687D3*
Y14199D3*
D17*
X21812Y15437D3*
X22324D3*
X26562D3*
X27074D3*
D18*
X29812Y10813D3*
D19*
Y9813D3*
D21*
X30570Y13435D3*
Y13750D3*
Y14065D3*
Y14380D3*
Y14695D3*
D22*
X30609Y12313D3*
Y15817D3*
X32775Y12313D3*
Y15817D3*
D23*
X4499Y16062D3*
Y16692D3*
Y11687D3*
Y12317D3*
D24*
X8075Y8687D3*
D25*
X32812Y11188D3*
D26*
X9165Y8687D3*
X10256D3*
X11346D3*
X12437D3*
X8620Y7569D3*
X9711D3*
X10801D3*
X11892D3*
D27*
X5337Y8128D3*
X15175D3*
D24*
X21428Y8687D3*
D26*
X22519D3*
X23609D3*
X24700D3*
X25790D3*
X26881D3*
X27971D3*
X29062D3*
X21973Y7569D3*
X23064D3*
X24155D3*
X25245D3*
X26336D3*
X27426D3*
X28517D3*
D28*
X18686Y8128D3*
X31804D3*
D24*
X29071Y19687D3*
D26*
X27980D3*
X26890D3*
X25799D3*
X24709D3*
X23618D3*
X22528D3*
X21437D3*
X28526Y20805D3*
X27435D3*
X26344D3*
X25254D3*
X24163D3*
X23073D3*
X21982D3*
D28*
X31813Y20246D3*
X18695D3*
D24*
X12424Y19687D3*
D26*
X11334D3*
X10243D3*
X9153D3*
X8062D3*
X11879Y20805D3*
X10788D3*
X9698D3*
X8607D3*
D27*
X15162Y20246D3*
X5324D3*
D17*
X6062Y16062D3*
X6574D3*
X6062Y11687D3*
X6574D3*
X28062Y11063D3*
X28574D3*
D30*
X25562Y14187D3*
X25247D3*
X24932D3*
X24617D3*
X24302D3*
X23987D3*
X23672D3*
X23357D3*
D31*
X22806Y13636D3*
Y13321D3*
Y13006D3*
Y12691D3*
Y12376D3*
Y12061D3*
Y11746D3*
Y11431D3*
D30*
X23357Y10880D3*
X23672D3*
X23987D3*
X24302D3*
X24617D3*
X24932D3*
X25247D3*
X25562D3*
D31*
X26113Y11431D3*
Y11746D3*
Y12061D3*
Y12376D3*
Y12691D3*
Y13006D3*
Y13321D3*
Y13636D3*
D33*
X22562Y16687D3*
X26302D3*
M02*
