G04 DipTrace 3.2.0.1*
G04 TopMask.gbr*
%MOIN*%
G04 #@! TF.FileFunction,Soldermask,Top*
G04 #@! TF.Part,Single*
%ADD35C,0.035433*%
%ADD40R,0.224409X0.086614*%
%ADD42R,0.074803X0.027559*%
%ADD44R,0.027559X0.074803*%
%ADD46C,0.19685*%
%ADD48C,0.195276*%
%ADD50C,0.074409*%
%ADD52R,0.066929X0.066929*%
%ADD54R,0.074409X0.074409*%
%ADD56R,0.064961X0.047244*%
%ADD58R,0.106299X0.086614*%
%ADD60R,0.098425X0.027559*%
%ADD62C,0.070866*%
%ADD64R,0.070866X0.070866*%
%ADD66R,0.043307X0.035433*%
%ADD68R,0.035433X0.043307*%
%FSLAX26Y26*%
G04*
G70*
G90*
G75*
G01*
G04 TopMask*
%LPD*%
D68*
X2731201Y1193701D3*
Y1244882D3*
X2712415Y1368827D3*
Y1420008D3*
D66*
X2181201Y1543701D3*
X2232382D3*
X2656201D3*
X2707382D3*
D64*
X2981193Y1081297D3*
D62*
Y981297D3*
D60*
X3056988Y1343504D3*
Y1375000D3*
Y1406496D3*
Y1437992D3*
Y1469488D3*
D58*
X3060925Y1231299D3*
Y1581693D3*
X3277461Y1231299D3*
Y1581693D3*
D35*
X3159350Y1319900D3*
Y1493129D3*
D56*
X449945Y1606201D3*
Y1669193D3*
Y1168701D3*
Y1231693D3*
D54*
X807479Y868701D3*
D52*
X3281224Y1118801D3*
D50*
X916534Y868701D3*
X1025589D3*
X1134644D3*
X1243699D3*
X862007Y756890D3*
X971062D3*
X1080117D3*
X1189172D3*
D48*
X533660Y812795D3*
X1517518D3*
D54*
X2142815Y868701D3*
D50*
X2251870D3*
X2360925D3*
X2469980D3*
X2579035D3*
X2688091D3*
X2797146D3*
X2906201D3*
X2197343Y756890D3*
X2306398D3*
X2415453D3*
X2524508D3*
X2633563D3*
X2742618D3*
X2851673D3*
D46*
X1868602Y812795D3*
X3180413D3*
D54*
X2907085Y1968701D3*
D50*
X2798030D3*
X2688975D3*
X2579920D3*
X2470865D3*
X2361810D3*
X2252755D3*
X2143699D3*
X2852558Y2080512D3*
X2743503D3*
X2634448D3*
X2525392D3*
X2416337D3*
X2307282D3*
X2198227D3*
D46*
X3181298Y2024606D3*
X1869487D3*
D54*
X1242421Y1968701D3*
D50*
X1133366D3*
X1024311D3*
X915256D3*
X806201D3*
X1187894Y2080512D3*
X1078839D3*
X969783D3*
X860728D3*
D48*
X1516240Y2024606D3*
X532382D3*
D66*
X606201Y1606201D3*
X657382D3*
X606201Y1168701D3*
X657382D3*
X2806175Y1106299D3*
X2857356D3*
D44*
X2556201Y1418701D3*
X2524705D3*
X2493209D3*
X2461713D3*
X2430217D3*
X2398720D3*
X2367224D3*
X2335728D3*
D42*
X2280610Y1363583D3*
Y1332087D3*
Y1300591D3*
Y1269094D3*
Y1237598D3*
Y1206102D3*
Y1174606D3*
Y1143110D3*
D44*
X2335728Y1087992D3*
X2367224D3*
X2398720D3*
X2430217D3*
X2461713D3*
X2493209D3*
X2524705D3*
X2556201D3*
D42*
X2611319Y1143110D3*
Y1174606D3*
Y1206102D3*
Y1237598D3*
Y1269094D3*
Y1300591D3*
Y1332087D3*
Y1363583D3*
D40*
X2256201Y1668701D3*
X2630217D3*
D66*
X2856180Y1393829D3*
X2907361D3*
X2856180Y1350075D3*
X2907361D3*
M02*
