G04 DipTrace 2.4.0.2*
%INTopMask.gbr*%
%MOIN*%
%ADD35C,0.0354*%
%ADD39R,0.2244X0.0866*%
%ADD41R,0.0748X0.0276*%
%ADD43R,0.0276X0.0748*%
%ADD45C,0.1969*%
%ADD47C,0.1953*%
%ADD49C,0.0744*%
%ADD51R,0.0669X0.0669*%
%ADD53R,0.0744X0.0744*%
%ADD55R,0.065X0.0472*%
%ADD57R,0.1063X0.0866*%
%ADD59R,0.0984X0.0276*%
%ADD61C,0.0709*%
%ADD63R,0.0709X0.0709*%
%ADD65R,0.0433X0.0354*%
%ADD67R,0.0354X0.0433*%
%FSLAX44Y44*%
G04*
G70*
G90*
G75*
G01*
%LNTopMask*%
%LPD*%
D67*
X27312Y11937D3*
Y12449D3*
Y13687D3*
Y14199D3*
D65*
X21812Y15437D3*
X22324D3*
X26562D3*
X27074D3*
D63*
X29812Y10813D3*
D61*
Y9813D3*
D59*
X30570Y13435D3*
Y13750D3*
Y14065D3*
Y14380D3*
Y14695D3*
D57*
X30609Y12313D3*
Y15817D3*
X32775Y12313D3*
Y15817D3*
D35*
X31594Y13199D3*
Y14931D3*
D55*
X4499Y16062D3*
Y16692D3*
Y11687D3*
Y12317D3*
D53*
X8075Y8687D3*
D51*
X32812Y11188D3*
D49*
X9165Y8687D3*
X10256D3*
X11346D3*
X12437D3*
X8620Y7569D3*
X9711D3*
X10801D3*
X11892D3*
D47*
X5337Y8128D3*
X15175D3*
D53*
X21428Y8687D3*
D49*
X22519D3*
X23609D3*
X24700D3*
X25790D3*
X26881D3*
X27971D3*
X29062D3*
X21973Y7569D3*
X23064D3*
X24155D3*
X25245D3*
X26336D3*
X27426D3*
X28517D3*
D45*
X18686Y8128D3*
X31804D3*
D53*
X29071Y19687D3*
D49*
X27980D3*
X26890D3*
X25799D3*
X24709D3*
X23618D3*
X22528D3*
X21437D3*
X28526Y20805D3*
X27435D3*
X26344D3*
X25254D3*
X24163D3*
X23073D3*
X21982D3*
D45*
X31813Y20246D3*
X18695D3*
D53*
X12424Y19687D3*
D49*
X11334D3*
X10243D3*
X9153D3*
X8062D3*
X11879Y20805D3*
X10788D3*
X9698D3*
X8607D3*
D47*
X15162Y20246D3*
X5324D3*
D65*
X6062Y16062D3*
X6574D3*
X6062Y11687D3*
X6574D3*
X28062Y11063D3*
X28574D3*
D43*
X25562Y14187D3*
X25247D3*
X24932D3*
X24617D3*
X24302D3*
X23987D3*
X23672D3*
X23357D3*
D41*
X22806Y13636D3*
Y13321D3*
Y13006D3*
Y12691D3*
Y12376D3*
Y12061D3*
Y11746D3*
Y11431D3*
D43*
X23357Y10880D3*
X23672D3*
X23987D3*
X24302D3*
X24617D3*
X24932D3*
X25247D3*
X25562D3*
D41*
X26113Y11431D3*
Y11746D3*
Y12061D3*
Y12376D3*
Y12691D3*
Y13006D3*
Y13321D3*
Y13636D3*
D39*
X22562Y16687D3*
X26302D3*
M02*
