G04 DipTrace 4.0.0.5*
G04 TopMask.gbr*
%MOIN*%
G04 #@! TF.FileFunction,Soldermask,Top*
G04 #@! TF.Part,Single*
%ADD19R,0.03937X0.043307*%
%ADD48R,0.13189X0.088583*%
%ADD50R,0.041339X0.088583*%
%ADD52R,0.015748X0.066929*%
%ADD54R,0.066929X0.015748*%
%ADD56R,0.094488X0.151575*%
%ADD58R,0.066929X0.110236*%
%ADD60R,0.066929X0.098425*%
%ADD62R,0.057087X0.019685*%
%ADD64C,0.070866*%
%ADD66R,0.070866X0.070866*%
%ADD68C,0.191339*%
%ADD70C,0.192913*%
%ADD72C,0.070472*%
%ADD74R,0.070472X0.070472*%
%ADD76R,0.043307X0.043307*%
%ADD78R,0.031496X0.03937*%
%ADD80R,0.03937X0.031496*%
%ADD82R,0.043307X0.047244*%
%FSLAX26Y26*%
G04*
G70*
G90*
G75*
G01*
G04 TopMask*
%LPD*%
D82*
X2985804Y1547927D3*
Y1480997D3*
X2412451Y1828987D3*
Y1895916D3*
D80*
X1833101Y1868701D3*
X1884282D3*
D78*
X1708692Y1543110D3*
Y1594291D3*
X2208692Y1763041D3*
Y1711860D3*
D80*
X2084282Y1381201D3*
X2033101D3*
D78*
X1633692Y1518110D3*
Y1569291D3*
Y1819291D3*
Y1768110D3*
D76*
X783692Y1569882D3*
Y1619094D3*
Y1668307D3*
Y1717520D3*
D74*
X2850394Y2212795D3*
D72*
X2741339D3*
X2632283D3*
X2523228D3*
X2414173D3*
X2305118D3*
X2196063D3*
X2087008D3*
X2795866Y2324606D3*
X2686811D3*
X2577756D3*
X2468701D3*
X2359646D3*
X2250591D3*
X2141535D3*
D70*
X3124606Y2268701D3*
X1812795D3*
D74*
X1236811Y2212795D3*
D72*
X1127756D3*
X1018701D3*
X909646D3*
X800591D3*
X1182283Y2324606D3*
X1073228D3*
X964173D3*
X855118D3*
D68*
X526772Y2268700D3*
X1510630D3*
D74*
X812008Y1074606D3*
D72*
X921063D3*
X1030118D3*
X1139173D3*
X1248228D3*
X1357283D3*
X1466339D3*
X1575394D3*
X866535Y962795D3*
X975591D3*
X1084646D3*
X1193701D3*
X1302756D3*
X1411811D3*
X1520866D3*
D70*
X537795Y1018701D3*
X1849606D3*
D74*
X2425591Y1074607D3*
D72*
X2534646D3*
X2643701D3*
X2752756D3*
X2861811D3*
X2480118Y962796D3*
X2589173D3*
X2698228D3*
X2807283D3*
D68*
X3135630Y1018701D3*
X2151772D3*
D66*
X1339942Y1387451D3*
D64*
Y1487451D3*
Y1587451D3*
Y1687451D3*
Y1787451D3*
Y1887451D3*
D62*
X3100444Y1592520D3*
Y1618110D3*
Y1643701D3*
Y1669291D3*
Y1694882D3*
D60*
X3111270Y1527559D3*
Y1759843D3*
D58*
X3219538Y1506890D3*
Y1780512D3*
D56*
X3205759Y1643701D3*
D80*
X2334282Y1624950D3*
X2283101D3*
X2334282Y1674950D3*
X2283101D3*
X2850541Y1681201D3*
X2799360D3*
D78*
X2331201Y2025541D3*
Y1974360D3*
D80*
X1100541Y1187451D3*
X1049360D3*
D78*
X1424950Y1713042D3*
Y1661861D3*
D54*
X1793337Y1733218D3*
Y1713533D3*
Y1693848D3*
Y1674163D3*
Y1654478D3*
Y1634793D3*
Y1615108D3*
Y1595423D3*
Y1575738D3*
Y1556052D3*
Y1536367D3*
Y1516682D3*
D52*
X1850424Y1459596D3*
X1870109D3*
X1889794D3*
X1909479D3*
X1929164D3*
X1948849D3*
X1968534D3*
X1988219D3*
X2007904D3*
X2027589D3*
X2047274D3*
X2066959D3*
D54*
X2124046Y1516682D3*
Y1536367D3*
Y1556052D3*
Y1575738D3*
Y1595423D3*
Y1615108D3*
Y1634793D3*
Y1654478D3*
Y1674163D3*
Y1693848D3*
Y1713533D3*
Y1733218D3*
D52*
X2066959Y1790304D3*
X2047274D3*
X2027589D3*
X2007904D3*
X1988219D3*
X1968534D3*
X1948849D3*
X1929164D3*
X1909479D3*
X1889794D3*
X1870109D3*
X1850424D3*
D50*
X2590650Y1817028D3*
X2681201D3*
X2771752D3*
D48*
X2681201Y2045374D3*
D19*
X1632314Y1700197D3*
Y1637205D3*
X1585070Y1700197D3*
Y1637205D3*
M02*
