G04 DipTrace 4.0.0.5*
G04 TopPaste.gbr*
%MOIN*%
G04 #@! TF.FileFunction,Paste,Top*
G04 #@! TF.Part,Single*
%ADD38R,0.035433X0.03937*%
%ADD47R,0.031496X0.035433*%
%ADD49R,0.124016X0.080709*%
%ADD51R,0.033465X0.080709*%
%ADD53R,0.007874X0.059055*%
%ADD55R,0.059055X0.007874*%
%ADD57R,0.086614X0.143701*%
%ADD59R,0.059055X0.102362*%
%ADD61R,0.059055X0.090551*%
%ADD63R,0.049213X0.011811*%
%ADD79R,0.023622X0.031496*%
%ADD81R,0.031496X0.023622*%
%FSLAX26Y26*%
G04*
G70*
G90*
G75*
G01*
G04 TopPaste*
%LPD*%
D38*
X2985804Y1547927D3*
Y1480997D3*
X2412451Y1828987D3*
Y1895916D3*
D81*
X1833101Y1868701D3*
X1884282D3*
D79*
X1708692Y1543110D3*
Y1594291D3*
X2208692Y1763041D3*
Y1711860D3*
D81*
X2084282Y1381201D3*
X2033101D3*
D79*
X1633692Y1518110D3*
Y1569291D3*
Y1819291D3*
Y1768110D3*
D63*
X3100444Y1592520D3*
Y1618110D3*
Y1643701D3*
Y1669291D3*
Y1694882D3*
D61*
X3111270Y1527559D3*
Y1759843D3*
D59*
X3219538Y1506890D3*
Y1780512D3*
D57*
X3205759Y1643701D3*
D81*
X2334282Y1624950D3*
X2283101D3*
X2334282Y1674950D3*
X2283101D3*
X2850541Y1681201D3*
X2799360D3*
D79*
X2331201Y2025541D3*
Y1974360D3*
D81*
X1100541Y1187451D3*
X1049360D3*
D79*
X1424950Y1713042D3*
Y1661861D3*
D55*
X1793337Y1733218D3*
Y1713533D3*
Y1693848D3*
Y1674163D3*
Y1654478D3*
Y1634793D3*
Y1615108D3*
Y1595423D3*
Y1575738D3*
Y1556052D3*
Y1536367D3*
Y1516682D3*
D53*
X1850424Y1459596D3*
X1870109D3*
X1889794D3*
X1909479D3*
X1929164D3*
X1948849D3*
X1968534D3*
X1988219D3*
X2007904D3*
X2027589D3*
X2047274D3*
X2066959D3*
D55*
X2124046Y1516682D3*
Y1536367D3*
Y1556052D3*
Y1575738D3*
Y1595423D3*
Y1615108D3*
Y1634793D3*
Y1654478D3*
Y1674163D3*
Y1693848D3*
Y1713533D3*
Y1733218D3*
D53*
X2066959Y1790304D3*
X2047274D3*
X2027589D3*
X2007904D3*
X1988219D3*
X1968534D3*
X1948849D3*
X1929164D3*
X1909479D3*
X1889794D3*
X1870109D3*
X1850424D3*
D51*
X2590650Y1817028D3*
X2681201D3*
X2771752D3*
D49*
X2681201Y2045374D3*
D47*
X1632314Y1700197D3*
Y1637205D3*
X1585070Y1700197D3*
Y1637205D3*
M02*
