G04 DipTrace 4.0.0.5*
G04 TopSilk.gbr*
%MOIN*%
G04 #@! TF.FileFunction,Legend,Top*
G04 #@! TF.Part,Single*
%ADD10C,0.009843*%
%ADD37C,0.003937*%
%ADD83C,0.00772*%
%ADD84C,0.006562*%
%ADD85C,0.009264*%
%ADD87C,0.008749*%
%FSLAX26Y26*%
G04*
G70*
G90*
G75*
G01*
G04 TopSilk*
%LPD*%
X845633Y1473520D2*
D10*
X721751D1*
X845633D2*
G03X721751Y1473520I-61941J170181D01*
G01*
X1813583Y2853494D2*
G02X1912795Y2853494I49606J-50111D01*
G01*
X1712795D2*
G02X1813583Y2853494I50394J-52056D01*
G01*
Y2669936D2*
G02X1712795Y2669936I-50394J52061D01*
G01*
X1912795D2*
G02X1813583Y2669936I-49606J50115D01*
G01*
X3123819Y2853494D2*
G02X3224606Y2853494I50394J-52056D01*
G01*
X3024606D2*
G02X3123819Y2853494I49606J-50111D01*
G01*
Y2669936D2*
G02X3024606Y2669936I-49606J50115D01*
G01*
X3224606D2*
G02X3123819Y2669936I-50394J52061D01*
G01*
X2933268Y2878988D2*
G02X2960039Y2851309I-357J-27132D01*
G01*
X1977362D2*
G02X2004134Y2878988I27129J548D01*
G01*
X2988386Y2642984D2*
G02X2960039Y2670664I1547J29939D01*
G01*
X1977362D2*
G02X1949016Y2642984I-29894J2259D01*
G01*
X1912795Y2669936D2*
X1887598Y2645169D1*
X1912795Y2669936D2*
Y2853494D1*
Y2854222D2*
X1887598Y2878988D1*
X1737992D1*
X1712795Y2854222D1*
Y2803962D2*
Y2811975D1*
Y2669936D2*
Y2853494D1*
X1737992Y2645169D2*
X1712795Y2669936D1*
X1813583D2*
Y2853494D1*
X3224606Y2669936D2*
X3199409Y2645169D1*
X3224606Y2669936D2*
Y2853494D1*
Y2854222D2*
X3199409Y2878988D1*
X3049803D1*
X3024606Y2854222D1*
Y2803962D2*
Y2811975D1*
Y2669936D2*
Y2853494D1*
X3049803Y2645169D2*
X3024606Y2669936D1*
X3123819D2*
Y2853494D1*
X1681299Y2150582D2*
Y2642984D1*
X3256102Y2150582D2*
Y2642984D1*
X1977362Y2670664D2*
Y2851309D1*
X2960039Y2670664D2*
Y2851309D1*
X2933268Y2878988D2*
X2004134D1*
X3256102Y2150582D2*
X1681299D1*
X2029331D2*
Y2524983D1*
X3256102Y2642984D2*
X1681299D1*
X2908071Y2150582D2*
Y2524983D1*
X3256102D2*
X1681299D1*
X642795Y2642784D2*
G03X669472Y2670312I623J26086D01*
G01*
X697362Y2878950D2*
G03X669472Y2851422I203J-28098D01*
G01*
X1367929Y2670312D2*
G03X1394606Y2642784I26054J-1441D01*
G01*
X1367929Y2851422D2*
G03X1340039Y2878950I-28093J-570D01*
G01*
X526386Y2853595D2*
G03X426953Y2853595I-49717J-50788D01*
G01*
X627031D2*
G03X526386Y2853595I-50323J-52274D01*
G01*
Y2670312D2*
G03X627031Y2670312I50323J49760D01*
G01*
X426953D2*
G03X526386Y2670312I49717J48325D01*
G01*
X1511016Y2853595D2*
G03X1410370Y2853595I-50323J-52274D01*
G01*
X1610449D2*
G03X1511016Y2853595I-49717J-50788D01*
G01*
Y2670312D2*
G03X1610449Y2670312I49717J48325D01*
G01*
X1410370D2*
G03X1511016Y2670312I50323J49760D01*
G01*
X1625000Y2524700D2*
X412402D1*
X1625000Y2642784D2*
Y2154514D1*
X412402Y2642784D2*
Y2154514D1*
X1340039Y2878950D2*
X697362D1*
X1625000Y2154514D2*
X412402D1*
X1293961Y2524700D2*
Y2154514D1*
X1625000Y2642784D2*
X412402D1*
X743441Y2524700D2*
Y2154514D1*
X669472Y2851422D2*
Y2670312D1*
X1367929Y2851422D2*
Y2670312D1*
X451205Y2644958D2*
X426953Y2670312D1*
Y2853595D2*
Y2670312D1*
X451205Y2878950D2*
X426953Y2853595D1*
X601567Y2878950D2*
X451205D1*
X627031Y2853595D2*
X601567Y2878950D1*
X627031Y2811578D2*
Y2803609D1*
Y2853595D2*
Y2670312D1*
X601567Y2644958D1*
X526386Y2853595D2*
Y2670312D1*
X1435835Y2644958D2*
X1410370Y2670312D1*
Y2853595D2*
Y2670312D1*
X1435835Y2878950D2*
X1410370Y2853595D1*
X1586197Y2878950D2*
X1435835D1*
X1610449Y2853595D2*
X1586197Y2878950D1*
X1610449Y2811578D2*
Y2803609D1*
Y2853595D2*
Y2670312D1*
X1586197Y2644958D1*
X1511016Y2853595D2*
Y2670312D1*
X1848819Y433908D2*
G02X1749606Y433908I-49606J50111D01*
G01*
X1949606D2*
G02X1848819Y433908I-50394J52056D01*
G01*
Y617466D2*
G02X1949606Y617466I50394J-52061D01*
G01*
X1749606D2*
G02X1848819Y617466I49606J-50115D01*
G01*
X538583Y433908D2*
G02X437795Y433908I-50394J52056D01*
G01*
X637795D2*
G02X538583Y433908I-49606J50111D01*
G01*
Y617466D2*
G02X637795Y617466I49606J-50115D01*
G01*
X437795D2*
G02X538583Y617466I50394J-52061D01*
G01*
X729134Y408413D2*
G02X702362Y436093I357J27132D01*
G01*
X1685039D2*
G02X1658268Y408413I-27129J-548D01*
G01*
X674016Y644417D2*
G02X702362Y616737I-1547J-29939D01*
G01*
X1685039D2*
G02X1713386Y644417I29894J-2259D01*
G01*
X1749606Y617466D2*
X1774803Y642232D1*
X1749606Y617466D2*
Y433908D1*
Y433180D2*
X1774803Y408413D1*
X1924409D1*
X1949606Y433180D1*
Y483439D2*
Y475426D1*
Y617466D2*
Y433908D1*
X1924409Y642232D2*
X1949606Y617466D1*
X1848819D2*
Y433908D1*
X437795Y617466D2*
X462992Y642232D1*
X437795Y617466D2*
Y433908D1*
Y433180D2*
X462992Y408413D1*
X612598D1*
X637795Y433180D1*
Y483439D2*
Y475426D1*
Y617466D2*
Y433908D1*
X612598Y642232D2*
X637795Y617466D1*
X538583D2*
Y433908D1*
X1981102Y1136820D2*
Y644417D1*
X406299Y1136820D2*
Y644417D1*
X1685039Y616737D2*
Y436093D1*
X702362Y616737D2*
Y436093D1*
X729134Y408413D2*
X1658268D1*
X406299Y1136820D2*
X1981102D1*
X1633071D2*
Y762418D1*
X406299Y644417D2*
X1981102D1*
X754331Y1136820D2*
Y762418D1*
X406299D2*
X1981102D1*
X3019606Y644617D2*
G03X2992929Y617090I-623J-26086D01*
G01*
X2965039Y408452D2*
G03X2992929Y435979I-203J28098D01*
G01*
X2294472Y617090D2*
G03X2267795Y644617I-26054J1441D01*
G01*
X2294472Y435979D2*
G03X2322362Y408452I28093J570D01*
G01*
X3136016Y433806D2*
G03X3235449Y433806I49717J50788D01*
G01*
X3035370D2*
G03X3136016Y433806I50323J52274D01*
G01*
Y617090D2*
G03X3035370Y617090I-50323J-49760D01*
G01*
X3235449D2*
G03X3136016Y617090I-49717J-48325D01*
G01*
X2151386Y433806D2*
G03X2252031Y433806I50323J52274D01*
G01*
X2051953D2*
G03X2151386Y433806I49717J50788D01*
G01*
Y617090D2*
G03X2051953Y617090I-49717J-48325D01*
G01*
X2252031D2*
G03X2151386Y617090I-50323J-49760D01*
G01*
X2037402Y762701D2*
X3250000D1*
X2037402Y644617D2*
Y1132888D1*
X3250000Y644617D2*
Y1132888D1*
X2322362Y408452D2*
X2965039D1*
X2037402Y1132888D2*
X3250000D1*
X2368441Y762701D2*
Y1132888D1*
X2037402Y644617D2*
X3250000D1*
X2918961Y762701D2*
Y1132888D1*
X2992929Y435979D2*
Y617090D1*
X2294472Y435979D2*
Y617090D1*
X3211197Y642444D2*
X3235449Y617090D1*
Y433806D2*
Y617090D1*
X3211197Y408452D2*
X3235449Y433806D1*
X3060835Y408452D2*
X3211197D1*
X3035370Y433806D2*
X3060835Y408452D1*
X3035370Y475823D2*
Y483793D1*
Y433806D2*
Y617090D1*
X3060835Y642444D1*
X3136016Y433806D2*
Y617090D1*
X2226567Y642444D2*
X2252031Y617090D1*
Y433806D2*
Y617090D1*
X2226567Y408452D2*
X2252031Y433806D1*
X2076205Y408452D2*
X2226567D1*
X2051953Y433806D2*
X2076205Y408452D1*
X2051953Y475823D2*
Y483793D1*
Y433806D2*
Y617090D1*
X2076205Y642444D1*
X2151386Y433806D2*
Y617090D1*
X1289940Y1337479D2*
X1389942D1*
Y1937424D1*
X1289940D1*
Y1337479D1*
X3290413Y1488959D2*
Y1798442D1*
X3171119Y1789362D2*
X3159688D1*
X3171119Y1498039D2*
X3159688D1*
X3290413D2*
X3267953D1*
X3290413Y1789362D2*
X3267953D1*
G36*
X3054174Y1584661D2*
X3053147Y1584729D1*
X3052138Y1584929D1*
X3051164Y1585260D1*
X3050242Y1585715D1*
X3049386Y1586287D1*
X3048613Y1586965D1*
X3047935Y1587738D1*
X3047363Y1588594D1*
X3046908Y1589516D1*
X3046578Y1590490D1*
X3046377Y1591499D1*
X3046310Y1592526D1*
X3046377Y1593552D1*
X3046578Y1594561D1*
X3046908Y1595535D1*
X3047363Y1596458D1*
X3047935Y1597313D1*
X3048613Y1598086D1*
X3049386Y1598765D1*
X3050242Y1599336D1*
X3051164Y1599791D1*
X3052138Y1600122D1*
X3053147Y1600322D1*
X3054174Y1600390D1*
X3054215D1*
X3055241Y1600322D1*
X3056250Y1600122D1*
X3057224Y1599791D1*
X3058147Y1599336D1*
X3059002Y1598765D1*
X3059775Y1598086D1*
X3060454Y1597313D1*
X3061025Y1596458D1*
X3061480Y1595535D1*
X3061811Y1594561D1*
X3062011Y1593552D1*
X3062079Y1592526D1*
X3062011Y1591499D1*
X3061811Y1590490D1*
X3061480Y1589516D1*
X3061025Y1588594D1*
X3060454Y1587738D1*
X3059775Y1586965D1*
X3059002Y1586287D1*
X3058147Y1585715D1*
X3057224Y1585260D1*
X3056250Y1584929D1*
X3055241Y1584729D1*
X3054215Y1584661D1*
X3054174D1*
G37*
X3314026Y1488959D2*
D10*
Y1798442D1*
X3290413Y1488959D2*
X3314026D1*
X3290413Y1798442D2*
X3314026D1*
X1840542Y1743060D2*
Y1506840D1*
X2076841D1*
Y1743060D1*
X1840542D1*
G36*
D2*
Y1711564D1*
X1872077Y1743060D1*
X1840542D1*
G37*
G36*
X1793278Y1752942D2*
X1792253Y1753009D1*
X1791245Y1753210D1*
X1790272Y1753540D1*
X1789351Y1753995D1*
X1788497Y1754565D1*
X1787724Y1755243D1*
X1787047Y1756015D1*
X1786476Y1756869D1*
X1786022Y1757791D1*
X1785692Y1758764D1*
X1785491Y1759771D1*
X1785424Y1760797D1*
X1785491Y1761822D1*
X1785692Y1762829D1*
X1786022Y1763802D1*
X1786476Y1764724D1*
X1787047Y1765578D1*
X1787724Y1766350D1*
X1788497Y1767028D1*
X1789351Y1767599D1*
X1790273Y1768053D1*
X1791245Y1768383D1*
X1792253Y1768584D1*
X1793278Y1768651D1*
X1793357D1*
X1794382Y1768584D1*
X1795390Y1768383D1*
X1796363Y1768053D1*
X1797284Y1767599D1*
X1798138Y1767028D1*
X1798911Y1766350D1*
X1799588Y1765578D1*
X1800159Y1764724D1*
X1800613Y1763802D1*
X1800944Y1762829D1*
X1801144Y1761822D1*
X1801211Y1760797D1*
X1801144Y1759771D1*
X1800944Y1758764D1*
X1800613Y1757791D1*
X1800159Y1756869D1*
X1799588Y1756015D1*
X1798911Y1755243D1*
X1798138Y1754565D1*
X1797284Y1753995D1*
X1796363Y1753540D1*
X1795390Y1753210D1*
X1794382Y1753009D1*
X1793357Y1752942D1*
X1793278D1*
G37*
G36*
X2560022Y1786820D2*
X2559956Y1785815D1*
X2559760Y1784827D1*
X2559436Y1783873D1*
X2558990Y1782969D1*
X2558431Y1782131D1*
X2557766Y1781374D1*
X2557009Y1780710D1*
X2556171Y1780150D1*
X2555268Y1779704D1*
X2554314Y1779381D1*
X2553326Y1779184D1*
X2552320Y1779118D1*
X2551315Y1779184D1*
X2550327Y1779381D1*
X2549373Y1779704D1*
X2548469Y1780150D1*
X2547631Y1780710D1*
X2546874Y1781374D1*
X2546210Y1782131D1*
X2545650Y1782969D1*
X2545204Y1783873D1*
X2544881Y1784827D1*
X2544684Y1785815D1*
X2544618Y1786820D1*
Y1786846D1*
X2544684Y1787852D1*
X2544881Y1788840D1*
X2545204Y1789794D1*
X2545650Y1790698D1*
X2546210Y1791535D1*
X2546874Y1792293D1*
X2547631Y1792957D1*
X2548469Y1793517D1*
X2549373Y1793962D1*
X2550327Y1794286D1*
X2551315Y1794483D1*
X2552320Y1794549D1*
X2553326Y1794483D1*
X2554314Y1794286D1*
X2555268Y1793962D1*
X2556171Y1793517D1*
X2557009Y1792957D1*
X2557766Y1792293D1*
X2558431Y1791535D1*
X2558990Y1790698D1*
X2559436Y1789794D1*
X2559760Y1788840D1*
X2559956Y1787852D1*
X2560022Y1786846D1*
Y1786820D1*
G37*
X2551281Y1876083D2*
D10*
X2811112D1*
X2551281Y1986319D2*
X2811112D1*
Y1876083D2*
Y1986319D1*
X2551281Y1876083D2*
Y1986319D1*
X1657904Y1727756D2*
D37*
X1559479D1*
Y1609646D1*
X1657904D1*
Y1727756D1*
X1137673Y1909830D2*
D84*
X1131969Y1915600D1*
X1123347Y1918452D1*
X1111873D1*
X1103251Y1915600D1*
X1097481Y1909830D1*
Y1904126D1*
X1100399Y1898356D1*
X1103251Y1895504D1*
X1108955Y1892652D1*
X1126199Y1886882D1*
X1131969Y1884030D1*
X1134821Y1881112D1*
X1137673Y1875408D1*
Y1866786D1*
X1131969Y1861082D1*
X1123347Y1858164D1*
X1111873D1*
X1103251Y1861082D1*
X1097481Y1866786D1*
X1150796Y1918452D2*
X1165189Y1858164D1*
X1179515Y1918452D1*
X1193840Y1858164D1*
X1208233Y1918452D1*
X1238600D2*
X1232830Y1915600D1*
X1227126Y1909830D1*
X1224208Y1904126D1*
X1221356Y1895504D1*
Y1881112D1*
X1224208Y1872556D1*
X1227126Y1866786D1*
X1232830Y1861082D1*
X1238600Y1858164D1*
X1250074D1*
X1255778Y1861082D1*
X1261548Y1866786D1*
X1264400Y1872556D1*
X1267252Y1881112D1*
Y1895504D1*
X1264400Y1904126D1*
X1261548Y1909830D1*
X1255778Y1915600D1*
X1250074Y1918452D1*
X1238600D1*
X1107306Y1817507D2*
Y1757219D1*
X1067114Y1817507D1*
Y1757219D1*
X1120429Y1788789D2*
X1146229D1*
X1154851Y1791707D1*
X1157769Y1794559D1*
X1160621Y1800263D1*
Y1806033D1*
X1157769Y1811737D1*
X1154851Y1814655D1*
X1146229Y1817507D1*
X1120429D1*
Y1757219D1*
X1140525Y1788789D2*
X1160621Y1757219D1*
X1213936Y1808885D2*
X1208233Y1814655D1*
X1199611Y1817507D1*
X1188137D1*
X1179515Y1814655D1*
X1173744Y1808885D1*
Y1803181D1*
X1176663Y1797411D1*
X1179515Y1794559D1*
X1185218Y1791707D1*
X1202462Y1785937D1*
X1208233Y1783085D1*
X1211084Y1780167D1*
X1213936Y1774463D1*
Y1765841D1*
X1208233Y1760137D1*
X1199611Y1757219D1*
X1188137D1*
X1179515Y1760137D1*
X1173744Y1765841D1*
X1247156Y1817507D2*
Y1757219D1*
X1227060Y1817507D2*
X1267252D1*
X1039664Y1707939D2*
X1033961Y1713709D1*
X1025339Y1716561D1*
X1013865D1*
X1005243Y1713709D1*
X999472Y1707939D1*
Y1702235D1*
X1002391Y1696465D1*
X1005243Y1693613D1*
X1010946Y1690762D1*
X1028190Y1684991D1*
X1033961Y1682139D1*
X1036813Y1679221D1*
X1039664Y1673517D1*
Y1664895D1*
X1033961Y1659192D1*
X1025339Y1656273D1*
X1013865D1*
X1005243Y1659192D1*
X999472Y1664895D1*
X1052788Y1716561D2*
X1067180Y1656273D1*
X1081506Y1716561D1*
X1095832Y1656273D1*
X1110224Y1716561D1*
X1166391Y1702235D2*
X1163539Y1707939D1*
X1157769Y1713709D1*
X1152065Y1716561D1*
X1140591D1*
X1134821Y1713709D1*
X1129117Y1707939D1*
X1126199Y1702235D1*
X1123347Y1693613D1*
Y1679221D1*
X1126199Y1670666D1*
X1129117Y1664895D1*
X1134821Y1659192D1*
X1140591Y1656273D1*
X1152065D1*
X1157769Y1659192D1*
X1163539Y1664895D1*
X1166391Y1670666D1*
X1179515Y1716561D2*
Y1656273D1*
X1213936D1*
X1227060Y1716561D2*
Y1656273D1*
X1267252Y1716561D2*
X1227060Y1676369D1*
X1241386Y1690762D2*
X1267252Y1656273D1*
X1071234Y1606994D2*
X1065531Y1612764D1*
X1056909Y1615616D1*
X1045435D1*
X1036813Y1612764D1*
X1031042Y1606994D1*
Y1601290D1*
X1033961Y1595520D1*
X1036813Y1592668D1*
X1042516Y1589816D1*
X1059760Y1584046D1*
X1065531Y1581194D1*
X1068382Y1578276D1*
X1071234Y1572572D1*
Y1563950D1*
X1065531Y1558246D1*
X1056909Y1555328D1*
X1045435D1*
X1036813Y1558246D1*
X1031042Y1563950D1*
X1084358Y1615616D2*
X1098750Y1555328D1*
X1113076Y1615616D1*
X1127402Y1555328D1*
X1141794Y1615616D1*
X1154917D2*
Y1555328D1*
X1175013D1*
X1183635Y1558246D1*
X1189405Y1563950D1*
X1192257Y1569720D1*
X1195109Y1578276D1*
Y1592668D1*
X1192257Y1601290D1*
X1189405Y1606994D1*
X1183635Y1612764D1*
X1175013Y1615616D1*
X1154917D1*
X1208233D2*
Y1555328D1*
X1238600Y1615616D2*
X1232830Y1612764D1*
X1227126Y1606994D1*
X1224208Y1601290D1*
X1221356Y1592668D1*
Y1578276D1*
X1224208Y1569720D1*
X1227126Y1563950D1*
X1232830Y1558246D1*
X1238600Y1555328D1*
X1250074D1*
X1255778Y1558246D1*
X1261548Y1563950D1*
X1264400Y1569720D1*
X1267252Y1578276D1*
Y1592668D1*
X1264400Y1601290D1*
X1261548Y1606994D1*
X1255778Y1612764D1*
X1250074Y1615616D1*
X1238600D1*
X1114725Y1514671D2*
X1137673Y1454383D1*
X1160621Y1514671D1*
X1173744D2*
Y1454383D1*
X1193840D1*
X1202462Y1457301D1*
X1208233Y1463005D1*
X1211084Y1468775D1*
X1213936Y1477331D1*
Y1491723D1*
X1211084Y1500345D1*
X1208233Y1506049D1*
X1202462Y1511819D1*
X1193840Y1514671D1*
X1173744D1*
X1227060D2*
Y1454383D1*
X1247156D1*
X1255778Y1457301D1*
X1261548Y1463005D1*
X1264400Y1468775D1*
X1267252Y1477331D1*
Y1491723D1*
X1264400Y1500345D1*
X1261548Y1506049D1*
X1255778Y1511819D1*
X1247156Y1514671D1*
X1227060D1*
X1160621Y1399400D2*
X1157769Y1405103D1*
X1151999Y1410874D1*
X1146295Y1413725D1*
X1134821D1*
X1129051Y1410874D1*
X1123347Y1405103D1*
X1120429Y1399400D1*
X1117577Y1390778D1*
Y1376385D1*
X1120429Y1367830D1*
X1123347Y1362059D1*
X1129051Y1356356D1*
X1134821Y1353437D1*
X1146295D1*
X1151999Y1356356D1*
X1157769Y1362059D1*
X1160621Y1367830D1*
Y1376385D1*
X1146295D1*
X1213936Y1413725D2*
Y1353437D1*
X1173744Y1413725D1*
Y1353437D1*
X1227060Y1413725D2*
Y1353437D1*
X1247156D1*
X1255778Y1356356D1*
X1261548Y1362059D1*
X1264400Y1367830D1*
X1267252Y1376385D1*
Y1390778D1*
X1264400Y1399400D1*
X1261548Y1405103D1*
X1255778Y1410874D1*
X1247156Y1413725D1*
X1227060D1*
X528377Y1322626D2*
D85*
X522673Y1319774D1*
X516903Y1314004D1*
X514051Y1308300D1*
Y1296826D1*
X516903Y1291056D1*
X522673Y1285352D1*
X528377Y1282434D1*
X536999Y1279582D1*
X551391D1*
X559947Y1282434D1*
X565717Y1285352D1*
X571421Y1291056D1*
X574339Y1296826D1*
Y1308300D1*
X571421Y1314004D1*
X565717Y1319774D1*
X559947Y1322626D1*
X514051Y1341153D2*
X574339D1*
Y1375575D1*
X514051Y1394102D2*
X557095D1*
X565717Y1396954D1*
X571421Y1402724D1*
X574339Y1411346D1*
Y1417050D1*
X571421Y1425672D1*
X565717Y1431442D1*
X557095Y1434294D1*
X514051D1*
X522673Y1493013D2*
X516903Y1487309D1*
X514051Y1478687D1*
Y1467213D1*
X516903Y1458591D1*
X522673Y1452821D1*
X528377D1*
X534147Y1455739D1*
X536999Y1458591D1*
X539851Y1464295D1*
X545621Y1481539D1*
X548473Y1487309D1*
X551391Y1490161D1*
X557095Y1493013D1*
X565717D1*
X571421Y1487309D1*
X574339Y1478687D1*
Y1467213D1*
X571421Y1458591D1*
X565717Y1452821D1*
X514051Y1531636D2*
X574339D1*
X514051Y1511540D2*
Y1551732D1*
Y1607533D2*
Y1570259D1*
X574339D1*
Y1607533D1*
X542769Y1570259D2*
Y1593207D1*
Y1626060D2*
Y1651860D1*
X539851Y1660482D1*
X536999Y1663400D1*
X531295Y1666252D1*
X525525D1*
X519821Y1663400D1*
X516903Y1660482D1*
X514051Y1651860D1*
Y1626060D1*
X574339D1*
X542769Y1646156D2*
X574339Y1666252D1*
X542769Y1684779D2*
Y1710579D1*
X539851Y1719201D1*
X536999Y1722119D1*
X531295Y1724971D1*
X525525D1*
X519821Y1722119D1*
X516903Y1719201D1*
X514051Y1710579D1*
Y1684779D1*
X574339D1*
X542769Y1704875D2*
X574339Y1724971D1*
X542769Y1743498D2*
Y1769298D1*
X539851Y1777920D1*
X536999Y1780838D1*
X531295Y1783690D1*
X525525D1*
X519821Y1780838D1*
X516903Y1777920D1*
X514051Y1769298D1*
Y1743498D1*
X574339D1*
X542769Y1763594D2*
X574339Y1783690D1*
X568569Y1805069D2*
X571487Y1802217D1*
X574339Y1805069D1*
X571487Y1807987D1*
X568569Y1805069D1*
X528377Y1869558D2*
X522673Y1866707D1*
X516903Y1860936D1*
X514051Y1855233D1*
Y1843759D1*
X516903Y1837989D1*
X522673Y1832285D1*
X528377Y1829366D1*
X536999Y1826515D1*
X551391D1*
X559947Y1829366D1*
X565717Y1832285D1*
X571421Y1837989D1*
X574339Y1843759D1*
Y1855233D1*
X571421Y1860936D1*
X565717Y1866707D1*
X559947Y1869558D1*
X514051Y1905330D2*
X516903Y1899560D1*
X522673Y1893856D1*
X528377Y1890938D1*
X536999Y1888086D1*
X551391D1*
X559947Y1890938D1*
X565717Y1893856D1*
X571421Y1899560D1*
X574339Y1905330D1*
Y1916804D1*
X571421Y1922507D1*
X565717Y1928278D1*
X559947Y1931130D1*
X551391Y1933981D1*
X536999D1*
X528377Y1931130D1*
X522673Y1928278D1*
X516903Y1922507D1*
X514051Y1916804D1*
Y1905330D1*
X574339Y1998404D2*
X514051D1*
X574339Y1975456D1*
X514051Y1952509D1*
X574339D1*
X433554Y1299870D2*
D87*
X473746D1*
X433554Y1273075D1*
X473746D1*
X433554Y1342217D2*
Y1317368D1*
X473746D1*
Y1342217D1*
X452700Y1317368D2*
Y1332666D1*
X439302Y1386509D2*
X435456Y1382707D1*
X433554Y1376959D1*
Y1369310D1*
X435456Y1363561D1*
X439302Y1359715D1*
X443105D1*
X446952Y1361660D1*
X448853Y1363561D1*
X450754Y1367364D1*
X454601Y1378860D1*
X456502Y1382707D1*
X458448Y1384608D1*
X462250Y1386509D1*
X467998D1*
X471801Y1382707D1*
X473746Y1376959D1*
Y1369310D1*
X471801Y1363561D1*
X467998Y1359715D1*
X439302Y1430802D2*
X435456Y1426999D1*
X433554Y1421251D1*
Y1413602D1*
X435456Y1407854D1*
X439302Y1404007D1*
X443105D1*
X446952Y1405953D1*
X448853Y1407854D1*
X450754Y1411657D1*
X454601Y1423153D1*
X456502Y1426999D1*
X458448Y1428901D1*
X462250Y1430802D1*
X467998D1*
X471801Y1426999D1*
X473746Y1421251D1*
Y1413602D1*
X471801Y1407854D1*
X467998Y1404007D1*
X473746Y1478897D2*
X433554D1*
X473746Y1463598D1*
X433554Y1448300D1*
X473746D1*
X433554Y1496395D2*
X473746D1*
Y1509792D1*
X471801Y1515540D1*
X467998Y1519387D1*
X464152Y1521288D1*
X458448Y1523189D1*
X448853D1*
X443105Y1521288D1*
X439302Y1519387D1*
X435456Y1515540D1*
X433554Y1509792D1*
Y1496395D1*
X443149Y1542633D2*
X441248D1*
X437401Y1544534D1*
X435500Y1546435D1*
X433599Y1550282D1*
Y1557931D1*
X435500Y1561734D1*
X437401Y1563635D1*
X441248Y1565581D1*
X445050D1*
X448897Y1563635D1*
X454601Y1559833D1*
X473746Y1540687D1*
Y1567482D1*
X433554Y1584980D2*
X462250D1*
X467998Y1586881D1*
X471801Y1590728D1*
X473746Y1596476D1*
Y1600278D1*
X471801Y1606026D1*
X467998Y1609873D1*
X462250Y1611774D1*
X433554D1*
X439302Y1656067D2*
X435456Y1652264D1*
X433554Y1646516D1*
Y1638867D1*
X435456Y1633119D1*
X439302Y1629272D1*
X443105D1*
X446952Y1631218D1*
X448853Y1633119D1*
X450754Y1636921D1*
X454601Y1648418D1*
X456502Y1652264D1*
X458448Y1654166D1*
X462250Y1656067D1*
X467998D1*
X471801Y1652264D1*
X473746Y1646516D1*
Y1638867D1*
X471801Y1633119D1*
X467998Y1629272D1*
X433554Y1673565D2*
X473746D1*
Y1690809D1*
X471801Y1696557D1*
X469900Y1698458D1*
X466097Y1700359D1*
X460349D1*
X456502Y1698458D1*
X454601Y1696557D1*
X452700Y1690809D1*
X450754Y1696557D1*
X448853Y1698458D1*
X445050Y1700359D1*
X441204D1*
X437401Y1698458D1*
X435456Y1696557D1*
X433554Y1690809D1*
Y1673565D1*
X452700D2*
Y1690809D1*
Y1761884D2*
Y1779084D1*
X450754Y1784832D1*
X448853Y1786778D1*
X445050Y1788679D1*
X441204D1*
X437401Y1786778D1*
X435456Y1784832D1*
X433554Y1779084D1*
Y1761884D1*
X473746D1*
X452700Y1775282D2*
X473746Y1788679D1*
X433554Y1831026D2*
Y1806177D1*
X473746D1*
Y1831026D1*
X452700Y1806177D2*
Y1821475D1*
X433554Y1848524D2*
X473746Y1863822D1*
X433554Y1879121D1*
X443149Y1942591D2*
X441248D1*
X437401Y1944493D1*
X435500Y1946394D1*
X433599Y1950241D1*
Y1957890D1*
X435500Y1961693D1*
X437401Y1963594D1*
X441248Y1965539D1*
X445050D1*
X448897Y1963594D1*
X454601Y1959791D1*
X473746Y1940646D1*
Y1967441D1*
X469900Y1986840D2*
X471845Y1984938D1*
X473746Y1986840D1*
X471845Y1988785D1*
X469900Y1986840D1*
X441248Y2006283D2*
X439302Y2010130D1*
X433599Y2015878D1*
X473746D1*
X2975454Y1412430D2*
D83*
X2970701Y1410053D1*
X2965892Y1405245D1*
X2963516Y1400492D1*
Y1390930D1*
X2965892Y1386122D1*
X2970701Y1381368D1*
X2975454Y1378937D1*
X2982639Y1376560D1*
X2994633D1*
X3001762Y1378937D1*
X3006571Y1381368D1*
X3011324Y1386122D1*
X3013756Y1390930D1*
Y1400492D1*
X3011324Y1405245D1*
X3006571Y1410053D1*
X3001762Y1412430D1*
X2973133Y1427869D2*
X2970701Y1432678D1*
X2963571Y1439863D1*
X3013756D1*
X2398386Y1741458D2*
X2393633Y1739082D1*
X2388824Y1734273D1*
X2386448Y1729520D1*
Y1719958D1*
X2388824Y1715150D1*
X2393633Y1710397D1*
X2398386Y1707965D1*
X2405571Y1705588D1*
X2417564D1*
X2424694Y1707965D1*
X2429502Y1710397D1*
X2434256Y1715150D1*
X2436688Y1719958D1*
Y1729520D1*
X2434256Y1734273D1*
X2429502Y1739082D1*
X2424694Y1741458D1*
X2398441Y1759329D2*
X2396064D1*
X2391256Y1761706D1*
X2388879Y1764082D1*
X2386503Y1768891D1*
Y1778453D1*
X2388879Y1783206D1*
X2391256Y1785582D1*
X2396064Y1788014D1*
X2400818D1*
X2405626Y1785582D1*
X2412756Y1780829D1*
X2436688Y1756897D1*
Y1790391D1*
X1852160Y1943765D2*
X1849784Y1948518D1*
X1844975Y1953327D1*
X1840222Y1955703D1*
X1830660D1*
X1825852Y1953327D1*
X1821099Y1948518D1*
X1818667Y1943765D1*
X1816290Y1936580D1*
Y1924587D1*
X1818667Y1917457D1*
X1821099Y1912648D1*
X1825852Y1907895D1*
X1830660Y1905463D1*
X1840222D1*
X1844975Y1907895D1*
X1849784Y1912648D1*
X1852160Y1917457D1*
X1872408Y1955648D2*
X1898661D1*
X1884346Y1936525D1*
X1891531D1*
X1896284Y1934148D1*
X1898661Y1931772D1*
X1901093Y1924587D1*
Y1919833D1*
X1898661Y1912648D1*
X1893908Y1907840D1*
X1886723Y1905463D1*
X1879538D1*
X1872408Y1907840D1*
X1870031Y1910272D1*
X1867600Y1915025D1*
X1683627Y1460981D2*
X1678874Y1458605D1*
X1674066Y1453796D1*
X1671689Y1449043D1*
Y1439481D1*
X1674066Y1434673D1*
X1678874Y1429920D1*
X1683627Y1427488D1*
X1690812Y1425111D1*
X1702806D1*
X1709936Y1427488D1*
X1714744Y1429920D1*
X1719497Y1434673D1*
X1721929Y1439481D1*
Y1449043D1*
X1719497Y1453796D1*
X1714744Y1458605D1*
X1709936Y1460981D1*
X1721929Y1500352D2*
X1671744D1*
X1705182Y1476420D1*
Y1512290D1*
X2194059Y1834940D2*
X2189306Y1832563D1*
X2184497Y1827755D1*
X2182121Y1823002D1*
Y1813440D1*
X2184497Y1808632D1*
X2189306Y1803878D1*
X2194059Y1801446D1*
X2201244Y1799070D1*
X2213238D1*
X2220367Y1801446D1*
X2225176Y1803878D1*
X2229929Y1808632D1*
X2232361Y1813440D1*
Y1823002D1*
X2229929Y1827755D1*
X2225176Y1832563D1*
X2220367Y1834940D1*
X2182176Y1879064D2*
Y1855187D1*
X2203676Y1852811D1*
X2201299Y1855187D1*
X2198867Y1862373D1*
Y1869502D1*
X2201299Y1876687D1*
X2206052Y1881496D1*
X2213238Y1883872D1*
X2217991D1*
X2225176Y1881496D1*
X2229984Y1876687D1*
X2232361Y1869502D1*
Y1862373D1*
X2229984Y1855187D1*
X2227552Y1852811D1*
X2222799Y1850379D1*
X2064007Y1312386D2*
X2066384Y1307633D1*
X2071192Y1302824D1*
X2075945Y1300448D1*
X2085507D1*
X2090315Y1302824D1*
X2095068Y1307633D1*
X2097500Y1312386D1*
X2099877Y1319571D1*
Y1331564D1*
X2097500Y1338694D1*
X2095068Y1343502D1*
X2090315Y1348256D1*
X2085507Y1350688D1*
X2075945D1*
X2071192Y1348256D1*
X2066384Y1343502D1*
X2064007Y1338694D1*
X2019883Y1307633D2*
X2022259Y1302879D1*
X2029444Y1300503D1*
X2034198D1*
X2041383Y1302879D1*
X2046191Y1310064D1*
X2048568Y1322003D1*
Y1333941D1*
X2046191Y1343502D1*
X2041383Y1348311D1*
X2034198Y1350688D1*
X2031821D1*
X2024691Y1348311D1*
X2019883Y1343502D1*
X2017506Y1336317D1*
Y1333941D1*
X2019883Y1326756D1*
X2024691Y1322003D1*
X2031821Y1319626D1*
X2034198D1*
X2041383Y1322003D1*
X2046191Y1326756D1*
X2048568Y1333941D1*
X1558627Y1537169D2*
X1553874Y1534793D1*
X1549066Y1529984D1*
X1546689Y1525231D1*
Y1515670D1*
X1549066Y1510861D1*
X1553874Y1506108D1*
X1558627Y1503676D1*
X1565812Y1501300D1*
X1577806D1*
X1584936Y1503676D1*
X1589744Y1506108D1*
X1594497Y1510861D1*
X1596929Y1515670D1*
Y1525231D1*
X1594497Y1529984D1*
X1589744Y1534793D1*
X1584936Y1537169D1*
X1596929Y1562170D2*
X1546744Y1586102D1*
Y1552609D1*
X1561186Y1787197D2*
X1556433Y1784821D1*
X1551625Y1780012D1*
X1549248Y1775259D1*
Y1765697D1*
X1551625Y1760889D1*
X1556433Y1756136D1*
X1561186Y1753704D1*
X1568371Y1751327D1*
X1580365D1*
X1587495Y1753704D1*
X1592303Y1756136D1*
X1597056Y1760889D1*
X1599488Y1765697D1*
Y1775259D1*
X1597056Y1780012D1*
X1592303Y1784821D1*
X1587495Y1787197D1*
X1549303Y1814575D2*
X1551680Y1807445D1*
X1556433Y1805013D1*
X1561242D1*
X1565995Y1807445D1*
X1568427Y1812198D1*
X1570803Y1821760D1*
X1573180Y1828945D1*
X1577988Y1833698D1*
X1582741Y1836074D1*
X1589926D1*
X1594680Y1833698D1*
X1597111Y1831321D1*
X1599488Y1824136D1*
Y1814575D1*
X1597111Y1807445D1*
X1594680Y1805013D1*
X1589926Y1802636D1*
X1582741D1*
X1577988Y1805013D1*
X1573180Y1809821D1*
X1570803Y1816951D1*
X1568427Y1826513D1*
X1565995Y1831321D1*
X1561242Y1833698D1*
X1556433D1*
X1551680Y1831321D1*
X1549303Y1824136D1*
Y1814575D1*
X746831Y1897384D2*
Y1847144D1*
X763578D1*
X770763Y1849576D1*
X775571Y1854330D1*
X777948Y1859138D1*
X780324Y1866268D1*
Y1878261D1*
X777948Y1885446D1*
X775571Y1890199D1*
X770763Y1895008D1*
X763578Y1897384D1*
X746831D1*
X795764Y1887768D2*
X800572Y1890199D1*
X807757Y1897329D1*
Y1847144D1*
X1798201Y2127214D2*
Y2088968D1*
X1795824Y2081782D1*
X1793392Y2079406D1*
X1788639Y2076974D1*
X1783831D1*
X1779078Y2079406D1*
X1776701Y2081782D1*
X1774269Y2088968D1*
Y2093721D1*
X1813640Y2117597D2*
X1818449Y2120029D1*
X1825634Y2127159D1*
Y2076974D1*
X543700Y2127173D2*
Y2088926D1*
X541324Y2081741D1*
X538892Y2079365D1*
X534139Y2076933D1*
X529330D1*
X524577Y2079365D1*
X522201Y2081741D1*
X519769Y2088926D1*
Y2093680D1*
X561571Y2115179D2*
Y2117556D1*
X563948Y2122364D1*
X566325Y2124741D1*
X571133Y2127118D1*
X580695D1*
X585448Y2124741D1*
X587824Y2122364D1*
X590256Y2117556D1*
Y2112803D1*
X587824Y2107994D1*
X583071Y2100865D1*
X559140Y2076933D1*
X592633D1*
X562452Y1160188D2*
Y1198434D1*
X564828Y1205619D1*
X567260Y1207996D1*
X572014Y1210428D1*
X576822D1*
X581575Y1207996D1*
X583952Y1205619D1*
X586384Y1198434D1*
Y1193681D1*
X542204Y1160243D2*
X515951D1*
X530266Y1179366D1*
X523081D1*
X518328Y1181743D1*
X515951Y1184119D1*
X513519Y1191304D1*
Y1196057D1*
X515951Y1203243D1*
X520704Y1208051D1*
X527889Y1210428D1*
X535074D1*
X542204Y1208051D1*
X544581Y1205619D1*
X547013Y1200866D1*
X2169890Y1160229D2*
Y1198475D1*
X2172266Y1205660D1*
X2174698Y1208037D1*
X2179451Y1210469D1*
X2184260D1*
X2189013Y1208037D1*
X2191389Y1205660D1*
X2193821Y1198475D1*
Y1193722D1*
X2130519Y1210469D2*
Y1160284D1*
X2154450Y1193722D1*
X2118580D1*
X1316726Y1275090D2*
X1354972D1*
X1362157Y1272714D1*
X1364534Y1270282D1*
X1366966Y1265528D1*
Y1260720D1*
X1364534Y1255967D1*
X1362157Y1253590D1*
X1354972Y1251158D1*
X1350219D1*
X1316781Y1319214D2*
Y1295338D1*
X1338281Y1292961D1*
X1335904Y1295338D1*
X1333472Y1302523D1*
Y1309653D1*
X1335904Y1316838D1*
X1340657Y1321646D1*
X1347842Y1324023D1*
X1352596D1*
X1359781Y1321646D1*
X1364589Y1316838D1*
X1366966Y1309653D1*
Y1302523D1*
X1364589Y1295338D1*
X1362157Y1292961D1*
X1357404Y1290529D1*
X2973087Y1632416D2*
X3011333D1*
X3018518Y1630040D1*
X3020895Y1627608D1*
X3023327Y1622855D1*
Y1618046D1*
X3020895Y1613293D1*
X3018518Y1610916D1*
X3011333Y1608485D1*
X3006580D1*
X2980272Y1676540D2*
X2975518Y1674164D1*
X2973142Y1666979D1*
Y1662226D1*
X2975518Y1655041D1*
X2982704Y1650232D1*
X2994642Y1647856D1*
X3006580D1*
X3016142Y1650232D1*
X3020950Y1655041D1*
X3023327Y1662226D1*
Y1664602D1*
X3020950Y1671732D1*
X3016142Y1676540D1*
X3008957Y1678917D1*
X3006580D1*
X2999395Y1676540D1*
X2994642Y1671732D1*
X2992265Y1664602D1*
Y1662226D1*
X2994642Y1655041D1*
X2999395Y1650232D1*
X3006580Y1647856D1*
X2277227Y1565467D2*
X2298727D1*
X2305912Y1567899D1*
X2308344Y1570276D1*
X2310721Y1575029D1*
Y1579837D1*
X2308344Y1584590D1*
X2305912Y1587022D1*
X2298727Y1589399D1*
X2277227D1*
Y1539159D1*
X2293974Y1565467D2*
X2310721Y1539159D1*
X2326160Y1579782D2*
X2330968Y1582214D1*
X2338153Y1589344D1*
Y1539159D1*
X2267479Y1735462D2*
X2288978D1*
X2296164Y1737894D1*
X2298595Y1740270D1*
X2300972Y1745024D1*
Y1749832D1*
X2298595Y1754585D1*
X2296164Y1757017D1*
X2288978Y1759394D1*
X2267479D1*
Y1709154D1*
X2284225Y1735462D2*
X2300972Y1709154D1*
X2318843Y1747400D2*
Y1749777D1*
X2321220Y1754585D1*
X2323596Y1756962D1*
X2328405Y1759338D1*
X2337966D1*
X2342720Y1756962D1*
X2345096Y1754585D1*
X2347528Y1749777D1*
Y1745024D1*
X2345096Y1740215D1*
X2340343Y1733085D1*
X2316411Y1709154D1*
X2349905D1*
X2783737Y1735462D2*
X2805237D1*
X2812422Y1737894D1*
X2814854Y1740270D1*
X2817231Y1745024D1*
Y1749832D1*
X2814854Y1754585D1*
X2812422Y1757017D1*
X2805237Y1759394D1*
X2783737D1*
Y1709154D1*
X2800484Y1735462D2*
X2817231Y1709154D1*
X2837478Y1759338D2*
X2863731D1*
X2849416Y1740215D1*
X2856601D1*
X2861355Y1737839D1*
X2863731Y1735462D1*
X2866163Y1728277D1*
Y1723524D1*
X2863731Y1716339D1*
X2858978Y1711530D1*
X2851793Y1709154D1*
X2844608D1*
X2837478Y1711530D1*
X2835102Y1713962D1*
X2832670Y1718715D1*
X2331420Y1860045D2*
Y1881545D1*
X2328988Y1888730D1*
X2326611Y1891162D1*
X2321858Y1893538D1*
X2317050D1*
X2312297Y1891162D1*
X2309865Y1888730D1*
X2307488Y1881545D1*
Y1860045D1*
X2357728D1*
X2331420Y1876792D2*
X2357728Y1893538D1*
Y1932909D2*
X2307543D1*
X2340982Y1908978D1*
Y1944847D1*
X1033737Y1247963D2*
X1055237D1*
X1062422Y1250395D1*
X1064854Y1252772D1*
X1067231Y1257525D1*
Y1262333D1*
X1064854Y1267087D1*
X1062422Y1269518D1*
X1055237Y1271895D1*
X1033737D1*
Y1221655D1*
X1050484Y1247963D2*
X1067231Y1221655D1*
X1111355Y1271840D2*
X1087478D1*
X1085102Y1250340D1*
X1087478Y1252716D1*
X1094663Y1255148D1*
X1101793D1*
X1108978Y1252716D1*
X1113787Y1247963D1*
X1116163Y1240778D1*
Y1236025D1*
X1113787Y1228840D1*
X1108978Y1224032D1*
X1101793Y1221655D1*
X1094663D1*
X1087478Y1224032D1*
X1085102Y1226463D1*
X1082670Y1231217D1*
X1434871Y1748580D2*
Y1770080D1*
X1432440Y1777265D1*
X1430063Y1779697D1*
X1425310Y1782074D1*
X1420501D1*
X1415748Y1779697D1*
X1413316Y1777265D1*
X1410940Y1770080D1*
Y1748580D1*
X1461180D1*
X1434871Y1765327D2*
X1461180Y1782074D1*
X1418125Y1826198D2*
X1413372Y1823821D1*
X1410995Y1816636D1*
Y1811883D1*
X1413372Y1804698D1*
X1420557Y1799890D1*
X1432495Y1797513D1*
X1444433D1*
X1453995Y1799890D1*
X1458803Y1804698D1*
X1461180Y1811883D1*
Y1814260D1*
X1458803Y1821389D1*
X1453995Y1826198D1*
X1446810Y1828574D1*
X1444433D1*
X1437248Y1826198D1*
X1432495Y1821389D1*
X1430118Y1814260D1*
Y1811883D1*
X1432495Y1804698D1*
X1437248Y1799890D1*
X1444433Y1797513D1*
X1928229Y1895024D2*
Y1859154D1*
X1930605Y1851969D1*
X1935414Y1847215D1*
X1942599Y1844784D1*
X1947352D1*
X1954537Y1847215D1*
X1959345Y1851969D1*
X1961722Y1859154D1*
Y1895024D1*
X1977161Y1885407D2*
X1981970Y1887839D1*
X1989155Y1894968D1*
Y1844784D1*
X2471395Y1889988D2*
X2507265D1*
X2514450Y1892364D1*
X2519203Y1897173D1*
X2521635Y1904358D1*
Y1909111D1*
X2519203Y1916296D1*
X2514450Y1921105D1*
X2507265Y1923481D1*
X2471395D1*
X2483389Y1941352D2*
X2481012D1*
X2476203Y1943729D1*
X2473827Y1946105D1*
X2471450Y1950914D1*
Y1960476D1*
X2473827Y1965229D1*
X2476203Y1967605D1*
X2481012Y1970037D1*
X2485765D1*
X2490574Y1967605D1*
X2497703Y1962852D1*
X2521635Y1938920D1*
Y1972414D1*
X1497181Y1629612D2*
X1521113Y1648735D1*
X1547421D1*
X1497181Y1667858D2*
X1521113Y1648735D1*
X1506798Y1683298D2*
X1504366Y1688106D1*
X1497236Y1695291D1*
X1547421D1*
M02*
