G04 DipTrace 3.2.0.1*
G04 TopSilk.gbr*
%MOIN*%
G04 #@! TF.FileFunction,Legend,Top*
G04 #@! TF.Part,Single*
%ADD10C,0.009843*%
%ADD20C,0.019677*%
%ADD29O,0.016422X0.016542*%
%ADD32C,0.015413*%
%ADD70C,0.00772*%
%ADD71C,0.006176*%
%ADD72C,0.013895*%
%FSLAX26Y26*%
G04*
G70*
G90*
G75*
G01*
G04 TopSilk*
%LPD*%
X2969373Y1161178D2*
D10*
X2993013D1*
X2981193Y1172997D2*
Y1149383D1*
X2881193Y1031267D2*
G02X2881193Y1031267I100000J0D01*
G01*
X3393602Y1252952D2*
Y1560040D1*
Y1252952D2*
X3344409D1*
X3211299D2*
X3127051D1*
X3023539Y1288398D2*
Y1315949D1*
Y1497043D2*
Y1524594D1*
X3127051Y1560040D2*
X3211299D1*
X3344409D2*
X3393602D1*
D20*
X2990055Y1343499D3*
X473567Y1705807D2*
D10*
X426322D1*
X473567Y1268307D2*
X426322D1*
X2558178Y1367508D2*
X2329815D1*
Y1139185D1*
X2558178D1*
Y1367508D1*
D29*
X2589293Y1419161D3*
G36*
X2558178Y1367508D2*
X2526685D1*
X2558178Y1336015D1*
Y1367508D1*
G37*
D32*
X2169695Y1730211D3*
X2218799Y1735642D2*
D10*
Y1765157D1*
X2667618Y1572244D2*
Y1601760D1*
X2218799Y1572244D2*
X2667618D1*
X2218799D2*
Y1601760D1*
X2667618Y1735642D2*
Y1765157D1*
X2218799D2*
X2667618D1*
X2773534Y1223510D2*
D70*
X2768781Y1221133D1*
X2763972Y1216325D1*
X2761596Y1211572D1*
Y1202010D1*
X2763972Y1197202D1*
X2768781Y1192449D1*
X2773534Y1190017D1*
X2780719Y1187640D1*
X2792713D1*
X2799842Y1190017D1*
X2804651Y1192449D1*
X2809404Y1197202D1*
X2811836Y1202010D1*
Y1211572D1*
X2809404Y1216325D1*
X2804651Y1221133D1*
X2799842Y1223510D1*
X2771213Y1238949D2*
X2768781Y1243758D1*
X2761651Y1250943D1*
X2811836D1*
X2752846Y1387886D2*
X2748093Y1385510D1*
X2743285Y1380701D1*
X2740908Y1375948D1*
Y1366386D1*
X2743285Y1361578D1*
X2748093Y1356825D1*
X2752846Y1354393D1*
X2760031Y1352016D1*
X2772025D1*
X2779155Y1354393D1*
X2783963Y1356825D1*
X2788716Y1361578D1*
X2791148Y1366386D1*
Y1375948D1*
X2788716Y1380701D1*
X2783963Y1385509D1*
X2779155Y1387886D1*
X2752902Y1405757D2*
X2750525D1*
X2745717Y1408134D1*
X2743340Y1410510D1*
X2740963Y1415319D1*
Y1424880D1*
X2743340Y1429634D1*
X2745717Y1432010D1*
X2750525Y1434442D1*
X2755278D1*
X2760087Y1432010D1*
X2767217Y1427257D1*
X2791148Y1403325D1*
Y1436819D1*
X2100260Y1543765D2*
X2097883Y1548518D1*
X2093075Y1553327D1*
X2088322Y1555703D1*
X2078760D1*
X2073952Y1553327D1*
X2069199Y1548518D1*
X2066767Y1543765D1*
X2064390Y1536580D1*
Y1524587D1*
X2066767Y1517457D1*
X2069199Y1512648D1*
X2073952Y1507895D1*
X2078760Y1505463D1*
X2088322D1*
X2093075Y1507895D1*
X2097883Y1512648D1*
X2100260Y1517457D1*
X2120508Y1555648D2*
X2146761D1*
X2132446Y1536525D1*
X2139631D1*
X2144384Y1534148D1*
X2146761Y1531772D1*
X2149193Y1524587D1*
Y1519833D1*
X2146761Y1512648D1*
X2142008Y1507840D1*
X2134823Y1505463D1*
X2127637D1*
X2120508Y1507840D1*
X2118131Y1510272D1*
X2115699Y1515025D1*
X2774072Y1543765D2*
X2771695Y1548518D1*
X2766887Y1553327D1*
X2762133Y1555703D1*
X2752572D1*
X2747763Y1553327D1*
X2743010Y1548518D1*
X2740578Y1543765D1*
X2738202Y1536580D1*
Y1524587D1*
X2740578Y1517457D1*
X2743010Y1512648D1*
X2747763Y1507895D1*
X2752572Y1505463D1*
X2762133D1*
X2766887Y1507895D1*
X2771695Y1512648D1*
X2774072Y1517457D1*
X2813443Y1505463D2*
Y1555648D1*
X2789511Y1522210D1*
X2825381D1*
X2974662Y1234282D2*
X2972285Y1239035D1*
X2967477Y1243843D1*
X2962723Y1246220D1*
X2953162D1*
X2948353Y1243843D1*
X2943600Y1239035D1*
X2941168Y1234282D1*
X2938792Y1227097D1*
Y1215103D1*
X2941168Y1207973D1*
X2943600Y1203165D1*
X2948353Y1198412D1*
X2953162Y1195980D1*
X2962723D1*
X2967477Y1198412D1*
X2972285Y1203165D1*
X2974662Y1207973D1*
X3018786Y1246165D2*
X2994909D1*
X2992533Y1224665D1*
X2994909Y1227041D1*
X3002094Y1229473D1*
X3009224D1*
X3016409Y1227041D1*
X3021218Y1222288D1*
X3023594Y1215103D1*
Y1210350D1*
X3021218Y1203165D1*
X3016409Y1198356D1*
X3009224Y1195980D1*
X3002094D1*
X2994909Y1198356D1*
X2992533Y1200788D1*
X2990101Y1205541D1*
X3174409Y1694286D2*
Y1656040D1*
X3172032Y1648855D1*
X3169601Y1646478D1*
X3164847Y1644046D1*
X3160039D1*
X3155286Y1646478D1*
X3152909Y1648855D1*
X3150477Y1656040D1*
Y1660793D1*
X3218533Y1694231D2*
X3194657D1*
X3192280Y1672731D1*
X3194657Y1675108D1*
X3201842Y1677539D1*
X3208972D1*
X3216157Y1675108D1*
X3220965Y1670354D1*
X3223342Y1663169D1*
Y1658416D1*
X3220965Y1651231D1*
X3216157Y1646423D1*
X3208972Y1644046D1*
X3201842D1*
X3194657Y1646423D1*
X3192280Y1648855D1*
X3189848Y1653608D1*
X504445Y1570386D2*
X554685D1*
Y1599071D1*
X504445Y1645572D2*
Y1614510D1*
X554685D1*
Y1645572D1*
X528377Y1614510D2*
Y1633633D1*
X504445Y1661011D2*
X554685D1*
Y1677757D1*
X552253Y1684943D1*
X547500Y1689751D1*
X542691Y1692128D1*
X535562Y1694504D1*
X523568D1*
X516383Y1692128D1*
X511630Y1689751D1*
X506822Y1684943D1*
X504445Y1677758D1*
Y1661011D1*
X514062Y1709943D2*
X511630Y1714752D1*
X504500Y1721937D1*
X554685D1*
X498194Y1128387D2*
X548434D1*
Y1157072D1*
X498194Y1203572D2*
Y1172511D1*
X548434D1*
Y1203572D1*
X522126Y1172511D2*
Y1191634D1*
X498194Y1219012D2*
X548434D1*
Y1235758D1*
X546002Y1242943D1*
X541249Y1247752D1*
X536441Y1250128D1*
X529311Y1252505D1*
X517318D1*
X510133Y1250128D1*
X505379Y1247752D1*
X500571Y1242943D1*
X498194Y1235758D1*
Y1219012D1*
X510188Y1270376D2*
X507811D1*
X503003Y1272753D1*
X500626Y1275129D1*
X498250Y1279938D1*
Y1289499D1*
X500626Y1294252D1*
X503003Y1296629D1*
X507811Y1299061D1*
X512564D1*
X517373Y1296629D1*
X524503Y1291876D1*
X548434Y1267944D1*
Y1301437D1*
X601328Y1669272D2*
X622828D1*
X630013Y1671704D1*
X632445Y1674080D1*
X634822Y1678833D1*
Y1683642D1*
X632445Y1688395D1*
X630013Y1690827D1*
X622828Y1693203D1*
X601328D1*
Y1642963D1*
X618075Y1669272D2*
X634822Y1642963D1*
X650261Y1683586D2*
X655069Y1686018D1*
X662254Y1693148D1*
Y1642963D1*
X590578Y1231772D2*
X612078D1*
X619263Y1234204D1*
X621695Y1236580D1*
X624072Y1241333D1*
Y1246142D1*
X621695Y1250895D1*
X619263Y1253327D1*
X612078Y1255703D1*
X590578D1*
Y1205463D1*
X607325Y1231772D2*
X624072Y1205463D1*
X641943Y1243710D2*
Y1246086D1*
X644319Y1250895D1*
X646696Y1253272D1*
X651504Y1255648D1*
X661066D1*
X665819Y1253272D1*
X668196Y1250895D1*
X670628Y1246086D1*
Y1241333D1*
X668196Y1236525D1*
X663443Y1229395D1*
X639511Y1205463D1*
X673004D1*
X2790552Y1169370D2*
X2812052D1*
X2819237Y1171802D1*
X2821669Y1174179D1*
X2824045Y1178932D1*
Y1183740D1*
X2821669Y1188493D1*
X2819237Y1190925D1*
X2812052Y1193302D1*
X2790552D1*
Y1143062D1*
X2807299Y1169370D2*
X2824045Y1143062D1*
X2844293Y1193247D2*
X2870546D1*
X2856231Y1174123D1*
X2863416D1*
X2868170Y1171747D1*
X2870546Y1169370D1*
X2872978Y1162185D1*
Y1157432D1*
X2870546Y1150247D1*
X2865793Y1145438D1*
X2858608Y1143062D1*
X2851423D1*
X2844293Y1145438D1*
X2841917Y1147870D1*
X2839485Y1152623D1*
X2415502Y1525388D2*
Y1489519D1*
X2417878Y1482333D1*
X2422687Y1477580D1*
X2429872Y1475148D1*
X2434625D1*
X2441810Y1477580D1*
X2446618Y1482333D1*
X2448995Y1489519D1*
Y1525388D1*
X2464434Y1515772D2*
X2469243Y1518203D1*
X2476428Y1525333D1*
Y1475148D1*
X2410369Y1838381D2*
X2429492Y1814449D1*
Y1788141D1*
X2448616Y1838381D2*
X2429492Y1814449D1*
X2464055Y1828764D2*
X2468863Y1831196D1*
X2476048Y1838325D1*
Y1788141D1*
X2839369Y1444399D2*
X2860869D1*
X2868054Y1446831D1*
X2870486Y1449207D1*
X2872862Y1453961D1*
Y1458769D1*
X2870486Y1463522D1*
X2868054Y1465954D1*
X2860869Y1468331D1*
X2839369D1*
Y1418091D1*
X2856116Y1444399D2*
X2872862Y1418091D1*
X2912233D2*
Y1468275D1*
X2888302Y1434837D1*
X2924172D1*
X2840557Y1300634D2*
X2862057D1*
X2869242Y1303066D1*
X2871674Y1305442D1*
X2874051Y1310196D1*
Y1315004D1*
X2871674Y1319757D1*
X2869242Y1322189D1*
X2862057Y1324566D1*
X2840557D1*
Y1274326D1*
X2857304Y1300634D2*
X2874051Y1274326D1*
X2918175Y1324510D2*
X2894298D1*
X2891922Y1303010D1*
X2894298Y1305387D1*
X2901483Y1307819D1*
X2908613D1*
X2915798Y1305387D1*
X2920607Y1300634D1*
X2922983Y1293449D1*
Y1288696D1*
X2920607Y1281511D1*
X2915798Y1276702D1*
X2908613Y1274326D1*
X2901483D1*
X2894298Y1276702D1*
X2891922Y1279134D1*
X2889490Y1283887D1*
X3128006Y1120167D2*
D71*
X3145206D1*
X3150954Y1122112D1*
X3152900Y1124014D1*
X3154801Y1127816D1*
Y1131663D1*
X3152900Y1135466D1*
X3150954Y1137411D1*
X3145206Y1139312D1*
X3128006D1*
Y1099120D1*
X3141404Y1120167D2*
X3154801Y1099120D1*
X3193947Y1133564D2*
X3190145Y1137411D1*
X3184397Y1139312D1*
X3176747D1*
X3170999Y1137411D1*
X3167153Y1133564D1*
Y1129762D1*
X3169098Y1125915D1*
X3170999Y1124014D1*
X3174802Y1122112D1*
X3186298Y1118266D1*
X3190145Y1116364D1*
X3192046Y1114419D1*
X3193947Y1110616D1*
Y1104868D1*
X3190145Y1101066D1*
X3184397Y1099120D1*
X3176747D1*
X3170999Y1101066D1*
X3167153Y1104868D1*
X3219696Y1139312D2*
Y1099120D1*
X3206299Y1139312D2*
X3233093D1*
X855140Y1439299D2*
D72*
X850862Y1447855D1*
X842206Y1456510D1*
X833651Y1460788D1*
X816440D1*
X807785Y1456510D1*
X799229Y1447855D1*
X794852Y1439299D1*
X790574Y1426366D1*
Y1404778D1*
X794852Y1391944D1*
X799229Y1383289D1*
X807785Y1374733D1*
X816440Y1370356D1*
X833651D1*
X842206Y1374733D1*
X850862Y1383289D1*
X855140Y1391944D1*
X882930Y1460788D2*
Y1370356D1*
X934563D1*
X962354Y1460788D2*
Y1396222D1*
X966631Y1383289D1*
X975287Y1374733D1*
X988220Y1370356D1*
X996775D1*
X1009709Y1374733D1*
X1018364Y1383289D1*
X1022642Y1396222D1*
Y1460788D1*
X1110720Y1447855D2*
X1102165Y1456510D1*
X1089231Y1460788D1*
X1072021D1*
X1059087Y1456510D1*
X1050432Y1447855D1*
Y1439299D1*
X1054810Y1430644D1*
X1059087Y1426366D1*
X1067643Y1422088D1*
X1093509Y1413433D1*
X1102165Y1409155D1*
X1106442Y1404778D1*
X1110720Y1396222D1*
Y1383289D1*
X1102165Y1374733D1*
X1089231Y1370356D1*
X1072021D1*
X1059087Y1374733D1*
X1050432Y1383289D1*
X1168655Y1460788D2*
Y1370356D1*
X1138511Y1460788D2*
X1198799D1*
X1282500D2*
X1226590D1*
Y1370356D1*
X1282500D1*
X1226590Y1417711D2*
X1261011D1*
X1310291D2*
X1348991D1*
X1361924Y1422088D1*
X1366301Y1426366D1*
X1370579Y1434922D1*
Y1443577D1*
X1366301Y1452133D1*
X1361924Y1456510D1*
X1348991Y1460788D1*
X1310291D1*
Y1370356D1*
X1340435Y1417711D2*
X1370579Y1370356D1*
X1398370Y1417711D2*
X1437069D1*
X1450002Y1422088D1*
X1454380Y1426366D1*
X1458658Y1434922D1*
Y1443577D1*
X1454380Y1452133D1*
X1450002Y1456510D1*
X1437069Y1460788D1*
X1398370D1*
Y1370356D1*
X1428514Y1417711D2*
X1458658Y1370356D1*
X1486448Y1417711D2*
X1525148D1*
X1538081Y1422088D1*
X1542458Y1426366D1*
X1546736Y1434922D1*
Y1443577D1*
X1542458Y1452133D1*
X1538081Y1456510D1*
X1525148Y1460788D1*
X1486448D1*
Y1370356D1*
X1516592Y1417711D2*
X1546736Y1370356D1*
X1578805Y1379011D2*
X1574527Y1374634D1*
X1578805Y1370356D1*
X1583182Y1374634D1*
X1578805Y1379011D1*
X1675539Y1439299D2*
X1671261Y1447855D1*
X1662605Y1456510D1*
X1654050Y1460788D1*
X1636839D1*
X1628184Y1456510D1*
X1619628Y1447855D1*
X1615251Y1439299D1*
X1610973Y1426366D1*
Y1404778D1*
X1615251Y1391944D1*
X1619628Y1383289D1*
X1628184Y1374733D1*
X1636839Y1370356D1*
X1654050D1*
X1662605Y1374733D1*
X1671261Y1383289D1*
X1675539Y1391944D1*
X1729195Y1460788D2*
X1720540Y1456510D1*
X1711984Y1447855D1*
X1707607Y1439299D1*
X1703329Y1426366D1*
Y1404778D1*
X1707607Y1391944D1*
X1711984Y1383289D1*
X1720540Y1374733D1*
X1729195Y1370356D1*
X1746406D1*
X1754962Y1374733D1*
X1763617Y1383289D1*
X1767895Y1391944D1*
X1772173Y1404778D1*
Y1426366D1*
X1767895Y1439299D1*
X1763617Y1447855D1*
X1754962Y1456510D1*
X1746406Y1460788D1*
X1729195D1*
X1868807Y1370356D2*
Y1460788D1*
X1834385Y1370356D1*
X1799964Y1460788D1*
Y1370356D1*
X709194Y1891488D2*
D70*
X704441Y1896296D1*
X697256Y1898673D1*
X687695D1*
X680509Y1896296D1*
X675701Y1891488D1*
Y1886734D1*
X678133Y1881926D1*
X680509Y1879549D1*
X685263Y1877173D1*
X699633Y1872364D1*
X704441Y1869988D1*
X706818Y1867556D1*
X709194Y1862803D1*
Y1855618D1*
X704441Y1850864D1*
X697256Y1848433D1*
X687695D1*
X680509Y1850864D1*
X675701Y1855618D1*
X755695Y1898673D2*
X724634D1*
Y1848433D1*
X755695D1*
X724634Y1874741D2*
X743757D1*
X807004Y1886734D2*
X804628Y1891488D1*
X799819Y1896296D1*
X795066Y1898673D1*
X785504D1*
X780696Y1896296D1*
X775943Y1891488D1*
X773511Y1886734D1*
X771134Y1879549D1*
Y1867556D1*
X773511Y1860426D1*
X775943Y1855618D1*
X780696Y1850864D1*
X785504Y1848433D1*
X795066D1*
X799819Y1850864D1*
X804628Y1855618D1*
X807004Y1860426D1*
Y1867556D1*
X795066D1*
X860745Y1848433D2*
X841567Y1898673D1*
X822444Y1848433D1*
X829629Y1865179D2*
X853560D1*
X963032Y1848433D2*
Y1898673D1*
X943909Y1848433D1*
X924786Y1898673D1*
Y1848433D1*
X978471Y1898673D2*
Y1848433D1*
X995218D1*
X1002403Y1850864D1*
X1007211Y1855618D1*
X1009588Y1860426D1*
X1011965Y1867556D1*
Y1879549D1*
X1009588Y1886734D1*
X1007211Y1891488D1*
X1002403Y1896296D1*
X995218Y1898673D1*
X978471D1*
X1076005Y1872364D2*
X1097560D1*
X1104690Y1874741D1*
X1107122Y1877173D1*
X1109498Y1881926D1*
Y1889111D1*
X1107122Y1893864D1*
X1104690Y1896296D1*
X1097560Y1898673D1*
X1076005D1*
Y1848433D1*
X1139307Y1898673D2*
X1134499Y1896296D1*
X1129746Y1891488D1*
X1127314Y1886734D1*
X1124937Y1879549D1*
Y1867556D1*
X1127314Y1860426D1*
X1129746Y1855618D1*
X1134499Y1850864D1*
X1139307Y1848433D1*
X1148869D1*
X1153622Y1850864D1*
X1158431Y1855618D1*
X1160807Y1860426D1*
X1163184Y1867556D1*
Y1879549D1*
X1160807Y1886734D1*
X1158431Y1891488D1*
X1153622Y1896296D1*
X1148869Y1898673D1*
X1139307D1*
X1178623Y1874741D2*
X1200123D1*
X1207308Y1877173D1*
X1209740Y1879549D1*
X1212117Y1884302D1*
Y1889111D1*
X1209740Y1893864D1*
X1207308Y1896296D1*
X1200123Y1898673D1*
X1178623D1*
Y1848433D1*
X1195370Y1874741D2*
X1212117Y1848433D1*
X1244302Y1898673D2*
Y1848433D1*
X1227556Y1898673D2*
X1261049D1*
X1344213Y1908207D2*
X1327521Y1838843D1*
X1358583Y1908207D2*
X1341836Y1838843D1*
X1327521Y1880710D2*
X1360959D1*
X1325089Y1866340D2*
X1358583D1*
X1376398Y1889056D2*
X1381207Y1891488D1*
X1388392Y1898617D1*
Y1848433D1*
X1368844Y949498D2*
X1373597Y944690D1*
X1380782Y942313D1*
X1390343D1*
X1397528Y944690D1*
X1402337Y949498D1*
Y954251D1*
X1399905Y959060D1*
X1397528Y961436D1*
X1392775Y963813D1*
X1378405Y968621D1*
X1373597Y970998D1*
X1371220Y973430D1*
X1368844Y978183D1*
Y985368D1*
X1373597Y990121D1*
X1380782Y992553D1*
X1390343D1*
X1397528Y990121D1*
X1402337Y985368D1*
X1322343Y942313D2*
X1353404D1*
Y992553D1*
X1322343D1*
X1353404Y966245D2*
X1334281D1*
X1271034Y954251D2*
X1273410Y949498D1*
X1278219Y944690D1*
X1282972Y942313D1*
X1292534D1*
X1297342Y944690D1*
X1302095Y949498D1*
X1304527Y954251D1*
X1306904Y961436D1*
Y973430D1*
X1304527Y980560D1*
X1302095Y985368D1*
X1297342Y990121D1*
X1292534Y992553D1*
X1282972D1*
X1278219Y990121D1*
X1273410Y985368D1*
X1271034Y980560D1*
Y973430D1*
X1282972D1*
X1217293Y992553D2*
X1236471Y942313D1*
X1255595Y992553D1*
X1248410Y975806D2*
X1224478D1*
X1115006Y992553D2*
Y942313D1*
X1134129Y992553D1*
X1153253Y942313D1*
Y992553D1*
X1099567Y942313D2*
Y992553D1*
X1082820D1*
X1075635Y990121D1*
X1070827Y985368D1*
X1068450Y980560D1*
X1066073Y973430D1*
Y961436D1*
X1068450Y954251D1*
X1070827Y949498D1*
X1075635Y944690D1*
X1082820Y942313D1*
X1099567D1*
X1002033Y968621D2*
X980478D1*
X973348Y966245D1*
X970916Y963813D1*
X968540Y959060D1*
Y951875D1*
X970916Y947121D1*
X973348Y944690D1*
X980478Y942313D1*
X1002033D1*
Y992553D1*
X938731Y942313D2*
X943539Y944690D1*
X948292Y949498D1*
X950724Y954251D1*
X953101Y961436D1*
Y973430D1*
X950724Y980560D1*
X948292Y985368D1*
X943539Y990121D1*
X938731Y992553D1*
X929169D1*
X924416Y990121D1*
X919607Y985368D1*
X917231Y980560D1*
X914854Y973430D1*
Y961436D1*
X917231Y954251D1*
X919607Y949498D1*
X924416Y944690D1*
X929169Y942313D1*
X938731D1*
X899415Y966245D2*
X877915D1*
X870730Y963813D1*
X868298Y961436D1*
X865922Y956683D1*
Y951875D1*
X868298Y947121D1*
X870730Y944690D1*
X877915Y942313D1*
X899415D1*
Y992553D1*
X882668Y966245D2*
X865922Y992553D1*
X833736Y942313D2*
Y992553D1*
X850482Y942313D2*
X816989D1*
X733825Y932779D2*
X750517Y1002142D1*
X719455Y932779D2*
X736202Y1002142D1*
X750517Y960276D2*
X717079D1*
X752949Y974646D2*
X719455D1*
X699208Y954307D2*
Y951930D1*
X696831Y947121D1*
X694455Y944745D1*
X689646Y942368D1*
X680084D1*
X675331Y944745D1*
X672955Y947121D1*
X670523Y951930D1*
Y956683D1*
X672955Y961492D1*
X677708Y968621D1*
X701640Y992553D1*
X668146D1*
X2238365Y1898673D2*
Y1848433D1*
X2255112D1*
X2262297Y1850864D1*
X2267105Y1855618D1*
X2269482Y1860426D1*
X2271858Y1867556D1*
Y1879549D1*
X2269482Y1886734D1*
X2267105Y1891488D1*
X2262297Y1896296D1*
X2255112Y1898673D1*
X2238365D1*
X2318359D2*
X2287298D1*
Y1848433D1*
X2318359D1*
X2287298Y1874741D2*
X2306421D1*
X2367292Y1898673D2*
Y1848433D1*
X2333798Y1898673D1*
Y1848433D1*
X2382731Y1898673D2*
Y1848433D1*
X2399478D1*
X2406663Y1850864D1*
X2411471Y1855618D1*
X2413848Y1860426D1*
X2416224Y1867556D1*
Y1879549D1*
X2413848Y1886734D1*
X2411471Y1891488D1*
X2406663Y1896296D1*
X2399478Y1898673D1*
X2382731D1*
X2431664D2*
X2450787Y1874741D1*
Y1848433D1*
X2469910Y1898673D2*
X2450787Y1874741D1*
X2533950Y1872364D2*
X2555505D1*
X2562635Y1874741D1*
X2565067Y1877173D1*
X2567444Y1881926D1*
Y1889111D1*
X2565067Y1893864D1*
X2562635Y1896296D1*
X2555505Y1898673D1*
X2533950D1*
Y1848433D1*
X2597253Y1898673D2*
X2592444Y1896296D1*
X2587691Y1891488D1*
X2585259Y1886734D1*
X2582883Y1879549D1*
Y1867556D1*
X2585259Y1860426D1*
X2587691Y1855618D1*
X2592444Y1850864D1*
X2597253Y1848433D1*
X2606815D1*
X2611568Y1850864D1*
X2616376Y1855618D1*
X2618753Y1860426D1*
X2621129Y1867556D1*
Y1879549D1*
X2618753Y1886734D1*
X2616376Y1891488D1*
X2611568Y1896296D1*
X2606815Y1898673D1*
X2597253D1*
X2636569Y1874741D2*
X2658068D1*
X2665254Y1877173D1*
X2667685Y1879549D1*
X2670062Y1884302D1*
Y1889111D1*
X2667685Y1893864D1*
X2665254Y1896296D1*
X2658068Y1898673D1*
X2636569D1*
Y1848433D1*
X2653315Y1874741D2*
X2670062Y1848433D1*
X2702248Y1898673D2*
Y1848433D1*
X2685501Y1898673D2*
X2718995D1*
X2802158Y1908207D2*
X2785467Y1838843D1*
X2816528Y1908207D2*
X2799781Y1838843D1*
X2785467Y1880710D2*
X2818905D1*
X2783035Y1866340D2*
X2816528D1*
X2834344Y1889056D2*
X2839152Y1891488D1*
X2846337Y1898617D1*
Y1848433D1*
X2830333Y936062D2*
Y986302D1*
X2813586D1*
X2806401Y983871D1*
X2801593Y979117D1*
X2799216Y974309D1*
X2796840Y967179D1*
Y955186D1*
X2799216Y948001D1*
X2801593Y943247D1*
X2806401Y938439D1*
X2813586Y936062D1*
X2830333D1*
X2750339D2*
X2781400D1*
X2781401Y986302D1*
X2750339D1*
X2781400Y959994D2*
X2762277D1*
X2701406Y936062D2*
Y986302D1*
X2734900Y936062D1*
Y986302D1*
X2685967Y936062D2*
Y986302D1*
X2669221D1*
X2662035Y983871D1*
X2657227Y979117D1*
X2654850Y974309D1*
X2652474Y967179D1*
Y955186D1*
X2654850Y948001D1*
X2657227Y943247D1*
X2662035Y938439D1*
X2669221Y936062D1*
X2685967D1*
X2637035D2*
X2617911Y959994D1*
Y986302D1*
X2598788Y936062D2*
X2617911Y959994D1*
X2534748Y962371D2*
X2513193D1*
X2506063Y959994D1*
X2503631Y957562D1*
X2501255Y952809D1*
Y945624D1*
X2503631Y940871D1*
X2506063Y938439D1*
X2513193Y936062D1*
X2534748D1*
Y986302D1*
X2471445Y936062D2*
X2476254Y938439D1*
X2481007Y943247D1*
X2483439Y948001D1*
X2485815Y955186D1*
Y967179D1*
X2483439Y974309D1*
X2481007Y979117D1*
X2476254Y983871D1*
X2471445Y986302D1*
X2461884D1*
X2457130Y983871D1*
X2452322Y979117D1*
X2449945Y974309D1*
X2447569Y967179D1*
Y955186D1*
X2449945Y948001D1*
X2452322Y943247D1*
X2457130Y938439D1*
X2461884Y936062D1*
X2471445D1*
X2432130Y959994D2*
X2410630D1*
X2403445Y957562D1*
X2401013Y955186D1*
X2398636Y950432D1*
Y945624D1*
X2401013Y940871D1*
X2403445Y938439D1*
X2410630Y936062D1*
X2432130D1*
Y986302D1*
X2415383Y959994D2*
X2398636Y986302D1*
X2366450Y936062D2*
Y986302D1*
X2383197Y936062D2*
X2349704D1*
X2266540Y926528D2*
X2283232Y995892D1*
X2252170Y926528D2*
X2268917Y995892D1*
X2283232Y954025D2*
X2249793D1*
X2285663Y968395D2*
X2252170D1*
X2231922Y948056D2*
Y945679D1*
X2229546Y940871D1*
X2227169Y938494D1*
X2222361Y936118D1*
X2212799D1*
X2208046Y938494D1*
X2205669Y940871D1*
X2203237Y945679D1*
Y950432D1*
X2205669Y955241D1*
X2210423Y962371D1*
X2234354Y986302D1*
X2200861D1*
M02*
