G04 DipTrace 2.4.0.2*
%INTopSilk.gbr*%
%MOIN*%
%ADD10C,0.0098*%
%ADD20C,0.0197*%
%ADD29O,0.0164X0.0165*%
%ADD32C,0.0154*%
%ADD69C,0.0077*%
%ADD70C,0.0062*%
%ADD71C,0.0139*%
%FSLAX44Y44*%
G04*
G70*
G90*
G75*
G01*
%LNTopSilk*%
%LPD*%
X29694Y11612D2*
D10*
X29930D1*
X29812Y11730D2*
Y11494D1*
X28812Y10313D2*
G02X28812Y10313I1000J0D01*
G01*
X33936Y12530D2*
Y15600D1*
Y12530D2*
X33444D1*
X32113D2*
X31271D1*
X30235Y12884D2*
Y13159D1*
Y14970D2*
Y15246D1*
X31271Y15600D2*
X32113D1*
X33444D2*
X33936D1*
D20*
X29901Y13435D3*
X4736Y17058D2*
D10*
X4263D1*
X4736Y12683D2*
X4263D1*
X25582Y13675D2*
X23298D1*
Y11392D1*
X25582D1*
Y13675D1*
D29*
X25893Y14192D3*
G36*
X25582Y13675D2*
X25267D1*
X25582Y13360D1*
Y13675D1*
G37*
D32*
X21697Y17302D3*
X22188Y17356D2*
D10*
Y17652D1*
X26676Y15722D2*
Y16018D1*
X22188Y15722D2*
X26676D1*
X22188D2*
Y16018D1*
X26676Y17356D2*
Y17652D1*
X22188D2*
X26676D1*
X27735Y12235D2*
D69*
X27688Y12211D1*
X27640Y12163D1*
X27616Y12116D1*
Y12020D1*
X27640Y11972D1*
X27688Y11924D1*
X27735Y11900D1*
X27807Y11876D1*
X27927D1*
X27998Y11900D1*
X28047Y11924D1*
X28094Y11972D1*
X28118Y12020D1*
Y12116D1*
X28094Y12163D1*
X28047Y12211D1*
X27998Y12235D1*
X27712Y12389D2*
X27688Y12438D1*
X27617Y12509D1*
X28118D1*
X27716Y13878D2*
X27669Y13854D1*
X27621Y13806D1*
X27597Y13758D1*
Y13663D1*
X27621Y13615D1*
X27669Y13567D1*
X27716Y13543D1*
X27788Y13519D1*
X27908D1*
X27979Y13543D1*
X28027Y13567D1*
X28075Y13615D1*
X28099Y13663D1*
Y13758D1*
X28075Y13806D1*
X28027Y13854D1*
X27979Y13878D1*
X27717Y14056D2*
X27693D1*
X27645Y14080D1*
X27621Y14104D1*
X27597Y14152D1*
Y14248D1*
X27621Y14295D1*
X27645Y14319D1*
X27693Y14343D1*
X27741D1*
X27789Y14319D1*
X27860Y14271D1*
X28099Y14032D1*
Y14367D1*
X21003Y15438D2*
X20979Y15485D1*
X20931Y15533D1*
X20883Y15557D1*
X20788D1*
X20740Y15533D1*
X20692Y15485D1*
X20668Y15438D1*
X20644Y15366D1*
Y15246D1*
X20668Y15175D1*
X20692Y15126D1*
X20740Y15079D1*
X20788Y15055D1*
X20883D1*
X20931Y15079D1*
X20979Y15126D1*
X21003Y15175D1*
X21205Y15556D2*
X21468D1*
X21324Y15365D1*
X21396D1*
X21444Y15341D1*
X21468Y15318D1*
X21492Y15246D1*
Y15198D1*
X21468Y15126D1*
X21420Y15078D1*
X21348Y15055D1*
X21276D1*
X21205Y15078D1*
X21181Y15103D1*
X21157Y15150D1*
X27741Y15438D2*
X27717Y15485D1*
X27669Y15533D1*
X27621Y15557D1*
X27526D1*
X27478Y15533D1*
X27430Y15485D1*
X27406Y15438D1*
X27382Y15366D1*
Y15246D1*
X27406Y15175D1*
X27430Y15126D1*
X27478Y15079D1*
X27526Y15055D1*
X27621D1*
X27669Y15079D1*
X27717Y15126D1*
X27741Y15175D1*
X28134Y15055D2*
Y15556D1*
X27895Y15222D1*
X28254D1*
X29747Y12343D2*
X29723Y12390D1*
X29675Y12438D1*
X29627Y12462D1*
X29532D1*
X29484Y12438D1*
X29436Y12390D1*
X29412Y12343D1*
X29388Y12271D1*
Y12151D1*
X29412Y12080D1*
X29436Y12032D1*
X29484Y11984D1*
X29532Y11960D1*
X29627D1*
X29675Y11984D1*
X29723Y12032D1*
X29747Y12080D1*
X30188Y12462D2*
X29949D1*
X29925Y12247D1*
X29949Y12270D1*
X30021Y12295D1*
X30092D1*
X30164Y12270D1*
X30212Y12223D1*
X30236Y12151D1*
Y12103D1*
X30212Y12032D1*
X30164Y11984D1*
X30092Y11960D1*
X30021D1*
X29949Y11984D1*
X29925Y12008D1*
X29901Y12055D1*
X31744Y16943D2*
Y16560D1*
X31720Y16489D1*
X31696Y16465D1*
X31648Y16440D1*
X31600D1*
X31553Y16465D1*
X31529Y16489D1*
X31505Y16560D1*
Y16608D1*
X32185Y16942D2*
X31947D1*
X31923Y16727D1*
X31947Y16751D1*
X32018Y16775D1*
X32090D1*
X32162Y16751D1*
X32210Y16704D1*
X32233Y16632D1*
Y16584D1*
X32210Y16512D1*
X32162Y16464D1*
X32090Y16440D1*
X32018D1*
X31947Y16464D1*
X31923Y16489D1*
X31898Y16536D1*
X5044Y15704D2*
X5547D1*
Y15991D1*
X5044Y16456D2*
Y16145D1*
X5547D1*
Y16456D1*
X5284Y16145D2*
Y16336D1*
X5044Y16610D2*
X5547D1*
Y16778D1*
X5523Y16849D1*
X5475Y16898D1*
X5427Y16921D1*
X5356Y16945D1*
X5236D1*
X5164Y16921D1*
X5116Y16898D1*
X5068Y16849D1*
X5044Y16778D1*
Y16610D1*
X5141Y17099D2*
X5116Y17148D1*
X5045Y17219D1*
X5547D1*
X4982Y11284D2*
X5484D1*
Y11571D1*
X4982Y12036D2*
Y11725D1*
X5484D1*
Y12036D1*
X5221Y11725D2*
Y11916D1*
X4982Y12190D2*
X5484D1*
Y12358D1*
X5460Y12429D1*
X5412Y12478D1*
X5364Y12501D1*
X5293Y12525D1*
X5173D1*
X5101Y12501D1*
X5054Y12478D1*
X5006Y12429D1*
X4982Y12358D1*
Y12190D1*
X5102Y12704D2*
X5078D1*
X5030Y12728D1*
X5006Y12751D1*
X4982Y12799D1*
Y12895D1*
X5006Y12943D1*
X5030Y12966D1*
X5078Y12991D1*
X5126D1*
X5174Y12966D1*
X5245Y12919D1*
X5484Y12679D1*
Y13014D1*
X6013Y16693D2*
X6228D1*
X6300Y16717D1*
X6324Y16741D1*
X6348Y16788D1*
Y16836D1*
X6324Y16884D1*
X6300Y16908D1*
X6228Y16932D1*
X6013D1*
Y16430D1*
X6181Y16693D2*
X6348Y16430D1*
X6503Y16836D2*
X6551Y16860D1*
X6623Y16931D1*
Y16430D1*
X5906Y12318D2*
X6121D1*
X6193Y12342D1*
X6217Y12366D1*
X6241Y12413D1*
Y12461D1*
X6217Y12509D1*
X6193Y12533D1*
X6121Y12557D1*
X5906D1*
Y12055D1*
X6073Y12318D2*
X6241Y12055D1*
X6419Y12437D2*
Y12461D1*
X6443Y12509D1*
X6467Y12533D1*
X6515Y12556D1*
X6611D1*
X6658Y12533D1*
X6682Y12509D1*
X6706Y12461D1*
Y12413D1*
X6682Y12365D1*
X6634Y12294D1*
X6395Y12055D1*
X6730D1*
X27906Y11694D2*
X28121D1*
X28192Y11718D1*
X28217Y11742D1*
X28240Y11789D1*
Y11837D1*
X28217Y11885D1*
X28192Y11909D1*
X28121Y11933D1*
X27906D1*
Y11431D1*
X28073Y11694D2*
X28240Y11431D1*
X28443Y11932D2*
X28705D1*
X28562Y11741D1*
X28634D1*
X28682Y11717D1*
X28705Y11694D1*
X28730Y11622D1*
Y11574D1*
X28705Y11502D1*
X28658Y11454D1*
X28586Y11431D1*
X28514D1*
X28443Y11454D1*
X28419Y11479D1*
X28395Y11526D1*
X24155Y15254D2*
Y14895D1*
X24179Y14823D1*
X24227Y14776D1*
X24299Y14751D1*
X24346D1*
X24418Y14776D1*
X24466Y14823D1*
X24490Y14895D1*
Y15254D1*
X24644Y15158D2*
X24692Y15182D1*
X24764Y15253D1*
Y14751D1*
X24104Y18384D2*
X24295Y18144D1*
Y17881D1*
X24486Y18384D2*
X24295Y18144D1*
X24641Y18288D2*
X24689Y18312D1*
X24760Y18383D1*
Y17881D1*
X31280Y11202D2*
D70*
X31452D1*
X31510Y11221D1*
X31529Y11240D1*
X31548Y11278D1*
Y11317D1*
X31529Y11355D1*
X31510Y11374D1*
X31452Y11393D1*
X31280D1*
Y10991D1*
X31414Y11202D2*
X31548Y10991D1*
X31939Y11336D2*
X31901Y11374D1*
X31844Y11393D1*
X31767D1*
X31710Y11374D1*
X31672Y11336D1*
Y11298D1*
X31691Y11259D1*
X31710Y11240D1*
X31748Y11221D1*
X31863Y11183D1*
X31901Y11164D1*
X31920Y11144D1*
X31939Y11106D1*
Y11049D1*
X31901Y11011D1*
X31844Y10991D1*
X31767D1*
X31710Y11011D1*
X31672Y11049D1*
X32197Y11393D2*
Y10991D1*
X32063Y11393D2*
X32331D1*
X8551Y14393D2*
D71*
X8509Y14479D1*
X8422Y14565D1*
X8337Y14608D1*
X8164D1*
X8078Y14565D1*
X7992Y14479D1*
X7949Y14393D1*
X7906Y14264D1*
Y14048D1*
X7949Y13919D1*
X7992Y13833D1*
X8078Y13747D1*
X8164Y13704D1*
X8337D1*
X8422Y13747D1*
X8509Y13833D1*
X8551Y13919D1*
X8829Y14608D2*
Y13704D1*
X9346D1*
X9624Y14608D2*
Y13962D1*
X9666Y13833D1*
X9753Y13747D1*
X9882Y13704D1*
X9968D1*
X10097Y13747D1*
X10184Y13833D1*
X10226Y13962D1*
Y14608D1*
X11107Y14479D2*
X11022Y14565D1*
X10892Y14608D1*
X10720D1*
X10591Y14565D1*
X10504Y14479D1*
Y14393D1*
X10548Y14306D1*
X10591Y14264D1*
X10676Y14221D1*
X10935Y14134D1*
X11022Y14092D1*
X11064Y14048D1*
X11107Y13962D1*
Y13833D1*
X11022Y13747D1*
X10892Y13704D1*
X10720D1*
X10591Y13747D1*
X10504Y13833D1*
X11687Y14608D2*
Y13704D1*
X11385Y14608D2*
X11988D1*
X12825D2*
X12266D1*
Y13704D1*
X12825D1*
X12266Y14177D2*
X12610D1*
X13103D2*
X13490D1*
X13619Y14221D1*
X13663Y14264D1*
X13706Y14349D1*
Y14436D1*
X13663Y14521D1*
X13619Y14565D1*
X13490Y14608D1*
X13103D1*
Y13704D1*
X13404Y14177D2*
X13706Y13704D1*
X13984Y14177D2*
X14371D1*
X14500Y14221D1*
X14544Y14264D1*
X14587Y14349D1*
Y14436D1*
X14544Y14521D1*
X14500Y14565D1*
X14371Y14608D1*
X13984D1*
Y13704D1*
X14285Y14177D2*
X14587Y13704D1*
X14864Y14177D2*
X15251D1*
X15381Y14221D1*
X15425Y14264D1*
X15467Y14349D1*
Y14436D1*
X15425Y14521D1*
X15381Y14565D1*
X15251Y14608D1*
X14864D1*
Y13704D1*
X15166Y14177D2*
X15467Y13704D1*
X15788Y13790D2*
X15745Y13746D1*
X15788Y13704D1*
X15832Y13746D1*
X15788Y13790D1*
X16755Y14393D2*
X16713Y14479D1*
X16626Y14565D1*
X16540Y14608D1*
X16368D1*
X16282Y14565D1*
X16196Y14479D1*
X16153Y14393D1*
X16110Y14264D1*
Y14048D1*
X16153Y13919D1*
X16196Y13833D1*
X16282Y13747D1*
X16368Y13704D1*
X16540D1*
X16626Y13747D1*
X16713Y13833D1*
X16755Y13919D1*
X17292Y14608D2*
X17205Y14565D1*
X17120Y14479D1*
X17076Y14393D1*
X17033Y14264D1*
Y14048D1*
X17076Y13919D1*
X17120Y13833D1*
X17205Y13747D1*
X17292Y13704D1*
X17464D1*
X17550Y13747D1*
X17636Y13833D1*
X17679Y13919D1*
X17722Y14048D1*
Y14264D1*
X17679Y14393D1*
X17636Y14479D1*
X17550Y14565D1*
X17464Y14608D1*
X17292D1*
X18688Y13704D2*
Y14608D1*
X18344Y13704D1*
X18000Y14608D1*
Y13704D1*
X7092Y18915D2*
D69*
X7044Y18963D1*
X6973Y18987D1*
X6877D1*
X6805Y18963D1*
X6757Y18915D1*
Y18867D1*
X6781Y18819D1*
X6805Y18795D1*
X6853Y18772D1*
X6996Y18724D1*
X7044Y18700D1*
X7068Y18676D1*
X7092Y18628D1*
Y18556D1*
X7044Y18509D1*
X6973Y18484D1*
X6877D1*
X6805Y18509D1*
X6757Y18556D1*
X7557Y18987D2*
X7246D1*
Y18484D1*
X7557D1*
X7246Y18747D2*
X7438D1*
X8070Y18867D2*
X8046Y18915D1*
X7998Y18963D1*
X7951Y18987D1*
X7855D1*
X7807Y18963D1*
X7759Y18915D1*
X7735Y18867D1*
X7711Y18795D1*
Y18676D1*
X7735Y18604D1*
X7759Y18556D1*
X7807Y18509D1*
X7855Y18484D1*
X7951D1*
X7998Y18509D1*
X8046Y18556D1*
X8070Y18604D1*
Y18676D1*
X7951D1*
X8607Y18484D2*
X8416Y18987D1*
X8224Y18484D1*
X8296Y18652D2*
X8536D1*
X9630Y18484D2*
Y18987D1*
X9439Y18484D1*
X9248Y18987D1*
Y18484D1*
X9785Y18987D2*
Y18484D1*
X9952D1*
X10024Y18509D1*
X10072Y18556D1*
X10096Y18604D1*
X10120Y18676D1*
Y18795D1*
X10096Y18867D1*
X10072Y18915D1*
X10024Y18963D1*
X9952Y18987D1*
X9785D1*
X10760Y18724D2*
X10976D1*
X11047Y18747D1*
X11071Y18772D1*
X11095Y18819D1*
Y18891D1*
X11071Y18939D1*
X11047Y18963D1*
X10976Y18987D1*
X10760D1*
Y18484D1*
X11393Y18987D2*
X11345Y18963D1*
X11297Y18915D1*
X11273Y18867D1*
X11249Y18795D1*
Y18676D1*
X11273Y18604D1*
X11297Y18556D1*
X11345Y18509D1*
X11393Y18484D1*
X11489D1*
X11536Y18509D1*
X11584Y18556D1*
X11608Y18604D1*
X11632Y18676D1*
Y18795D1*
X11608Y18867D1*
X11584Y18915D1*
X11536Y18963D1*
X11489Y18987D1*
X11393D1*
X11786Y18747D2*
X12001D1*
X12073Y18772D1*
X12097Y18795D1*
X12121Y18843D1*
Y18891D1*
X12097Y18939D1*
X12073Y18963D1*
X12001Y18987D1*
X11786D1*
Y18484D1*
X11954Y18747D2*
X12121Y18484D1*
X12443Y18987D2*
Y18484D1*
X12276Y18987D2*
X12610D1*
X13442Y19082D2*
X13275Y18388D1*
X13586Y19082D2*
X13418Y18388D1*
X13275Y18807D2*
X13610D1*
X13251Y18663D2*
X13586D1*
X13764Y18891D2*
X13812Y18915D1*
X13884Y18986D1*
Y18484D1*
X13688Y9495D2*
X13736Y9447D1*
X13808Y9423D1*
X13903D1*
X13975Y9447D1*
X14023Y9495D1*
Y9543D1*
X13999Y9591D1*
X13975Y9614D1*
X13928Y9638D1*
X13784Y9686D1*
X13736Y9710D1*
X13712Y9734D1*
X13688Y9782D1*
Y9854D1*
X13736Y9901D1*
X13808Y9926D1*
X13903D1*
X13975Y9901D1*
X14023Y9854D1*
X13223Y9423D2*
X13534D1*
Y9926D1*
X13223D1*
X13534Y9662D2*
X13343D1*
X12710Y9543D2*
X12734Y9495D1*
X12782Y9447D1*
X12830Y9423D1*
X12925D1*
X12973Y9447D1*
X13021Y9495D1*
X13045Y9543D1*
X13069Y9614D1*
Y9734D1*
X13045Y9806D1*
X13021Y9854D1*
X12973Y9901D1*
X12925Y9926D1*
X12830D1*
X12782Y9901D1*
X12734Y9854D1*
X12710Y9806D1*
Y9734D1*
X12830D1*
X12173Y9926D2*
X12365Y9423D1*
X12556Y9926D1*
X12484Y9758D2*
X12245D1*
X11150Y9926D2*
Y9423D1*
X11341Y9926D1*
X11533Y9423D1*
Y9926D1*
X10996Y9423D2*
Y9926D1*
X10828D1*
X10756Y9901D1*
X10708Y9854D1*
X10685Y9806D1*
X10661Y9734D1*
Y9614D1*
X10685Y9543D1*
X10708Y9495D1*
X10756Y9447D1*
X10828Y9423D1*
X10996D1*
X10020Y9686D2*
X9805D1*
X9733Y9662D1*
X9709Y9638D1*
X9685Y9591D1*
Y9519D1*
X9709Y9471D1*
X9733Y9447D1*
X9805Y9423D1*
X10020D1*
Y9926D1*
X9387Y9423D2*
X9435Y9447D1*
X9483Y9495D1*
X9507Y9543D1*
X9531Y9614D1*
Y9734D1*
X9507Y9806D1*
X9483Y9854D1*
X9435Y9901D1*
X9387Y9926D1*
X9292D1*
X9244Y9901D1*
X9196Y9854D1*
X9172Y9806D1*
X9149Y9734D1*
Y9614D1*
X9172Y9543D1*
X9196Y9495D1*
X9244Y9447D1*
X9292Y9423D1*
X9387D1*
X8994Y9662D2*
X8779D1*
X8707Y9638D1*
X8683Y9614D1*
X8659Y9567D1*
Y9519D1*
X8683Y9471D1*
X8707Y9447D1*
X8779Y9423D1*
X8994D1*
Y9926D1*
X8827Y9662D2*
X8659Y9926D1*
X8337Y9423D2*
Y9926D1*
X8505Y9423D2*
X8170D1*
X7338Y9328D2*
X7505Y10021D1*
X7195Y9328D2*
X7362Y10021D1*
X7505Y9603D2*
X7171D1*
X7529Y9746D2*
X7195D1*
X6992Y9543D2*
Y9519D1*
X6968Y9471D1*
X6945Y9447D1*
X6896Y9424D1*
X6801D1*
X6753Y9447D1*
X6730Y9471D1*
X6705Y9519D1*
Y9567D1*
X6730Y9615D1*
X6777Y9686D1*
X7016Y9926D1*
X6681D1*
X22384Y18987D2*
Y18484D1*
X22551D1*
X22623Y18509D1*
X22671Y18556D1*
X22695Y18604D1*
X22719Y18676D1*
Y18795D1*
X22695Y18867D1*
X22671Y18915D1*
X22623Y18963D1*
X22551Y18987D1*
X22384D1*
X23184D2*
X22873D1*
Y18484D1*
X23184D1*
X22873Y18747D2*
X23064D1*
X23673Y18987D2*
Y18484D1*
X23338Y18987D1*
Y18484D1*
X23827Y18987D2*
Y18484D1*
X23995D1*
X24067Y18509D1*
X24115Y18556D1*
X24138Y18604D1*
X24162Y18676D1*
Y18795D1*
X24138Y18867D1*
X24115Y18915D1*
X24067Y18963D1*
X23995Y18987D1*
X23827D1*
X24317D2*
X24508Y18747D1*
Y18484D1*
X24699Y18987D2*
X24508Y18747D1*
X25340Y18724D2*
X25555D1*
X25626Y18747D1*
X25651Y18772D1*
X25674Y18819D1*
Y18891D1*
X25651Y18939D1*
X25626Y18963D1*
X25555Y18987D1*
X25340D1*
Y18484D1*
X25973Y18987D2*
X25924Y18963D1*
X25877Y18915D1*
X25853Y18867D1*
X25829Y18795D1*
Y18676D1*
X25853Y18604D1*
X25877Y18556D1*
X25924Y18509D1*
X25973Y18484D1*
X26068D1*
X26116Y18509D1*
X26164Y18556D1*
X26188Y18604D1*
X26211Y18676D1*
Y18795D1*
X26188Y18867D1*
X26164Y18915D1*
X26116Y18963D1*
X26068Y18987D1*
X25973D1*
X26366Y18747D2*
X26581D1*
X26653Y18772D1*
X26677Y18795D1*
X26701Y18843D1*
Y18891D1*
X26677Y18939D1*
X26653Y18963D1*
X26581Y18987D1*
X26366D1*
Y18484D1*
X26533Y18747D2*
X26701Y18484D1*
X27022Y18987D2*
Y18484D1*
X26855Y18987D2*
X27190D1*
X28022Y19082D2*
X27855Y18388D1*
X28165Y19082D2*
X27998Y18388D1*
X27855Y18807D2*
X28189D1*
X27830Y18663D2*
X28165D1*
X28343Y18891D2*
X28392Y18915D1*
X28463Y18986D1*
Y18484D1*
X28303Y9361D2*
Y9863D1*
X28136D1*
X28064Y9839D1*
X28016Y9791D1*
X27992Y9743D1*
X27968Y9672D1*
Y9552D1*
X27992Y9480D1*
X28016Y9432D1*
X28064Y9384D1*
X28136Y9361D1*
X28303D1*
X27503D2*
X27814D1*
Y9863D1*
X27503D1*
X27814Y9600D2*
X27623D1*
X27014Y9361D2*
Y9863D1*
X27349Y9361D1*
Y9863D1*
X26860Y9361D2*
Y9863D1*
X26692D1*
X26620Y9839D1*
X26572Y9791D1*
X26549Y9743D1*
X26525Y9672D1*
Y9552D1*
X26549Y9480D1*
X26572Y9432D1*
X26620Y9384D1*
X26692Y9361D1*
X26860D1*
X26370D2*
X26179Y9600D1*
Y9863D1*
X25988Y9361D2*
X26179Y9600D1*
X25347Y9624D2*
X25132D1*
X25061Y9600D1*
X25036Y9576D1*
X25013Y9528D1*
Y9456D1*
X25036Y9409D1*
X25061Y9384D1*
X25132Y9361D1*
X25347D1*
Y9863D1*
X24714Y9361D2*
X24763Y9384D1*
X24810Y9432D1*
X24834Y9480D1*
X24858Y9552D1*
Y9672D1*
X24834Y9743D1*
X24810Y9791D1*
X24763Y9839D1*
X24714Y9863D1*
X24619D1*
X24571Y9839D1*
X24523Y9791D1*
X24499Y9743D1*
X24476Y9672D1*
Y9552D1*
X24499Y9480D1*
X24523Y9432D1*
X24571Y9384D1*
X24619Y9361D1*
X24714D1*
X24321Y9600D2*
X24106D1*
X24034Y9576D1*
X24010Y9552D1*
X23986Y9504D1*
Y9456D1*
X24010Y9409D1*
X24034Y9384D1*
X24106Y9361D1*
X24321D1*
Y9863D1*
X24154Y9600D2*
X23986Y9863D1*
X23665Y9361D2*
Y9863D1*
X23832Y9361D2*
X23497D1*
X22665Y9265D2*
X22832Y9959D1*
X22522Y9265D2*
X22689Y9959D1*
X22832Y9540D2*
X22498D1*
X22857Y9684D2*
X22522D1*
X22319Y9481D2*
Y9457D1*
X22295Y9409D1*
X22272Y9385D1*
X22224Y9361D1*
X22128D1*
X22080Y9385D1*
X22057Y9409D1*
X22032Y9457D1*
Y9504D1*
X22057Y9552D1*
X22104Y9624D1*
X22344Y9863D1*
X22009D1*
M02*
